<svg xmlns="http://www.w3.org/2000/svg" viewBox="0 0 92.09 103.44">
    <defs>
        <style>
            .f11e2eaa-8681-4630-b729-d1d2deba3ee0 {
                fill: #2db21b;
            }
        </style>
    </defs>
    <title>prov_1</title>
    <g id="ed7447f9-338b-4f05-9ea5-5fdcf190fc97" data-name="Capa 2">
        <g id="b9ce42ce-042d-4c3b-be1b-b73e99bcd0fa" data-name="Capa 1">
            <path class="f11e2eaa-8681-4630-b729-d1d2deba3ee0"
                d="M61.07,80.77c-3.3-10-13.18-19.45-20-19.18l-1.63.64,1.73,1.86c1.31,2.22,1.14,3.44-2,3.37-5-.11-10,0-14.93.07-2.88-.11-3.12,2.07-3.66,4-1.34,1.75-.55,3.79-.9,5.65-.51,2.71,5.07,6.23-.28,7.83C14.36,86.5,8.72,88.94,5,81.22.25,71.44-1.16,61.71,1,51.3,6,34.52,16.74,21.37,29.63,9.75,48.55-7.31,74.51-1.33,83.36,22.56c-9.79,0-19.35.24-28.89-.07C47.08,22.25,41.8,24.9,38,32.22c14.36-5,28.57-2.15,42.51-3.34,6.32-.54,8.33,2.29,9.61,7.58,2.36,9.76,1.94,19.59,1.93,29.44-7.66,35-43.65,48.47-74.11,27.73.8-2.86,3.28-1.74,5-1.76,9.66-.13,19.32.06,29-.13,5.37-.11,10.29-1.27,10.27-8.07C62.56,82.43,61.87,81.58,61.07,80.77ZM76.33,51c-2.63,2.94-6.2,2.76-9.73,2.76-10.4,0-20.8-.05-31.2,0-7.25.06-11.44,4-13.63,10.56,6.73-5.32,14.49-4,22-4.09,8.63,0,17.25,0,25.87-.09,4.83-.06,8.32-2.1,9.34-7,.47-2.29-1.13-2.29-2.8-2,.79-1.17,2.72-2.28,1.58-3.76C73.34,41.65,68.81,36,64.07,30.57c-1.62-1.87-4.48-1.54-6.43-.69-3.49,1.51,1.71,3.63-.69,6.19-4.82,0-10.34.13-15.86,0-3-.1-4.28.64-4.93,3.86-.73,3.63.09,6.89,1,10.12.94,3.44,4.73,4,6.48,1.93,2.51-3,5.29-2.31,8.1-2.32C60,49.58,68.22,49,76.33,51Z" />
        </g>
    </g>
</svg>