<svg xmlns="http://www.w3.org/2000/svg" viewBox="0 0 166.73 40.64">
    <defs>
        <style>
            .e1ce9b26-e879-4663-a6c3-b0aaf573c835 {
                fill: #0e365a;
            }
        </style>
    </defs>
    <title>prov_2</title>
    <g id="ec3830c2-0101-4712-88c6-e9e484c4f7df" data-name="Capa 2">
        <g id="a320f3d8-c367-4225-a9d8-87493bd11850" data-name="Capa 1">
            <path class="e1ce9b26-e879-4663-a6c3-b0aaf573c835"
                d="M166.73,14.85c-.44,1.86-.89,3.72-1.32,5.58s-.79,3.44-1.18,5.15l-.53-.1c.25-1.63.55-3.25.74-4.88.22-1.86.31-3.73.51-5.59.17-1.61-.51-1.95-1.9-1.65-2.64.56-5.3,1-8.35,1.57L159,2.32c-9.35.69-17.5,3.87-25.17,8.66,5-5.47,20.83-11.67,27.87-10.92l-5.13,12.87,10.15-1.68Z" />
            <path class="e1ce9b26-e879-4663-a6c3-b0aaf573c835"
                d="M2.92,20.75h5.5l3.91,15.39a15.27,15.27,0,0,0,1.28-1.71c2.25-4.26,4.45-8.54,6.72-12.79a1.88,1.88,0,0,1,1.23-.93c1.7-.1,3.41,0,5,0a105.93,105.93,0,0,0-3.07,19.78H19.85l2.9-16-.47-.27a16.58,16.58,0,0,0-1.1,1.58c-2.3,4.23-4.66,8.43-6.81,12.74-.92,1.85-2,2.54-3.94,1.87L6.22,24l-.72.1-2,16.35H0C1.4,34,2.81,27.53,2.92,20.75Z" />
            <path class="e1ce9b26-e879-4663-a6c3-b0aaf573c835"
                d="M73.08,33.09A3.22,3.22,0,0,1,74.86,37a4.82,4.82,0,0,1-4.53,3.52c-3.35.12-6.7,0-9.86,0,.78-5,1.54-9.81,2.31-14.78,2.2,0,4.84-.09,7.47,0,1.66.08,3.65.41,4,2.37C74.44,29.59,73.56,31.2,73.08,33.09ZM67,38.73v.14a14.49,14.49,0,0,0,3.77-.58A3.13,3.13,0,0,0,72.32,36c0-.59-1-1.58-1.79-1.78a17.17,17.17,0,0,0-4.25-.38c-2.42,0-2.59.25-2.71,3.34-.09,2.31,1.57,1.29,2.56,1.52A3.52,3.52,0,0,0,67,38.73Zm-2.38-7a35.58,35.58,0,0,0,5.66-.1c.67-.11,1.46-1.38,1.58-2.22.06-.43-1.14-1.24-1.9-1.57a5.54,5.54,0,0,0-2.12-.07C64.73,27.82,64.36,28.26,64.61,31.77Z" />
            <path class="e1ce9b26-e879-4663-a6c3-b0aaf573c835"
                d="M46.87,25.49c2.86.16,6.07.24,9.25.56a3.24,3.24,0,0,1,3.12,3.38,4,4,0,0,1-2.83,4.26c-.44.16-.86.39-1.2.55,1.07,2.08,2.07,4,3.2,6.22h-3c-1-4.62-3.1-6.46-6.48-5.87-1.37.23-2,2.49-1.52,5.83H44.53C45.28,35.6,46,30.79,46.87,25.49Zm1.4,7a38.37,38.37,0,0,0,6.29-.11c.85-.15,1.75-1.36,2.18-2.31.21-.46-.55-2-1-2.07a19.35,19.35,0,0,0-6.48-.11C48.72,28,48.64,30.66,48.27,32.51Z" />
            <path class="e1ce9b26-e879-4663-a6c3-b0aaf573c835"
                d="M38.27,25.26l4.31,15.2H39.49c.49-2.66-1.12-2.81-3-2.66a26.17,26.17,0,0,1-3.43,0c-1.84-.11-3.4.11-3.15,2.71H26.26c2.95-4.75,5.77-9.47,8.81-14C35.56,25.73,37,25.7,38.27,25.26Zm-1.65,2.8L32,35.68c2.21,0,3.81.06,5.39-.06.31,0,.87-.85.8-1.19C37.81,32.51,37.27,30.63,36.62,28.06Z" />
            <path class="e1ce9b26-e879-4663-a6c3-b0aaf573c835"
                d="M124.84,40.48c.77-4.92,1.52-9.71,2.31-14.71h11.31l.18,2.12c-2.12-.1-4.1-.26-6.08-.29-3.37,0-3.5.14-3.55,4.18h7.05l.24.84a8.74,8.74,0,0,1-1.91,1.05,8.46,8.46,0,0,1-2.14.06c-4.18,0-4.18,0-4.32,4.78h10l-.55,2Z" />
            <path class="e1ce9b26-e879-4663-a6c3-b0aaf573c835"
                d="M79.68,38.54H89.3c-.25,2-.25,2.05-2.29,2.05H76.49L78.74,25.8H90l.23,1.8c-2.57,0-5,.11-7.49,0s-2,1.79-2.17,3.07c-.24,1.79,1.26,1.18,2.11,1.22,1.68.09,3.36,0,5,0l.24.72a8.2,8.2,0,0,1-1.94,1.06,9.67,9.67,0,0,1-2.35.06C79.74,33.72,79.5,34,79.68,38.54Z" />
            <path class="e1ce9b26-e879-4663-a6c3-b0aaf573c835"
                d="M119.27,28h-7.41l.65-2.2h11.08l-9,12.68h8c-.13,2.11-.13,2.12-2.19,2.13-3.27,0-6.55,0-10.33,0Z" />
            <path class="e1ce9b26-e879-4663-a6c3-b0aaf573c835"
                d="M91.65,40.46c.72-4.89,1.42-9.71,2.16-14.71h2.7c-.61,3.77-1.17,7.51-1.84,11.22-.24,1.35.19,1.78,1.41,1.76,2.25,0,4.5,0,6.89,0l-.32,1.74Z" />
            <path class="e1ce9b26-e879-4663-a6c3-b0aaf573c835"
                d="M107.16,40.48h-2.55c.76-4.81,1.51-9.61,2.3-14.66h2.64C108.77,30.59,108,35.45,107.16,40.48Z" />
            <path class="e1ce9b26-e879-4663-a6c3-b0aaf573c835"
                d="M144.25,20.51A3.34,3.34,0,0,1,141,17.08a3.44,3.44,0,0,1,3.42-3.52A3.53,3.53,0,0,1,147.71,17,3.43,3.43,0,0,1,144.25,20.51Z" />
            <path class="e1ce9b26-e879-4663-a6c3-b0aaf573c835"
                d="M151.42,39.35c-2-1.5-3-1.48-4.78.15q1.05-2.61,2.08-5.23l.64,0Z" />
            <path class="e1ce9b26-e879-4663-a6c3-b0aaf573c835"
                d="M140.8,39.19H143a8.72,8.72,0,0,0-1.18-2c-.75-.7-1.85-1.18-.82-2.43.73-.87,1.6-1.29,2.35-.08l-1.91.72c.43.5.88,1,1.28,1.51s1.23,1.3,1.17,1.87a2.35,2.35,0,0,1-1.48,1.64c-.59.11-1.32-.61-2-1Z" />
        </g>
    </g>
</svg>