<svg xmlns="http://www.w3.org/2000/svg" viewBox="0 0 126.87 116.96">
    <defs>
        <style>
            .a2395bac-e65b-47a8-b7e2-1aace1cca575 {
                fill: #6790ba;
            }

            .ac5a1a15-474f-43af-b5b2-925a981edaf0 {
                fill: #6890ba;
            }

            .bc473154-1e4f-4d42-96d5-115c4bc79604 {
                fill: #f8ba30;
            }

            .e6c3cc69-e723-4576-b3e7-c3084d2768ca {
                fill: #f7ba30;
            }

            .b6764e60-0b57-427b-a52d-2e8054105452 {
                fill: #f6b92f;
            }

            .b73f13d3-b94d-4024-8730-572891b6755d {
                fill: #110d03;
            }

            .b2da6a7c-4fb3-4df8-9489-f59446793797 {
                fill: #2a2008;
            }

            .a68d1dbe-25ea-4334-813a-ccb82ccc1859 {
                fill: #151004;
            }

            .b02f4209-9649-40b0-9b52-a0e325ab3677 {
                fill: #171207;
            }

            .b096e116-c286-496e-8d60-695c5e914081 {
                fill: #171307;
            }

            .a05605fb-824f-4854-81d7-9f6574621aea {
                fill: #45340e;
            }

            .a4e6daec-6c04-4451-8de8-78ebf40ea10a {
                fill: #171104;
            }

            .e8ce9118-3773-41ab-9a56-99742bdcd8e8 {
                fill: #120e06;
            }

            .a067daef-93d5-4d01-aa55-d74bb227fc3a {
                fill: #12110a;
            }

            .e16753bf-f0a1-4006-9129-ee703b688c83 {
                fill: #191305;
            }

            .afda4513-d111-4e14-9c98-c3d33481f2df {
                fill: #be8e24;
            }

            .fa5da25b-c2cd-4e0e-a5e9-0a4ef0577dd8 {
                fill: #a97f21;
            }

            .ac28ef18-b39d-4aaa-828c-f69434ac2bf2 {
                fill: #291f08;
            }

            .baf8d931-b911-4355-825b-2bfb7c79ecf3 {
                fill: #171204;
            }

            .bc8cfa6f-361c-4465-9285-79e0847965b4 {
                fill: #ecb12d;
            }

            .f9fc1d3f-bf7b-4665-98a7-136332261e1a {
                fill: #c89626;
            }

            .ba200e22-57a9-4382-8f1d-266b49ffadc6 {
                fill: #100c03;
            }

            .b8c15fd0-fa87-4cd0-9db2-a2f1d14cfdb8 {
                fill: #755816;
            }

            .b9f30ee3-a1e1-4d81-baa9-d50aaa2a58eb {
                fill: #664d14;
            }

            .f6c1072d-cd86-4f5a-99d9-e62d1b3b5f80 {
                fill: #5a7da1;
            }

            .a09ae3ab-3781-4414-9ffc-7ab6e37edadc {
                fill: #46350e;
            }

            .f5dca386-d656-4a93-bc42-3b15211f45d3 {
                fill: #2b2108;
            }

            .ed12232d-4c48-4c88-a11e-73aa584e8786 {
                fill: #2c2108;
            }

            .b52d85e0-3211-4205-8b3f-6c8f5b451cc0 {
                fill: #291f07;
            }

            .af2a228c-991a-45c3-be4c-44c260af2469 {
                fill: #42320d;
            }

            .ff9577fc-1f7a-4dee-9ebc-d1fa8817c9f7 {
                fill: #1d1605;
            }

            .e4ed21be-669f-47a2-8e23-482fc2925aa7 {
                fill: #b78a23;
            }

            .ad1e936b-0530-4311-b251-b78b84e1a460 {
                fill: #a67c20;
            }

            .b3255e11-af28-4c25-a2f7-61208d04fe3b {
                fill: #cc9927;
            }

            .fb780f96-3d23-4ae7-9b17-42994ecd639d {
                fill: #735716;
            }

            .b56ad90e-1ad2-4875-ae03-7260b61dc59c {
                fill: #d7a129;
            }

            .afba68df-5d51-468b-85d9-6b9a2fb04255 {
                fill: #7b5c17;
            }

            .af6ceece-5366-4d10-9322-62ae7b8fe160 {
                fill: #9c751e;
            }

            .b81aeab4-8d92-4e49-bac5-1b09e4e99a72 {
                fill: #a77d20;
            }

            .ae8b642d-10c6-48f2-8bc0-b647ee97a724 {
                fill: #715516;
            }

            .f8410b13-54de-4397-ad67-3d04ee8d8421 {
                fill: #eeb32e;
            }

            .ac1322ba-bad9-485f-b6f2-cc016fc049eb {
                fill: #d19d28;
            }

            .aaf940c3-f5f4-4d11-9959-87c0bd5df93e {
                fill: #c29125;
            }

            .fd918a38-353d-441f-9bc5-247381b1152c {
                fill: #ba8c24;
            }

            .a8476cb3-311e-4edd-bcef-204523bb69a1 {
                fill: #bc8d24;
            }

            .b179b4a4-3a54-40b1-8d78-5e55b273fb21 {
                fill: #e8ae2d;
            }

            .b2861392-ee83-4854-979e-40d420f4da37 {
                fill: #d19e28;
            }

            .ac128b70-2fe3-4a90-99a8-be4738914b90 {
                fill: #6f5315;
            }

            .a6286ab4-d2b1-4258-8d36-b08d278a8753 {
                fill: #775917;
            }

            .f35f4e1c-0dfa-4ce8-b41b-e92fb4dbd291 {
                fill: #4e3b0f;
            }

            .aa5abf07-35d3-4e2b-a381-eef6f8a587cd {
                fill: #7c5d18;
            }

            .fe0fed97-6481-4afc-a283-10dadbef5be4 {
                fill: #f5b82f;
            }

            .b0a503f1-789c-4a5e-9ccd-ce2c28edab44 {
                fill: #cd9a27;
            }

            .bd8e2b7f-082f-468f-9313-91ab3c36e430 {
                fill: #634b13;
            }

            .abb8eba7-c014-45ee-b14b-2e25ae709c03 {
                fill: #efb32e;
            }

            .aa6e3c7f-f350-42b9-87d2-4cfc0e60546a {
                fill: #5f4812;
            }

            .b9b170db-adc2-4c83-81b7-704c1b71197d {
                fill: #9d761e;
            }

            .faffce47-a5b6-444f-a873-c972a71e3fec {
                fill: #674d14;
            }

            .f70e7cc7-eccd-4a14-b485-dd647d4b8d24 {
                fill: #95701d;
            }

            .bcade4df-0de1-444c-8160-847a1db45836 {
                fill: #87661a;
            }

            .f04dd65e-626f-447c-9820-85abb3bb3f42 {
                fill: #36280a;
            }

            .b9cd4712-f166-4991-895f-29f5059c9650 {
                fill: #2c2208;
            }

            .a53c390c-5186-4723-9386-9c06a8a80261 {
                fill: #eeb32d;
            }

            .b1c30e6f-b3e0-4536-bdc9-b391270a7f12 {
                fill: #604813;
            }

            .a7cb741f-42da-4a0a-84c8-409b059ff4aa {
                fill: #594311;
            }

            .bce32bdb-3c95-4677-aa60-9dec93a9062f {
                fill: #7e5f18;
            }

            .a032efc9-24cb-4527-aa1b-012cbf11ae3c {
                fill: #cc9a27;
            }

            .a6e032e7-579f-40de-bb93-620133db373d {
                fill: #564111;
            }

            .a8324719-adfe-4499-9e63-e85f2da72cf8 {
                fill: #aa7f21;
            }

            .acd1b2cd-669d-4688-bd51-e162f85e31bf {
                fill: #533f10;
            }

            .e10c35f5-0e4c-4344-9c33-23c68a921314 {
                fill: #543f10;
            }

            .ac118a87-38dd-4d60-a8ac-7aaab471e9ed {
                fill: #41310d;
            }

            .f736745d-9afb-439e-aeb4-1bf70d41785e {
                fill: #765816;
            }

            .af65e912-9a96-4abb-bd0c-f4b7ebc55b92 {
                fill: #3a5168;
            }

            .b1d4d72b-fbad-48a4-bd64-e5d56adaa9ba {
                fill: #725516;
            }

            .bcd59ea4-0c89-4f0a-822c-9856a6a76c69 {
                fill: #3b2c0b;
            }

            .b16a8f27-d8cd-4c2e-ae7c-37316f3f6403 {
                fill: #99731d;
            }

            .fbedfa1c-eb12-4f7e-adc0-d423659d487a {
                fill: #9b741e;
            }

            .af9cc06d-961f-427a-b4ba-ba936c713fa4 {
                fill: #644b13;
            }

            .ee7f6d98-cd7f-4297-9106-d63982f2c64b {
                fill: #2f2409;
            }

            .eb9f2c6d-fc66-44b8-8987-f9186e4b6b7a {
                fill: #ebb02d;
            }

            .ac160e0b-a62c-4b79-a06a-0060a1b9fd28 {
                fill: #b48723;
            }

            .f95662c9-e411-40ac-a7c8-e75ade787048 {
                fill: #95701c;
            }

            .ed717491-2ae1-46d3-934d-f155b9e73be9 {
                fill: #fdfdfd;
            }

            .ab9b30e3-1ad0-4016-b1b8-853feaae0780 {
                fill: #fcfcfc;
            }

            .b863687b-1cdd-4156-bd8d-6dc77ec82f06 {
                fill: #fbfbfc;
            }

            .ef0e2cbf-5586-41bc-be8d-c874758859a0 {
                fill: #fbfbfb;
            }

            .b95ddd54-ae0f-443f-b70e-5c1296b3c4e2 {
                fill: #f8f8f8;
            }

            .ab5bb791-ffdb-4011-aadb-342d5c9aac9d {
                fill: #010101;
            }

            .bcb49008-02e4-416a-bb7f-461f98e76cb3 {
                fill: #0b0b0b;
            }

            .bbc142ad-3775-4302-a492-a181828b9763 {
                fill: #090909;
            }

            .a7537027-9d2f-414f-8339-0f7d0184cba7 {
                fill: #080808;
            }
        </style>
    </defs>
    <title>prov_3</title>
    <g id="a4cbdf55-979d-4f09-853b-b9120e9da64b" data-name="Capa 2">
        <g id="ec197155-c44c-4cbb-be74-ad7e70059a85" data-name="Capa 1">
            <path class="a2395bac-e65b-47a8-b7e2-1aace1cca575"
                d="M63.41,116.93q-31,0-61.93,0C.3,117,0,116.66,0,115.48c.06-6.62.05-13.24,0-19.86,0-1.08.16-1.47,1.38-1.47q62.05.06,124.11,0c1.09,0,1.37.29,1.36,1.37,0,6.62-.06,13.24,0,19.86,0,1.22-.26,1.57-1.54,1.57Q94.37,116.89,63.41,116.93Z" />
            <path class="ac5a1a15-474f-43af-b5b2-925a981edaf0"
                d="M68.31,59a20.57,20.57,0,0,0,2.88-6.19c1-4.61-.81-8.4-3.64-11.82a26.73,26.73,0,0,0-8.31-6.33c-1.37-.72-2.77-1.4-4.1-2.2a1.1,1.1,0,0,0-1.63.21c-4,4.11-8.09,8.18-12.14,12.26l-.65.64c-.17.17-.34.23-.54,0a.38.38,0,0,1,0-.57c.23-.26.48-.5.72-.75,3.93-4,7.84-7.95,11.8-11.87.79-.78.57-1.06-.23-1.57A43.07,43.07,0,0,1,43,23c-4.61-5.21-6.92-11.18-6.31-18.19a.27.27,0,0,1,.46,0c2.47,7.34,7.45,12.44,14.27,15.85C54,21.89,56.7,23,59.32,24.19a1.33,1.33,0,0,0,1.79-.36q4.44-4.54,9-9c.24-.24.46-1,1-.43s-.18.73-.44,1c-2.88,2.94-5.75,5.87-8.67,8.77-.68.66-.62.94.24,1.29A57.27,57.27,0,0,1,69,28.76c8.09,4.6,10.43,11.42,6.77,20a35.08,35.08,0,0,1-7.18,10.54C68.35,59.35,68.24,59.25,68.31,59Z" />
            <path class="bc473154-1e4f-4d42-96d5-115c4bc79604"
                d="M22.61,62.88A63.58,63.58,0,0,0,11.81,66a15.45,15.45,0,0,0-3.93,2.23c-2.12,1.77-2.11,3.67,0,5.41a19.29,19.29,0,0,0,6,3,92.66,92.66,0,0,0,18,3.87A244.52,244.52,0,0,0,71,82.36C83.63,82,96.25,81.07,108.61,78a32.53,32.53,0,0,0,8.94-3.36c4-2.38,4-5,0-7.31-3.74-2.19-7.92-3.16-12.08-4.14l-1.27-.29a.17.17,0,0,1,0-.17c0-.05,0-.08.06-.08a53.43,53.43,0,0,1,11.14,2.25,30,30,0,0,1,8.83,3.62c1.29.85,2.58,1.75,2.67,3.58a3.62,3.62,0,0,1-1.57,3.1A23.12,23.12,0,0,1,117.38,79a112.29,112.29,0,0,1-20.54,4.14A277.31,277.31,0,0,1,54.5,84.92c-12.8-.37-25.55-1.36-38.1-4.1a50.17,50.17,0,0,1-12-3.91,11.45,11.45,0,0,1-3.18-2.2,3.2,3.2,0,0,1,0-4.92,12.15,12.15,0,0,1,4-2.61,67.09,67.09,0,0,1,16.68-4.56C22.12,62.58,22.51,62.27,22.61,62.88Z" />
            <path class="bc473154-1e4f-4d42-96d5-115c4bc79604"
                d="M32,63.91a31.74,31.74,0,0,0-5.25,1.84,8.57,8.57,0,0,0-2.17,1.4,2,2,0,0,0,0,3.34,11.26,11.26,0,0,0,4.19,2.27,71.45,71.45,0,0,0,15.86,3.15,180,180,0,0,0,32.91.48c6.82-.52,13.61-1.28,20.17-3.34a14.08,14.08,0,0,0,4.76-2.29q2.39-1.92,0-3.84a17.52,17.52,0,0,0-6-2.69,7.3,7.3,0,0,1-1.18-.44c2.09-.2,4,.59,5.92,1.15a16.62,16.62,0,0,1,5.5,2.54c1.89,1.42,1.93,3,0,4.45-2.5,1.9-5.49,2.7-8.47,3.42a131.16,131.16,0,0,1-25,3.14A198,198,0,0,1,46,78c-7.15-.63-14.27-1.49-21.11-3.86a13.5,13.5,0,0,1-4.35-2.23c-1.71-1.42-1.7-2.94.06-4.3a17,17,0,0,1,5.72-2.66,31.82,31.82,0,0,1,4.89-1.23C31.48,63.61,31.85,63.31,32,63.91Z" />
            <path class="bc473154-1e4f-4d42-96d5-115c4bc79604"
                d="M88.14,64.43a14.92,14.92,0,0,1,5,1.79c2.21,1.29,2.21,2.74,0,4a23.46,23.46,0,0,1-7.85,2.49,131,131,0,0,1-35,1.14,62.42,62.42,0,0,1-13.22-2.4,10.26,10.26,0,0,1-3.59-1.75c-1.21-1-1.24-2,0-3a13.37,13.37,0,0,1,5.7-2.3c.24-.05.54-.25.56.23a25.13,25.13,0,0,0-2.59,1.15c-2,1.15-2,2.45.05,3.63a17,17,0,0,0,5,1.77,103.56,103.56,0,0,0,25.51,2,85.74,85.74,0,0,0,17.35-2,17,17,0,0,0,5.21-1.88c1.8-1.11,1.8-2.3,0-3.44a14.93,14.93,0,0,0-2.7-1.23C87.59,64.18,87.89,64.37,88.14,64.43Z" />
            <path class="ac5a1a15-474f-43af-b5b2-925a981edaf0"
                d="M46.57,0a7.88,7.88,0,0,1,1.54.13c1.61.44,3,1.23,3.37,3a3.89,3.89,0,0,1-1.82,4.12,7,7,0,0,1-6.64,1A3.72,3.72,0,0,1,40.2,5.25a3.92,3.92,0,0,1,1.67-3.71A6.5,6.5,0,0,1,46.57,0Z" />
            <path class="e6c3cc69-e723-4576-b3e7-c3084d2768ca"
                d="M63.75,68.82a34.66,34.66,0,0,1-6.84-.71,8.42,8.42,0,0,1-1.11-.35c-.28-.11-.6-.27-.63-.6s.36-.55.67-.69a12.45,12.45,0,0,1,3.91-.81,36.28,36.28,0,0,1,10.71.4c.73.16,1.88.18,1.91,1s-1.11.87-1.82,1.06A33.23,33.23,0,0,1,63.75,68.82Z" />
            <path class="b6764e60-0b57-427b-a52d-2e8054105452"
                d="M80.35,65.19c.49.17,1,.32,1.46.52.68.3,1.44.67,1.46,1.49s-.75,1.19-1.42,1.52A16,16,0,0,1,77.53,70a77.78,77.78,0,0,1-29.25-.34,11.71,11.71,0,0,1-2.93-1C44.73,68.34,44,68,44,67.2s.72-1.14,1.36-1.44,1-.38,1.57-.57c.27-.1.35,0,.31.28-.54.39-1.37.6-1.25,1.46s.84,1.06,1.47,1.32a29.89,29.89,0,0,0,9.34,1.86,73.06,73.06,0,0,0,19-.71,16.59,16.59,0,0,0,4-1.13c.65-.3,1.46-.57,1.5-1.43s-.72-1-1.23-1.37C80,65.22,80.08,65.09,80.35,65.19Z" />
            <path class="b73f13d3-b94d-4024-8730-572891b6755d"
                d="M55.35,59.53c2.06-.58,4.15-.1,6.22-.17-2.06.38-4.17-.14-6.22.43-.09-.06-.11-.11-.09-.17S55.32,59.53,55.35,59.53Z" />
            <path class="b2da6a7c-4fb3-4df8-9489-f59446793797"
                d="M72.76,59.54c1.9.11,3.83-.29,5.71.27.08,0,.11.1.08.15s0,.07-.07.07a33.21,33.21,0,0,0-5.72-.25c-.09-.05-.12-.1-.09-.16S72.73,59.54,72.76,59.54Z" />
            <path class="a68d1dbe-25ea-4334-813a-ccb82ccc1859"
                d="M56.39,62.13c1.8-.58,3.63-.07,5.44-.18-1.8.38-3.66-.11-5.45.43-.08-.05-.11-.11-.08-.16S56.36,62.13,56.39,62.13Z" />
            <path class="b02f4209-9649-40b0-9b52-a0e325ab3677"
                d="M70.94,62.38c-1.63-.46-3.3-.17-5-.25-.08-.06-.11-.12-.08-.17s.06-.09.09-.09c1.64.08,3.31-.26,4.94.27.08,0,.11.1.08.16S71,62.38,70.94,62.38Z" />
            <path class="a68d1dbe-25ea-4334-813a-ccb82ccc1859"
                d="M57.68,63.44c1.54-.5,3.11-.18,4.67-.17-1.55.26-3.14,0-4.67.41-.08,0-.11-.11-.08-.16S57.65,63.44,57.68,63.44Z" />
            <path class="b096e116-c286-496e-8d60-695c5e914081"
                d="M67.81,60.32c1.3.9,2.78.36,4.17.52.08,0,.11.11.08.16s0,.08-.08.08a22.21,22.21,0,0,1-4.68-.25.21.21,0,0,1-.1-.18c0-.07,0-.11,0-.11S67.53,60.15,67.81,60.32Z" />
            <path class="a05605fb-824f-4854-81d7-9f6574621aea"
                d="M78.48,60a1.62,1.62,0,0,1,0-.22,14.58,14.58,0,0,1,4.22.28C81.28,59.93,79.88,60.1,78.48,60Z" />
            <path class="a4e6daec-6c04-4451-8de8-78ebf40ea10a"
                d="M69.38,63.68c-1.43-.56-2.95,0-4.4-.43,1.47.09,3-.41,4.39.18.09.06.13.11.1.16S69.41,63.68,69.38,63.68Z" />
            <path class="e8ce9118-3773-41ab-9a56-99742bdcd8e8"
                d="M67.55,59.77c-1.25-.59-2.61,0-3.88-.46h4.22C68,59.58,68,59.88,67.55,59.77Z" />
            <path class="a067daef-93d5-4d01-aa55-d74bb227fc3a"
                d="M67.3,60.69v.14c-1.14.53-2.23-.35-3.36-.25h3C67.13,60.44,67.25,60.47,67.3,60.69Z" />
            <path class="e16753bf-f0a1-4006-9129-ee703b688c83"
                d="M54.56,60.84H59c-1.44.57-2.95.13-4.42.25-.08,0-.1-.11-.08-.16S54.54,60.84,54.56,60.84Z" />
            <path class="afda4513-d111-4e14-9c98-c3d33481f2df"
                d="M22.61,62.88c-.19-.31-.54-.15-.8-.26a8.49,8.49,0,0,1,2.4-.45c.15.15.44,0,.55.26A6.31,6.31,0,0,1,22.61,62.88Z" />
            <path class="fa5da25b-c2cd-4e0e-a5e9-0a4ef0577dd8"
                d="M26.72,61.82a14.89,14.89,0,0,1,2.63-.44l.06.37L27,62.11C26.93,62,26.75,62,26.72,61.82Z" />
            <path class="ac28ef18-b39d-4aaa-828c-f69434ac2bf2"
                d="M52.49,59.79A14.09,14.09,0,0,0,48.6,60c-.09,0-.12-.11-.09-.16s.06-.08.09-.08c1.26-.54,2.59-.15,3.89-.26.09.06.12.11.09.16S52.52,59.79,52.49,59.79Z" />
            <path class="baf8d931-b911-4355-825b-2bfb7c79ecf3"
                d="M72.76,59.54a1,1,0,0,0,0,.24c-1.16.14-2.25-.29-3.69-.31C70.52,59,71.62,59.7,72.76,59.54Z" />
            <path class="bc8cfa6f-361c-4465-9285-79e0847965b4"
                d="M90.67,62.65a4.41,4.41,0,0,1,2.56.76l-2.55-.52c-.09,0-.13-.1-.1-.15S90.64,62.65,90.67,62.65Z" />
            <path class="a05605fb-824f-4854-81d7-9f6574621aea" d="M79.52,61.57l-3.41-.32a6.37,6.37,0,0,1,3.41.14Z" />
            <path class="f9fc1d3f-bf7b-4665-98a7-136332261e1a"
                d="M32,63.91c-.2-.29-.53-.15-.79-.24a6.4,6.4,0,0,1,2.12-.47c.1.09.26.1.3.26A4.46,4.46,0,0,1,32,63.91Z" />
            <path class="ba200e22-57a9-4382-8f1d-266b49ffadc6" d="M59,60.83c1.09-.58,2.23-.06,3.35,0Z" />
            <path class="b8c15fd0-fa87-4cd0-9db2-a2f1d14cfdb8"
                d="M40.52,60.53a22.06,22.06,0,0,0-2.81.16c.88-.58,1.88-.31,2.84-.37.06.06.08.11.05.15S40.55,60.53,40.52,60.53Z" />
            <path class="b9f30ee3-a1e1-4d81-baa9-d50aaa2a58eb"
                d="M86.52,60.53l-2.85-.33a4.76,4.76,0,0,1,2.85.14c.08,0,.11.09.08.13A.09.09,0,0,1,86.52,60.53Z" />
            <path class="f6c1072d-cd86-4f5a-99d9-e62d1b3b5f80"
                d="M67.3,60.69,67,60.58l.59-.81.34-.46.42-.34.32.32-.82,1Z" />
            <path class="a09ae3ab-3781-4414-9ffc-7ab6e37edadc"
                d="M43.92,60.07a7.29,7.29,0,0,1,2.86-.27c.08.05.11.11.08.16s0,.08-.08.08a11.9,11.9,0,0,0-2.86.25c-.08,0-.11-.1-.08-.15S43.89,60.07,43.92,60.07Z" />
            <path class="f5dca386-d656-4a93-bc42-3b15211f45d3"
                d="M57.68,63.44v.24a8.6,8.6,0,0,0-2.86.24c-.09-.05-.11-.1-.08-.15a.12.12,0,0,1,.09-.06C55.73,63.12,56.73,63.56,57.68,63.44Z" />
            <path class="ed12232d-4c48-4c88-a11e-73aa584e8786" d="M72,61.08a1,1,0,0,1,0-.24h2.79v.24Z" />
            <path class="b52d85e0-3211-4205-8b3f-6c8f5b451cc0" d="M56.39,62.13a2,2,0,0,1,0,.25H53.57v-.25Z" />
            <path class="af2a228c-991a-45c3-be4c-44c260af2469"
                d="M50.67,61.35a8.5,8.5,0,0,0-2.61.19c.79-.71,1.74-.35,2.61-.44.09,0,.12.11.09.16S50.7,61.35,50.67,61.35Z" />
            <path class="ff9577fc-1f7a-4dee-9ebc-d1fa8817c9f7" d="M52.49,59.79v-.25h2.86v.26Z" />
            <path class="e4ed21be-669f-47a2-8e23-482fc2925aa7" d="M41.4,63.81l2.09-.37c-.69.69-1.41.5-2,.77Z" />
            <path class="ad1e936b-0530-4311-b251-b78b84e1a460"
                d="M40.8,62.11c-.66.52-1.45.21-2.16.4.64-.59,1.43-.32,2.17-.39Z" />
            <path class="f5dca386-d656-4a93-bc42-3b15211f45d3"
                d="M54.56,60.84a1,1,0,0,1,0,.24,7.55,7.55,0,0,0-2.59.27c-.08-.06-.11-.12-.08-.17s0-.09.08-.09A5.7,5.7,0,0,1,54.56,60.84Z" />
            <path class="b3255e11-af28-4c25-a2f7-61208d04fe3b"
                d="M26.72,61.82l.31.29-1.56.23c-.16-.13-.43,0-.55-.23A4.42,4.42,0,0,1,26.72,61.82Z" />
            <path class="fb780f96-3d23-4ae7-9b17-42994ecd639d"
                d="M42.35,61.91A4.54,4.54,0,0,1,45,61.74l-2.66.35c-.08,0-.1-.08-.07-.12A.1.1,0,0,1,42.35,61.91Z" />
            <path class="b56ad90e-1ad2-4875-ae03-7260b61dc59c"
                d="M88.14,64.43l-.56.24-1.36-.44c0-.17.18-.16.28-.23A4.24,4.24,0,0,1,88.14,64.43Z" />
            <path class="afba68df-5d51-468b-85d9-6b9a2fb04255" d="M84.71,62.07l-2.4-.32a3.27,3.27,0,0,1,2.4.15Z" />
            <path class="af6ceece-5366-4d10-9322-62ae7b8fe160"
                d="M84.71,62.07V61.9a4.88,4.88,0,0,1,2.33.25c.08,0,.11.09.08.13s-.05.07-.08.07Z" />
            <path class="b81aeab4-8d92-4e49-bac5-1b09e4e99a72"
                d="M96.53,61.41c-.71.32-1.12,0-1.91-.11A2.06,2.06,0,0,1,96.53,61.41Z" />
            <path class="ae8b642d-10c6-48f2-8bc0-b647ee97a724"
                d="M74.31,64a3.71,3.71,0,0,1,2.08.26c.08,0,.11.1.08.14s0,.08-.07.08c-.67-.27-1.46,0-2.08-.5Z" />
            <path class="f8410b13-54de-4397-ad67-3d04ee8d8421"
                d="M100,61.86a3.15,3.15,0,0,1,1.8.32c-.79.3-1.29,0-1.8-.09q-.13-.08-.09-.15C100,61.88,100,61.86,100,61.86Z" />
            <path class="af2a228c-991a-45c3-be4c-44c260af2469"
                d="M54.83,63.71c0,.07,0,.14,0,.21a6.41,6.41,0,0,0-2.09.25c-.07-.06-.1-.1-.06-.14a.09.09,0,0,1,.08-.06C53.38,63.4,54.14,63.79,54.83,63.71Z" />
            <path class="ba200e22-57a9-4382-8f1d-266b49ffadc6" d="M66,61.87c0,.09,0,.17,0,.26H64v-.26Z" />
            <path class="ac1322ba-bad9-485f-b6f2-cc016fc049eb" d="M39.74,64.66l-.56-.23a1.71,1.71,0,0,1,1.66-.1Z" />
            <path class="aaf940c3-f5f4-4d11-9959-87c0bd5df93e"
                d="M80.35,65.28l-.41.19a4.75,4.75,0,0,1-1.8-.48A6.54,6.54,0,0,1,80.35,65.28Z" />
            <path class="fd918a38-353d-441f-9bc5-247381b1152c" d="M87,62.35v-.2a2,2,0,0,1,1.7.43Z" />
            <path class="a8476cb3-311e-4edd-bcef-204523bb69a1"
                d="M47.28,65.47,47,65.19a2.88,2.88,0,0,1,1.63-.48q.13.09.09.18s-.06.08-.09.08Z" />
            <path class="b179b4a4-3a54-40b1-8d78-5e55b273fb21"
                d="M100,61.86v.23l-1.81-.26a.16.16,0,0,1-.07-.16c0-.05,0-.08.06-.08A3.54,3.54,0,0,1,100,61.86Z" />
            <path class="b2861392-ee83-4854-979e-40d420f4da37" d="M85,63.88,83,63.62a2.25,2.25,0,0,1,2,.14Z" />
            <path class="ac128b70-2fe3-4a90-99a8-be4738914b90"
                d="M93.85,60.85c.05,0,.25.11.28.22s-.16.26-.32.26-.46,0-.45-.3S93.58,60.84,93.85,60.85Z" />
            <path class="a6286ab4-d2b1-4258-8d36-b08d278a8753"
                d="M37.62,62.67c-.12.23-.32.23-.53.2s-.36-.17-.23-.31a1,1,0,0,1,.58-.14A.18.18,0,0,1,37.62,62.67Z" />
            <path class="f35f4e1c-0dfa-4ce8-b41b-e92fb4dbd291" d="M74.32,63.94H72.54c.6-.19,1.21-.48,1.77,0Z" />
            <path class="aa5abf07-35d3-4e2b-a381-eef6f8a587cd"
                d="M90.67,62.65a.29.29,0,0,0,0,.24,1.23,1.23,0,0,1-1.25-.32C89.89,62.23,90.28,62.43,90.67,62.65Z" />
            <path class="fe0fed97-6481-4afc-a283-10dadbef5be4"
                d="M104.18,62.62a2.09,2.09,0,0,1,0,.25c-.48.19-.85-.17-1.28-.25,0-.5.31-.33.57-.27S104,62.27,104.18,62.62Z" />
            <path class="b0a503f1-789c-4a5e-9ccd-ce2c28edab44"
                d="M103.46,62.35l-.57.27c-.25,0-.61.06-.66-.17s.32-.3.53-.29A3.18,3.18,0,0,1,103.46,62.35Z" />
            <path class="a8476cb3-311e-4edd-bcef-204523bb69a1"
                d="M98.2,61.59a1.93,1.93,0,0,1,0,.24A1.79,1.79,0,0,1,97,61.51,1.11,1.11,0,0,1,98.2,61.59Z" />
            <path class="bd8e2b7f-082f-468f-9313-91ab3c36e430"
                d="M79.52,61.57a.54.54,0,0,1,0-.18,4.91,4.91,0,0,1,1.93.1A5.29,5.29,0,0,1,79.52,61.57Z" />
            <path class="b2da6a7c-4fb3-4df8-9489-f59446793797"
                d="M70.94,62.38a1,1,0,0,1,0-.24H73c.09,0,.11.11.09.16s-.06.08-.09.08Z" />
            <path class="ae8b642d-10c6-48f2-8bc0-b647ee97a724"
                d="M52.75,64a1.36,1.36,0,0,1,0,.2l-1.8.27c-.08,0-.11-.1-.08-.14s0-.08.08-.08A2.87,2.87,0,0,1,52.75,64Z" />
            <path class="abb8eba7-c014-45ee-b14b-2e25ae709c03"
                d="M33.59,63.46l-.3-.26,1.58-.29C34.52,63.54,34,63.39,33.59,63.46Z" />
            <path class="aa6e3c7f-f350-42b9-87d2-4cfc0e60546a"
                d="M48.6,62.88l-1.51.31a1.56,1.56,0,0,1,1.51-.51c.08,0,.11.09.08.13S48.63,62.88,48.6,62.88Z" />
            <path class="b9b170db-adc2-4c83-81b7-704c1b71197d"
                d="M30.18,61.58c.35-.47.76-.39,1.34-.51C31.09,61.71,30.67,61.6,30.18,61.58Z" />
            <path class="faffce47-a5b6-444f-a873-c972a71e3fec"
                d="M33.54,61.1a.69.69,0,0,1-.93.14c.18-.51.58-.39,1-.38.07.06.09.12.06.17S33.56,61.1,33.54,61.1Z" />
            <path class="f70e7cc7-eccd-4a14-b485-dd647d4b8d24"
                d="M36.13,62.74c-.21.6-.61.38-1.05.45C35.36,62.61,35.71,62.67,36.13,62.74Z" />
            <path class="bcade4df-0de1-444c-8160-847a1db45836"
                d="M90.31,60.62c.67,0,1.06-.18,1.32.28C91.21,61.08,90.9,60.87,90.31,60.62Z" />
            <path class="f04dd65e-626f-447c-9820-85abb3bb3f42" d="M46.78,60V59.8H48.6V60Z" />
            <path class="b9cd4712-f166-4991-895f-29f5059c9650" d="M69.38,63.68c0-.08,0-.16,0-.25H70.9v.25Z" />
            <path class="a53c390c-5186-4723-9386-9c06a8a80261"
                d="M85,63.88v-.12A3.81,3.81,0,0,1,86.5,64l-.28.23A2.68,2.68,0,0,1,85,63.88Z" />
            <path class="b1c30e6f-b3e0-4536-bdc9-b391270a7f12"
                d="M35.87,60.82c-.29.35-.67.28-1,.25-.08,0-.1-.11-.07-.16s0-.08.08-.08a1.43,1.43,0,0,1,1.06-.22c.08.06.1.11.07.15A.12.12,0,0,1,35.87,60.82Z" />
            <path class="a7cb741f-42da-4a0a-84c8-409b059ff4aa" d="M47,61.58H45.76v-.13h1.3Z" />
            <path class="bce32bdb-3c95-4677-aa60-9dec93a9062f"
                d="M86.52,60.53v-.19h1.8c.09,0,.13.1.1.15s-.06.08-.09.08Z" />
            <path class="a032efc9-24cb-4527-aa1b-012cbf11ae3c"
                d="M94.63,63.4c0,.24-.17.3-.35.28s-.39-.06-.44-.17.08-.31.27-.31S94.54,63.13,94.63,63.4Z" />
            <path class="a6e032e7-579f-40de-bb93-620133db373d"
                d="M75.3,62.45h1.44C76.2,62.81,75.75,62.58,75.3,62.45Z" />
            <path class="a8324719-adfe-4499-9e63-e85f2da72cf8" d="M48.6,65v-.26a1.53,1.53,0,0,1,1.3-.21l0,.14Z" />
            <path class="af2a228c-991a-45c3-be4c-44c260af2469"
                d="M40.52,60.53l0-.21c.16-.21.36-.32.61-.14a.23.23,0,0,1,0,.21C41,60.62,40.76,60.56,40.52,60.53Z" />
            <path class="acd1b2cd-669d-4688-bd51-e162f85e31bf"
                d="M43.92,60.07v.22a2.84,2.84,0,0,1-1.38-.11A3,3,0,0,1,43.92,60.07Z" />
            <path class="e10c35f5-0e4c-4344-9c33-23c68a921314"
                d="M88.33,60.57a.89.89,0,0,0,0-.23c.35,0,.74-.1.92.35C88.89,61,88.62,60.69,88.33,60.57Z" />
            <path class="ac118a87-38dd-4d60-a8ac-7aaab471e9ed"
                d="M51.19,62.41h1.27v.21H51.19c-.08,0-.11-.09-.08-.14S51.16,62.41,51.19,62.41Z" />
            <path class="f736745d-9afb-439e-aeb4-1bf70d41785e"
                d="M79,62.88a2.92,2.92,0,0,1-1.4-.1,2.92,2.92,0,0,1,1.4-.1c.09,0,.12.09.09.13S79,62.88,79,62.88Z" />
            <path class="af65e912-9a96-4abb-bd0c-f4b7ebc55b92" d="M37.15,4.75h-.46V3.89A.83.83,0,0,1,37.15,4.75Z" />
            <path class="b1d4d72b-fbad-48a4-bd64-e5d56adaa9ba"
                d="M44.72,63.44a.81.81,0,0,1-.91.2c0-.45.36-.41.67-.41A.39.39,0,0,1,44.72,63.44Z" />
            <path class="bcd59ea4-0c89-4f0a-822c-9856a6a76c69" d="M73,62.38v-.24h1.27v.24Z" />
            <path class="b16a8f27-d8cd-4c2e-ae7c-37316f3f6403"
                d="M76.4,64.44a1.62,1.62,0,0,1,0-.22,1.26,1.26,0,0,1,1.29.43Z" />
            <path class="fbedfa1c-eb12-4f7e-adc0-d423659d487a"
                d="M42.35,61.91a.54.54,0,0,1,0,.18l-1.55,0h0C41.28,61.72,41.82,61.88,42.35,61.91Z" />
            <path class="af9cc06d-961f-427a-b4ba-ba936c713fa4"
                d="M48.6,62.88v-.2l1.3,0h0C49.52,63.07,49,62.87,48.6,62.88Z" />
            <path class="a6e032e7-579f-40de-bb93-620133db373d"
                d="M51.19,62.41v.21l-1.3,0h0C50.26,62.23,50.74,62.43,51.19,62.41Z" />
            <path class="ee7f6d98-cd7f-4297-9106-d63982f2c64b" d="M52,61.09v.26h-1.3a1,1,0,0,0,0-.25Z" />
            <path class="eb9f2c6d-fc66-44b8-8987-f9186e4b6b7a" d="M24.92,62.11l.55.23-.71.09-.55-.26Z" />
            <path class="ac160e0b-a62c-4b79-a06a-0060a1b9fd28"
                d="M34.83,60.83a.65.65,0,0,1,0,.24l-1.28,0a.65.65,0,0,1,0-.24Z" />
            <path class="fbedfa1c-eb12-4f7e-adc0-d423659d487a"
                d="M35.87,60.82a1.49,1.49,0,0,0,0-.21,2.17,2.17,0,0,1,1.15.07C36.65,60.94,36.25,60.8,35.87,60.82Z" />
            <path class="e10c35f5-0e4c-4344-9c33-23c68a921314"
                d="M45.47,63.16c.23-.19.52-.45.67,0,.09.24-.25.24-.45.23A.38.38,0,0,1,45.47,63.16Z" />
            <path class="f95662c9-e411-40ac-a7c8-e75ade787048"
                d="M49.88,64.64a.32.32,0,0,1,0-.14c.25-.44.66-.27,1-.28a.81.81,0,0,1,0,.22Z" />
            <path class="b81aeab4-8d92-4e49-bac5-1b09e4e99a72" d="M45.47,63.16l.22.21-1,.07-.24-.22Z" />
            <path class="aa6e3c7f-f350-42b9-87d2-4cfc0e60546a"
                d="M79,62.88v-.2a.86.86,0,0,1,.92.31C79.55,63.27,79.29,62.84,79,62.88Z" />
            <path
                d="M63.46,114.85q-30,0-60,0c-1.13,0-1.44-.25-1.43-1.41.07-5.28,0-10.56,0-15.83,0-1,.13-1.34,1.24-1.34q60.15,0,120.32,0c1,0,1.25.24,1.24,1.23q-.07,8,0,16.09c0,1.1-.39,1.25-1.34,1.25Q93.51,114.83,63.46,114.85Z" />
            <path class="ed717491-2ae1-46d3-934d-f155b9e73be9"
                d="M67.83,109.42c-.07-2.74.11-5.35-.14-8,1.81,0,3.7-.07,5.59,0,2.27.12,3,1.6,1.8,3.5-.26.41-.11.46.15.67a2.18,2.18,0,0,1-1.48,3.81C71.73,109.45,69.71,109.42,67.83,109.42Z" />
            <path class="ed717491-2ae1-46d3-934d-f155b9e73be9"
                d="M83.5,101.37a50.88,50.88,0,0,1,6,.16,2.2,2.2,0,0,1,2,2.87,1.75,1.75,0,0,1-1.28,1.49c-.89.2-.64.54-.29,1l1.87,2.58h-2c-.32,0-.37-.11-.52-.45a11.68,11.68,0,0,0-1.59-2.49c-.51-.64-1.31-.35-2-.28s-.3.75-.36,1.17a1.7,1.7,0,0,0,0,.39c0,.52.07,1,.11,1.57l-2,.11Z" />
            <path class="ed717491-2ae1-46d3-934d-f155b9e73be9"
                d="M60.47,109.48c-.41,0-.76,0-1.1,0-.8.05-1.5.13-1.5-1.09a1.06,1.06,0,0,0-1.35-1,5.57,5.57,0,0,1-1.68,0,1.21,1.21,0,0,0-1.53,1.28c0,.88-.3.83-.88.81-.42,0-.85,0-1.31,0,1.2-2.7,2.7-5.21,3.67-8.07.87,0,2-.47,2.51,1.5C57.91,105.17,59.34,107.22,60.47,109.48Z" />
            <path class="ed717491-2ae1-46d3-934d-f155b9e73be9"
                d="M21.33,109.47c1.73-2.77,3.59-7.08,3.46-8.07l.46,0c1,0,1.81-.29,2.28,1.32.68,2.34,2.11,4.47,3.27,6.77H29.43c-.63,0-1.28.23-1.17-.92a1.1,1.1,0,0,0-1.38-1.15,4.83,4.83,0,0,1-1.42,0c-1.28-.18-1.91.47-1.86,1.63,0,.57-.23.41-.46.42C22.58,109.48,22,109.47,21.33,109.47Z" />
            <path class="ab9b30e3-1ad0-4016-b1b8-853feaae0780"
                d="M40.21,109.36c-.23.06-.35.1-.47.12-1.2.19-1.77,0-1.64-1.54a26.11,26.11,0,0,0-.13-6.65h7.46a5,5,0,0,1,0,1.65,19.62,19.62,0,0,0-5.13-.16c-.68,0-.34.75-.4,1.17s.06.76.61.74c.87,0,1.73,0,2.6,0,.21,0,.5-.4.6,0a2.77,2.77,0,0,1,0,1.28c-.11.4-.41,0-.64,0a6.59,6.59,0,0,1-.77,0C39.75,106,39.28,106.68,40.21,109.36Z" />
            <path class="b863687b-1cdd-4156-bd8d-6dc77ec82f06"
                d="M116.72,108v1.62a56,56,0,0,0-6.59-.12c-.66,0-.81-.07-.78-.85a52.8,52.8,0,0,0-.08-7.22h1.93v6.18c0,.38.13.55.52.53A36.36,36.36,0,0,0,116.72,108Z" />
            <path class="ef0e2cbf-5586-41bc-be8d-c874758859a0"
                d="M7.11,109.48v-8.06h2c-.25,2,0,4.08-.12,6.12,0,.45.17.6.6.6,1.39,0,2.77,0,4.16,0,.47,0,.93-.33.84.54-.06.61,0,.94-.89.88C11.51,109.38,9.3,109.48,7.11,109.48Z" />
            <path class="b95ddd54-ae0f-443f-b70e-5c1296b3c4e2"
                d="M99.31,101.4h2a44,44,0,0,0-.08,7.26c0,.83-.1.89-.75.83-.38,0-.76,0-1.22,0Z" />
            <path class="ab5bb791-ffdb-4011-aadb-342d5c9aac9d"
                d="M71.67,106c.47,0,1,0,1.42,0a1,1,0,0,1,1,1.06,1,1,0,0,1-1.08,1c-1,0-1.9,0-2.84,0s-.53-.69-.56-1.1-.29-1.12.62-1.05c.47,0,1,0,1.42,0Z" />
            <path class="bcb49008-02e4-416a-bb7f-461f98e76cb3"
                d="M71.48,104.64a7.07,7.07,0,0,0-1,0c-.88.14-.85-.4-.87-1s.07-1,.83-.93,1.47,0,2.2,0,1.28.07,1.28.93-.7,1-1.37,1C72.17,104.65,71.83,104.64,71.48,104.64Z" />
            <path class="bbc142ad-3775-4302-a492-a181828b9763"
                d="M87.33,102.68c.56,0,1.12.09,1.67.16a.88.88,0,0,1,.8,1c0,.43-.21.88-.74.91a19.42,19.42,0,0,1-3.23.08c-.84-.09-.31-.92-.43-1.4s.07-.76.63-.72.86,0,1.3,0Z" />
            <path class="a7537027-9d2f-414f-8339-0f7d0184cba7" d="M54.4,106.24l1.25-2.73,1.24,2.73Z" />
            <path class="a7537027-9d2f-414f-8339-0f7d0184cba7"
                d="M27.15,106.28H24.72l1.19-2.65A9.56,9.56,0,0,1,27.15,106.28Z" />
        </g>
    </g>
</svg>