<svg xmlns="http://www.w3.org/2000/svg" viewBox="0 0 165.48 45.64">
    <defs>
        <style>
            .ead0c271-5a92-46e4-9b30-50763e351bf0 {
                fill: #00607c;
            }

            .e14ff2d1-c94d-4c27-9130-7d6b7532024b {
                fill: #fdfdfe;
            }

            .bea0eb6a-f123-4e38-82af-914a11f3089a {
                fill: #808995;
            }

            .a08ac64a-5d1b-437a-90f0-13f0f5111644 {
                fill: #969faa;
            }

            .bcd83541-aa91-4e2a-8ab8-257840d9e701 {
                fill: #8c95a0;
            }

            .ee2b471f-5c76-4785-bf88-fd27ceaab725 {
                fill: #f0f6fe;
            }

            .be0c032c-9d3b-4c47-aad5-85cc7e3f04d8 {
                fill: #eff4fb;
            }

            .eabc7e65-d8de-4642-a419-d72399cd310e {
                fill: #828b97;
            }

            .b457478b-5078-42b7-8ab4-7c9e414974d8 {
                fill: #89929e;
            }

            .acc4082b-076f-4118-bc06-dfc147496b0f {
                fill: #838c98;
            }

            .af3cc836-b42e-48d0-8bde-d502927dc741 {
                fill: #025e79;
            }

            .a7a0db8a-6fb6-40b5-9558-b2f9fbb4b7ba {
                fill: #005d77;
            }

            .ae12e4fa-eb9e-4d58-871e-b135441ec0a1 {
                fill: #005c77;
            }

            .efb3b338-e314-41d8-929c-f4cf6be05ba4 {
                fill: #23748c;
            }

            .bcc18b8f-ed25-4d4b-9e10-17bcf714e4fd {
                fill: #32839a;
            }

            .a522de94-c1a6-49d6-a009-0c17b7f549e3 {
                fill: #07627c;
            }

            .a8b734ee-383f-4784-921a-8c76e5218f07 {
                fill: #14708b;
            }

            .eb9b5696-cbf7-4781-a1eb-debd02dfaaaf {
                fill: #62b7cf;
            }

            .fb33cc88-3967-443e-bf67-dfd6ecf2e645 {
                fill: #fefefe;
            }

            .af7fb9f3-28f9-4cfd-a587-3de210c3a3d6 {
                fill: #fbfdfe;
            }

            .a085fda3-7cce-4357-87ad-f464e38a29fb {
                fill: #f9fafb;
            }

            .b40f87ec-1580-4c4c-8cb2-de0fa26d59ef {
                fill: #fcfcfd;
            }
        </style>
    </defs>
    <title>prov_4</title>
    <g id="ba37b5da-ef7b-4d2d-ac9e-657738be43a1" data-name="Capa 2">
        <g id="ad6d7d9f-5f01-4bf6-bf21-fd4f50179a36" data-name="Capa 1">
            <path class="ead0c271-5a92-46e4-9b30-50763e351bf0"
                d="M165.48,29.13c-.53.37-.3,1-.45,1.48-1.48,5-5.05,7.51-10,8.17-3.67.5-7.35.28-10.59-1.84-4.6-3-5.66-7.46-4.89-12.56a10.85,10.85,0,0,1,8.59-8.82A17.17,17.17,0,0,1,158,16a10.35,10.35,0,0,1,7.21,8.89c0,.13.16.24.24.37Z" />
            <path class="ead0c271-5a92-46e4-9b30-50763e351bf0"
                d="M48.36,45l-1.93.69H43.52c-6.13-1.77-9-6.54-10.9-12.09-.43-1.23-1-1.74-2.26-1.55a15.49,15.49,0,0,1-2.26,0c-4,0-4,0-5.39,3.85a1.88,1.88,0,0,0,.49,2.29,14.93,14.93,0,0,1-3.95.17c-.24,0-.35-.21-.32-.45a6.61,6.61,0,0,0,1.71-2.48c2-4.72,4-9.46,6.14-14.12a3.14,3.14,0,0,0-.25-3.39,6.56,6.56,0,0,0-3.4-3c-.45-.41-1.3.32-1.59-.55,4.09-1.65,7.15-.52,9.77,3.62,1.83,2.88,2.79,6.14,4.12,9.24,1.86,4.37,3.22,9,5.89,13a10,10,0,0,0,5.11,4.22C47,44.89,48,44,48.36,45Z" />
            <path class="e14ff2d1-c94d-4c27-9130-7d6b7532024b"
                d="M35.44,7.12c-.72-1.31-.21-2.72-.32-4.07-.08-1,0-2,0-3h6.8V.34a30.26,30.26,0,0,0-2.08,2.83c-1,1.65-1.5,1.62-2.56-.07a5,5,0,0,0-1.38-1.69C35.22,3.33,35.89,5.28,35.44,7.12Z" />
            <path class="bea0eb6a-f123-4e38-82af-914a11f3089a"
                d="M52.57,0a35.77,35.77,0,0,1,3.24,7,3.65,3.65,0,0,0-3.33-1.9A3.35,3.35,0,0,0,49.14,7c.59-2.6,2.08-4.72,3.11-7Z" />
            <path class="a08ac64a-5d1b-437a-90f0-13f0f5111644"
                d="M75.54,0c.54,1.58.26,3.21.24,4.81,0,1.22.25,1.81,1.59,1.65a22.43,22.43,0,0,1,2.74,0c-.75.63-4.29.93-4.79.51A1,1,0,0,1,75,6.26c.07-2.09-.35-4.2.24-6.26Z" />
            <path class="bcd83541-aa91-4e2a-8ab8-257840d9e701"
                d="M63.57,0c0,1.72.08,3.44,0,5.15,0,1,.32,1.37,1.31,1.31a10.53,10.53,0,0,1,3,.23A10,10,0,0,1,63.43,7a.57.57,0,0,1-.45-.6c.08-2.13-.37-4.28.27-6.38Z" />
            <path class="ee2b471f-5c76-4785-bf88-fd27ceaab725" d="M114,0l0,.36a9.39,9.39,0,0,1-5.15,0V0Z" />
            <path class="be0c032c-9d3b-4c47-aad5-85cc7e3f04d8"
                d="M95.61.34V0h3.56c0,.08,0,.16,0,.24A3.21,3.21,0,0,1,95.61.34Z" />
            <path class="ead0c271-5a92-46e4-9b30-50763e351bf0"
                d="M1.06,38.16a3.44,3.44,0,0,0,1.35-3.09Q2.34,27,2.4,18.9c0-1.7-.47-2.92-2.34-3.3,4.6.1,9.16-.57,13.67.3a5.77,5.77,0,0,1,4.84,4.61,6.67,6.67,0,0,1-2.72,7.1,6.42,6.42,0,0,1-7.15.16c-.12-.07-.16-.25-.25-.39,4.28-.8,6.26-4.25,4.64-8.06a4.77,4.77,0,0,0-5.43-2.43c-.52.19-.41.57-.41.91q0,9.14,0,18.28A2.84,2.84,0,0,0,8,37.83c0,.24,0,.49-.27.48C5.47,38.28,3.26,38.58,1.06,38.16Z" />
            <path class="ead0c271-5a92-46e4-9b30-50763e351bf0"
                d="M64.12,28.69c.13,2,.19,3.5.35,5a2.6,2.6,0,0,1-.79,2,8.3,8.3,0,0,1-5.08,2.91c-5.17.82-10.14.38-13.74-3.92-3.19-3.8-3.39-8.31-1.61-12.79C45,17.62,48.61,15.75,53,15.24a18.86,18.86,0,0,1,9.51,1.12A1.46,1.46,0,0,1,63.59,18c-.09,1.38,0,2.78,0,4.18-.15-.05-.28-.05-.31-.11-1.92-4.51-4.21-6-8.64-5.57-3.36.32-5.89,2.85-6.75,7A14.46,14.46,0,0,0,49.24,34C51,37,53.68,37.9,57,37.54a6.72,6.72,0,0,0,6-4.71C63.35,31.64,63.63,30.39,64.12,28.69Z" />
            <path class="ead0c271-5a92-46e4-9b30-50763e351bf0"
                d="M135.66,29.82a27.3,27.3,0,0,0,.14,3.39,3.31,3.31,0,0,1-1.27,3.11c-4.23,4-13.55,3.44-17.88-1.13s-4-12.64.5-16.85a11.5,11.5,0,0,1,6.33-3,19.24,19.24,0,0,1,10.45,1c.74.31,1.12.67,1.08,1.52-.07,1.42,0,2.84,0,4.29-.42-.09-.46-.37-.55-.6-1.48-3.68-3.58-5.15-7.33-5.13-3.53,0-6,1.74-7.28,5.27a14.34,14.34,0,0,0,.78,12.17c1.6,2.93,4.23,3.93,7.48,3.65a6.8,6.8,0,0,0,6.15-4.49,11,11,0,0,0,.89-3.25C135.3,29.59,135.48,29.59,135.66,29.82Z" />
            <path class="ead0c271-5a92-46e4-9b30-50763e351bf0"
                d="M96.93,18.76a3.33,3.33,0,0,0-3.29-1.89c-1.35,0-2.69,0-4,0-.79,0-1.16.14-1.14,1.05.06,2.53.05,5.06,0,7.59,0,.75.18,1.08,1,1,1-.06,2,0,3.07,0A3.1,3.1,0,0,0,95.33,25a5,5,0,0,1,0,4.49c-.95-1.76-2.61-1.6-4.24-1.59-2.6,0-2.6,0-2.6,2.63,0,1.57.06,3.13,0,4.69-.08,1.72.44,2.93,2.29,3.3H81.35c1.89-.36,2.33-1.61,2.31-3.39-.08-5.38-.07-10.77,0-16.16,0-1.69-.36-3-2.29-3.26,5.19-.4,10.35.24,15.47-.5.45-.08.6.24.53.56C97.13,16.72,97.94,17.87,96.93,18.76Z" />
            <path class="ead0c271-5a92-46e4-9b30-50763e351bf0"
                d="M69.7,37.84a3.21,3.21,0,0,0,.76-2.23c0-5.7,0-11.41,0-17.12a2.66,2.66,0,0,0-2.14-2.92h9.21c-1.89.46-2.28,1.78-2.27,3.51,0,5.38,0,10.77,0,16.15a3.29,3.29,0,0,0,1.32,2.93c-2.19.43-4.4.11-6.61.16C69.76,38.32,69.66,38.07,69.7,37.84Z" />
            <path class="ead0c271-5a92-46e4-9b30-50763e351bf0"
                d="M102.32,38.16a3.37,3.37,0,0,0,1.33-2.93c0-5.5,0-11,0-16.51a2.78,2.78,0,0,0-2-3.09h9c-1.83.36-2.16,1.64-2.15,3.3.06,5.45,0,10.9,0,16.35a3.44,3.44,0,0,0,.74,2.55c0,.24,0,.49-.28.48C106.73,38.28,104.51,38.58,102.32,38.16Z" />
            <path class="eabc7e65-d8de-4642-a419-d72399cd310e"
                d="M35.44,7.12v-7A14.52,14.52,0,0,1,37.9,3.53c.48.77.86.82,1.32,0s1-1.55,1.46-2.32c.29-.44.52-1,1.21-.85V7h-.55V2.1a6.8,6.8,0,0,0-2,2.53c-.55.85-1,1-1.55,0A9.9,9.9,0,0,0,36,2.09C35.49,3.82,36.41,5.58,35.44,7.12Z" />
            <path class="b457478b-5078-42b7-8ab4-7c9e414974d8"
                d="M108.87.34l5.15,0c-.91,1-2.11.39-3.17.5-.82.08-1.41,0-1.43,1.17s.56,1.28,1.49,1.28,1.8-.23,2.66.61c-1,0-2,.05-3,0s-1.13.47-1.13,1.29.13,1.33,1.14,1.27a12,12,0,0,1,3.27.2,9.22,9.22,0,0,1-4.63.28c-.49-.07-.41-.7-.41-1.12Z" />
            <path class="eabc7e65-d8de-4642-a419-d72399cd310e"
                d="M95.61.34l3.56-.1c2.07,1.34,2.63,2.59,2,4.47A4.41,4.41,0,0,1,96,7c-.5-.22-.51-.64-.5-1.06C95.53,4.09,95.57,2.21,95.61.34Z" />
            <path class="acc4082b-076f-4118-bc06-dfc147496b0f"
                d="M122.16.39c0,1.62,0,3.25,0,4.87,0,.9.22,1.28,1.17,1.21s2,0,3.21,0a8.85,8.85,0,0,1-4.69.51.73.73,0,0,1-.35-.68V.39Z" />
            <path class="af3cc836-b42e-48d0-8bde-d502927dc741"
                d="M1.06,38.16l5.58,0c.46,0,1,.12,1.31-.36l1.84.61H0C.27,38,.7,38.21,1.06,38.16Z" />
            <path class="a7a0db8a-6fb6-40b5-9558-b2f9fbb4b7ba"
                d="M69.7,37.84c1.34.78,2.79.21,4.19.34.89.08,1.8,0,2.7,0,.34,0,.71-.09,1.13.29H68Z" />
            <path class="ae12e4fa-eb9e-4d58-871e-b135441ec0a1"
                d="M102.32,38.16l5.74,0c.42,0,.86,0,1.15-.37l1.76.62h-9.72C101.52,38,102,38.2,102.32,38.16Z" />
            <path class="efb3b338-e314-41d8-929c-f4cf6be05ba4"
                d="M95.32,29.44a7.89,7.89,0,0,0,0-4.49l.33-1.37h.15v7.07A1.25,1.25,0,0,1,95.32,29.44Z" />
            <path class="ae12e4fa-eb9e-4d58-871e-b135441ec0a1"
                d="M18.93,37.88c1.39.65,2.85.19,4.27.28l.75.08v.17H17.28Z" />
            <path class="bcc18b8f-ed25-4d4b-9e10-17bcf714e4fd"
                d="M96.93,18.76a4.24,4.24,0,0,0-.1-3.6c.94-.55.68.28.69.65,0,1.45,0,2.9,0,4.56A2.26,2.26,0,0,1,96.93,18.76Z" />
            <path class="a522de94-c1a6-49d6-a009-0c17b7f549e3" d="M48.36,45c-.52-.6-1.42.06-1.93-.58h2.75l.06.21Z" />
            <path class="a8b734ee-383f-4784-921a-8c76e5218f07"
                d="M21.54,14.3c.42.51,1.19,0,1.59.55H20.58A1.36,1.36,0,0,1,21.54,14.3Z" />
            <path class="eb9b5696-cbf7-4781-a1eb-debd02dfaaaf"
                d="M135.66,29.82h-.53c-.06-.33,0-.75.34-.73S135.7,29.54,135.66,29.82Z" />
            <path class="fb33cc88-3967-443e-bf67-dfd6ecf2e645"
                d="M144.72,27.16a13.1,13.1,0,0,1,1.77-7.49,6.9,6.9,0,0,1,11.82.08,14.65,14.65,0,0,1,.37,13.92,6.49,6.49,0,0,1-6.8,3.92c-3-.18-4.91-1.92-6.11-4.54A13.42,13.42,0,0,1,144.72,27.16Z" />
            <path class="af7fb9f3-28f9-4cfd-a587-3de210c3a3d6"
                d="M28.38,22.07l3.13,8.61c-2,0-3.86,0-5.68,0-.82,0-.88-.31-.6-1C26.24,27.29,27.22,24.87,28.38,22.07Z" />
            <path class="a085fda3-7cce-4357-87ad-f464e38a29fb"
                d="M52.4,1.29a12.31,12.31,0,0,1,1.68,3.18H50.9A11.24,11.24,0,0,1,52.4,1.29Z" />
            <path class="b40f87ec-1580-4c4c-8cb2-de0fa26d59ef"
                d="M97.28.86c2.41.05,3.55,1.1,3.42,2.93s-1.79,3-3.85,2.68C96.1,6.37,96,6,96,5.37c0-1,0-2,0-3.06C95.92,1.14,96.2.47,97.28.86Z" />
        </g>
    </g>
</svg>