<svg xmlns="http://www.w3.org/2000/svg" viewBox="0 0 177.02 56.02">
    <defs>
        <style>
            .bdda1769-ce26-40fc-b905-bc320b4dc658 {
                fill: #d1181a;
            }

            .e95bf15d-b8f4-45ea-8d52-98b250d88e44 {
                fill: #424041;
            }

            .e502899f-6e4d-448a-af0c-748ce969c360 {
                fill: #414040;
            }

            .a79b9f70-0fb6-4a31-beaf-9895221e7488 {
                fill: #413f40;
            }

            .ba1ee65f-65f6-44e0-8e4a-4d9feb22189a {
                fill: #fefdfd;
            }

            .f64c016a-97a6-4146-95d9-7869aeae8871 {
                fill: #403e3f;
            }

            .a6adb8ed-6422-4cc0-9650-3e29af9b5c78 {
                fill: #3e3b3c;
            }

            .b3f56f11-f3cd-4065-8840-fa2652fa52c9 {
                fill: #fcf5f5;
            }

            .ff486344-22a3-470f-a425-b3b9bef50fee {
                fill: #d21a1b;
            }

            .e70d4400-bf89-4e29-b5cf-d389664ef5e6 {
                fill: #fbefef;
            }

            .f66a5f75-b6f2-4ba1-9d73-6ee356b66e80 {
                fill: #3f3d3e;
            }

            .e3283404-a46a-4176-a6d4-121ed8fd0cbd {
                fill: #d11011;
            }

            .aa4751ac-710b-46d5-b05c-b48854c6ae71 {
                fill: #d21416;
            }

            .ae3ddcba-00be-451f-b038-39efa9f15127 {
                fill: #d2181a;
            }

            .ef04b8da-01bb-4bd5-b404-39362f2c3bff {
                fill: #d11719;
            }

            .b51ff014-e61d-433a-8fc8-a6af4a7af99a {
                fill: #d21414;
            }

            .bc00fe80-caac-485b-9154-902f66bf0933 {
                fill: #d20a0a;
            }

            .a42c2e36-78ad-4d8c-8f92-70a84730545a {
                fill: #d31c1e;
            }

            .ef1c5ed2-ab5c-4536-9bbd-48426d7c8a48 {
                fill: #d10609;
            }

            .bcc32421-049c-4d7c-9cd9-c69b0e50f742 {
                fill: #d21719;
            }

            .b6408d8f-1243-4f81-a6e4-e8baf0aa3bc9 {
                fill: #d51414;
            }

            .ee5c58e8-82ed-4671-8a9b-fb719bc7c146 {
                fill: #d74647;
            }

            .bbd04ae9-a464-470d-9d8c-daf2f32cb05c {
                fill: #2f2c2d;
            }

            .a7925f4f-3801-46bf-99d3-b9f58b95a1e0 {
                fill: #2d2b2c;
            }

            .aa45f05e-267c-4a1a-a3e2-9ed42ba9ce43 {
                fill: #d11618;
            }

            .e33050d7-2ad8-4387-ad82-aa7244a30e8f {
                fill: #d10304;
            }

            .a6099dfb-52ee-44d0-8451-b84ef3fa7223 {
                fill: #d10307;
            }

            .b49a1fc5-6e85-4b46-b74b-f1ce4a399fb8 {
                fill: #3a3839;
            }

            .af4ca835-d2a3-424b-824a-da9e1731a258 {
                fill: #434142;
            }

            .af297189-af5c-4d3f-9096-5af3e86c37f6 {
                fill: #d11718;
            }

            .bc0fd3c3-40c4-48de-935d-f72e4c267891 {
                fill: #d10000;
            }

            .ab7f2f8e-558f-4bbe-8fc2-8b0ef5d3d755 {
                fill: #d31f20;
            }

            .aea34be5-8b66-48cd-b53e-dd88a428406d {
                fill: #d10506;
            }

            .fb9ba87c-ddd4-4e50-8eec-0a9ae31eb3ec {
                fill: #d21314;
            }

            .af308481-879c-4b5a-b6fb-b9d9ce48dc41 {
                fill: #d42325;
            }

            .b6a8f2f8-fe55-4f9e-9878-d5998db701ae {
                fill: #2b282a;
            }

            .a833b0bb-2418-48ac-a873-393b51001450 {
                fill: #d31c1f;
            }

            .aebcb346-6984-4f96-8f76-e179c1c34b9a {
                fill: #d31c1d;
            }

            .ec2cbb0a-313d-48cd-bf40-978f21dfecbd {
                fill: #d00000;
            }

            .beaec23d-14cd-47c4-ab2b-41f3eaafc050 {
                fill: #d20606;
            }

            .bc0691f6-1962-4ac9-b1a9-290a8f627250 {
                fill: #333131;
            }

            .b3137388-a723-456e-a025-6fcc801e97c9 {
                fill: #252123;
            }

            .fe735433-d911-4592-87de-c5d356e37602 {
                fill: #3d3b3c;
            }

            .abe86f03-bc51-4318-89c1-368e04d57753 {
                fill: #262224;
            }

            .f04d81df-2073-4f1f-99e3-a9b2fb3d2872 {
                fill: #d42929;
            }

            .ac027fe7-1b86-46b8-8812-e2e9c4f8a550 {
                fill: #d41415;
            }

            .a4a6efba-4658-47ac-af50-fa653e54099d {
                fill: #d84f50;
            }

            .e7b81b5a-5b5c-476d-830e-6c256a9ebc2e {
                fill: #d30707;
            }

            .eb093cbc-efdc-4b26-9a7f-0e5cac438566 {
                fill: #d41e1f;
            }

            .b3742eb8-ec48-42f7-9dcd-bec09998fe4c {
                fill: #d10e0f;
            }

            .b0f4f0f2-f86f-449c-973e-f36b44eb540c {
                fill: #d20f10;
            }

            .b34b2937-2657-47d0-9993-2936fe302c9e {
                fill: #333232;
            }

            .b3f70be7-b349-4629-8f75-f3612252f3f3 {
                fill: #363535;
            }

            .b0951c48-37a7-4df6-a311-98d15ccc8a0b {
                fill: #d21415;
            }

            .f70a0387-b58f-4fcd-beea-8e174f54a3e4 {
                fill: #343233;
            }

            .b20c0187-0f51-4a85-82bb-4fe8c2154721 {
                fill: #d31415;
            }

            .e61ba5ad-0f4d-4bfd-9c54-4ecae41ece53 {
                fill: #d21315;
            }

            .bee3a221-613b-4318-85db-e6875c30c3b8 {
                fill: #302e2e;
            }

            .a10982c9-26f4-4b40-a252-e1f5aab9cd72 {
                fill: #373536;
            }

            .a8bfc481-86c1-4139-8448-08a249672ff9 {
                fill: #d42627;
            }

            .bb79fab4-f7a6-432c-beae-f31e01afe9b2 {
                fill: #302e2f;
            }

            .a1c534d1-15d4-4734-b844-9bc41d66d353 {
                fill: #626061;
            }

            .ea713cae-5d43-483f-bcc1-6eb2f228f2fb {
                fill: #d00102;
            }

            .f814fae9-aa9b-4477-a4fd-a0e7089a17b8 {
                fill: #2b2829;
            }

            .bf781795-2428-45ba-9705-34adc9600fb7 {
                fill: #d31414;
            }

            .b288d443-0f93-44c6-8cb0-83804781312e {
                fill: #d00001;
            }

            .a41c8233-11eb-400e-8dc0-53c6e717e5fb {
                fill: #2d2c2c;
            }

            .f418c700-dbf5-465d-b0a4-77a045cebf37 {
                fill: #d30a0a;
            }

            .b6d4cd01-3a88-42a7-84b8-a17c4eb39b1d {
                fill: #cf0000;
            }

            .a155eab2-0b23-497c-8889-e21245917571 {
                fill: #2c2a2b;
            }

            .bfb7121b-e871-4061-b0b3-aabd759aad76 {
                fill: #d41213;
            }

            .f2a124e4-9648-472b-9cee-92996b4df18a {
                fill: #d21516;
            }

            .f70f1a63-0aad-49cb-9760-1c6cf7fb9858 {
                fill: #d21a1c;
            }

            .fabc117d-6574-4a44-9823-74c8f8cac187 {
                fill: #d20f0f;
            }

            .ae3d0e62-ef6a-4179-93b3-b0242bfd0e09 {
                fill: #d42324;
            }

            .a285fa85-4564-429c-a200-a53041f60457 {
                fill: #d11919;
            }

            .e7c3ec9c-646c-4366-8381-dc0b6ab7f8fc {
                fill: #d40f10;
            }

            .a3a3b930-b80b-426a-a52c-3dee7a97158a {
                fill: #2c2b2b;
            }

            .bb46088a-10f4-4fc6-9926-73f542a32cea {
                fill: #393838;
            }

            .fb8d6098-1240-41b4-b403-265d8d0bcf60 {
                fill: #d11517;
            }

            .f857ad3d-b70a-4d9b-8bd5-6053942d839d {
                fill: #302d2e;
            }

            .b7bbfe95-419a-439d-b0c7-e28349806478 {
                fill: #d00101;
            }

            .f2302248-8214-4ee3-8d7b-330359e2ea7d {
                fill: #313030;
            }

            .f17c38ae-c256-4e05-9ad7-0568f293df92 {
                fill: #d42425;
            }

            .ee9e16ab-3a40-4be2-b15c-8750efee7585 {
                fill: #d21113;
            }

            .a82c0507-180b-4bc1-b2dc-73fed178e7cd {
                fill: #d52b2c;
            }

            .bafebb6e-cb28-4be0-9e25-8c8592c5d6a4 {
                fill: #d00203;
            }

            .be32c5e7-b29c-40fb-995d-0a6ba5401175 {
                fill: #d95556;
            }

            .b9786fa7-3e85-4255-a535-9653309114d4 {
                fill: #393637;
            }

            .b8e20235-dfbf-452c-87f7-a303d5edbadd {
                fill: #d85051;
            }

            .a25de59b-8903-4e19-a61e-df895693482d {
                fill: #d1070a;
            }

            .a3a1d93e-1d4b-40cb-86e1-7e8dba7a113d {
                fill: #d42829;
            }

            .bf7af5bb-b314-465a-a709-e72c7559a6c7 {
                fill: #d62a2c;
            }

            .ff195e6c-8fe4-4694-8e22-081284b58638 {
                fill: #d20d0d;
            }

            .ee78804a-5887-4788-b0b3-464afa1e8db3 {
                fill: #3c3a3b;
            }

            .bc7bfe59-f510-44b3-8037-6737f27f4e0a {
                fill: #de6c6d;
            }

            .bc449307-dd58-40ac-9593-4782b714af6e {
                fill: #d2191a;
            }

            .be1effd2-7006-4ab0-9459-2bed7f02c145 {
                fill: #d21214;
            }

            .fca75141-b1e6-4b56-8bf0-1160994b92a5 {
                fill: #d95656;
            }

            .a4e71ef8-5da3-41c3-8c6b-2b0cfa1c5e7c {
                fill: #d84f4f;
            }

            .ae6e4c11-803a-4465-904f-084787679f2d {
                fill: #d2171a;
            }

            .b0bd5fe7-0760-454d-bf43-d9851c687158 {
                fill: #d10505;
            }

            .ace72966-95f3-4a10-ad92-7a3c57d482cb {
                fill: #d62729;
            }

            .ad03617a-38e4-4d9c-8493-58877bcf997b {
                fill: #d1090b;
            }

            .bf0ab73d-20ba-4e98-bb46-0333ecfd5a48 {
                fill: #d10102;
            }

            .a62f13c7-1d97-4b46-a1e0-866ad30fb6a3 {
                fill: #e28484;
            }

            .a6ffac2c-d2af-46cc-98d6-de7aced20cb9 {
                fill: #d10203;
            }

            .eaf26400-5fff-4e00-bf77-f626375dce25 {
                fill: #d42424;
            }

            .b608952c-859e-4d88-b530-4de2ea7cf3c8 {
                fill: #d42223;
            }

            .fe473743-e1ca-45e3-8d3d-8701882c8783 {
                fill: #d10407;
            }

            .fca72bb6-3a43-4d7d-b298-c1110d001759 {
                fill: #d10001;
            }

            .a885cf2d-cb93-403a-8a6d-418c041953ac {
                fill: #d3191a;
            }

            .a5bca8a4-2a17-413e-8fe8-0b04b23ac451 {
                fill: #2f2d2e;
            }

            .a584ffa8-4c2d-40dc-9bcf-56d9d180723e {
                fill: #d32222;
            }

            .ef5043aa-c618-4689-9c73-116d85cab913 {
                fill: #312e30;
            }

            .b501d537-efd3-43eb-8325-05424f8b6456 {
                fill: #2a2728;
            }

            .b048cba4-980e-4ba1-8909-f7d8ba760c54 {
                fill: #d2080b;
            }

            .b167c172-c297-4ddc-b838-77c580ca00ed {
                fill: #2e2b2c;
            }

            .eb0fb797-8287-4156-810d-6a175f2e9084 {
                fill: #110e0e;
            }

            .a1b3aa60-26dd-4759-9bac-85fc483d06f5 {
                fill: #191717;
            }

            .b42c19f7-9111-4827-aee9-6b86fc568a1f {
                fill: #d52627;
            }

            .b40abc5e-fcea-4eb5-8b81-4373c1ca992b {
                fill: #d52829;
            }

            .afba9d8b-deba-43fd-b7ce-1a8c29764e50 {
                fill: #db5759;
            }

            .ad888eaf-58d9-4377-a4fd-43f20bc5cdb6 {
                fill: #fbfbfb;
            }

            .accc6b06-6ba4-405f-9f9b-910c76d3245a {
                fill: #fcfcfc;
            }

            .e8c4ef68-586a-44da-9070-aff1196c24f0 {
                fill: #323131;
            }

            .fd19ea94-fe2e-42b8-a33e-52fc166e5e08 {
                fill: #2b292a;
            }

            .e94af283-b9e2-4df9-b8f5-89222ea0ba58 {
                fill: #fefefe;
            }

            .a7844ba4-37f1-42c7-9ff9-4b3e6b474cd5 {
                fill: #353334;
            }

            .ee4554a6-855a-4eb6-9989-221ba48970a3 {
                fill: #d0090c;
            }

            .be0da385-3b22-4f53-aa42-640c0a69c4d7 {
                fill: #3d3c3c;
            }

            .e47afc65-c3b4-443e-ac3f-69fd712bdded {
                fill: #333132;
            }

            .ac15894e-1cc7-459e-a218-75c81077a8c8 {
                fill: #3d3b3b;
            }

            .b454befe-41a4-43c6-afc5-ca955e418567 {
                fill: #fcf6f6;
            }

            .f2525a13-a53d-45fd-8253-006c504e3b25 {
                fill: #d10206;
            }

            .bd22519e-e638-4fa6-b288-bc16bfd804f9 {
                fill: #d00105;
            }

            .ffdd5812-8932-4896-a7b4-83d5adc81f44 {
                fill: #fdfbfb;
            }

            .b861ac13-bbd2-41d3-ac3f-2463b3ac9246 {
                fill: #d1080a;
            }

            .a11c12c7-7967-420c-ade7-3c581f2e558d {
                fill: #d11316;
            }

            .b7c17cef-360e-4e93-8321-25bf668e6c5a {
                fill: #d1171a;
            }

            .e45553cf-8de4-4a38-9e2f-38d87ba2db8b {
                fill: #f8dfdf;
            }
        </style>
    </defs>
    <title>prov_5</title>
    <g id="acc4e120-3ef4-44b2-95a5-bb6336f367b0" data-name="Capa 2">
        <g id="adb1d411-d0be-4649-8487-45b4b75191a1" data-name="Capa 1">
            <path class="bdda1769-ce26-40fc-b905-bc320b4dc658"
                d="M11.4,20.71a54.56,54.56,0,0,1,15.3-12c.52-.26,1.07-.45,1.6-.68s1.22,0,1.5-.73a41.28,41.28,0,0,1,9.6-3.6c1-.18,2-.89,3-1.13,2.12-.48,4.22-1,6.32-1.5a5.09,5.09,0,0,0,1.82,0A.43.43,0,0,1,50.05,1,1.53,1.53,0,0,1,51.22.69c.05,0,.11.08.15.08C54.93.48,55,.48,54.91,4.16c0,1.45.42,3-.44,4.34l-2.57.61c-.44,0-.92-.41-1.29.14l-12.9,3.81a.9.9,0,0,0-1,.39,95.76,95.76,0,0,0-17.11,8.81c-2.15,1.47-4.21,3-6.21,4.7a4.2,4.2,0,0,0-1.92,1.69c-.49.49-.69,1.24-1.38,1.55-.63.09-.86.58-1.07,1.09A48.64,48.64,0,0,0,.41,46.08a.24.24,0,0,1-.38,0,9.78,9.78,0,0,1,.73-4.66.43.43,0,0,1,.19.42c-.24,0-.07.39-.07.22a2.88,2.88,0,0,0,0-1.62,44.8,44.8,0,0,1,7.94-16.7,17.38,17.38,0,0,1,1.29-1.42C10.63,21.85,11.27,21.48,11.4,20.71Z" />
            <path class="bdda1769-ce26-40fc-b905-bc320b4dc658"
                d="M.75,55.22a23,23,0,0,1,2.49-7.43.83.83,0,0,0,.44-1,35.19,35.19,0,0,1,5.37-8.87A55,55,0,0,1,22.7,25.83a50.1,50.1,0,0,1,11.13-5.61,1.33,1.33,0,0,0,1.28-.47,16.94,16.94,0,0,1,4.4-1.65c1.11.06,1.44.67,1.42,1.74,0,2.36,0,4.72,0,7.09-4.94,1.93-9.85,3.93-14.59,6.31-.41,0-.8,0-1,.47-2.68,1.66-5.42,3.23-8,5a78.51,78.51,0,0,0-9.74,8.1,4,4,0,0,0-1.1,1.52,61.85,61.85,0,0,0-5,7.68C.9,56.07.62,55.84.75,55.22Z" />
            <path class="e95bf15d-b8f4-45ea-8d52-98b250d88e44"
                d="M91,52.16c-1.76-3.12-3.07-6.45-4.6-9.68-1.23-2.58-2.51-5.15-3.63-7.78-.49-1.15-1.62-.85-2.44-1.24l.09-.46h7.41c.17.37-.13.47-.34.61a1.37,1.37,0,0,0-1,2.14c1.78,4,3.6,8,5.57,12.36,1.88-4.37,3.6-8.34,5.28-12.33.61-1.46-.76-1.85-1.72-2.67h5.8C97.84,35.3,97.51,38.89,96,41.8s-2.34,6.39-4.19,9.28C91.35,51.31,91.51,52,91,52.16Z" />
            <path class="e95bf15d-b8f4-45ea-8d52-98b250d88e44"
                d="M70.74,45.76c-.5,1.21-1,2.4-1.51,3.61a2.11,2.11,0,0,0,.19,2c-.93.13-2,.81-2.64-.45,1.55-1.93,2.16-4.33,3.23-6.5,1.67-3.39,3.16-6.87,4.71-10.31.23-.49.45-1,1-1.09.78-.09.71.67.9,1.09q3.11,6.84,6.15,13.71c.55,1.23,1,2.54,2.24,3.29.38.23.47.54-.11.68-1.72-.55-3.53.13-5.26-.36a1.75,1.75,0,0,0,.65-2.29c-1.1-3.39-1.22-3.49-4.76-3.51-1.35,0-2.7-.08-4.06-.12.58-.85,1.48-.48,2.25-.6,1.29-.2,2.67.44,3.9-.37-.49-2.33-1.87-4.27-2.78-6.72-1.12,2.47-2.32,4.56-3.09,6.85C71.61,45.19,71.11,45.41,70.74,45.76Z" />
            <path class="e95bf15d-b8f4-45ea-8d52-98b250d88e44"
                d="M157.71,50.68c2.3-3.74,3.66-7.92,5.61-11.82.88-1.77,1.7-3.57,2.51-5.38.16-.35.31-.61.71-.67s.46.42.59.69c2.2,4.89,4.38,9.78,6.59,14.66.41.9.93,1.75,1.4,2.63.26.53,0,.78-.5.77a17.06,17.06,0,0,1-4.1-.15,1.7,1.7,0,0,0,.59-2.17c-1-3.39-1.3-3.6-4.84-3.62-1.29,0-2.58-.08-3.87-.12.5-.8,1.32-.52,2-.6,1.24-.13,2.52.26,3.73-.27a1.21,1.21,0,0,0-.07-1.34c-.89-1.6-1.39-3.38-2.5-5.26a38.34,38.34,0,0,0-3,6.6c-.09.54-.57.71-.93,1-.6,1.78-2,3.3-1.75,5.36-.31,1.08-1.18.5-1.79.54S157.48,51.12,157.71,50.68Z" />
            <path class="e502899f-6e4d-448a-af0c-748ce969c360"
                d="M132.57,51.06l-6.1-7.91a2.18,2.18,0,0,0-.43-.22c-.67-.13-1.39.12-2-.29a1.39,1.39,0,0,1-.43-.75,65.3,65.3,0,0,1,0-7.27,1.64,1.64,0,0,1,.26-.57,1,1,0,0,1,1.09-.19c.09,2-.21,3.91-.12,5.87s1,2.54,2.72,1.84c1.35-.53,2.5-1.3,2.68-3a3.41,3.41,0,0,0-1.73-3.72,1.17,1.17,0,0,1-.67-.77c.27-1.1,1.3-.4,1.87-.8,1.59.64,3.56.79,3.94,3,.33.86.06,1.78.31,2.65-.57,2-1.44,2.76-4.68,3.81,2.43,2.82,3.94,6.25,7.17,8.26C135.13,52,133.85,51.75,132.57,51.06Z" />
            <path class="e502899f-6e4d-448a-af0c-748ce969c360"
                d="M100.24,40.42c.62-3.83,4.12-7.37,7.41-7.48a.74.74,0,0,1,.51.87,8.47,8.47,0,0,0-4.13,6,15.43,15.43,0,0,0,.68,7.47c.68,1.87,2.18,2.83,3.71,3.82.14.62-.4.72-.75,1-2.92.19-7.55-4.35-7.45-7.77C100.29,43,100.24,41.71,100.24,40.42Z" />
            <path class="a79b9f70-0fb6-4a31-beaf-9895221e7488"
                d="M59.56,50.68l.23.22c0,.12.07.31,0,.34-1,.66-3.1.46-3.69-.33a7.11,7.11,0,0,0,.36-2.78q0-5.84,0-11.67a5.12,5.12,0,0,0-.38-2.41,1.85,1.85,0,0,1,3.07,0c.17,2.48-.27,5,.23,7.45,1.91-.23,3.94.6,5.72-.71,1.06-.34.85.52.77,1s.61,1.57-.73,1.53c-.16-.38-.54-.3-.83-.41a6.7,6.7,0,0,0-4.94-.2.2.2,0,0,1-.06.27,63.67,63.67,0,0,0-.11,7.44C59.23,50.58,59.42,50.6,59.56,50.68Z" />
            <path class="e95bf15d-b8f4-45ea-8d52-98b250d88e44"
                d="M112.32,33.29c1.51-.9,2.44.58,3.28,1.14a9.69,9.69,0,0,1,3.34,12,9.35,9.35,0,0,1-5.62,5.33c-.57-.17-1.1-.37-.78-1.15a12.11,12.11,0,0,0,2.17-13.49,4.62,4.62,0,0,0-2-2.35,1.4,1.4,0,0,1-.91-1C111.83,33.39,112,33.18,112.32,33.29Z" />
            <path class="ba1ee65f-65f6-44e0-8e4a-4d9feb22189a"
                d="M77.32,26.21a.81.81,0,0,0-.17.28c-.4.35-.84,0-1.26.05a3.93,3.93,0,0,1-1.54-.6c-2.24-2.06-1.79-4.56-1.16-7.09a3.53,3.53,0,0,1,2.52-2.16,3.93,3.93,0,0,1,1.41,0,3.62,3.62,0,0,1,2.56,2.82,7.3,7.3,0,0,1,0,4.46A2.59,2.59,0,0,1,77.32,26.21Z" />
            <path class="ba1ee65f-65f6-44e0-8e4a-4d9feb22189a"
                d="M106,26.21a.93.93,0,0,0-.13.31,2.49,2.49,0,0,1-2-.32h-.43c-1.42-.49-1.75-1.69-2-3a12.35,12.35,0,0,1,.27-4.37,2.9,2.9,0,0,1,1.4-1.71,5.32,5.32,0,0,1,1.28-.47,3.26,3.26,0,0,1,1.08,0A3.68,3.68,0,0,1,108.13,19a5.39,5.39,0,0,1,.35,1.91c0,.47,0,.93,0,1.4a6.28,6.28,0,0,1-.17,1.67C107.84,25,107.34,26,106,26.21Z" />
            <path class="e502899f-6e4d-448a-af0c-748ce969c360"
                d="M143.17,33.59a1.7,1.7,0,0,0-1.39,1.79q0,7.21,0,14.45a5.72,5.72,0,0,0,.31,1.18c0,.26-.05.54-.29.53-1.37,0-2.75.32-4.09-.18l.92-.67c.67-.52.36-1.26.44-1.91,0-3.87,0-7.74,0-11.61a3.47,3.47,0,0,0-.15-1.72c-.11-1.53-1.16-1.92-2.53-1.92l.06-.53h7A.44.44,0,0,1,143.17,33.59Z" />
            <path class="e502899f-6e4d-448a-af0c-748ce969c360"
                d="M124,34l0,.44a43.43,43.43,0,0,0,0,7.65l.44.45c.63.39,1.38,0,2,.28,0,.1,0,.21.06.31-2.25,0-2.29,0-2.24,2.19,0,1.92-.31,3.87.41,5.73a3.32,3.32,0,0,1-3.87,0l.68-1.86c.56-.52.21-1.19.22-1.78,0-3.48,0-6.95,0-10.43,0-.35.3-.82-.22-1.08l-.29-1.52C121.93,33,122.9,32.89,124,34Z" />
            <path class="e502899f-6e4d-448a-af0c-748ce969c360"
                d="M149.25,51.42a2.7,2.7,0,0,0,1-2.12c-.05-5-.05-10.1-.06-15.14.42-1.14,1.39-1,2.15-.7,1.11.4.15,1.41.39,2.11.09,4.83-.2,9.66.17,14.48a.89.89,0,0,0,.23.64,1.54,1.54,0,0,1,1,.72A14.65,14.65,0,0,1,149.25,51.42Z" />
            <path class="f64c016a-97a6-4146-95d9-7869aeae8871"
                d="M152.39,35.44c-.24-.56.69-1.3-.1-1.68a1.91,1.91,0,0,0-2.08.4l0,0c-.94-.65-2-.15-3-.3-.23,0,.07-.08-.15,0s-.12.19,0,.24a4.38,4.38,0,0,0-2.79,1.43c-1.19,0-.36-1.09-.82-1.47l-.38-.44.34-.59h16c.52.49.24,1.21.49,1.78,0,.54.13,1.11-.51,1.41-.48-1.4-1.67-1.81-2.93-2.12s-2.37-.66-3.45.28l0,.38C152.79,34.92,153.08,35.65,152.39,35.44Z" />
            <path class="a6adb8ed-6422-4cc0-9650-3e29af9b5c78"
                d="M59,34a2.75,2.75,0,0,0-2.92,0c-.68-.53-1.64-.36-2.33-1.1h6.07c2.54,0,5.08,0,7.62,0,.41,0,1.08-.24,1.12.46a5.2,5.2,0,0,1-.07,2.77c-.13.28-.52.12-.67-.21-.88-1.92-2.6-2-4.36-1.95H59.41C59.29,34.19,59.16,34.2,59,34Z" />
            <path class="b3f56f11-f3cd-4065-8840-fa2652fa52c9"
                d="M85.22,21.58h-.48a.58.58,0,0,1-.44-.36,7,7,0,0,1,.08-3.81c1.78-1,3-.57,4,1.37C88.3,20.91,87.29,21.8,85.22,21.58Z" />
            <path class="ff486344-22a3-470f-a425-b3b9bef50fee"
                d="M65.57,26.62c-2.08-.22-3.17-1.39-3.68-4a3.58,3.58,0,0,0,0-2.1c.45-2.08,1.43-3.67,3.75-4,.39-.12.5.06.43.42-2.16.25-2.15,2.19-2.8,3.62a4.55,4.55,0,0,0,0,3.13c1.12,1.51,2.31,2.9,4.51,2.47.07,0,.19.2.28.3l-.49.12A3.83,3.83,0,0,1,65.57,26.62Z" />
            <path class="e70d4400-bf89-4e29-b5cf-d389664ef5e6"
                d="M114,21.59l-.5,0c-1.1-1.23-.73-2.68-.35-4s2.11-1,3.56.23a2.77,2.77,0,0,1,.16,2.15C116.19,21.11,115.42,22,114,21.59Z" />
            <path class="f66a5f75-b6f2-4ba1-9d73-6ee356b66e80"
                d="M152.39,35.44l.69-.7q0,8,.07,15.95a5,5,0,0,1-.76-3.14C152.4,43.52,152.39,39.48,152.39,35.44Z" />
            <path class="e3283404-a46a-4176-a6d4-121ed8fd0cbd"
                d="M93.14,17.7l-.79-1.18c2.15.39,4.33-.73,6,1.17-.35.35-.2.87-.44,1.26a.51.51,0,0,1-.38.25c-.86-.45-1.26-2.11-2.7-1-.46,2.46-.36,5-.7,7.43a.64.64,0,0,1-.82-.19C93.15,22.84,93.49,20.26,93.14,17.7Z" />
            <path class="aa4751ac-710b-46d5-b05c-b48854c6ae71"
                d="M77.32,26.21c2.16-1.21,2.16-3.3,2.09-5.37a6.18,6.18,0,0,1-.13-1.37c.18-.37-.1-.89.38-1.16,2.37,1.69,1.36,6.81-1,7.9C78.17,26.41,77.75,26.61,77.32,26.21Z" />
            <path class="ae3ddcba-00be-451f-b038-39efa9f15127"
                d="M134.89,26.61c-2-.14-2.71-1.7-3.37-3.26.22-1.28,0-2.6.29-3.88l.17-.39c.47-.22,1.2-.91,1,.41a6.67,6.67,0,0,0,0,3.49c1.28,3,1.6,3.2,4.52,3.16.34-.13.45,0,.38.34l-.83.14A3.83,3.83,0,0,1,134.89,26.61Z" />
            <path class="ef04b8da-01bb-4bd5-b404-39362f2c3bff"
                d="M88.12,18.8c-.83-1.22-1.86-2-3.42-1.44a7.93,7.93,0,0,0-.13,4.24l.17,0-.15.37c-.41,1.18-.08,2.4-.19,3.6-.05.49-.09,1-.71.34-.14-2.7.33-5.41-.24-8.1l-1-1.11a12.52,12.52,0,0,1,5.29.29c.47.17,1.2.19,1.17,1C88.18,17.81,88.47,18.61,88.12,18.8Z" />
            <path class="b51ff014-e61d-433a-8fc8-a6af4a7af99a"
                d="M116.52,18.08a7.65,7.65,0,0,0-1.33-.75c-1.19-.38-2.09-.27-1.92,1.35a11.54,11.54,0,0,0,.2,2.93l-.2.34a.5.5,0,0,1-.51.1c-.36-.28-.4-.58-.06-.9.29-1,0-2,.17-3.06-.18,1,.11,2.09-.21,3.11a.31.31,0,0,1-.48,0c-.24-1,.13-2.13-.22-3.16a1.35,1.35,0,0,0-.94-1.32c2,.06,4.06-.71,5.93.46A.64.64,0,0,1,116.52,18.08Z" />
            <path class="bc00fe80-caac-485b-9154-902f66bf0933"
                d="M158.74,18.94c-.78,2.6-.38,6.78.77,7.52a6.37,6.37,0,0,1-2.39.1c1.37-2.87.61-5.89.55-8.85C158.78,17.47,159.05,18,158.74,18.94Z" />
            <path class="a42c2e36-78ad-4d8c-8f92-70a84730545a"
                d="M102.28,18.75a11.19,11.19,0,0,0-.34,4.64c-.44.36.45,1.39-.69,1.41a1.45,1.45,0,0,1-.64-1.09c.12-1.21-.18-2.42-.08-3.63a1.75,1.75,0,0,1,.73-1.68C101.76,18.05,102.07,18.26,102.28,18.75Z" />
            <path class="ef1c5ed2-ab5c-4536-9bbd-48426d7c8a48"
                d="M40.93,26.93c-.83-2.27-.23-4.62-.33-6.92,0-.93-.24-1.55-1.09-1.91,1.19-.62,1.91-.65,1.73,1.08C41,21.75,41.6,24.37,40.93,26.93Z" />
            <path class="bcc32421-049c-4d7c-9cd9-c69b0e50f742"
                d="M154.7,19.05l.21.23c.44,1.34.14,2.72.28,4.08-.26,1.41-1.46,2-2.39,2.88-.41.15-.51-.12-.58-.43,1.26-2,.92-4.28,1.43-6.41C153.93,19.08,154.24,18.84,154.7,19.05Z" />
            <path class="ae3ddcba-00be-451f-b038-39efa9f15127"
                d="M146.08,20.55a3.74,3.74,0,0,1,1-2.19,1,1,0,0,1,1,.74,1.44,1.44,0,0,1,0,.77A2.82,2.82,0,0,0,148,23a1.73,1.73,0,0,1,.08,1,1.08,1.08,0,0,1-1,.77,3.63,3.63,0,0,1-1-2.2A4.35,4.35,0,0,0,146.08,20.55Z" />
            <path class="b6408d8f-1243-4f81-a6e4-e8baf0aa3bc9"
                d="M113,22l.31,0c0,.88,0,1.76,0,2.64a1.75,1.75,0,0,0,1,2h-3.85a1.75,1.75,0,0,0,1.46-2c0-2.17,0-4.33,0-6.5.64,1,.16,2.14.32,3.2a6.87,6.87,0,0,1,.35,3c0,.14,0,.2,0,.15C112.72,23.56,112.39,22.71,113,22Z" />
            <path class="ee5c58e8-82ed-4671-8a9b-fb719bc7c146"
                d="M165.14,17.69l.06,8.19c0,.65,0,1.23-.71.32a3.69,3.69,0,0,0-.42-2,.66.66,0,0,1,0-.46c.81-1.85,0-3.81.4-5.69C164.66,17.82,164.77,17.52,165.14,17.69Z" />
            <path class="a79b9f70-0fb6-4a31-beaf-9895221e7488"
                d="M124,34a2,2,0,0,0-2.83.35l-.72-.71c-.19-.18-.53-.28-.35-.66h5.68a1.49,1.49,0,0,0,.42.26c.39.23,1.46-.08.78,1a1.69,1.69,0,0,1-1.85-.21Z" />
            <path class="bbd04ae9-a464-470d-9d8c-daf2f32cb05c"
                d="M70.74,45.76l.74-1.19a10.23,10.23,0,0,1,6.69,0c.37,1-.42.7-.86.72a46.83,46.83,0,0,0-5.8.17Z" />
            <path class="a7925f4f-3801-46bf-99d3-b9f58b95a1e0"
                d="M121.45,35.89c.13-.07.35-.74.36-.16q.14,6.81,0,13.62c0,.57-.23-.1-.36-.17Z" />
            <path class="aa45f05e-267c-4a1a-a3e2-9ed42ba9ce43"
                d="M164.11,23.73v.37l-.23.08a1.36,1.36,0,0,1-.65-.28c-.38-.3-.78-.56-1.14-.88a16.66,16.66,0,0,1-2.53-3.2.72.72,0,0,1,.65-.25,3.22,3.22,0,0,1,1,.61Z" />
            <path class="e33050d7-2ad8-4387-ad82-aa7244a30e8f"
                d="M143.57,25.41c.28.42.48.91,1.08,1.09h-3c1.42-2.91.52-6.08.56-9.16a.51.51,0,0,1,.54,0c.73.81.35,1.79.38,2.69.07,1.7,0,3.4,0,5.09A.35.35,0,0,0,143.57,25.41Z" />
            <path class="bcc32421-049c-4d7c-9cd9-c69b0e50f742"
                d="M88.12,18.8c0-.55,0-1.07.79-.83h0a3.56,3.56,0,0,1,0,2.7c-.26.9-1.72.43-1.78,1.57,0,.69-.37.64-.83.45l-1-1.12C86.61,21.11,88.15,20.77,88.12,18.8Z" />
            <path class="a6099dfb-52ee-44d0-8451-b84ef3fa7223"
                d="M54.47,8.5A2.34,2.34,0,0,1,54,8.42c-.45-.15-.23-.26,0-.31s.73-.17.73-.61c0-2,.08-4.1,0-6.15,0-1-.94-.67-1.53-.65s-1.31.69-2,0C55.14-.5,55.14-.5,55.14,3.5c0,1.36,0,2.72,0,4.08C55.13,8,55.25,8.59,54.47,8.5Z" />
            <path class="bbd04ae9-a464-470d-9d8c-daf2f32cb05c"
                d="M161.63,45.63c0-.5.51-.6.71-.93a8,8,0,0,1,6.38,0c-.13.9-.84.64-1.38.68a34,34,0,0,0-4.94.16Z" />
            <path class="b49a1fc5-6e85-4b46-b74b-f1ce4a399fb8"
                d="M138.93,35.45c.54.53.31,1.22.32,1.84,0,4,0,8,0,12-.1.16-.21.17-.32,0Z" />
            <path class="af4ca835-d2a3-424b-824a-da9e1731a258"
                d="M112.32,33.29l-.44.48a3.86,3.86,0,0,1-3.86-.08l-.37-.75C109.25,32.5,110.86,32,112.32,33.29Z" />
            <path class="af297189-af5c-4d3f-9096-5af3e86c37f6"
                d="M127.61,22.29A6.36,6.36,0,0,1,129,25.4c.17.34.24.68-.16.88s-.67,0-.76-.41a2.35,2.35,0,0,0-.5-1.07l-.77-1.38c-.21-.25-.51-.46-.46-.85a1.86,1.86,0,0,1,.52-1.41C127.68,21.16,127.09,22.1,127.61,22.29Z" />
            <path class="bcc32421-049c-4d7c-9cd9-c69b0e50f742"
                d="M160.2,19.83h-.65l-.81-.88c-.14-.6-.28-1.19-1.07-1.23l-1.27-.84c1.89-.58,2.67-.14,3.83,2.15A.63.63,0,0,1,160.2,19.83Z" />
            <path class="bcc32421-049c-4d7c-9cd9-c69b0e50f742"
                d="M72.92,25.15A2.9,2.9,0,0,1,71.83,23c.19-1-.19-2.1.2-3.13.38-.12.18-1.19,1-.61.14,1.77-.24,3.57.35,5.31C73.48,24.88,73.28,25.13,72.92,25.15Z" />
            <path class="bc0fd3c3-40c4-48de-935d-f72e4c267891"
                d="M72.92,25.15l0-6a.85.85,0,0,1,.44-.8c.26.06.47.14.27.47-.48,2.47-.91,4.94,1.08,7,.08.36,0,.54-.42.43A1.39,1.39,0,0,1,72.92,25.15Z" />
            <path class="ab7f2f8e-558f-4bbe-8fc2-8b0ef5d3d755"
                d="M108.41,18.31a1.53,1.53,0,0,1,1,1.53c0,1.17-.12,2.35,0,3.52a1.44,1.44,0,0,1-.59,1.19c-.71-.26-.59-.86-.58-1.41a5.48,5.48,0,0,0,0-2.7c0-.56-.18-1.11-.13-1.67A.83.83,0,0,1,108.41,18.31Z" />
            <path class="aea34be5-8b66-48cd-b53e-dd88a428406d"
                d="M132.89,23c0,.05,0,.11,0,.16s-.3.28-.3.11a18.77,18.77,0,0,1,.13-3.6c.17-.91-.24-.64-.69-.57a2.89,2.89,0,0,1,1.55-1.77c.43-.1.55.1.45.5A8.48,8.48,0,0,0,132.89,23Z" />
            <path class="fb9ba87c-ddd4-4e50-8eec-0a9ae31eb3ec"
                d="M154.7,19.05l-1,.44a17.23,17.23,0,0,1-2.5-2.62c.07-.3.23-.45.54-.32A3.41,3.41,0,0,1,154.7,19.05Z" />
            <path class="af308481-879c-4b5a-b6fb-b9d9ce48dc41"
                d="M124.35,18.76a1.84,1.84,0,0,1,.64-1.52c.48.05.5.61.87.79.57.32.67.93.89,1.47-.22.35.08.81-.25,1.13a.76.76,0,0,1-.67.06c-.53-.44-.66-1.17-1.2-1.58C124.54,19,124.45,18.87,124.35,18.76Z" />
            <path class="b6a8f2f8-fe55-4f9e-9878-d5998db701ae"
                d="M107.67,52.08l.76-.71a2.84,2.84,0,0,1,2.61-.24.81.81,0,0,1,.52,1A5.9,5.9,0,0,1,107.67,52.08Z" />
            <path class="a833b0bb-2418-48ac-a873-393b51001450"
                d="M94.16,25.5c0-2.17,0-4.35,0-6.52,0-.56-.23-1.2.39-1.63.85,1.24.13,2.78.77,4.06a.54.54,0,0,1-.1.53c-.93,0-.7.74-.72,1.28,0,.76,0,1.52,0,2.29A.2.2,0,0,1,94.16,25.5Z" />
            <path class="aebcb346-6984-4f96-8f76-e179c1c34b9a"
                d="M114,21.59a3.89,3.89,0,0,0,2.49-1.44c.46-.2.69.05.86.42,0,.95-1.08.8-1.46,1.37a1,1,0,0,1-.8.84Z" />
            <path class="ec2cbb0a-313d-48cd-bf40-978f21dfecbd"
                d="M143.57,25.41l-.39.45c-.18-3-.56-5.93.2-8.86a.43.43,0,0,1,.6,0c-.7,2.07-.19,4.19-.34,6.28C143.59,24,143.59,24.71,143.57,25.41Z" />
            <path class="ec2cbb0a-313d-48cd-bf40-978f21dfecbd"
                d="M83.45,17.79c.83-.15.4.51.4.74,0,2.44,0,4.88,0,7.33a.42.42,0,0,1-.66,0C83.65,23.18,83.18,20.48,83.45,17.79Z" />
            <path class="beaec23d-14cd-47c4-ab2b-41f3eaafc050"
                d="M83.2,25.86h.66c.8-.52.21-1.29.36-1.93s-.26-1.41.37-2c.3,1.47-.42,3.07.66,4.55h-3Z" />
            <path class="bc0691f6-1962-4ac9-b1a9-290a8f627250"
                d="M132.57,51.06a5.1,5.1,0,0,0,3.84,0c.61-.12.77.43,1.1.71a.88.88,0,0,1,1.15,0c-1.66.35-3.33,0-5,.09A1,1,0,0,1,132.57,51.06Z" />
            <path class="b3137388-a723-456e-a025-6fcc801e97c9"
                d="M59.56,50.68c-.13-.11-.38-.2-.39-.32-.13-2.49-.46-5,.17-7.45C59.53,45.49,59.14,48.1,59.56,50.68Z" />
            <path class="a833b0bb-2418-48ac-a873-393b51001450"
                d="M93.14,17.7c.73,2.58.14,5.21.32,7.8a.21.21,0,0,1-.32,0Z" />
            <path class="bcc32421-049c-4d7c-9cd9-c69b0e50f742"
                d="M117.32,20.57l-.86-.42.06-2.07.43-.88.31.45a3,3,0,0,1,.34,2.79A.26.26,0,0,1,117.32,20.57Z" />
            <path class="fe735433-d911-4592-87de-c5d356e37602"
                d="M65.17,43.25c.93-.85,1-1.68,0-2.49.25-.41.15-1,1.06-1.38V43.3c0,.37,0,.79-.49.75S65.28,43.56,65.17,43.25Z" />
            <path class="abe86f03-bc51-4318-89c1-368e04d57753"
                d="M59,34h.38v7.44c-.84-1.42-.24-3-.37-4.44C59,36,59,35,59,34Z" />
            <path class="f04d81df-2073-4f1f-99e3-a9b2fb3d2872"
                d="M106,26.21A7,7,0,0,0,107.93,24a1.58,1.58,0,0,1,.74.81C108,25.63,107.5,26.79,106,26.21Z" />
            <path class="ac027fe7-1b86-46b8-8812-e2e9c4f8a550"
                d="M93.14,25.51h1.33c.11.58.7.64,1.35,1H92.08C92.37,26,93.11,26.11,93.14,25.51Z" />
            <path class="a4a6efba-4658-47ac-af50-fa653e54099d"
                d="M126.59,22.59l.21.83a14,14,0,0,0-3.83,0c-.3-.44,0-.7.29-1a5.24,5.24,0,0,1,2.83-.18A1.2,1.2,0,0,1,126.59,22.59Z" />
            <path class="e7b81b5a-5b5c-476d-830e-6c256a9ebc2e"
                d="M127.57,24.8c.52,0,.55.43.73.81.48,1,.55.18.69-.21.5.26.75.81,1.26,1.13H127C128.16,26.23,127.41,25.36,127.57,24.8Z" />
            <path class="eb093cbc-efdc-4b26-9a7f-0e5cac438566"
                d="M73.59,18.78l-.37-.37a.27.27,0,0,1-.41,0,2.77,2.77,0,0,1,2.46-1.81c.4-.14.49,0,.43.4A3.76,3.76,0,0,0,73.59,18.78Z" />
            <path class="bc0fd3c3-40c4-48de-935d-f72e4c267891"
                d="M101.25,24.8c.61-.28.15-1.09.69-1.41a5.7,5.7,0,0,0,1.55,2.82C102.21,26.59,101.81,25.57,101.25,24.8Z" />
            <path class="b3742eb8-ec48-42f7-9dcd-bec09998fe4c"
                d="M79.66,18.31c-.07.4,0,.87-.38,1.16A3.7,3.7,0,0,0,77.13,17c-.08-.35,0-.52.41-.4C78.42,17,79.46,17.11,79.66,18.31Z" />
            <path class="b0f4f0f2-f86f-449c-973e-f36b44eb540c"
                d="M108.41,18.31l0,.44c-.18.19-.29.54-.67.36A3.38,3.38,0,0,0,105.55,17c-.07-.36,0-.53.42-.41A3.39,3.39,0,0,1,108.41,18.31Z" />
            <path class="b34b2937-2657-47d0-9993-2936fe302c9e"
                d="M56.13,50.91a3.08,3.08,0,0,0,3.66,0c.78.42.89.88-.1,1a29.66,29.66,0,0,1-3.53,0c-.26,0-.65.08-.7-.32S55.84,51.07,56.13,50.91Z" />
            <path class="b3f70be7-b349-4629-8f75-f3612252f3f3"
                d="M170.52,51.41c1.12,0,2.23,0,3.34,0,.51,0,1.11.13,1.26-.61l1.13.58c-.18.31-.61.13-.79.43l-4.47.11C170.68,51.92,170.42,51.82,170.52,51.41Z" />
            <path class="b0951c48-37a7-4df6-a311-98d15ccc8a0b"
                d="M147.05,24.84l.77-.85a2.35,2.35,0,0,1,1.52,2c-.12.29-.29.45-.62.29A2.49,2.49,0,0,1,147.05,24.84Z" />
            <path class="f70a0387-b58f-4fcd-beea-8e174f54a3e4"
                d="M100.24,40.42a5,5,0,0,1,0,3.89A6.23,6.23,0,0,1,100.24,40.42Z" />
            <path class="b20c0187-0f51-4a85-82bb-4fe8c2154721"
                d="M95.23,21.94c0-.1,0-.2,0-.3a15.17,15.17,0,0,1,2.05-1.22,1.35,1.35,0,0,1,1,.16.91.91,0,0,1,.33.37C97.76,22.23,96.52,22.15,95.23,21.94Z" />
            <path class="e61ba5ad-0f4d-4bfd-9c54-4ecae41ece53"
                d="M147.8,19.16l-.76-.8a2.85,2.85,0,0,1,1.69-1.43c.32-.16.48,0,.58.29C149,18,148.83,18.92,147.8,19.16Z" />
            <path class="ec2cbb0a-313d-48cd-bf40-978f21dfecbd"
                d="M100.53,20.08a4.42,4.42,0,0,1,.08,3.63A5,5,0,0,1,100.53,20.08Z" />
            <path class="bee3a221-613b-4318-85db-e6875c30c3b8"
                d="M138.66,51.82l-1.15,0c-.19-.27,0-.37.22-.41,1.46-.11,3,.49,4.38-.35.36.05.75.11.73.56s-.41.34-.68.34C141,51.89,139.83,51.85,138.66,51.82Z" />
            <path class="a10982c9-26f4-4b40-a252-e1f5aab9cd72"
                d="M157.71,50.68c.57,1.17,1.35.89,2.17.31.32.08.75.06.75.53s-.36.4-.64.4h-3.44C156.73,51,157.4,51.05,157.71,50.68Z" />
            <path class="a8bfc481-86c1-4139-8448-08a249672ff9"
                d="M165.14,17.69l-.63.35c-.06-.65-.38-1.12-1.59-1.26a9.1,9.1,0,0,1,3.29-.1C165.84,17.06,165.24,17.14,165.14,17.69Z" />
            <path class="bb79fab4-f7a6-432c-beae-f31e01afe9b2"
                d="M120.77,51a4.83,4.83,0,0,0,3.87,0c0,.28,1,.66.07.78a32.79,32.79,0,0,1-4.21.06c-.25,0-.53-.14-.41-.38S120.53,51.2,120.77,51Z" />
            <path class="a1c534d1-15d4-4734-b844-9bc41d66d353"
                d="M159.48,36.2a2,2,0,0,0,.28-1.55,2.5,2.5,0,0,1,.06-1.6c.63,1.05.23,2.23.4,3.35.05.29.07.8-.44.69S159.48,36.53,159.48,36.2Z" />
            <path class="ea713cae-5d43-483f-bcc1-6eb2f228f2fb"
                d="M155.19,23.36c-.64-1.32-.18-2.72-.28-4.08A4.79,4.79,0,0,1,155.19,23.36Z" />
            <path class="ac027fe7-1b86-46b8-8812-e2e9c4f8a550"
                d="M89.2,25.14a12.86,12.86,0,0,0,2,1.28c-.79-.21-2.16,1.25-2.26-.92A.53.53,0,0,1,89.2,25.14Z" />
            <path class="f814fae9-aa9b-4477-a4fd-a0e7089a17b8"
                d="M59.4,42.64c1.47-.75,4-.65,4.94.2A17.78,17.78,0,0,0,59.4,42.64Z" />
            <path class="ec2cbb0a-313d-48cd-bf40-978f21dfecbd"
                d="M109.39,23.36a4.2,4.2,0,0,1,0-3.52A5.13,5.13,0,0,1,109.39,23.36Z" />
            <path class="bf781795-2428-45ba-9705-34adc9600fb7"
                d="M89.2,25.14l-.31.36c-.45-.75-1.66-.73-1.82-1.77a.86.86,0,0,1,1.14,0A1.47,1.47,0,0,1,89.2,25.14Z" />
            <path class="b288d443-0f93-44c6-8cb0-83804781312e"
                d="M72.16,19.83C72,20.89,72.5,22,71.83,23a4,4,0,0,1,.27-3.66Q72.42,19.56,72.16,19.83Z" />
            <path class="a41c8233-11eb-400e-8dc0-53c6e717e5fb"
                d="M79.68,51.42c1.75.2,3.56-.45,5.26.36a30.92,30.92,0,0,1-4.81.12C79.84,51.91,79.53,51.85,79.68,51.42Z" />
            <path class="f418c700-dbf5-465d-b0a4-77a045cebf37"
                d="M118.07,25.45c.77.05,1.2.9,2,.84v.22c-.94-.12-2.13.8-2.76-.66C117.45,25.49,117.65,25.27,118.07,25.45Z" />
            <path class="b6d4cd01-3a88-42a7-84b8-a17c4eb39b1d"
                d="M152.12,13.48l-1.6,1.88C150.26,13.57,150.35,13.47,152.12,13.48Z" />
            <path class="a155eab2-0b23-497c-8889-e21245917571"
                d="M111.56,52.1l-.35-.71c.19-.87.72-.93,1.41-.57,0,.51.52.55.7.89C112.7,51.68,112.23,52.32,111.56,52.1Z" />
            <path class="bfb7121b-e871-4061-b0b3-aabd759aad76" d="M120.08,26.51v-.22c1-.54,2-.93,3,.22Z" />
            <path class="f2a124e4-9648-472b-9cee-92996b4df18a"
                d="M115.06,22.78a1.36,1.36,0,0,1,.8-.84c.25.27.52.53.37.95.16.46.31.93-.1,1.35C115.69,23.81,115.12,23.48,115.06,22.78Z" />
            <path class="f70f1a63-0aad-49cb-9760-1c6cf7fb9858"
                d="M98.08,20.89l-.69-.35a.44.44,0,0,1-.1-.42c.11-.46.8-.73.43-1.34,0-.49-.06-1,.65-1.09a.34.34,0,0,1,.08.29C98.7,19,99.23,20.05,98.08,20.89Z" />
            <path class="fabc117d-6574-4a44-9823-74c8f8cac187"
                d="M102.28,18.75l-1-.35a2.53,2.53,0,0,1,1.68-1.46c.39-.17.48,0,.45.36Z" />
            <path class="ae3d0e62-ef6a-4179-93b3-b0242bfd0e09"
                d="M69.69,18.75,68.6,17.34A.53.53,0,0,1,69,17c.42.3.68-.88,1.15-.13C70.06,17.55,70.67,18.33,69.69,18.75Z" />
            <path class="a285fa85-4564-429c-a200-a53041f60457"
                d="M138.55,17.06c1.39-.91,1.09.23,1.13,1,0,.38.45.92-.35,1l-.74-1.36C138.53,17.48,138.42,17.28,138.55,17.06Z" />
            <path class="e7c3ec9c-646c-4366-8381-dc0b6ab7f8fc"
                d="M98.08,20.89c.56-.91.27-1.94.37-2.91a2,2,0,0,1,.15,3Z" />
            <path class="a3a3b930-b80b-426a-a52c-3dee7a97158a" d="M149.25,51.42h4.9A5.86,5.86,0,0,1,149.25,51.42Z" />
            <path class="bb46088a-10f4-4fc6-9926-73f542a32cea"
                d="M127.19,34c-.32-.55-1.12-.11-1.42-.69a7.64,7.64,0,0,1,3.33,0l.57.06-1.89.75A.43.43,0,0,1,127.19,34Z" />
            <path class="fb8d6098-1240-41b4-b403-265d8d0bcf60"
                d="M88.21,23.7l-1.14,0-.8-1a.93.93,0,0,0,.83-.45C87.61,22.62,88.23,22.91,88.21,23.7Z" />
            <path class="f857ad3d-b70a-4d9b-8bd5-6053942d839d"
                d="M153.1,34.36c1.05-1.5,2.56-.35,3.83-.63,0,0-.22.25-.38.35C155.41,34.31,154.21,33.84,153.1,34.36Z" />
            <path class="f857ad3d-b70a-4d9b-8bd5-6053942d839d" d="M147.16,34.07l-.68-.13c1.26,0,2.56-.79,3.76.2Z" />
            <path class="b7bbfe95-419a-439d-b0c7-e28349806478"
                d="M131.81,19.47a10.36,10.36,0,0,1-.29,3.88C131.33,22,131.08,20.72,131.81,19.47Z" />
            <path class="f2302248-8214-4ee3-8d7b-330359e2ea7d"
                d="M66.78,50.91c.75.92,1.75.36,2.64.45a.2.2,0,0,1,.25.06c.12.09.15.17.11.26s-.08.12-.12.12c-.91,0-1.83.1-2.75.11-.31,0-.77.12-.82-.36S66.49,51.06,66.78,50.91Z" />
            <path class="f17c38ae-c256-4e05-9ad7-0568f293df92"
                d="M148.72,26.27l.47-.37c.61-.38,1.19-.07,1.79.06a1.3,1.3,0,0,1,.8.65A3.19,3.19,0,0,1,148.72,26.27Z" />
            <path class="ee9e16ab-3a40-4be2-b15c-8750efee7585"
                d="M164.1,24.1c1.21.5.82,1.3.39,2.1-.37-.44-.89-.78-1-1.4a2.9,2.9,0,0,0,.61-.7Z" />
            <path class="a82c0507-180b-4bc1-b2dc-73fed178e7cd"
                d="M123.37,22.56l-.4.9-.37.68c-.22,0-.25-.25-.35-.4a5.11,5.11,0,0,1,1-2.22.69.69,0,0,1,.49.37A.52.52,0,0,1,123.37,22.56Z" />
            <path class="fb8d6098-1240-41b4-b403-265d8d0bcf60"
                d="M116.13,24.24l.1-1.35c.5.47,1.14.81,1.32,1.55-.26.3-.54.54-1,.35Z" />
            <path class="ec2cbb0a-313d-48cd-bf40-978f21dfecbd"
                d="M63.34,23.72c-.75-1.12-.4-2.32-.28-3.5,0,0,.1,0,.12.06a2.88,2.88,0,0,1,.13.31Z" />
            <path class="bafebb6e-cb28-4be0-9e25-8c8592c5d6a4"
                d="M88.88,20.68c0-.9,0-1.8,0-2.7C89.94,18.88,89.59,19.78,88.88,20.68Z" />
            <path class="be32c5e7-b29c-40fb-995d-0a6ba5401175"
                d="M134.94,16.59a2.27,2.27,0,0,1,2.28,0c-.54.57-1.06.31-1.53.34C135.5,16.72,135.09,16.92,134.94,16.59Z" />
            <path class="b9786fa7-3e85-4255-a535-9653309114d4"
                d="M143.55,34c.54.34.1,1.22.82,1.47a1.6,1.6,0,0,1-1,1.22Z" />
            <path class="b8e20235-dfbf-452c-87f7-a303d5edbadd"
                d="M77.54,16.58l-.41.4H75.7l-.43-.4A2.4,2.4,0,0,1,77.54,16.58Z" />
            <path class="a25de59b-8903-4e19-a61e-df895693482d"
                d="M11.45,28.65A2,2,0,0,1,13.37,27,5.38,5.38,0,0,1,11.45,28.65Z" />
            <path class="a3a1d93e-1d4b-40cb-86e1-7e8dba7a113d"
                d="M124.35,18.76l.5.1a1.32,1.32,0,0,1-.68,1.77.57.57,0,0,1-.56-.46Z" />
            <path class="bf7af5bb-b314-465a-a709-e72c7559a6c7"
                d="M103.92,26.2a3.7,3.7,0,0,1,2,.32C105.16,27,104.43,27.23,103.92,26.2Z" />
            <path class="ff195e6c-8fe4-4694-8e22-081284b58638"
                d="M117.6,20.44a8.48,8.48,0,0,0-.34-2.79C118.45,18.45,118.41,19.4,117.6,20.44Z" />
            <path class="ee78804a-5887-4788-b0b3-464afa1e8db3" d="M120.09,33l.35.66-2-.3A1.73,1.73,0,0,1,120.09,33Z" />
            <path class="e502899f-6e4d-448a-af0c-748ce969c360"
                d="M129.1,33.27l-3.33,0V33A8.33,8.33,0,0,1,129.1,33.27Z" />
            <path class="bc7bfe59-f510-44b3-8037-6737f27f4e0a"
                d="M69.69,18.75c.67-.49.12-1.26.41-1.84a6.93,6.93,0,0,1,.24,2.74C69.83,19.49,69.79,19.1,69.69,18.75Z" />
            <path class="bc449307-dd58-40ac-9593-4782b714af6e"
                d="M116.58,24.79l1-.35.52,1-.75.4C117.18,25.42,116.47,25.39,116.58,24.79Z" />
            <path class="b6d4cd01-3a88-42a7-84b8-a17c4eb39b1d"
                d="M144,17l-.47,0c-.31.35-.78.12-1.13.34h-.16l-.89-.59a5.13,5.13,0,0,1,2.81,0,.35.35,0,0,1,0,.12Z" />
            <path class="be1effd2-7006-4ab0-9459-2bed7f02c145"
                d="M134.94,16.59l.75.37-1.71.85-.45-.5A1.93,1.93,0,0,1,134.94,16.59Z" />
            <path class="fca75141-b1e6-4b56-8bf0-1160994b92a5"
                d="M66.11,17l-.43-.42a1.64,1.64,0,0,1,1.87,0c.12.08.16.16.12.25s-.08.13-.11.13Z" />
            <path class="f814fae9-aa9b-4477-a4fd-a0e7089a17b8"
                d="M133.92,39c-.65-.82-.24-1.76-.31-2.65C134.4,37.15,134.14,38.07,133.92,39Z" />
            <path class="a4a6efba-4658-47ac-af50-fa653e54099d"
                d="M106,16.55l-.42.41-1.12,0c-.15-.1-.38-.12-.41-.36A1.9,1.9,0,0,1,106,16.55Z" />
            <path class="bafebb6e-cb28-4be0-9e25-8c8592c5d6a4"
                d="M108.67,24.78l-.74-.81.16-1.64c.57,0,.49.34.28.69a2.51,2.51,0,0,0,.43,1.53A.21.21,0,0,1,108.67,24.78Z" />
            <path class="b6d4cd01-3a88-42a7-84b8-a17c4eb39b1d"
                d="M123.61,20.17l.43.44a.9.9,0,0,1-.49,1.32l-.32-.41C123.4,21.08,123,20.48,123.61,20.17Z" />
            <path class="b20c0187-0f51-4a85-82bb-4fe8c2154721"
                d="M162.08,23a2,2,0,0,1,1.32.71.53.53,0,0,1,0,.76A2.11,2.11,0,0,1,162.08,23Z" />
            <path class="a4e71ef8-5da3-41c3-8c6b-2b0cfa1c5e7c"
                d="M151.77,16.55l-.43.4a.88.88,0,0,1-1,.24.9.9,0,0,1-.51-.64A2,2,0,0,1,151.77,16.55Z" />
            <path class="b0f4f0f2-f86f-449c-973e-f36b44eb540c"
                d="M11.4,20.71a1.41,1.41,0,0,1-1.29,1.6A3.09,3.09,0,0,1,11.4,20.71Z" />
            <path class="ae6e4c11-803a-4465-904f-084787679f2d"
                d="M163.38,24.49c0-.25,0-.5,0-.76l.7.37c.07.26.43.52.18.74s-.52,0-.79,0A.4.4,0,0,1,163.38,24.49Z" />
            <path class="b0bd5fe7-0760-454d-bf43-d9851c687158"
                d="M125.86,18a1.18,1.18,0,0,1-.87-.79c0-.27.08-.71.37-.63C126.13,16.81,125.65,17.56,125.86,18Z" />
            <path class="bfb7121b-e871-4061-b0b3-aabd759aad76"
                d="M122.25,23.74l.35.4c0,.57-.14,1-1,1A2.52,2.52,0,0,1,122.25,23.74Z" />
            <path class="ec2cbb0a-313d-48cd-bf40-978f21dfecbd"
                d="M72.16,19.83l-.06-.48a.91.91,0,0,1,.71-1l.41,0a.72.72,0,0,1-.34.7Z" />
            <path class="ace72966-95f3-4a10-ad92-7a3c57d482cb"
                d="M76.05,26.27c.44-.26.7.31,1.1.22-.59.62-1.25.36-1.9.13C75.42,26.29,75.82,26.47,76.05,26.27Z" />
            <path class="ec2cbb0a-313d-48cd-bf40-978f21dfecbd"
                d="M146.08,20.55a1.85,1.85,0,0,1,0,2.09A5.25,5.25,0,0,1,146.08,20.55Z" />
            <path class="ad03617a-38e4-4d9c-8493-58877bcf997b"
                d="M6.52,48.34a1.42,1.42,0,0,1,1.1-1.52C7.6,47.57,7,48,6.52,48.34Z" />
            <path class="bf0ab73d-20ba-4e98-bb46-0333ecfd5a48"
                d="M61.93,20.55a1.73,1.73,0,0,1,0,2.1A4.66,4.66,0,0,1,61.93,20.55Z" />
            <path class="e33050d7-2ad8-4387-ad82-aa7244a30e8f"
                d="M9,31.29c.11-.6,0-1.44,1.07-1.09A2.61,2.61,0,0,1,9,31.29Z" />
            <path class="a62f13c7-1d97-4b46-a1e0-866ad30fb6a3"
                d="M139.33,19l.35-1c.09.39.19.78.24,1.17,0,.21.05.54-.29.43C139.49,19.57,139.43,19.24,139.33,19Z" />
            <path class="a6ffac2c-d2af-46cc-98d6-de7aced20cb9"
                d="M35.11,19.75c-.2.77-.68.78-1.28.47A1.61,1.61,0,0,1,35.11,19.75Z" />
            <path class="e33050d7-2ad8-4387-ad82-aa7244a30e8f"
                d="M36.69,13.45c-.11-.11-.6-.12-.33-.27s.86-.7,1.35-.12C37.41,13.29,37.12,13.55,36.69,13.45Z" />
            <path class="eaf26400-5fff-4e00-bf77-f626375dce25" d="M76.05,26.27l-.8.35a1,1,0,0,1-1-.38l.42-.43Z" />
            <path class="b608952c-859e-4d88-b530-4de2ea7cf3c8"
                d="M151.78,26.61l-.81-.34a1.21,1.21,0,0,1,1.4-.48l.43.45A1.07,1.07,0,0,1,151.78,26.61Z" />
            <path class="fe473743-e1ca-45e3-8d3d-8701882c8783"
                d="M29.8,7.34c-.13,1-.89.7-1.5.73A2.4,2.4,0,0,1,29.8,7.34Z" />
            <path class="fca72bb6-3a43-4d7d-b298-c1110d001759"
                d="M50.05,1a1.14,1.14,0,0,1,.34.12c.2.17.06.28-.12.27-.51,0-1.07.18-1.52-.24Z" />
            <path class="b6d4cd01-3a88-42a7-84b8-a17c4eb39b1d" d="M67.56,17v-.38A1.85,1.85,0,0,1,69,17l-.35.3Z" />
            <path class="a885cf2d-cb93-403a-8a6d-418c041953ac"
                d="M104,16.56l.41.36-1,.38-.45-.36C103.2,16.51,103.63,16.59,104,16.56Z" />
            <path class="a5bca8a4-2a17-413e-8fe8-0b04b23ac451" d="M138.93,49.28h.32c-.06.53.26,1.22-.6,1.41Z" />
            <path class="b288d443-0f93-44c6-8cb0-83804781312e"
                d="M127.61,22.29c-.53-.15-.33-.85-.78-1.06a.38.38,0,0,1,0-.42.28.28,0,0,1,.39.07C127.72,21.24,127.49,21.82,127.61,22.29Z" />
            <path class="ec2cbb0a-313d-48cd-bf40-978f21dfecbd"
                d="M138.55,17.06c0,.21.38.39,0,.62-.24-.28-1-.19-.76-.73C138,16.59,138.3,17,138.55,17.06Z" />
            <path class="a584ffa8-4c2d-40dc-9bcf-56d9d180723e"
                d="M149.81,16.55l.44.37c-.25.42-.57.64-1.06.37l-.46-.36C149,16.55,149.41,16.56,149.81,16.55Z" />
            <path class="ef5043aa-c618-4689-9c73-116d85cab913"
                d="M91,52.16c.23-.4.32-.91.85-1.08C91.66,51.55,92,52.42,91,52.16Z" />
            <path class="b501d537-efd3-43eb-8325-05424f8b6456"
                d="M159.82,33.05l-.06,1.6c-.47-.49-.19-1.09-.26-1.64A.23.23,0,0,1,159.82,33.05Z" />
            <path class="b048cba4-980e-4ba1-8909-f7d8ba760c54" d="M160.2,19.83l0-.81a1.61,1.61,0,0,1,1,1.16Z" />
            <path class="b167c172-c297-4ddc-b838-77c580ca00ed"
                d="M87.44,33.61l.34-.61c.23,0,.61-.07.59.15C88.33,33.71,87.83,33.62,87.44,33.61Z" />
            <path class="ec2cbb0a-313d-48cd-bf40-978f21dfecbd" d="M50.61,9.25c.35-.77.82-.44,1.29-.14Z" />
            <path class="eb0fb797-8287-4156-810d-6a175f2e9084"
                d="M69.66,51.8v-.38a2.33,2.33,0,0,1,1.75.2A2.13,2.13,0,0,1,69.66,51.8Z" />
            <path class="bf0ab73d-20ba-4e98-bb46-0333ecfd5a48"
                d="M25.37,33.71c0-.78.39-.83,1-.47A1.16,1.16,0,0,1,25.37,33.71Z" />
            <path class="bc0fd3c3-40c4-48de-935d-f72e4c267891"
                d="M127.21,20.88h-.37a.42.42,0,0,1-.36-.36c0-.36-.09-.76.27-1Z" />
            <path class="a1b3aa60-26dd-4759-9bac-85fc483d06f5"
                d="M175.46,51.8l.79-.43c.26.06.72.06.75.18.12.45-.31.33-.54.34A8.44,8.44,0,0,1,175.46,51.8Z" />
            <path class="b42c19f7-9111-4827-aee9-6b86fc568a1f" d="M134.89,26.61H137A2.32,2.32,0,0,1,134.89,26.61Z" />
            <path class="b40abc5e-fcea-4eb5-8b81-4373c1ca992b" d="M65.57,26.62h2.07A2.26,2.26,0,0,1,65.57,26.62Z" />
            <path class="afba9d8b-deba-43fd-b7ce-1a8c29764e50"
                d="M137.79,26.48l-.38-.34c.36-.2.84-.74,1.11-.31S138.1,26.31,137.79,26.48Z" />
            <path class="ad888eaf-58d9-4377-a4fd-43f20bc5cdb6"
                d="M78.17,44.61l-6.69,0c.72-2.58,2.31-4.77,3.35-7.32A42.6,42.6,0,0,1,78.17,44.61Z" />
            <path class="ad888eaf-58d9-4377-a4fd-43f20bc5cdb6"
                d="M168.72,44.66l-6.38,0c.61-2.67,2-5,3.32-7.92C166.69,39.77,168.42,41.91,168.72,44.66Z" />
            <path class="accc6b06-6ba4-405f-9f9b-910c76d3245a"
                d="M127.19,34l.59.08c2.5,1.21,3.26,2.43,2.95,4.69-.39,2.84-3.74,3.84-6.07,3.39-.46-.09-.44-.5-.44-.84,0-2.06,0-4.12,0-6.18,0-.71.45-.87.92-1.09Z" />
            <path class="e8c4ef68-586a-44da-9070-aff1196c24f0"
                d="M124,42.11a19.5,19.5,0,0,1,0-7.65Q123.94,38.28,124,42.11Z" />
            <path class="fd19ea94-fe2e-42b8-a33e-52fc166e5e08"
                d="M126.41,42.84c-.68-.09-1.41.28-2-.28C125.06,42.67,125.8,42.29,126.41,42.84Z" />
            <path class="e94af283-b9e2-4df9-b8f5-89222ea0ba58"
                d="M112.62,50.82l-1.41.57-2.78,0c-3-.88-4.17-3.15-4.74-5.93a15.32,15.32,0,0,1,.1-6.67A6.89,6.89,0,0,1,108,33.69l3.86.08c3,1.19,3.9,3.79,4.28,6.67a18,18,0,0,1-.09,5.28A7,7,0,0,1,112.62,50.82Z" />
            <path class="a7844ba4-37f1-42c7-9ff9-4b3e6b474cd5" d="M116.63,44.25V41.14h.17v3.07Z" />
            <path class="ee4554a6-855a-4eb6-9989-221ba48970a3"
                d="M108.37,23l-.28-.69V20.88a.55.55,0,0,1,.3-.35A2.07,2.07,0,0,1,108.37,23Z" />
            <path class="ec2cbb0a-313d-48cd-bf40-978f21dfecbd"
                d="M108.38,20.53l-.3.35-.38-1.77.67-.36C108.37,19.35,108.38,19.94,108.38,20.53Z" />
            <path class="be0da385-3b22-4f53-aa42-640c0a69c4d7" d="M141.13,49.52V35.83h.18V49.58Z" />
            <path class="e47afc65-c3b4-443e-ac3f-69fd712bdded" d="M123.72,49.62V43.69h.13v5.93Z" />
            <path class="ac15894e-1cc7-459e-a218-75c81077a8c8" d="M150.92,34.85V49.16h-.17V34.78Z" />
            <path class="b49a1fc5-6e85-4b46-b74b-f1ce4a399fb8" d="M59.83,33.4h4.51v.18H59.82Z" />
            <path class="ec2cbb0a-313d-48cd-bf40-978f21dfecbd"
                d="M84.57,21.6a4.86,4.86,0,0,1,.13-4.24C84.66,18.78,84.61,20.19,84.57,21.6Z" />
            <path class="b454befe-41a4-43c6-afc5-ca955e418567"
                d="M97.46,20.17l-.07.37a2.34,2.34,0,0,1-2.15,1.1c-.87-.09-.75-.74-.74-1.31,0-1,0-2,.06-3,1.69-.45,2.64.31,3.08,1.89C98.2,19.67,97.65,19.88,97.46,20.17Z" />
            <path class="b288d443-0f93-44c6-8cb0-83804781312e"
                d="M97.46,20.17l.18-.93c0-.15,0-.31.08-.46C98.21,19.35,98.35,19.85,97.46,20.17Z" />
            <path class="f2525a13-a53d-45fd-8253-006c504e3b25"
                d="M113,22c0,1.17,0,2.34,0,3.51-.7.24-.37-.55-.69-.7V21.26h.35A.8.8,0,0,0,113,22Z" />
            <path class="bd22519e-e638-4fa6-b288-bc16bfd804f9" d="M112.63,21.25V17.8c.19,1.15.69,2.31,0,3.44Z" />
            <path class="ffdd5812-8932-4896-a7b4-83d5adc81f44"
                d="M149.19,17.29l1.06-.37,1.09,0c1.38.3,1.9,1.41,2.39,2.54.2,2.24.47,4.5-1.36,6.3l-1.4.48-1.78-.37c-.46-.64-.92-1.27-1.37-1.91l-.13-1a3.52,3.52,0,0,1,0-3.16l.12-.69C148.26,18.54,148.73,17.92,149.19,17.29Z" />
            <path class="b861ac13-bbd2-41d3-ac3f-2463b3ac9246" d="M154.3,20.49a2.7,2.7,0,0,1,0,2.11Z" />
            <path class="b288d443-0f93-44c6-8cb0-83804781312e"
                d="M147.68,19.85V23C146.63,22,146.81,20.91,147.68,19.85Z" />
            <path class="a11c12c7-7967-420c-ade7-3c581f2e558d"
                d="M112.28,24.78l.69.7c-.06.24,0,.69-.42.51S112.35,25.2,112.28,24.78Z" />
            <path class="b7c17cef-360e-4e93-8321-25bf668e6c5a"
                d="M142.38,17.33a1.27,1.27,0,0,1,1.13-.34c-.74,2.22-.18,4.51-.34,6.77,0,.69,0,1.4,0,2.1-.7-.06-.35-.6-.35-.89,0-2,0-4,0-6C142.79,18.39,143,17.74,142.38,17.33Z" />
            <path class="e33050d7-2ad8-4387-ad82-aa7244a30e8f"
                d="M126.48,20.53l.36.36c0,.11,0,.23,0,.34-.06.46.16,1-.24,1.36h-.09l-.06.07c-.42-.64-1-1.24-.62-2.11Z" />
            <path class="e45553cf-8de4-4a38-9e2f-38d87ba2db8b"
                d="M125.82,20.54c.16.72.78,1.3.62,2.11l-3.07-.09.18-.63.49-1.32.81-1.75A2.68,2.68,0,0,1,125.82,20.54Z" />
        </g>
    </g>
</svg>