<svg xmlns="http://www.w3.org/2000/svg" viewBox="0 0 175.35 36.48">
    <defs>
        <style>
            .fcddac4c-7aba-4dad-a9ed-368e747bd341 {
                fill: #ed1d23;
            }

            .b66b50e0-9cc5-4113-afc0-618ed09019ac {
                fill: #ee1f25;
            }

            .aca6344a-29df-4510-8762-a336914fcd06 {
                fill: #ee2128;
            }

            .e22a996c-e5a1-4f5d-b233-cc3990ac8788 {
                fill: #ed1b20;
            }

            .b8df1db5-a236-4798-99e2-0b72aa44c458 {
                fill: #ee1e24;
            }

            .a44f7462-b80f-4340-8559-4bab99351f0d {
                fill: #ee1d23;
            }

            .abeeb6d6-66b3-41e3-a3ef-68c1e3eb59be {
                fill: #ee1e23;
            }

            .b38f372a-6df8-4c62-ad22-2fc4a1d5500e {
                fill: #ee1e26;
            }

            .b75e41c9-8744-4e9a-9350-e9e489a06f27 {
                fill: #ed151c;
            }

            .ab577c27-481c-402f-a04f-15a2b73d1571 {
                fill: #ed2029;
            }

            .e77b5333-dac3-451a-9b19-baf15671f798 {
                fill: #ee1e25;
            }

            .f77e690f-4310-4080-ad16-389bb214831d {
                fill: #ec171c;
            }

            .b489dfec-9f47-4c75-b72b-9c781a919bee {
                fill: #ed1211;
            }

            .b45978d8-4e94-4cb0-9bbb-5761878693c8 {
                fill: #ee1b19;
            }

            .a6338372-8628-4f78-a3f5-2a7e545db850 {
                fill: #ef3135;
            }

            .a110cf1e-8cfe-4575-a461-b23a26a6f3a6 {
                fill: #ec1319;
            }

            .e07a400e-b8ed-4717-a763-dec403b744cb {
                fill: #ec0f15;
            }

            .fa24b66d-bb7f-4bdc-8ba5-abeb7af02344 {
                fill: #ed141a;
            }

            .ac5e4895-314d-4952-8790-a54f805ca828 {
                fill: #ec0d12;
            }

            .a3053256-1884-45f9-93bf-9780226d0b85 {
                fill: #ee232f;
            }

            .a5f4ddbb-e8c2-49c7-8f2e-02ad2992c1ac {
                fill: #ee2026;
            }

            .a6eb3529-b6e3-41a7-8572-7148444ee96e {
                fill: #ee2425;
            }

            .e62fbd63-4a4d-43d2-b96d-df114f5606ae {
                fill: #ec0e14;
            }

            .a8883b56-8c42-48f0-9906-001e13c266c0 {
                fill: #ec1016;
            }

            .b78c0324-bbe3-4a63-acee-e814481f46bd {
                fill: #ee2b31;
            }

            .e139563f-aedc-4fde-a28e-24fe4e07c499 {
                fill: #ef3036;
            }

            .bd8570e3-5588-4925-8201-98d7311d4717 {
                fill: #ee2427;
            }

            .b1bce109-be58-4db8-a8e4-c84c8b59f507 {
                fill: #ef2c32;
            }

            .e0dff7d8-523e-474a-b427-bb8d54b37126 {
                fill: #ec0c10;
            }

            .b1bd01d8-9b13-49be-b113-c7ca7fee8609 {
                fill: #ef2628;
            }

            .a761bb48-443d-4ffd-abc0-8ffa5801de1a {
                fill: #ee2a30;
            }

            .f4db3d8a-d399-4744-afb4-0d5eea7f2885 {
                fill: #ec0c12;
            }

            .ab33e71b-9de7-4b3a-8fe6-d3f32db6c7d8 {
                fill: #ee252b;
            }

            .b8b5501a-d4cc-412a-acec-c62430f5b0b1 {
                fill: #ee222a;
            }

            .b2df83a8-2a6e-4271-a45c-ee0c0e9aec00 {
                fill: #ee292f;
            }

            .e664fd61-056c-42ba-97c3-c7a95703f784 {
                fill: #ee262c;
            }

            .e64ad0b6-0602-4d0a-9522-9d58bae4e596 {
                fill: #ec0b10;
            }

            .b04c511c-695b-4a1b-9f29-982f1fe1c364 {
                fill: #ec0b14;
            }

            .a9880460-ba5a-44c4-b1e9-a38facece2a2 {
                fill: #f16072;
            }

            .ecda92dd-f659-4695-8746-997158699f44 {
                fill: #ee262b;
            }

            .f3e1ec1e-16d7-4f3e-9090-8ff1fb42591b {
                fill: #ed1b29;
            }

            .a5c2cb98-26fb-49b5-a681-1e2bc04a7f8a {
                fill: #ee2429;
            }

            .b35c202f-34e0-41d7-8db1-9d15929f237d {
                fill: #fefcfc;
            }

            .e05b5ac9-ac54-4c7c-96d1-4e322932215e {
                fill: #ed191e;
            }

            .ab652796-1389-49b6-83f2-9187493444e3 {
                fill: #fefdfd;
            }

            .f046aec9-30ff-498f-9a58-44d3cdb3ebdb {
                fill: #ee272d;
            }

            .a456cfc3-06a4-4984-98e7-7e3c9296a3b2 {
                fill: #fdeeee;
            }

            .a5995bfc-d1b9-4e80-897e-a8b0524bcc15 {
                fill: #ee272c;
            }

            .e106ea2f-cad9-45f9-9345-0264115e71d3 {
                fill: #ec0309;
            }

            .a076880d-bd29-4d07-bf6c-de7cd28d3391 {
                fill: #ec141a;
            }

            .e92f0d00-09b5-41f1-97ed-c0c9cc0d846b {
                fill: #ec1117;
            }

            .e17fd97a-7613-46d6-9f7d-fc3de4982aae {
                fill: #ed1c22;
            }

            .ff577ddf-d264-4bd3-9289-8d255c1c2a11 {
                fill: #fdedee;
            }

            .e28b44f8-c639-422a-a81c-67bb7efeb8a2 {
                fill: #ed1118;
            }

            .acb82845-6fb7-4c1f-9112-0068d3eb5f2c {
                fill: #ed191f;
            }

            .b109cb2c-4357-43ca-ab8e-ff2ca3635019 {
                fill: #ec0d13;
            }

            .b2364465-6f1d-4f7d-9d64-322b957afbde {
                fill: #ed181e;
            }

            .f0da6be3-3876-4ed8-9cda-384df578d846 {
                fill: #ed161c;
            }

            .bcf0302b-d9e7-416f-8fe7-e98eeefcaa33 {
                fill: #ed141b;
            }

            .f1aa9e01-dace-4520-933e-4d8a5c7a18c6 {
                fill: #ed1117;
            }

            .a69aecbc-166d-41fe-be47-d3c4077f2597 {
                fill: #ed1a20;
            }

            .af2a9e38-5e9e-448e-9004-5759406e9244 {
                fill: #fcdfdf;
            }

            .a6a745e3-1257-42a5-8daa-0c777b54b1b5 {
                fill: #ed0e14;
            }

            .afdb24a6-7eea-44e6-b907-63ce15347d36 {
                fill: #fefbfb;
            }

            .e07c21d5-034a-4355-b772-bad6bdec10b1 {
                fill: #fef8f8;
            }

            .baf7f578-d19b-4f4f-9f39-36623172ccb7 {
                fill: #fefafb;
            }

            .aa385fd9-9959-48db-91f2-acf13aba76c2 {
                fill: #ed0f13;
            }

            .aada5cff-73c9-41ee-8c1b-241460ae1a81 {
                fill: #fcdddd;
            }

            .f5e29c35-61af-4ecb-a7e2-07e311f16647 {
                fill: #fbd4d7;
            }

            .f83a2f61-17ac-4869-b14d-a524e50a9df4 {
                fill: #ec0a10;
            }

            .b9810710-6074-4bfb-bb7a-e95fed16831b {
                fill: #f9c2c5;
            }
        </style>
    </defs>
    <title>prov_6</title>
    <g id="e6847a7a-c846-4089-aab6-d8f151d07501" data-name="Capa 2">
        <g id="f0336b59-4458-4eec-9a03-8dfb17072c1a" data-name="Capa 1">
            <path class="fcddac4c-7aba-4dad-a9ed-368e747bd341"
                d="M133.87,26V17.37c0-.7-.11-1.43,1-1.39,3.56.13,7.14-.29,10.7.26a6.91,6.91,0,0,1,5.56,4.26,13.59,13.59,0,0,1,.37,10.27c-1.26,3.51-4.14,5-7.73,5.16-2.89.1-5.77,0-8.66,0-1,0-1.26-.38-1.24-1.32C133.9,31.78,133.87,28.9,133.87,26Z" />
            <path class="fcddac4c-7aba-4dad-a9ed-368e747bd341"
                d="M154.91,24.12c0-4.71,3.91-8.22,9.45-8.47,4.81-.22,8.53,1.8,10,5.47,1.84,4.42,1,10.19-2.42,13-3.66,3-8,2.89-12.12,1.17a7.56,7.56,0,0,1-5-7.47A10.12,10.12,0,0,1,154.91,24.12Z" />
            <path class="fcddac4c-7aba-4dad-a9ed-368e747bd341"
                d="M66.84,35.09c.63.62.3.86-.38.87-1.76,0-3.51,0-5.27,0-.82,0-1-.59-1.31-1.13-.87-1.6-1.71-3.21-2.6-4.8a8.09,8.09,0,0,0-1.07-1.53A1.68,1.68,0,0,0,54.5,28c-.71.23-.44.95-.45,1.47,0,1.82,0,3.64,0,5.45,0,.81-.27,1.13-1.08,1.1-1.44-.06-2.88-.06-4.32-.09.77-1.16,1.94-.49,2.86-.47,1.48,0,2-.4,1.88-1.9a25.38,25.38,0,0,1,0-3.61c0,.17-.33.44-.09.37,0,0,.06.05.06.17,0,1.26,0,2.51,0,3.77,0,.77-.26,1.07-1.08,1.15-3.79.36-3.82.36-3.82-3.48,0-4.57,0-9.15,0-13.72,0-1.35.41-1.74,1.71-1.66,3.42.2,6.87-.31,8.81.06-2.15-.38-5.81.1-9.45-.06-1.21-.05-1,.79-1,1.53V34.39c0,.49.16,1-.18,1.46-.73-.33-.37-1-.37-1.48,0-5.57,0-11.15,0-16.72,0-1.29.31-1.75,1.67-1.7,3.57.13,7.15,0,10.7.19s5.11,1.7,5.53,4.53-.84,5-4.19,6.43c2.9,2,4,5.06,5.27,8-1.74.57-3.51.09-5.25.29C63.33,35.15,65.1,35.69,66.84,35.09Z" />
            <path class="fcddac4c-7aba-4dad-a9ed-368e747bd341"
                d="M82.56,16.32c3.91,1,6.12,3.46,6.44,7.53.09,1.51-.28,3,0,4.52a8,8,0,0,1-5.66,7.26,13.44,13.44,0,0,1-9.23-.18,7,7,0,0,1-1.33-.69c-5.56-3.64-5.55-13.84,0-17.48.82-.54,1.81-.41,2.54-1,.64-.33,1.44.18,2-.38l0,0a9.11,9.11,0,0,1,3.49,0l0,0C81.22,16.47,82,15.85,82.56,16.32Z" />
            <path class="fcddac4c-7aba-4dad-a9ed-368e747bd341"
                d="M117.72,32.58s-.11.09-.11.14c-.48,3.83-3.3,3.28-5.93,3.28-1.3,0-1.46-.29-1-1.48,2-5.14,3.85-10.32,5.82-15.47,1.45-3.79.44-3,4.42-3.07.63,0,1.26.06,1.88,0a1.71,1.71,0,0,1,2.06,1.35Q128,26,131.31,34.56c.39,1,.39,1.54-.89,1.41a6.47,6.47,0,0,0-1.32,0c-2.28.21-4.39.2-4.64-2.88,0-.19-.33-.35-.5-.53A9.66,9.66,0,0,0,117.72,32.58Z" />
            <path class="fcddac4c-7aba-4dad-a9ed-368e747bd341"
                d="M98,36.06c-3.62-.17-5.76-1.78-6.7-5-.35-1.2-.28-1.93,1.24-1.87A13.28,13.28,0,0,0,95,29.09a1.75,1.75,0,0,1,2.33,1.41c.42,1.44,1.74,1.9,3.16,1.86,1.21,0,2.33-.44,2.53-1.79s-.76-1.88-1.85-2.22c-1.85-.58-3.76-1-5.55-1.75-2.8-1.13-4.13-3.2-3.84-5.59a5.92,5.92,0,0,1,4.93-5,15.84,15.84,0,0,1,6.54-.05,5.89,5.89,0,0,1,4.91,4.36c.28,1,0,1.43-1,1.37a2.68,2.68,0,0,0-.75.05c-2.14.49-4,.34-5-2a2.57,2.57,0,0,0-3.84,0,1.7,1.7,0,0,0,.79,2.82c1.87.69,3.8,1.23,5.71,1.8,3.32,1,4.6,3.24,4.53,5.42a6.65,6.65,0,0,1-5.1,5.75c-.48.11-1,.26-1.44.38C100.7,36,99.35,35.73,98,36.06Z" />
            <path class="fcddac4c-7aba-4dad-a9ed-368e747bd341"
                d="M6.51,20.14c-1.17,2.51-.72,3.31,1.83,3.31,1.89,0,3.78.12,5.65,0,1.65-.13,1.7.74,1.61,1.93-.08,1,.42,2.33-1.53,2.2-2.19-.14-4.4.06-6.59-.06-1.85-.1-1.36,1.13-1.43,2.11S6,31.54,7.54,31.46c2.5-.13,5,0,7.53-.06,1.24,0,1.76.32,1.58,1.58a3.57,3.57,0,0,0,0,1.13c.22,1.44-.27,1.93-1.82,1.89-4.39-.11-8.78,0-13.18-.06-.55,0-1.27.4-1.65-.4,2.53-.41,5.07-.11,7.61-.18,2.05,0,4.11,0,6.16,0,2.48,0,2.89-.68,1.86-3.1-2.5-.26-5,0-7-.11,1.49,0,3.48,0,5.47,0,.66,0,1.41-.22,1.91.47,0,.32,0,.63,0,.94.19,1.34-.25,1.84-1.71,1.8-4.48-.12-9,0-13.43-.07a.94.94,0,0,1-.44-.57c-.15-5.67,0-11.34-.05-17a1.62,1.62,0,0,1,.26-1.07,2.27,2.27,0,0,1,1.61-.32H13.86c.61,0,1.27-.1,1.75.44.53,2.63.3,2.93-2.35,2.94-1.68,0-3.36,0-5,0C7.64,19.73,7,19.54,6.51,20.14Z" />
            <path class="fcddac4c-7aba-4dad-a9ed-368e747bd341"
                d="M35.49,31.34c.49,1.2.1,2.46.22,3.69.07.77-.38.94-1,.94q-6.87,0-13.73,0c-.88,0-1-.45-1-1.18,0-5.88,0-11.77,0-17.66,0-.93.39-1.12,1.24-1.17,4.92-.29,4.91-.31,4.91,4.61,0,3,.06,6,0,9,0,1.17.35,1.51,1.49,1.47,2.13-.07,4.26,0,6.39,0,.52,0,1.14-.29,1.56.3-2.59.55-5.21,0-7.47.22,2.06.1,4.46-.16,6.85.12C35.16,31.74,35.31,31.51,35.49,31.34Z" />
            <path class="b66b50e0-9cc5-4113-afc0-618ed09019ac"
                d="M55.42,10.69c-.65-.84-1.27-1.7-1.94-2.52A1.3,1.3,0,0,0,52,7.66c-.55.21-.21.77-.35,1.15-.29.75.75,2.2-.84,2.22S50,9.51,49.9,8.71c-.15-1.68,0-3.39,0-5.08,0-.9.31-1.25,1.2-1.2s1.76,0,2.64,0c1.31,0,2.59.16,3.06,1.65s-.27,2.52-1.68,3.23c.6,1,1.6,1.78,1.89,2.95C56.49,10.58,55.86,10.29,55.42,10.69Z" />
            <path class="aca6344a-29df-4510-8762-a336914fcd06"
                d="M37.29,4.87c.17-2.1,2-2.25,3.37-2.45a4,4,0,0,1,3.61,1.31,4.88,4.88,0,0,1-1.2,7c-1,.06-1.83.79-2.86.39a2.81,2.81,0,0,1-2.9-2.25A11.27,11.27,0,0,1,37.29,4.87Z" />
            <path class="e22a996c-e5a1-4f5d-b233-cc3990ac8788"
                d="M78.44,2.73c2.19,1,3.06,3.43,2.15,6-.72,2-2.45,2.85-4.8,2.34-.06-.74.54-.69,1-.75s.52-.19.42-.57c.62-1,1.75-1.83,1.44-3.28-.23-1.12-.61-2.08-2-2S75,5.5,74.84,6.61s.72,2.07,1.39,3c.15.71-.77.8-.83,1.39-2-.42-2.61-1.91-2.76-3.7-.2-2.34.48-3.59,2.37-4.54A10.67,10.67,0,0,0,78.44,2.73Z" />
            <path class="b8df1db5-a236-4798-99e2-0b72aa44c458"
                d="M135,6.54c-.2,1.61-.53,3.16-2,4.12a4.7,4.7,0,0,1-4.06,0h0c-.46-.31-.78-.78-1.24-1.1-1.64-2.74-1-5.56,1.53-6.88a7.88,7.88,0,0,1,3.45,0,4.13,4.13,0,0,1,1.93,2C135.06,5.25,134.46,6,135,6.54Z" />
            <path class="a44f7462-b80f-4340-8559-4bab99351f0d"
                d="M113.06,9.35a5.61,5.61,0,0,0,.66-.9c.3-.68.57-.48,1.13-.24.85.36.38.79.2,1.12A3.56,3.56,0,0,1,109,9.4,5,5,0,0,1,110,3c1.3.17,2.56-.31,3.85-.26a1.16,1.16,0,0,1,.94.54c.35.47,1.09,1,.49,1.57s-1.13.28-1.74-.32c-1.37-1.34-3.12-.7-3.43,1.18a3.64,3.64,0,0,0,1.11,3.76C111.87,9.8,112.5,10,113.06,9.35Z" />
            <path class="abeeb6d6-66b3-41e3-a3ef-68c1e3eb59be"
                d="M30.56,2.74a2.52,2.52,0,0,1,.8.41c.42.48,1.25,1,.65,1.69s-1.24.23-1.85-.42a1.71,1.71,0,0,0-2.88.24,3.65,3.65,0,0,0,0,4.08c.66,1.09,2.06,1,3-.07.28-.32.35-1.13,1-.55a1,1,0,0,1,.11,1.63c-.35.35-.74.65-1.12,1a6.85,6.85,0,0,1-2.92,0c-3-1.41-3.4-5.46-.69-7.72A18.43,18.43,0,0,0,30.56,2.74Z" />
            <path class="b38f372a-6df8-4c62-ad22-2fc4a1d5500e"
                d="M66.81,7.31l-.38.38a1.65,1.65,0,0,1-1.09.14c-1.32-.18-2,.19-1.83,1.7.08.57.17,1.37-.83,1.29S62.05,10,62,9.52c0-1.88,0-3.75,0-5.63,0-.92.21-1.42,1.25-1.32a20.82,20.82,0,0,1,3.53.16C68.86,4,69,6,67.11,7.25c-.72-.56-1.62.14-2.34-.35,0-.54.38-.73.71-1,.75-.59.6-1.13-.07-1.64a1.3,1.3,0,0,0-1.33-.13,2.25,2.25,0,0,0,0,2.15c.1.14.19.28.28.43C65,7.53,66.1,6.68,66.81,7.31Z" />
            <path class="fcddac4c-7aba-4dad-a9ed-368e747bd341"
                d="M102.18,35.53c1.81-.68,3.8-.89,5-2.86,2-3.38,1-6.63-2.78-7.88-2.13-.71-4.28-1.37-6.46-1.89A1.6,1.6,0,0,1,96.57,21c.05-1.67,1.41-2.21,2.68-2.74,1.09-.45,1.86.33,2.55.94.37.33-.15.43-.43.49-1.3-.28-2.61-.71-3.77.37-.27,1.82,0,2.1,2.37,2.58l0,0c.94.43,2,.42,2.95.82a17.26,17.26,0,0,1,3.86,1.69,4.47,4.47,0,0,1,1.84,2.5,7.64,7.64,0,0,1,0,3.71A6.58,6.58,0,0,1,103,35.94a1,1,0,0,1-.45.1A.62.62,0,0,1,102.18,35.53Z" />
            <path class="b75e41c9-8744-4e9a-9350-e9e489a06f27"
                d="M90.7,10.35a3,3,0,0,1-1-1.51c-.19-.56-.76-.88-.93-1.46a1.76,1.76,0,0,1,.55-1.09,3.79,3.79,0,0,1,.3-.4c.47-.56.66-1.11,0-1.66A3.94,3.94,0,0,0,87.42,4c-.62.61-.07,1.44-.39,2.11A11.72,11.72,0,0,0,86.9,8c-.08.79.2,1.62-.2,2.39a.66.66,0,0,1-.87-.21c-.23-2.34.23-4.71-.25-7l.07-.37a14,14,0,0,1,5.13,0L92,3.63a3.37,3.37,0,0,1,0,2.44l-.8.81c-.91.53-.26,1,0,1.55L92,9.57c.24.38.37.79,0,1.11S91.12,10.48,90.7,10.35Z" />
            <path class="b75e41c9-8744-4e9a-9350-e9e489a06f27"
                d="M48.27,35.85c0-5.89,0-11.78,0-17.67,0-1.52.46-1.95,1.92-1.87,3.86.2,7.75-.35,11.59.65a15.34,15.34,0,0,1-2.35,0c-3.24-.52-6.5-.1-9.75-.23-.87,0-1,.52-1,1.23,0,5.33,0,10.65,0,16,0,.86.3,1.28,1.2,1.24a20.42,20.42,0,0,1,2.07,0c1,.07,1.29-.45,1.27-1.37a23.94,23.94,0,0,1,.36-5.4c0,2.05,0,4.09,0,6.14,0,.86-.52,1-1.23,1-1.22.1-2.5-.37-3.66.33Z" />
            <path class="ab577c27-481c-402f-a04f-15a2b73d1571"
                d="M141.46,2.68c1.54,1.35,1.73,3.61,3.3,4.93.3.32.77,0,1.08.3a1.83,1.83,0,0,1,.22,2.21c-.37.72-1.07.29-1.64.17-.88-1.33-1.75-2.67-2.72-4.15-.77,1.64.4,3.42-.7,4.84a1.7,1.7,0,0,1-.35-.52c-.22-1.91-.22-3.84-.38-5.75-.06-.67-.14-1.4.58-1.85A3.28,3.28,0,0,1,141.46,2.68Z" />
            <path class="e77b5333-dac3-451a-9b19-baf15671f798"
                d="M99.48,2.74c1.25-.74,1.92-.26,2.38,1,.71,2,1.55,3.84,2.26,5.78.17.46,1,1.15-.08,1.51a1.12,1.12,0,0,1-1.56-.9,9.4,9.4,0,0,0-.34-.88,1.31,1.31,0,0,0-.27-.35,1.16,1.16,0,0,1-.61-.9A1.76,1.76,0,0,0,101,6.89c-.14-1.1-1.18-.5-1.69-.89a2.38,2.38,0,0,1-.07-1.85C99,3.63,100.53,3.4,99.48,2.74Z" />
            <path class="f77e690f-4310-4080-ad16-389bb214831d"
                d="M6.51,20.14c.06-.75.06-.79.69-.8,2,0,4-.13,6,0,1.84.15,2.55-.5,2.24-2.29-.14-1.07-1-.54-1.45-.55-4.11,0-8.22,0-12.32,0-.54,0-1.12.2-1.63-.17.1-.28.32-.34.59-.34,4.82,0,9.65,0,14.48,0,.9,0,1.16.31,1.2,1.2.15,3.06.19,3.07-2.88,3.06C11.14,20.22,8.82,20.17,6.51,20.14Z" />
            <path class="b489dfec-9f47-4c75-b72b-9c781a919bee"
                d="M120.49,6.81c0-1.06,0-2.13,0-3.19,0-.6,0-1.14.81-1.16s.9.44.9,1.08c0,2.12,0,4.25,0,6.38,0,.58,0,1.14-.8,1.15s-.91-.6-.9-1.26C120.5,8.81,120.49,7.81,120.49,6.81Z" />
            <path class="b45978d8-4e94-4cb0-9bbb-5761878693c8"
                d="M99.54,3.9V6.09a1.65,1.65,0,0,1-.21,1A6.54,6.54,0,0,0,98.13,9.6c0,.25-.06.5-.06.74,0,.88-.67.77-1.2.72-.88-.1-.5-.79-.35-1.13.93-2.12,1.47-4.4,2.64-6.42C99.5,3.43,99.69,3.49,99.54,3.9Z" />
            <path class="a6338372-8628-4f78-a3f5-2a7e545db850"
                d="M66.8,2.73a5.09,5.09,0,0,1-.56,0c-4,.06-4,.06-4,4.17,0,1,0,2,0,3,0,.33.16.63.53.64a.52.52,0,0,0,.53-.63c-.43-2.81,1.47-2.36,3.13-2.25a4.42,4.42,0,0,1-1.27.23c-1.31-.16-1.63.47-1.54,1.64.06.71.25,1.62-1,1.54s-.78-.94-.79-1.55c0-2,0-3.89,0-5.84,0-1,.31-1.4,1.3-1.3C64.33,2.54,65.61,2.16,66.8,2.73Z" />
            <path class="a110cf1e-8cfe-4575-a461-b23a26a6f3a6"
                d="M15.86,31.8c.69.89.31,1.92.32,2.88s-.9.84-1.53.84c-4.89,0-9.77,0-14.65,0v-.38a.54.54,0,0,1,.78,0h12.5c2.57,0,2.57,0,2.57-2.64A.47.47,0,0,1,15.86,31.8Z" />
            <path class="a110cf1e-8cfe-4575-a461-b23a26a6f3a6"
                d="M.78,35.15H0V16.7a.34.34,0,0,1,.54.22c.06,5.34,0,10.69,0,16a3.25,3.25,0,0,0,.19,1.82C.77,34.9.77,35,.78,35.15Z" />
            <path class="e07a400e-b8ed-4717-a763-dec403b744cb"
                d="M.39,16.7H0l.06-.37c4.73,0,9.46,0,14.19,0,.44,0,1.43-.54,1.21.72-.55-.62-1.29-.37-1.94-.37-4.25,0-8.51,0-12.76,0C.65,16.89.52,16.89.39,16.7Z" />
            <path class="fa24b66d-bb7f-4bdc-8ba5-abeb7af02344"
                d="M117.72,32.58c-.24-.22-.49-.64-.07-.68a22.12,22.12,0,0,1,6.6.09c.68.15,0,.44-.29.57Z" />
            <path class="ac5e4895-314d-4952-8790-a54f805ca828"
                d="M144.42,10.29c1.7-.09,1.87-.94,1.12-2.26a12.84,12.84,0,0,1,0-5c.67-.17.91.15.91.77,0,2,0,4.07,0,6.11,0,1.39-1,.88-1.73.78A.33.33,0,0,1,144.42,10.29Z" />
            <path class="a3053256-1884-45f9-93bf-9780226d0b85"
                d="M144.72,10.71c1,0,1.64-.18,1.56-1.44-.1-1.61,0-3.22,0-4.83,0-.55.12-1.18-.7-1.27-.23,0-.25-.27-.37-.41.79-.56,1.44-.61,1.46.58.05,2.25.08,4.5,0,6.74C146.56,11.68,145.58,11.18,144.72,10.71Z" />
            <path class="a5f4ddbb-e8c2-49c7-8f2e-02ad2992c1ac"
                d="M89.73,6.14v.39a2.52,2.52,0,0,1-2,.18c-.24,0,0,.47,0,.21s0-.14.12-.14a1.39,1.39,0,0,1,1.14.5c.22.53.85.87.73,1.56-.69-.72-1.3-1.62-2.53-1.15-.17.19-.32.18-.46,0-.19-.5-.69-1,0-1.51.17-.21.27-.5.6-.55A3.6,3.6,0,0,1,89.73,6.14Z" />
            <path class="a6eb3529-b6e3-41a7-8572-7148444ee96e"
                d="M141,10.63c0,.12,0,.24,0,.35-1,.31-1.2-.15-1.19-1,0-2.12,0-4.23,0-6.35,0-1.4.67-1.38,1.65-.93l-.19.16c-.33.14-.81.15-.8.64A29.07,29.07,0,0,0,141,10.63Z" />
            <path class="e62fbd63-4a4d-43d2-b96d-df114f5606ae"
                d="M30.56,2.74v.69c-1.25-.51-2.68.68-3.86-.43A3.5,3.5,0,0,1,30.56,2.74Z" />
            <path class="a8883b56-8c42-48f0-9906-001e13c266c0"
                d="M78.44,2.73c-1.15,1-2.29.69-3.43,0A3.52,3.52,0,0,1,78.44,2.73Z" />
            <path class="fa24b66d-bb7f-4bdc-8ba5-abeb7af02344"
                d="M89,28.37a5.81,5.81,0,0,1,0-4.52A8.77,8.77,0,0,1,89,28.37Z" />
            <path class="b78c0324-bbe3-4a63-acee-e814481f46bd"
                d="M85.58,3.14c.83,2.35.17,4.77.38,7.15a.22.22,0,0,1-.37,0A50.18,50.18,0,0,1,85.58,3.14Z" />
            <path class="e62fbd63-4a4d-43d2-b96d-df114f5606ae"
                d="M113.87,2.75c-1.25.65-2.5,1.18-3.85.26l.43-.26a7.32,7.32,0,0,1,3.42,0Z" />
            <path class="e139563f-aedc-4fde-a28e-24fe4e07c499"
                d="M132.2.17c-.41.79-.8,1.53-1.83,1.46-.28,0-.27-.34-.18-.6C130.52.09,131.13-.23,132.2.17Z" />
            <path class="e62fbd63-4a4d-43d2-b96d-df114f5606ae"
                d="M75.4,11c-.44-.83.12-1,.74-1a1.68,1.68,0,0,1,1-.05c.34.1.77,0,.95.57-.67.6-1.73-.19-2.34.59Z" />
            <path class="bd8570e3-5588-4925-8201-98d7311d4717"
                d="M145.18,2.76l.37.41c0,1.62,0,3.24,0,4.86a.75.75,0,0,1-.78-.42C145.47,6.05,144.65,4.34,145.18,2.76Z" />
            <path class="b78c0324-bbe3-4a63-acee-e814481f46bd" d="M90.78,2.77H85.65A8,8,0,0,1,90.78,2.77Z" />
            <path class="fcddac4c-7aba-4dad-a9ed-368e747bd341"
                d="M100,22.68c-2.45,0-3.2-.86-2.37-2.58C97.11,22.13,98.9,22.08,100,22.68Z" />
            <path class="e62fbd63-4a4d-43d2-b96d-df114f5606ae"
                d="M102.18,35.53l.33.3c-1.33.57-2.73.09-4.08.3L98,36.06C99.3,35,100.81,35.79,102.18,35.53Z" />
            <path class="b1bce109-be58-4db8-a8e4-c84c8b59f507"
                d="M128.92,10.69a11.78,11.78,0,0,0,4.06,0A3.42,3.42,0,0,1,128.92,10.69Z" />
            <path class="e0dff7d8-523e-474a-b427-bb8d54b37126"
                d="M55.42,10.69c.27-1.07,1-.46,1.54-.41.22.15.43.46.21.57A1.29,1.29,0,0,1,55.42,10.69Z" />
            <path class="a5f4ddbb-e8c2-49c7-8f2e-02ad2992c1ac"
                d="M90.7,10.35c.72.22,1.42.4,1.3-.78.55.32,1.21.93.71,1.35A1.27,1.27,0,0,1,90.7,10.35Z" />
            <path class="e77b5333-dac3-451a-9b19-baf15671f798"
                d="M98.13,9.6c-.69-1.27.32-1.93,1-2.7a.56.56,0,0,1,.21.6c-.18.17-.32.35-.07.58,0,.41-.31.62-.52.89a2.66,2.66,0,0,1-.34.53l-.12.11Z" />
            <path class="fcddac4c-7aba-4dad-a9ed-368e747bd341"
                d="M98.43,36.13c1.33-.49,2.73-.05,4.08-.3l.52.11A9,9,0,0,1,98.43,36.13Z" />
            <path class="b1bd01d8-9b13-49be-b113-c7ca7fee8609"
                d="M98.41,9.5V8.79a4.06,4.06,0,0,1,3.76,0l0,.48C100.89,9.27,99.62,9,98.41,9.5Z" />
            <path class="a761bb48-443d-4ffd-abc0-8ffa5801de1a" d="M108.58,31.38V27.67A3.38,3.38,0,0,1,108.58,31.38Z" />
            <path class="f4db3d8a-d399-4744-afb4-0d5eea7f2885"
                d="M64.76,6.85c.77.21,1.7-.54,2.35.4a.4.4,0,0,1-.3.06c-1-.27-2.17.48-3.05-.51A.76.76,0,0,1,64.76,6.85Z" />
            <path class="ab33e71b-9de7-4b3a-8fe6-d3f32db6c7d8"
                d="M37.29,4.87c0,1.33,0,2.65,0,4A4.53,4.53,0,0,1,37.29,4.87Z" />
            <path class="b8b5501a-d4cc-412a-acec-c62430f5b0b1" d="M132.66,2.76l-3.45,0A3.27,3.27,0,0,1,132.66,2.76Z" />
            <path class="a44f7462-b80f-4340-8559-4bab99351f0d" d="M113.87,2.75h-3.42A3.22,3.22,0,0,1,113.87,2.75Z" />
            <path class="b2df83a8-2a6e-4271-a45c-ee0c0e9aec00" d="M80.73,15.91H77.24A4.83,4.83,0,0,1,80.73,15.91Z" />
            <path class="fcddac4c-7aba-4dad-a9ed-368e747bd341"
                d="M102.88,23.48a4.83,4.83,0,0,1-2.95-.82A5.05,5.05,0,0,1,102.88,23.48Z" />
            <path class="e664fd61-056c-42ba-97c3-c7a95703f784" d="M154.91,24.12V27.8A5.72,5.72,0,0,1,154.91,24.12Z" />
            <path class="e64ad0b6-0602-4d0a-9522-9d58bae4e596"
                d="M99.54,3.9l-.38-.39c0-.31-.11-.65.32-.77.44.12,1-.11,1.55.42A1.87,1.87,0,0,0,99.54,3.9Z" />
            <path class="b04c511c-695b-4a1b-9f29-982f1fe1c364"
                d="M85.59,10.29c.12,0,.24,0,.37,0h.76c.13-.17.25-.18.37,0,.16.73-.32.77-.84.77S85.47,10.84,85.59,10.29Z" />
            <path class="e664fd61-056c-42ba-97c3-c7a95703f784"
                d="M40.21,11.09c1,0,1.86-.6,2.86-.39A2.87,2.87,0,0,1,40.21,11.09Z" />
            <path class="a9880460-ba5a-44c4-b1e9-a38facece2a2"
                d="M91.22,8.43c-.47-.31-1.12-.56-1-1.26.08-.34.61-.27,1-.29C90.68,7.4,91.23,7.91,91.22,8.43Z" />
            <path class="a5f4ddbb-e8c2-49c7-8f2e-02ad2992c1ac" d="M92,6.07V3.63A1.69,1.69,0,0,1,92,6.07Z" />
            <path class="ecda92dd-f659-4695-8746-997158699f44" d="M27.4,10.72h2.92A2.86,2.86,0,0,1,27.4,10.72Z" />
            <path class="f3e1ec1e-16d7-4f3e-9090-8ff1fb42591b" d="M87.09,10.3h-.37V7.66l.46,0Z" />
            <path class="b1bce109-be58-4db8-a8e4-c84c8b59f507"
                d="M127.68,9.6a1.65,1.65,0,0,1,1.24,1.1A1.62,1.62,0,0,1,127.68,9.6Z" />
            <path class="b8b5501a-d4cc-412a-acec-c62430f5b0b1" d="M113.06,9.35c-.55.89-1.17.75-1.82.13Z" />
            <path class="a5c2cb98-26fb-49b5-a681-1e2bc04a7f8a"
                d="M135,6.54c-.69-.48-.34-1.2-.43-1.82A1.82,1.82,0,0,1,135,6.54Z" />
            <path class="b2df83a8-2a6e-4271-a45c-ee0c0e9aec00"
                d="M82.56,16.32c-.63-.09-1.37.29-1.86-.43C81.35,15.93,82.05,15.69,82.56,16.32Z" />
            <path class="b2df83a8-2a6e-4271-a45c-ee0c0e9aec00"
                d="M77.27,15.88c-.55.76-1.33.36-2,.38A3.07,3.07,0,0,1,77.27,15.88Z" />
            <path class="b35c202f-34e0-41d7-8db1-9d15929f237d"
                d="M140,26.11c0-1.5,0-3,0-4.5,0-.79.3-1.06,1.1-1.11,3-.19,4.6,1.14,4.81,4.19a22,22,0,0,1,0,2.81c-.22,3.13-2,4.47-5.08,3.93-.82-.14-.82-.61-.82-1.19Z" />
            <ellipse class="e05b5ac9-ac54-4c7c-96d1-4e322932215e" cx="139.32" cy="25.89" rx="0.11" ry="7.11" />
            <path class="e07a400e-b8ed-4717-a763-dec403b744cb" d="M134.72,16.39h9.17v.18h-9.24Z" />
            <path class="ab652796-1389-49b6-83f2-9187493444e3"
                d="M169.23,25.14v1.22c-.37.76.11,1.64-.33,2.39-.69,1.34-1.38,2.67-3.12,2.88A3.93,3.93,0,0,1,161.69,30c-1.76-2.62-.93-7.49,1.58-9.44a4.61,4.61,0,0,1,3.35,0,4.8,4.8,0,0,1,2.15,2.6C169.44,23.69,168.84,24.53,169.23,25.14Z" />
            <path class="e62fbd63-4a4d-43d2-b96d-df114f5606ae" d="M163.35,35.63h3.28v.18h-3.31Z" />
            <path class="f046aec9-30ff-498f-9a58-44d3cdb3ebdb"
                d="M166.62,20.54a9.67,9.67,0,0,0-3.35,0A2.76,2.76,0,0,1,166.62,20.54Z" />
            <path class="b2df83a8-2a6e-4271-a45c-ee0c0e9aec00"
                d="M168.9,28.75l.33-2.39C169.21,27.17,169.59,28,168.9,28.75Z" />
            <path class="b2df83a8-2a6e-4271-a45c-ee0c0e9aec00"
                d="M169.23,25.14c-.16-.66-.31-1.33-.46-2C169.65,23.64,169.19,24.45,169.23,25.14Z" />
            <path class="a456cfc3-06a4-4984-98e7-7e3c9296a3b2"
                d="M58.06,20.06c1.93,1.1,2.08,1.87.72,3.67a2.42,2.42,0,0,1-1.67.76c-1,.15-2.19.5-3-.38s-.47-2.26-.44-3.41c0-.6.49-.82,1.07-.79A15.12,15.12,0,0,1,58.06,20.06Z" />
            <path class="a5995bfc-d1b9-4e80-897e-a8b0524bcc15"
                d="M58.06,20.06c-.92,0-1.86,0-2.78,0S54,20.41,54,21.34c-.09,2.84.15,3.1,3,2.74.61-.08,1.21-.23,1.82-.35a1,1,0,0,1-1.11.9,8.33,8.33,0,0,1-3.75,0l-.37-.38a10.13,10.13,0,0,1,0-4.14A6,6,0,0,1,58.06,20.06Z" />
            <path class="e106ea2f-cad9-45f9-9345-0264115e71d3" d="M66.84,35.09c-1.88.9-3.82.22-5.73,0h5.73Z" />
            <path class="b75e41c9-8744-4e9a-9350-e9e489a06f27"
                d="M53.54,20.09c0,1.38,0,2.76,0,4.14A4.91,4.91,0,0,1,53.54,20.09Z" />
            <path class="a076880d-bd29-4d07-bf6c-de7cd28d3391" d="M53.92,24.61l3.75,0A4.29,4.29,0,0,1,53.92,24.61Z" />
            <path class="e92f0d00-09b5-41f1-97ed-c0c9cc0d846b" d="M60,22.67V21A1.47,1.47,0,0,1,60,22.67Z" />
            <path class="ab652796-1389-49b6-83f2-9187493444e3"
                d="M80.57,20.52c2.6,1.94,3.44,7,1.61,9.62-1.49,2.17-4.53,2-6.75-.3C73.68,27.52,74,23,76,21.06A3.74,3.74,0,0,1,80.57,20.52Z" />
            <path class="e17fd97a-7613-46d6-9f7d-fc3de4982aae"
                d="M80.57,20.52c-3.94-.44-5.56.93-5.8,4.9a12.08,12.08,0,0,0,.66,4.42c-.07.44-.21.81-.64.27-2.33-3-.71-9.09,2.73-10.51a3.7,3.7,0,0,1,3.4.33C81.57,20.31,80.86,20.4,80.57,20.52Z" />
            <path class="ff577ddf-d264-4bd3-9289-8d255c1c2a11"
                d="M119.13,26.39c.88-1.39.92-3.08,1.86-5,.72,2.38,1.33,4.38,1.92,6.4a.57.57,0,0,1-.16.47c-.49.48-3.46,0-4-.62C118.53,27.11,118.35,26.6,119.13,26.39Z" />
            <path class="e62fbd63-4a4d-43d2-b96d-df114f5606ae" d="M123.58,16.61H118.4v-.18h5.18Z" />
            <path class="e62fbd63-4a4d-43d2-b96d-df114f5606ae" d="M126,35.24h4.8v.19H126Z" />
            <path class="e62fbd63-4a4d-43d2-b96d-df114f5606ae" d="M111.23,35.25h4.43v.17h-4.43Z" />
            <path class="e28b44f8-c639-422a-a81c-67bb7efeb8a2" d="M122.52,29h-3.29v-.16h3.29Z" />
            <path class="acb82845-6fb7-4c1f-9112-0068d3eb5f2c"
                d="M119.13,26.39c-.42.32-.25.82-.38,1.24l-.72,1a3.73,3.73,0,0,1,.81-2.64s.13,0,.15.05A1.73,1.73,0,0,1,119.13,26.39Z" />
            <path class="b109cb2c-4357-43ca-ab8e-ff2ca3635019"
                d="M103,21.22a2.49,2.49,0,0,1,1.61.17C104,21.62,103.49,21.71,103,21.22Z" />
            <path class="e92f0d00-09b5-41f1-97ed-c0c9cc0d846b"
                d="M94.9,29.72a1.79,1.79,0,0,1,1.41-.1A1.31,1.31,0,0,1,94.9,29.72Z" />
            <path class="b2364465-6f1d-4f7d-9d64-322b957afbde" d="M15.86,31.8v.72H6.41V31.8Z" />
            <path class="a110cf1e-8cfe-4575-a461-b23a26a6f3a6"
                d="M.39,16.7H.77V34.78c-.62-.56-.36-1.29-.37-2C.38,27.46.39,22.08.39,16.7Z" />
            <ellipse class="f0da6be3-3876-4ed8-9cda-384df578d846" cx="5.48" cy="29.51" rx="0.12" ry="2.11" />
            <path class="f0da6be3-3876-4ed8-9cda-384df578d846" d="M5.6,20.94v2.11H5.41V20.91Z" />
            <path class="bcf0302b-d9e7-416f-8fe7-e98eeefcaa33"
                d="M20.75,17.08V35.15a.21.21,0,0,1-.36,0c0-5.64,0-11.28,0-16.92,0-1.43.31-2,1.87-1.94,4.06.16,3.38-.47,3.42,3.35a94.19,94.19,0,0,1-.37,10.88V17.08A10.6,10.6,0,0,0,20.75,17.08Z" />
            <path class="e07a400e-b8ed-4717-a763-dec403b744cb" d="M20.39,35.16H35C30.15,35.26,25.26,36,20.39,35.16Z" />
            <path class="f1aa9e01-dace-4520-933e-4d8a5c7a18c6" d="M35.49,31.34l-.11,1.05c-2.88-1.35-6-.17-8.89-1h9Z" />
            <path class="a69aecbc-166d-41fe-be47-d3c4077f2597" d="M20.75,17.08a5.86,5.86,0,0,1,4.52,0Z" />
            <path class="af2a9e38-5e9e-448e-9004-5759406e9244"
                d="M53.21,6.08c-.76,0-1.59.21-1.63-1S52.11,3.85,53,3.91s2-.2,2.08,1S54,6,53.21,6.08Z" />
            <path class="e62fbd63-4a4d-43d2-b96d-df114f5606ae"
                d="M55.94,6c-.54-.53-.71-1-.22-1.47a.69.69,0,0,1,.67,0C56.69,5.08,56.34,5.48,55.94,6Z" />
            <path class="a6a745e3-1257-42a5-8daa-0c777b54b1b5" d="M52.09,6.6h1.77v.18H52.1Z" />
            <path class="afdb24a6-7eea-44e6-b907-63ce15347d36"
                d="M38.84,5,40,3.85A2.68,2.68,0,0,1,42.21,4a3.63,3.63,0,0,1,1.14,3.39A2.42,2.42,0,0,1,41.5,9.7a2,2,0,0,1-2.68-1.3A7.24,7.24,0,0,1,38.84,5Z" />
            <path class="ab33e71b-9de7-4b3a-8fe6-d3f32db6c7d8" d="M38.84,5l0,3.37A3.46,3.46,0,0,1,38.84,5Z" />
            <path class="ecda92dd-f659-4695-8746-997158699f44" d="M42.21,4,40,3.85A1.59,1.59,0,0,1,42.21,4Z" />
            <path class="e07c21d5-034a-4355-b772-bad6bdec10b1"
                d="M77.18,9.87c-.35,0-.67.51-1,.05a3.7,3.7,0,0,1-1.62-4.37,2.18,2.18,0,0,1,2.36-1.73A2.08,2.08,0,0,1,79,5.63C79.37,7.45,79.05,9,77.18,9.87Z" />
            <path class="baf7f578-d19b-4f4f-9f39-36623172ccb7"
                d="M132.91,8.74c-.89,1-2,1.71-3.19.82-1.33-1-1.34-2.62-.9-4.14A5.5,5.5,0,0,1,129.74,4a2.32,2.32,0,0,1,2.93.31l0,0c.7.44.52,1.25.8,1.87h0C133.88,7.16,133.32,7.93,132.91,8.74Z" />
            <path class="a5c2cb98-26fb-49b5-a681-1e2bc04a7f8a"
                d="M132.67,4.34A3.47,3.47,0,0,0,129.74,4C130.81,3.2,131.81,3.09,132.67,4.34Z" />
            <path class="a5c2cb98-26fb-49b5-a681-1e2bc04a7f8a"
                d="M132.91,8.74l.51-2.57C134.2,7.22,133.73,8,132.91,8.74Z" />
            <path class="a5c2cb98-26fb-49b5-a681-1e2bc04a7f8a"
                d="M133.43,6.18c-.26-.62-.53-1.25-.8-1.87C133.65,4.61,133.46,5.43,133.43,6.18Z" />
            <path class="aa385fd9-9959-48db-91f2-acf13aba76c2"
                d="M26,8.5A12.37,12.37,0,0,0,25.89,5,3.74,3.74,0,0,1,26,8.5Z" />
            <path class="aada5cff-73c9-41ee-8c1b-241460ae1a81"
                d="M64.76,6.85l-1,0a.25.25,0,0,0-.08-.29,5.74,5.74,0,0,1,0-2.64,2.41,2.41,0,0,1,2,0C67.19,5.25,67.12,5.48,64.76,6.85Z" />
            <path class="e664fd61-056c-42ba-97c3-c7a95703f784"
                d="M63.74,3.93a6.24,6.24,0,0,0-.06,2.58,2.85,2.85,0,0,1,0-3c.13.09.17.18.13.27S63.79,3.93,63.74,3.93Z" />
            <path class="a6338372-8628-4f78-a3f5-2a7e545db850"
                d="M63.74,3.93c0-.13,0-.27,0-.41.64.09,1.35-.25,1.88.38Z" />
            <path class="f5e29c35-61af-4ecb-a7e2-07e311f16647"
                d="M89.73,6.14c-.86-.22-1.81.23-2.62-.38a2.21,2.21,0,0,1,0-2c1,0,2-.38,3,.21C91.13,4.91,90.72,5.57,89.73,6.14Z" />
            <path class="a8883b56-8c42-48f0-9906-001e13c266c0" d="M89,7.28l-1.52-.46,0-.29h2.24Z" />
            <path class="f3e1ec1e-16d7-4f3e-9090-8ff1fb42591b"
                d="M87.17,4l-.06,1.72-.39.39c.35-.84-.73-1.89.38-2.63A.33.33,0,0,1,87.17,4Z" />
            <path class="b78c0324-bbe3-4a63-acee-e814481f46bd"
                d="M87.17,4l-.07-.52c1,.22,2.12-.51,3,.49A8.88,8.88,0,0,0,87.17,4Z" />
            <path class="f83a2f61-17ac-4869-b14d-a524e50a9df4"
                d="M141,10.63c-.12,0-.33,0-.35-.09-.73-2.47-.33-5-.19-7.48,0-.09.54-.15.83-.22a2.35,2.35,0,0,0-.59,2.58A22.81,22.81,0,0,1,141,10.63Z" />
            <path class="b9810710-6074-4bfb-bb7a-e95fed16831b"
                d="M99.24,7.62l-.11-.72.4-.81c.5-.18.28-1,.92-1.07.64.47.52,1.35,1,1.89C101.1,8.27,100.83,8.36,99.24,7.62Z" />
            <path class="f1aa9e01-dace-4520-933e-4d8a5c7a18c6" d="M102.17,8.78H98.41l.77-.74a2.69,2.69,0,0,1,2.22,0Z" />
            <path class="b1bd01d8-9b13-49be-b113-c7ca7fee8609"
                d="M101.4,8.06H99.18c-.31-.19-.21-.32.06-.43.79-.09,1.91.86,2.22-.71C101.93,7.32,101.88,7.7,101.4,8.06Z" />
        </g>
    </g>
</svg>