<svg xmlns="http://www.w3.org/2000/svg" viewBox="0 0 223.85 156.37"><defs><style>.cls-1-aq{fill:#7db828;}.cls-1-aq,.cls-2-aq{fill-rule:evenodd;}.cls-2-aq{fill:#135499;}.cls-3-aq{fill:#22386e;}</style></defs><g id="Capa_2" data-name="Capa 2"><g id="Capa_1-2" data-name="Capa 1"><path class="cls-1-aq" d="M156,40.33l0-.08s0,0,0,0,0,0,0,0Z"/><path class="cls-1-aq" d="M81.39,136.25c-.29,0-.4.15-.55.26a12.07,12.07,0,0,1-6.49,2.4A12,12,0,0,1,67,137.47,6.51,6.51,0,0,1,63.54,133a9.61,9.61,0,0,1,.08-2.68c.47-5.19,1-10.38,1.45-15.57.19-2.09.38-4.17.54-6.26,0-.53.18-.76.78-.75,3,0,5.92,0,8.89,0,.51,0,.61.14.57.65-.52,5.53-1,11.06-1.51,16.59-.1,1.09-.2,2.17-.32,3.25a2.71,2.71,0,0,0,2.25,3.06,5.2,5.2,0,0,0,4.69-.83,2.87,2.87,0,0,0,1.17-2.16c.35-4,.73-8,1.09-11.94.24-2.59.48-5.19.67-7.79,0-.63.22-.85.88-.84,2.94,0,5.89,0,8.83,0,.49,0,.62.12.57.64-.38,4-.74,8-1.11,11.93q-.47,5-.91,10c-.25,2.74-.51,5.49-.75,8.23,0,.32-.13.43-.46.43H81.55c-.38,0-.45-.13-.41-.49C81.24,137.76,81.31,137,81.39,136.25Z"/><path class="cls-1-aq" d="M114,136.09a12.69,12.69,0,0,1-2.83,1.77c-3.89,1.54-7.75,1.67-11.53-.36a7,7,0,0,1-3.12-3.22,7.66,7.66,0,0,1-.3-4.16c.28-2.93.54-5.87.85-8.8a27.45,27.45,0,0,1,.58-4.7,10.61,10.61,0,0,1,4.77-6,17.9,17.9,0,0,1,10.82-2.9,15.08,15.08,0,0,1,9.21,3.12,8.42,8.42,0,0,1,3.36,8.3c-.38,2.79-.55,5.62-.81,8.42-.34,3.66-.68,7.32-1,11,0,.34-.16.42-.47.42h-9.39c-.39,0-.45-.14-.4-.49C113.81,137.76,113.87,137,114,136.09Zm-2-20.86a5,5,0,0,0-3.22,1,2.56,2.56,0,0,0-1.16,1.82c-.34,3.5-.66,7-1,10.51a2.18,2.18,0,0,0,.85,2,5.12,5.12,0,0,0,6.53-.44,2.67,2.67,0,0,0,.74-1.72c0-.72.14-1.45.2-2.17q.36-4,.7-8.1a2.14,2.14,0,0,0-.92-2A4.2,4.2,0,0,0,111.92,115.23Z"/><path class="cls-2-aq" d="M181,127.08c-2.84,0-5.67,0-8.51,0-.5,0-.76.11-.69.65a1.34,1.34,0,0,1,0,.2c-.14,2,.58,3,2.5,3.44a5,5,0,0,0,4.94-1.39,1.86,1.86,0,0,0,.53-.93c.06-.45.27-.55.69-.55,3,0,6,0,9,0,.7,0,.72,0,.58.78a9.89,9.89,0,0,1-4.19,6.22,18.91,18.91,0,0,1-18.48,1.91,12.11,12.11,0,0,1-4.2-3.26c-1.69-2-1.94-4.39-1.62-6.93s.61-5,.72-7.46a10.39,10.39,0,0,1,3.83-8.07,16.47,16.47,0,0,1,7-3.43,18.35,18.35,0,0,1,12.1,1.09,12.26,12.26,0,0,1,3.86,2.9,8.19,8.19,0,0,1,1.91,6.78c-.28,2.44-.51,4.88-.72,7.33-.05.57-.2.75-.77.74C186.63,127.07,183.81,127.08,181,127.08Zm-4.42-7.47c1.19,0,2.38,0,3.57,0,.16,0,.36.1.48-.17a3.12,3.12,0,0,0-.88-3.35,4.79,4.79,0,0,0-3.38-.84,3.87,3.87,0,0,0-3.79,3.78c0,.42,0,.61.5.6C174.24,119.59,175.41,119.61,176.57,119.61Z"/><path class="cls-2-aq" d="M151.35,139c-1.54,0-3.09,0-4.63,0-.4,0-.5-.12-.46-.52.28-2.78.55-5.57.81-8.35.09-.89.16-1.79.27-2.68,0-.35-.11-.39-.38-.39q-3.6,0-7.2,0c-.37,0-.47.15-.5.48-.16,1.85-.34,3.71-.51,5.56s-.35,3.65-.51,5.49c0,.34-.15.41-.46.41q-4.69,0-9.39,0c-.47,0-.44-.23-.41-.56.22-2.36.43-4.72.65-7.08s.47-5,.71-7.47c.32-3.48.65-7,1-10.46.15-1.6.3-3.19.43-4.79.07-.91.06-.91.91-.91,2.9,0,5.8,0,8.7,0,.51,0,.69.08.64.65-.34,3.44-.64,6.89-1,10.34-.09.89-.11.89.74.89,2.25,0,4.5,0,6.76,0,.43,0,.56-.14.6-.57.28-3.51.6-7,.89-10.54,0-.6.23-.8.86-.79,3,0,6,0,9,0,.44,0,.53.09.48.56-.41,4.34-.79,8.68-1.19,13q-.8,8.63-1.59,17.24c0,.36-.15.46-.49.45Z"/><path class="cls-2-aq" d="M204,132.16a7.73,7.73,0,0,0-.24,1.93c-.17,1.47-.29,2.94-.39,4.41,0,.42-.18.52-.57.51-3.06,0-6.13,0-9.2,0-.47,0-.55-.16-.51-.58q.62-6.36,1.2-12.7c.36-3.87.7-7.75,1.06-11.62.18-2,.38-4,.56-5.93,0-.35.16-.45.5-.45,3.09,0,6.17,0,9.26,0,.37,0,.47.12.44.48a16.6,16.6,0,0,0-.15,2.23c.15.07.25,0,.34-.12a12.46,12.46,0,0,1,8.61-2.57,11.43,11.43,0,0,1,5.54,1.56,6.36,6.36,0,0,1,3.3,6.85c-.34,2.62-.5,5.27-.75,7.91a11,11,0,0,1-.7,3.68,8.08,8.08,0,0,1-3.95,3.77,10.59,10.59,0,0,1-1.43.61c-.43.14-.39.25-.1.52,1.55,1.4,3.07,2.83,4.61,4.24l2.26,2.11H223c-3.61,0-7.22,0-10.83,0a1.78,1.78,0,0,1-1.33-.54c-2.05-1.95-4.12-3.87-6.19-5.8C204.44,132.51,204.25,132.35,204,132.16Zm4.58-6.62a4.24,4.24,0,0,0,1.75-.26c1.64-.61,2.64-1.5,2.67-3.48a34.55,34.55,0,0,1,.27-3.51,2.24,2.24,0,0,0-1-2.24,5.19,5.19,0,0,0-6.16.4,2.57,2.57,0,0,0-.88,1.64c-.13,1.38-.27,2.76-.36,4.14a2.64,2.64,0,0,0,2,3.07A4.53,4.53,0,0,0,208.6,125.54Z"/><path class="cls-1-aq" d="M48.78,136.1a10.63,10.63,0,0,1-3.49,2.05c-4,1.28-7.86,1.32-11.48-1.08A6,6,0,0,1,31,131c.57-5.22,1-10.47,1.46-15.7a6.76,6.76,0,0,1,3-5A13,13,0,0,1,48.88,109a7.54,7.54,0,0,1,1.91,1.33c.09.08.17.21.31.16s.1-.22.11-.33c.07-.64.14-1.27.18-1.91,0-.35.14-.47.49-.47,3.09,0,6.18,0,9.27,0,.44,0,.49.17.46.56-.24,2.55-.46,5.11-.7,7.66-.27,2.89-.54,5.79-.82,8.68q-.62,6.57-1.22,13.14-.28,3.08-.55,6.13c-.09,1-.08,1-1,1h-8.7c-.43,0-.64,0-.57-.6.29-2.52.52-5.06.76-7.59C48.8,136.59,48.78,136.42,48.78,136.1Zm-2-20.87a5.07,5.07,0,0,0-3.07.88,2.85,2.85,0,0,0-1.36,2.18c-.3,3.44-.63,6.88-.93,10.33a2.15,2.15,0,0,0,.89,1.94,5.11,5.11,0,0,0,6.53-.51,2.65,2.65,0,0,0,.69-1.55c.3-3.29.55-6.59.9-9.88a2.7,2.7,0,0,0-2-3.11A4,4,0,0,0,46.8,115.23Z"/><path class="cls-1-aq" d="M27.56,133c0-2.57-.15-5.13-.25-7.7-.18-4.83-.46-9.65-.9-14.46-.34-3.75-.7-7.49-1.4-11.19a12.52,12.52,0,0,0-1.51-4.52,2,2,0,0,0-1.82-1c-1.88,0-3.75,0-5.63,0H10.59c-1.44,0-2.88,0-4.31,0a2.38,2.38,0,0,0-2.41,1.55,14.14,14.14,0,0,0-1.15,3.71,169,169,0,0,0-2.09,20.2c-.22,3.57-.36,7.14-.44,10.71,0,2.54-.15,5.09-.19,7.63,0,1.3.55,1.86,1.77,1.86h8.46c1.25,0,1.73-.47,1.79-1.76.12-2.52.25-5,.34-7.56,0-.44.18-.54.56-.52a17,17,0,0,0,1.75,0c.43,0,.57.12.59.57q.16,3.81.39,7.62c.07,1.17.59,1.66,1.72,1.66h8.57c1.19,0,1.73-.54,1.71-1.77C27.64,136.33,27.58,134.67,27.56,133Zm-9.41-15.48a5.12,5.12,0,0,1-4.44,3.36,4.83,4.83,0,0,1-5.12-4.47,7,7,0,0,1,1.81-5.65c.49-.61,1-1.22,1.45-1.85a5.91,5.91,0,0,0,1.27-5.14,5.11,5.11,0,0,1,1.9,1.07A11.13,11.13,0,0,1,18.15,117.52Z"/><path class="cls-2-aq" d="M156.16,43.44a46.33,46.33,0,0,1-10.71,31.92,43.32,43.32,0,0,1-24,14.87A41.45,41.45,0,0,1,110,91.33,43.74,43.74,0,0,1,81.67,79.5a39.47,39.47,0,0,1-5.28-5.9.89.89,0,0,0-1.28-.33c-1.43.69-2.89,1.32-4.32,2-.44.2-.53.09-.48-.37.33-2.92.64-5.85,1-8.78l1-9,.49-4.47,18,13.62-4.34,2c-.84.38-.83.38-.22,1.08a33.76,33.76,0,0,0,49,2,34.64,34.64,0,0,0,8.69-13.51,1.14,1.14,0,0,0,.14-.64c-.18-.08-.3.06-.42.14A32,32,0,0,1,129,62.17a42,42,0,0,1-15-1.61,69.11,69.11,0,0,1-11.8-4.78A59.74,59.74,0,0,0,85,50.37a41.2,41.2,0,0,0-17,.66c-.15,0-.33.23-.42,0s.18-.23.3-.3A39.57,39.57,0,0,1,81.31,46a36.23,36.23,0,0,1,6.9-.55A38.49,38.49,0,0,1,101.52,48a90.69,90.69,0,0,0,20.73,5.41,61.87,61.87,0,0,0,9.41.6,36.44,36.44,0,0,0,16-3.56A25.47,25.47,0,0,0,156.16,43.44Z"/><path class="cls-1-aq" d="M156,40.32a19.38,19.38,0,0,1-5.65,5.1,31.71,31.71,0,0,1-13,4.53,57.5,57.5,0,0,1-20.37-1.22,103.86,103.86,0,0,1-14.76-4.53A38.88,38.88,0,0,0,91,41.83a39.57,39.57,0,0,0-18.42,3,38.67,38.67,0,0,0-4.72,2.39c-.17-.08-.14-.2-.14-.3a43.42,43.42,0,0,1,5.35-23.08,47.47,47.47,0,0,1,7.61-10.52A44,44,0,0,1,95.13,3.47a42.32,42.32,0,0,1,15-3.42,43.25,43.25,0,0,1,30.25,10.26,43.47,43.47,0,0,1,8.49,9.45c.52.78.6.81,1.48.47l4.82-1.85c-1.27,7.56-2.52,15-3.8,22.62L134.18,26.33l3.14-1.19c.53-.2,1-.44,1.58-.6s.48-.37.2-.73a32.26,32.26,0,0,0-4.55-4.93,33.42,33.42,0,0,0-17.29-8.06,32.76,32.76,0,0,0-25.2,6.27A34.88,34.88,0,0,0,78.67,37.72a2.22,2.22,0,0,0-.13,1.05c1.23-.63,2.43-1.26,3.67-1.81a32.11,32.11,0,0,1,12.62-2.8,28,28,0,0,1,10.88,2,117.28,117.28,0,0,0,24.14,7.1,57.37,57.37,0,0,0,13,.92,26.18,26.18,0,0,0,12.26-3.3c.32-.18.58-.48,1-.52Z"/><path class="cls-3-aq" d="M188.81,152.39l1,2.21a1.31,1.31,0,0,0,.25.4.47.47,0,0,0,.3.13c.26,0,.39.17.39.4s-.16.45-.48.57a4.88,4.88,0,0,1-1.57.18,11.23,11.23,0,0,1-1.82-.11.82.82,0,0,1-.44-.2.46.46,0,0,1-.16-.36.33.33,0,0,1,.09-.25.72.72,0,0,1,.31-.17c.17-.06.26-.16.26-.29s-.15-.39-.45-.43a9.11,9.11,0,0,0-1.33-.07,2.34,2.34,0,0,0-.87.09.38.38,0,0,0-.15.19.77.77,0,0,0-.07.28c0,.08,0,.13.05.15a1.29,1.29,0,0,0,.3.12.4.4,0,0,1,.34.39c0,.43-.52.65-1.56.65a5.12,5.12,0,0,1-1.3-.12.48.48,0,0,1-.38-.5.36.36,0,0,1,.09-.26.67.67,0,0,1,.3-.17,1.21,1.21,0,0,0,.54-.35,6,6,0,0,0,.52-1l.77-1.68c.28-.62.47-1.09.57-1.39a3.68,3.68,0,0,0,.15-.9,3.16,3.16,0,0,1,0-.66.76.76,0,0,1,.24-.35,1.26,1.26,0,0,1,.95-.38,1.61,1.61,0,0,1,1.06.43A12.14,12.14,0,0,1,188.81,152.39Zm-3.79.69h1.07c.19,0,.29,0,.29-.13a2.65,2.65,0,0,0-.41-.88,2.1,2.1,0,0,0-.28-.43.25.25,0,0,0-.21-.11c-.13,0-.24.12-.32.36l-.16.39a3.11,3.11,0,0,0-.23.67C184.77,153,184.85,153.08,185,153.08Z"/><path class="cls-3-aq" d="M181.18,151.45v1.33a5.57,5.57,0,0,1-.18,1.7,2.55,2.55,0,0,1-1.7,1.53,5.07,5.07,0,0,1-1.8.3,4.37,4.37,0,0,1-2.8-.84,2.2,2.2,0,0,1-.71-.94,4.84,4.84,0,0,1-.19-1.56c0-.27,0-.7,0-1.31,0-.43,0-.71,0-.85a1.86,1.86,0,0,0-.07-.63.71.71,0,0,0-.29-.32.65.65,0,0,1-.36-.53.49.49,0,0,1,.18-.37,1,1,0,0,1,.48-.23,7.31,7.31,0,0,1,1.42-.12,6.79,6.79,0,0,1,1.49.14c.39.09.59.28.59.59a.45.45,0,0,1-.17.37l-.33.17a.41.41,0,0,0-.24.27,2.66,2.66,0,0,0-.06.67c0,.32,0,1,0,2.05a1.79,1.79,0,0,0,.5,1.43,1.59,1.59,0,0,0,1.13.4,1.86,1.86,0,0,0,.79-.16,1.31,1.31,0,0,0,.54-.44,1.52,1.52,0,0,0,.2-.47,4.48,4.48,0,0,0,.05-.72v-1.2a13.16,13.16,0,0,0-.08-1.61.56.56,0,0,0-.35-.38,1.56,1.56,0,0,1-.39-.22.4.4,0,0,1-.1-.26.51.51,0,0,1,.39-.48,3.79,3.79,0,0,1,1.25-.15,3.58,3.58,0,0,1,1.22.15.49.49,0,0,1,.38.47.37.37,0,0,1-.06.23,1.89,1.89,0,0,1-.35.24.61.61,0,0,0-.33.35C181.21,150.17,181.19,150.64,181.18,151.45Z"/><path class="cls-3-aq" d="M168.52,148.57a4.54,4.54,0,0,1,1.35.2,1.6,1.6,0,0,0,.39.09,1.85,1.85,0,0,0,.45-.12.67.67,0,0,1,.24,0,.76.76,0,0,1,.58.36,2,2,0,0,1,.45,1.26,1.14,1.14,0,0,1-.24.76.78.78,0,0,1-.62.29,1,1,0,0,1-.62-.23,4.1,4.1,0,0,1-.46-.51,1.76,1.76,0,0,0-1.38-.74,1.38,1.38,0,0,0-1.12.52,2.16,2.16,0,0,0-.42,1.4,3.6,3.6,0,0,0,.67,2.21,1.83,1.83,0,0,0,.6.54,1.38,1.38,0,0,0,.69.19.62.62,0,0,0,.46-.18.66.66,0,0,0,.19-.49.42.42,0,0,0-.16-.37.27.27,0,0,0-.11-.05h-.31a.53.53,0,0,1-.39-.15.51.51,0,0,1-.16-.37c0-.31.2-.52.6-.65a5,5,0,0,1,1.52-.21,5.26,5.26,0,0,1,1.55.2c.4.12.6.34.6.67a.49.49,0,0,1-.14.34.61.61,0,0,1-.35.17.48.48,0,0,0-.25.08.68.68,0,0,0-.12.28,2.83,2.83,0,0,1-.92,1.45,3.25,3.25,0,0,1-1.13.63,4.58,4.58,0,0,1-3.58-.33,3.87,3.87,0,0,1-1.56-1.57,3.8,3.8,0,0,1-.44-1.82,3.54,3.54,0,0,1,.53-1.87,3.8,3.8,0,0,1,1.58-1.47A4.34,4.34,0,0,1,168.52,148.57Z"/><path class="cls-3-aq" d="M162.6,152.39l1,2.21a1.31,1.31,0,0,0,.25.4.47.47,0,0,0,.3.13c.26,0,.39.17.39.4s-.16.45-.48.57a4.88,4.88,0,0,1-1.57.18,11.23,11.23,0,0,1-1.82-.11.82.82,0,0,1-.44-.2.5.5,0,0,1-.16-.36.33.33,0,0,1,.09-.25.72.72,0,0,1,.31-.17c.17-.06.26-.16.26-.29s-.15-.39-.45-.43a9.11,9.11,0,0,0-1.33-.07,2.34,2.34,0,0,0-.87.09.38.38,0,0,0-.15.19.77.77,0,0,0-.07.28c0,.08,0,.13.05.15a1.29,1.29,0,0,0,.3.12.4.4,0,0,1,.34.39c0,.43-.52.65-1.56.65a5,5,0,0,1-1.29-.12.48.48,0,0,1-.39-.5.36.36,0,0,1,.09-.26.74.74,0,0,1,.3-.17,1.21,1.21,0,0,0,.54-.35,6,6,0,0,0,.52-1l.77-1.68c.28-.62.47-1.09.57-1.39a3.68,3.68,0,0,0,.15-.9,3.16,3.16,0,0,1,.05-.66.85.85,0,0,1,.24-.35,1.26,1.26,0,0,1,1-.38,1.61,1.61,0,0,1,1.06.43A12.14,12.14,0,0,1,162.6,152.39Zm-3.79.69h1.07c.19,0,.29,0,.29-.13a2.65,2.65,0,0,0-.41-.88,2.1,2.1,0,0,0-.28-.43.25.25,0,0,0-.21-.11c-.13,0-.24.12-.32.36l-.16.39a3.11,3.11,0,0,0-.23.67C158.56,153,158.64,153.08,158.81,153.08Z"/><path class="cls-3-aq" d="M149.21,151.1v2.5a2.45,2.45,0,0,0,.15,1.09c.12.2.37.29.76.29a1.61,1.61,0,0,0,1-.27,1.41,1.41,0,0,0,.5-.85c.05-.23.18-.35.37-.35a.54.54,0,0,1,.47.26,1.13,1.13,0,0,1,.18.67,2.61,2.61,0,0,1-.5,1.44,1.36,1.36,0,0,1-.27.34.5.5,0,0,1-.29.09l-1.21-.15h-3.81a1.12,1.12,0,0,1-.53-.09.4.4,0,0,1-.23-.37.32.32,0,0,1,.08-.23,1.61,1.61,0,0,1,.35-.21.7.7,0,0,0,.4-.41,6.41,6.41,0,0,0,.07-1.31c0-.33,0-.81,0-1.44s0-1.06,0-1.36a2,2,0,0,0-.06-.6.44.44,0,0,0-.29-.23,2,2,0,0,1-.46-.2.41.41,0,0,1-.17-.31c0-.27.22-.47.66-.61a5,5,0,0,1,1.5-.18,8.59,8.59,0,0,1,1.58.11c.45.1.68.3.68.59a.37.37,0,0,1-.09.27,1.78,1.78,0,0,1-.44.23.43.43,0,0,0-.26.32A4.76,4.76,0,0,0,149.21,151.1Z"/><path class="cls-3-aq" d="M139.12,148.72h2.81c.56,0,1,0,1.24,0a4.87,4.87,0,0,0,.76-.15l.18,0a.62.62,0,0,1,.5.3A2,2,0,0,1,145,150a.91.91,0,0,1-.15.56.48.48,0,0,1-.41.21.44.44,0,0,1-.28-.08,1.3,1.3,0,0,1-.27-.33,1.18,1.18,0,0,0-.61-.48,3.91,3.91,0,0,0-1.21-.13c-.42,0-.67.08-.76.23a.68.68,0,0,0-.09.32c0,.13,0,.48,0,1,0,.22,0,.35.11.4a1.1,1.1,0,0,0,.57.08.5.5,0,0,0,.33-.09.57.57,0,0,0,.13-.34c0-.21.06-.36.08-.44a.55.55,0,0,1,.15-.2.39.39,0,0,1,.27-.1.46.46,0,0,1,.38.21,1.49,1.49,0,0,1,.19.56,3.86,3.86,0,0,1,.08.84,3.38,3.38,0,0,1-.26,1.41.48.48,0,0,1-.45.3.3.3,0,0,1-.26-.1,1.09,1.09,0,0,1-.11-.39.64.64,0,0,0-.71-.62.36.36,0,0,0-.34.16,1.23,1.23,0,0,0-.09.57,6.18,6.18,0,0,0,0,.67,2.56,2.56,0,0,0,.07.53.34.34,0,0,0,.27.23,3.26,3.26,0,0,0,.75.06,2.85,2.85,0,0,0,1.24-.21,1.54,1.54,0,0,0,.67-.76,1.2,1.2,0,0,1,.28-.42.41.41,0,0,1,.31-.11.43.43,0,0,1,.38.2.8.8,0,0,1,.15.5,2.39,2.39,0,0,1-.17.81,4.2,4.2,0,0,1-.41.88.88.88,0,0,1-.21.24.27.27,0,0,1-.2.07l-.3,0a6.88,6.88,0,0,0-.94-.08h-4.62a.69.69,0,0,1-.43-.12.43.43,0,0,1-.15-.35.32.32,0,0,1,.07-.23,1.52,1.52,0,0,1,.29-.18.53.53,0,0,0,.25-.17.83.83,0,0,0,.12-.31,10.75,10.75,0,0,0,.18-2.21,8.15,8.15,0,0,0-.26-2.66.49.49,0,0,0-.12-.15,1.44,1.44,0,0,0-.27-.1.4.4,0,0,1-.31-.42.48.48,0,0,1,.1-.31.5.5,0,0,1,.27-.18A4.65,4.65,0,0,1,139.12,148.72Z"/><path class="cls-3-aq" d="M131.33,156.16h-.4l-.77,0-.37,0a1,1,0,0,1-.59-.17.54.54,0,0,1-.23-.44.4.4,0,0,1,.1-.3.73.73,0,0,1,.33-.17.48.48,0,0,0,.3-.18,1.34,1.34,0,0,0,.12-.48c0-.27.05-.8.08-1.59s0-1.57,0-2.35a1.65,1.65,0,0,0-.07-.61.55.55,0,0,0-.33-.24.51.51,0,0,1-.38-.49.47.47,0,0,1,.26-.42,1.43,1.43,0,0,1,.72-.15h.36l.67,0c.52,0,1.1,0,1.76,0h.51a5.59,5.59,0,0,1,2,.28,3,3,0,0,1,1.62,1.43,4.23,4.23,0,0,1,.49,2.1,4.48,4.48,0,0,1-.18,1.24,3.76,3.76,0,0,1-.49,1.07,3.28,3.28,0,0,1-1.74,1.28,4.28,4.28,0,0,1-1.4.22l-.66,0-.56,0Zm1.14-5.91v4.22a.54.54,0,0,0,.64.63c1.06,0,1.59-.8,1.59-2.42a4.65,4.65,0,0,0-.37-2.07,1.43,1.43,0,0,0-1.39-.81.55.55,0,0,0-.36.1A.49.49,0,0,0,132.47,150.25Z"/><path class="cls-3-aq" d="M124.07,152.39l1,2.21a1.34,1.34,0,0,0,.24.4.52.52,0,0,0,.3.13c.26,0,.39.17.39.4s-.16.45-.48.57a4.88,4.88,0,0,1-1.57.18,11.23,11.23,0,0,1-1.82-.11.79.79,0,0,1-.43-.2.48.48,0,0,1-.17-.36.33.33,0,0,1,.09-.25.79.79,0,0,1,.31-.17c.17-.06.26-.16.26-.29s-.15-.39-.44-.43a9.27,9.27,0,0,0-1.34-.07,2.24,2.24,0,0,0-.86.09.45.45,0,0,0-.16.19.74.74,0,0,0-.06.28c0,.08,0,.13,0,.15a1.47,1.47,0,0,0,.31.12.39.39,0,0,1,.33.39c0,.43-.52.65-1.55.65a5.06,5.06,0,0,1-1.3-.12.48.48,0,0,1-.38-.5.35.35,0,0,1,.08-.26.82.82,0,0,1,.3-.17,1.21,1.21,0,0,0,.54-.35,5.27,5.27,0,0,0,.52-1l.77-1.68c.28-.62.47-1.09.57-1.39a2.93,2.93,0,0,0,.15-.9,2.47,2.47,0,0,1,.06-.66.74.74,0,0,1,.23-.35,1.27,1.27,0,0,1,1-.38A1.6,1.6,0,0,1,122,149,12.33,12.33,0,0,1,124.07,152.39Zm-3.8.69h1.07c.2,0,.3,0,.3-.13a2.9,2.9,0,0,0-.41-.88,2.5,2.5,0,0,0-.29-.43.24.24,0,0,0-.2-.11q-.19,0-.33.36s-.07.17-.16.39a3.11,3.11,0,0,0-.23.67C120,153,120.11,153.08,120.27,153.08Z"/><path class="cls-3-aq" d="M114.74,148.61a5.41,5.41,0,0,1,1.17.11c.5.09.74.3.74.62a.33.33,0,0,1-.07.24,1.61,1.61,0,0,1-.37.23.71.71,0,0,0-.33.55,10.18,10.18,0,0,0-.08,1.66,18.16,18.16,0,0,0,.1,2.58.67.67,0,0,0,.12.24.78.78,0,0,0,.27.18.52.52,0,0,1,.36.48q0,.44-.66.6a8,8,0,0,1-1.76.17c-1.19,0-1.78-.23-1.78-.68,0-.16.12-.31.35-.45a.66.66,0,0,0,.32-.45,20.51,20.51,0,0,0,.1-2.64,7.08,7.08,0,0,0-.14-1.79.77.77,0,0,0-.37-.4,1.91,1.91,0,0,1-.3-.24.41.41,0,0,1-.07-.25.42.42,0,0,1,.22-.38,2.9,2.9,0,0,1,.8-.25A7.16,7.16,0,0,1,114.74,148.61Z"/><path class="cls-3-aq" d="M107.31,153c-.14,0-.23,0-.27.13a1.79,1.79,0,0,0-.05.58,5.16,5.16,0,0,0,.08,1.08.54.54,0,0,0,.08.17,1.16,1.16,0,0,0,.21.15.53.53,0,0,1,.33.47c0,.24-.15.41-.46.51a5.45,5.45,0,0,1-1.54.15c-1.34,0-2-.25-2-.76a.33.33,0,0,1,.06-.21,1,1,0,0,1,.27-.22.77.77,0,0,0,.32-.38,2.47,2.47,0,0,0,.12-.74c0-.26,0-1.18,0-2.77a4.64,4.64,0,0,0-.08-1,.6.6,0,0,0-.32-.39,1.35,1.35,0,0,1-.33-.21.41.41,0,0,1-.08-.25.44.44,0,0,1,.16-.35.88.88,0,0,1,.43-.22,2.72,2.72,0,0,1,.64-.06l.9.05h.43c.33,0,.77,0,1.31-.06.35,0,.59,0,.73,0a3.22,3.22,0,0,1,1.93.56,1.67,1.67,0,0,1,.68,1.41,1.77,1.77,0,0,1-.24.91,1.58,1.58,0,0,1-.66.62c-.11.06-.17.12-.17.21s.09.19.27.25a1.62,1.62,0,0,1,.84.63,3.48,3.48,0,0,1,.38,1.28,1,1,0,0,0,.14.47.89.89,0,0,0,.43.2.33.33,0,0,1,.17.14.4.4,0,0,1,.07.24.54.54,0,0,1-.13.34.79.79,0,0,1-.33.27,3.11,3.11,0,0,1-1.26.21,1.84,1.84,0,0,1-1.52-.56,2.21,2.21,0,0,1-.35-.63,9.75,9.75,0,0,1-.34-1.19,1.66,1.66,0,0,0-.32-.73A.76.76,0,0,0,107.31,153Zm-.32-2.78-.06,1.27v0a.39.39,0,0,0,.06.26s.11.07.23.07a.88.88,0,0,0,.7-.25,1.2,1.2,0,0,0,.22-.79q0-1.05-.75-1.05a.41.41,0,0,0-.3.09A.61.61,0,0,0,107,150.25Z"/><path class="cls-3-aq" d="M98.25,148.72h2.87a3.71,3.71,0,0,0,.85-.12,1.11,1.11,0,0,1,.28,0c.3,0,.58.22.86.66a2.43,2.43,0,0,1,.42,1.34.84.84,0,0,1-.29.7.89.89,0,0,1-.52.16.77.77,0,0,1-.5-.16,1.88,1.88,0,0,1-.42-.53,2,2,0,0,0-.29-.45.37.37,0,0,0-.25-.1.31.31,0,0,0-.29.17,1.47,1.47,0,0,0-.08.56v3a1.87,1.87,0,0,0,.09.68.7.7,0,0,0,.38.33,1.51,1.51,0,0,1,.4.23.45.45,0,0,1,.1.31c0,.26-.18.46-.53.59a5.38,5.38,0,0,1-1.63.19,6.64,6.64,0,0,1-2-.23c-.36-.12-.55-.32-.55-.6a.41.41,0,0,1,.2-.35l.39-.13a.41.41,0,0,0,.28-.23,2.29,2.29,0,0,0,.13-.64c0-.29.06-.75.08-1.38s0-1.18,0-1.65a2.25,2.25,0,0,0-.08-.7.26.26,0,0,0-.25-.2c-.14,0-.28.1-.41.3a3.08,3.08,0,0,1-.6.74.92.92,0,0,1-.54.21.61.61,0,0,1-.49-.22.89.89,0,0,1-.19-.57,2,2,0,0,1,.16-.74,3,3,0,0,1,.4-.75,1.11,1.11,0,0,1,.82-.55l.25,0a4.43,4.43,0,0,0,.49.08Z"/><path class="cls-3-aq" d="M92,148.57a5.2,5.2,0,0,1,1.47.28l.17,0a1.34,1.34,0,0,0,.33-.1.58.58,0,0,1,.19,0c.24,0,.5.19.77.58a1.91,1.91,0,0,1,.4,1.1.76.76,0,0,1-.18.51.56.56,0,0,1-.44.21.74.74,0,0,1-.36-.08c-.09-.06-.29-.24-.6-.52a1.88,1.88,0,0,0-1.28-.61.79.79,0,0,0-.49.14.48.48,0,0,0-.18.39c0,.32.28.56.83.72a13.74,13.74,0,0,1,1.45.48,2.14,2.14,0,0,1,1.38,2,2.3,2.3,0,0,1-.94,1.9,4,4,0,0,1-2.54.75,7.14,7.14,0,0,1-1.47-.17,3.45,3.45,0,0,1-1.12-.39,1.52,1.52,0,0,1-.47-.76,3.36,3.36,0,0,1-.21-1.14.64.64,0,0,1,.11-.4.42.42,0,0,1,.34-.18.52.52,0,0,1,.4.22,5.69,5.69,0,0,1,.54.76,1.45,1.45,0,0,0,.64.51,2.23,2.23,0,0,0,.91.2,1.23,1.23,0,0,0,.65-.15.44.44,0,0,0,.25-.38.47.47,0,0,0-.19-.38,2.15,2.15,0,0,0-.64-.29,11.15,11.15,0,0,1-1.19-.45,3.8,3.8,0,0,1-.76-.52,2.27,2.27,0,0,1-.86-1.73,2.12,2.12,0,0,1,.22-.94,2.36,2.36,0,0,1,.63-.78A3.33,3.33,0,0,1,92,148.57Z"/><path class="cls-3-aq" d="M87.5,151.45v1.33a5.57,5.57,0,0,1-.18,1.7,2.6,2.6,0,0,1-1.7,1.53,5.11,5.11,0,0,1-1.8.3,4.35,4.35,0,0,1-2.8-.84,2.05,2.05,0,0,1-.71-.94,4.79,4.79,0,0,1-.2-1.56c0-.27,0-.7,0-1.31,0-.43,0-.71,0-.85a2.26,2.26,0,0,0-.06-.63.81.81,0,0,0-.3-.32.65.65,0,0,1-.36-.53.49.49,0,0,1,.18-.37,1,1,0,0,1,.48-.23,7.38,7.38,0,0,1,1.42-.12,7,7,0,0,1,1.5.14c.38.09.58.28.58.59a.45.45,0,0,1-.17.37l-.33.17a.42.42,0,0,0-.23.27,2.18,2.18,0,0,0-.07.67c0,.32,0,1,0,2.05a1.76,1.76,0,0,0,.51,1.43,1.57,1.57,0,0,0,1.12.4,1.86,1.86,0,0,0,.79-.16,1.26,1.26,0,0,0,.74-.91,3.56,3.56,0,0,0,0-.72v-1.2a14.31,14.31,0,0,0-.07-1.61.6.6,0,0,0-.36-.38,1.65,1.65,0,0,1-.38-.22.36.36,0,0,1-.11-.26.51.51,0,0,1,.39-.48,3.79,3.79,0,0,1,1.25-.15,3.65,3.65,0,0,1,1.23.15.5.5,0,0,1,.38.47.37.37,0,0,1-.07.23,1.7,1.7,0,0,1-.34.24c-.2.11-.31.22-.33.35A10.37,10.37,0,0,0,87.5,151.45Z"/><path class="cls-3-aq" d="M72.84,156.16h-.4l-.77,0-.37,0a1,1,0,0,1-.59-.17.54.54,0,0,1-.23-.44.4.4,0,0,1,.1-.3.73.73,0,0,1,.33-.17.48.48,0,0,0,.3-.18,1.34,1.34,0,0,0,.12-.48c0-.27,0-.8.08-1.59s0-1.57,0-2.35a1.65,1.65,0,0,0-.07-.61.55.55,0,0,0-.33-.24.51.51,0,0,1-.38-.49.47.47,0,0,1,.26-.42,1.43,1.43,0,0,1,.72-.15H72l.67,0c.52,0,1.1,0,1.76,0h.51a5.59,5.59,0,0,1,2,.28,3,3,0,0,1,1.62,1.43,4.23,4.23,0,0,1,.49,2.1,4.48,4.48,0,0,1-.18,1.24,3.76,3.76,0,0,1-.49,1.07A3.28,3.28,0,0,1,76.62,156a4.28,4.28,0,0,1-1.4.22l-.66,0-.56,0ZM74,150.25v4.22a.54.54,0,0,0,.64.63c1.06,0,1.59-.8,1.59-2.42a4.65,4.65,0,0,0-.37-2.07,1.43,1.43,0,0,0-1.39-.81.55.55,0,0,0-.36.1A.49.49,0,0,0,74,150.25Z"/><path class="cls-3-aq" d="M64.29,149,67,151.36a1.11,1.11,0,0,0,.55.33c.19,0,.28-.2.28-.6a3.35,3.35,0,0,0-.08-.94.63.63,0,0,0-.34-.38.83.83,0,0,1-.3-.22.49.49,0,0,1-.09-.3c0-.3.21-.5.63-.59a5.77,5.77,0,0,1,.89,0,4.2,4.2,0,0,1,1.14.1c.33.1.5.29.5.57a.57.57,0,0,1-.41.54.82.82,0,0,0-.22.12.35.35,0,0,0-.1.17,4.27,4.27,0,0,0-.16,1.36v1.78c0,.27,0,.64,0,1.11a5.73,5.73,0,0,1-.12,1.39c-.09.35-.27.53-.53.53a.55.55,0,0,1-.29-.08,2.45,2.45,0,0,1-.41-.32L64.72,153a.94.94,0,0,0-.56-.3c-.22,0-.33.31-.33.92a4.64,4.64,0,0,0,.08,1,.63.63,0,0,0,.35.4.54.54,0,0,1,.36.47c0,.51-.54.76-1.63.76a2.7,2.7,0,0,1-1.14-.19.6.6,0,0,1-.4-.55.43.43,0,0,1,.07-.28,1.68,1.68,0,0,1,.35-.25.7.7,0,0,0,.31-.54,17,17,0,0,0,.09-2,9,9,0,0,0-.17-2.05A1,1,0,0,0,62,150a.83.83,0,0,0-.3-.22,1,1,0,0,1-.34-.23.4.4,0,0,1-.1-.28q0-.52.9-.66a8.77,8.77,0,0,1,1.07,0,2.36,2.36,0,0,1,.63.06A1.65,1.65,0,0,1,64.29,149Z"/><path class="cls-3-aq" d="M59,148.61a5.57,5.57,0,0,1,1.18.11c.49.09.74.3.74.62a.33.33,0,0,1-.08.24,1.61,1.61,0,0,1-.37.23.71.71,0,0,0-.33.55,11.53,11.53,0,0,0-.08,1.66,17.52,17.52,0,0,0,.11,2.58.53.53,0,0,0,.11.24.84.84,0,0,0,.28.18.52.52,0,0,1,.36.48c0,.29-.22.49-.67.6a7.94,7.94,0,0,1-1.76.17c-1.18,0-1.77-.23-1.77-.68,0-.16.11-.31.34-.45a.63.63,0,0,0,.32-.45,20.51,20.51,0,0,0,.1-2.64,6.62,6.62,0,0,0-.14-1.79.79.79,0,0,0-.36-.4,1.52,1.52,0,0,1-.3-.24.41.41,0,0,1-.08-.25.43.43,0,0,1,.23-.38,2.8,2.8,0,0,1,.79-.25A7.16,7.16,0,0,1,59,148.61Z"/><path class="cls-3-aq" d="M51.7,152.39l1,2.21a1.34,1.34,0,0,0,.24.4.52.52,0,0,0,.3.13c.26,0,.39.17.39.4s-.16.45-.48.57a4.88,4.88,0,0,1-1.57.18,11.23,11.23,0,0,1-1.82-.11.86.86,0,0,1-.44-.2.5.5,0,0,1-.16-.36.33.33,0,0,1,.09-.25.72.72,0,0,1,.31-.17c.17-.06.26-.16.26-.29s-.15-.39-.44-.43a9.27,9.27,0,0,0-1.34-.07,2.34,2.34,0,0,0-.87.09.52.52,0,0,0-.15.19A.74.74,0,0,0,47,155c0,.08,0,.13,0,.15a1.25,1.25,0,0,0,.31.12.39.39,0,0,1,.33.39c0,.43-.52.65-1.56.65a5,5,0,0,1-1.29-.12.48.48,0,0,1-.38-.5.35.35,0,0,1,.08-.26.82.82,0,0,1,.3-.17,1.21,1.21,0,0,0,.54-.35,6,6,0,0,0,.52-1l.77-1.68c.28-.62.47-1.09.57-1.39a3.68,3.68,0,0,0,.15-.9,2.47,2.47,0,0,1,.06-.66.74.74,0,0,1,.23-.35,1.27,1.27,0,0,1,1-.38,1.6,1.6,0,0,1,1.05.43A12.33,12.33,0,0,1,51.7,152.39Zm-3.8.69H49c.2,0,.29,0,.29-.13a2.76,2.76,0,0,0-.4-.88,2.5,2.5,0,0,0-.29-.43.24.24,0,0,0-.2-.11c-.14,0-.24.12-.33.36l-.16.39a3.11,3.11,0,0,0-.23.67C47.65,153,47.73,153.08,47.9,153.08Z"/><path class="cls-3-aq" d="M40.92,151.1v2.5a2.45,2.45,0,0,0,.15,1.09c.12.2.37.29.76.29a1.61,1.61,0,0,0,1-.27,1.46,1.46,0,0,0,.5-.85c0-.23.18-.35.37-.35a.54.54,0,0,1,.47.26,1.13,1.13,0,0,1,.18.67,2.69,2.69,0,0,1-.5,1.44,1.16,1.16,0,0,1-.28.34.46.46,0,0,1-.29.09l-1.21-.15H38.24a1.07,1.07,0,0,1-.52-.09.4.4,0,0,1-.23-.37.32.32,0,0,1,.08-.23,1.38,1.38,0,0,1,.35-.21.7.7,0,0,0,.4-.41,6.41,6.41,0,0,0,.07-1.31q0-.49,0-1.44c0-.6,0-1.06,0-1.36a1.66,1.66,0,0,0-.07-.6.42.42,0,0,0-.28-.23,1.77,1.77,0,0,1-.46-.2.38.38,0,0,1-.17-.31c0-.27.21-.47.65-.61a5.14,5.14,0,0,1,1.51-.18,8.66,8.66,0,0,1,1.58.11c.45.1.68.3.68.59a.37.37,0,0,1-.09.27,1.78,1.78,0,0,1-.44.23.43.43,0,0,0-.26.32A4.76,4.76,0,0,0,40.92,151.1Z"/></g></g></svg>