<svg xmlns="http://www.w3.org/2000/svg" viewBox="0 0 149.52 104.64"><defs><style>.b31e921c-f8b6-4f10-a770-650b6a17d64d{fill:#7db828;}.ab898468-21ae-4aff-9a93-26ba12ab55e1,.b31e921c-f8b6-4f10-a770-650b6a17d64d,.b7c55c22-a9b9-4499-bfb1-12588f8a66dc{fill-rule:evenodd;}.b7c55c22-a9b9-4499-bfb1-12588f8a66dc,.bd50621f-748c-4122-b713-ca9d5c7dbd71{fill:#fff;}.ab898468-21ae-4aff-9a93-26ba12ab55e1{fill:#fcfcfc;}</style></defs><g id="a9db54af-7a39-4e59-8345-39b593af6b85" data-name="Capa 2"><g id="b9ffd1b5-6dfe-4cbe-8473-ab7f978eafa5" data-name="Capa 1"><path class="b31e921c-f8b6-4f10-a770-650b6a17d64d" d="M104.23,27l0-.06v0l0,0Z"/><path class="b7c55c22-a9b9-4499-bfb1-12588f8a66dc" d="M54.36,91.17c-.19,0-.26.11-.36.18a8.87,8.87,0,0,1-9.25.64,4.35,4.35,0,0,1-2.31-3,6.3,6.3,0,0,1,.06-1.79c.31-3.48.64-6.95,1-10.42.13-1.4.26-2.79.37-4.19,0-.35.11-.51.51-.5q3,0,5.94,0c.34,0,.41.1.38.44q-.51,5.55-1,11.1c-.06.73-.13,1.45-.21,2.18a1.8,1.8,0,0,0,1.5,2,3.45,3.45,0,0,0,3.14-.56,1.89,1.89,0,0,0,.78-1.44c.23-2.66.49-5.32.73-8,.16-1.74.32-3.48.45-5.22,0-.42.14-.57.58-.56,2,0,3.93,0,5.9,0,.33,0,.42.08.38.43q-.37,4-.74,8c-.2,2.24-.4,4.47-.61,6.71-.17,1.84-.34,3.67-.5,5.51,0,.22-.09.29-.3.29H54.47c-.25,0-.3-.09-.27-.33C54.27,92.19,54.31,91.68,54.36,91.17Z"/><path class="b7c55c22-a9b9-4499-bfb1-12588f8a66dc" d="M76.13,91.07a8.5,8.5,0,0,1-1.89,1.18A8.74,8.74,0,0,1,66.53,92a4.66,4.66,0,0,1-2.08-2.15,5.17,5.17,0,0,1-.2-2.78c.19-2,.36-3.93.57-5.9A19.51,19.51,0,0,1,65.2,78a7.17,7.17,0,0,1,3.19-4,12,12,0,0,1,7.23-1.94,10.09,10.09,0,0,1,6.15,2.09A5.65,5.65,0,0,1,84,79.75c-.26,1.87-.37,3.76-.54,5.64-.23,2.45-.46,4.9-.67,7.35,0,.22-.11.28-.32.28H76.22c-.26,0-.3-.1-.27-.33C76,92.18,76.06,91.68,76.13,91.07Zm-1.37-14a3.28,3.28,0,0,0-2.15.67A1.7,1.7,0,0,0,71.83,79c-.22,2.34-.44,4.69-.65,7a1.49,1.49,0,0,0,.57,1.32,3.42,3.42,0,0,0,4.37-.3,1.85,1.85,0,0,0,.49-1.15c0-.48.09-1,.13-1.45.16-1.81.31-3.61.47-5.42a1.46,1.46,0,0,0-.61-1.33A2.87,2.87,0,0,0,74.76,77.11Z"/><path class="b7c55c22-a9b9-4499-bfb1-12588f8a66dc" d="M120.9,85c-1.9,0-3.8,0-5.69,0-.33,0-.51.07-.46.44a.57.57,0,0,1,0,.13,1.88,1.88,0,0,0,1.67,2.3,3.32,3.32,0,0,0,3.3-.93,1.14,1.14,0,0,0,.35-.62c0-.3.18-.37.47-.37,2,0,4,0,6,0,.47,0,.48,0,.39.52a6.65,6.65,0,0,1-2.8,4.16A12.6,12.6,0,0,1,111.8,92,8.18,8.18,0,0,1,109,89.77a5.73,5.73,0,0,1-1.08-4.64c.21-1.66.41-3.32.48-5a7,7,0,0,1,2.56-5.4,11,11,0,0,1,4.66-2.3,12.3,12.3,0,0,1,8.08.73,8.12,8.12,0,0,1,2.57,1.94,5.49,5.49,0,0,1,1.28,4.54c-.19,1.63-.34,3.27-.48,4.91,0,.38-.14.5-.52.49C124.66,85,122.78,85,120.9,85Zm-3-5h2.38c.11,0,.24.06.32-.11a2.1,2.1,0,0,0-.58-2.25,3.19,3.19,0,0,0-2.26-.55,2.57,2.57,0,0,0-2.53,2.52c0,.29,0,.41.33.4C116.38,80,117.16,80,117.94,80Z"/><path class="b7c55c22-a9b9-4499-bfb1-12588f8a66dc" d="M101.1,93c-1,0-2.07,0-3.1,0-.27,0-.33-.08-.3-.35l.54-5.59c.06-.6.11-1.19.18-1.79,0-.23-.07-.26-.26-.26H93.35c-.24,0-.31.09-.33.32-.11,1.23-.23,2.47-.34,3.71s-.24,2.45-.34,3.68c0,.22-.1.27-.31.27-2.09,0-4.18,0-6.27,0-.32,0-.29-.16-.27-.37.14-1.58.28-3.16.43-4.74s.32-3.33.47-5c.22-2.33.44-4.67.65-7,.1-1.07.2-2.14.29-3.21,0-.61,0-.61.61-.61,1.93,0,3.87,0,5.81,0,.34,0,.46.05.42.43-.22,2.31-.42,4.61-.64,6.92,0,.6-.07.59.5.59h4.51c.29,0,.38-.09.4-.38.19-2.35.41-4.7.6-7,0-.4.16-.54.58-.53,2,0,4,0,6,0,.29,0,.35.06.32.37-.28,2.91-.53,5.81-.79,8.72q-.54,5.76-1.07,11.53c0,.24-.1.31-.33.3Z"/><path class="b7c55c22-a9b9-4499-bfb1-12588f8a66dc" d="M136.28,88.44a5.32,5.32,0,0,0-.17,1.29c-.11,1-.19,2-.26,3,0,.29-.11.35-.37.34-2,0-4.1,0-6.15,0-.31,0-.37-.11-.34-.39.27-2.83.54-5.67.8-8.5.24-2.59.47-5.18.71-7.77.12-1.32.25-2.65.37-4,0-.24.11-.3.33-.3q3.11,0,6.19,0c.25,0,.31.08.3.32a9.33,9.33,0,0,0-.1,1.49c.1,0,.16,0,.22-.08a8.33,8.33,0,0,1,5.76-1.72,7.52,7.52,0,0,1,3.69,1,4.27,4.27,0,0,1,2.21,4.59c-.23,1.75-.33,3.53-.5,5.29a7.46,7.46,0,0,1-.47,2.47A5.41,5.41,0,0,1,145.86,88a5.77,5.77,0,0,1-1,.41c-.28.1-.26.17-.06.35l3.08,2.84L149.43,93h-.5c-2.41,0-4.82,0-7.23,0a1.18,1.18,0,0,1-.89-.36c-1.37-1.31-2.75-2.59-4.13-3.89ZM139.34,84a2.92,2.92,0,0,0,1.16-.17,2.31,2.31,0,0,0,1.79-2.33,23,23,0,0,1,.18-2.35,1.49,1.49,0,0,0-.68-1.5,3.44,3.44,0,0,0-4.11.27,1.65,1.65,0,0,0-.59,1.09c-.09.93-.18,1.85-.24,2.78a1.76,1.76,0,0,0,1.36,2A3,3,0,0,0,139.34,84Z"/><path class="b7c55c22-a9b9-4499-bfb1-12588f8a66dc" d="M32.59,91.07a7.07,7.07,0,0,1-2.34,1.38,8.45,8.45,0,0,1-7.66-.72,4,4,0,0,1-1.9-4.08c.38-3.5.65-7,1-10.51a4.53,4.53,0,0,1,2-3.35,8.68,8.68,0,0,1,9-.87,4.85,4.85,0,0,1,1.27.89c.06,0,.12.14.21.11s.07-.15.08-.22c0-.43.09-.86.11-1.28,0-.24.1-.32.33-.31,2.07,0,4.13,0,6.19,0,.3,0,.34.12.31.38-.16,1.71-.31,3.42-.46,5.12-.18,1.94-.37,3.88-.55,5.81-.27,2.93-.55,5.87-.82,8.8-.12,1.37-.25,2.73-.37,4.1-.05.68-.05.68-.68.68H32.46c-.29,0-.43,0-.39-.4.2-1.69.35-3.39.51-5.08A2.77,2.77,0,0,0,32.59,91.07Zm-1.33-14a3.3,3.3,0,0,0-2.05.59,1.91,1.91,0,0,0-.91,1.46c-.2,2.3-.42,4.6-.62,6.91a1.46,1.46,0,0,0,.59,1.3A3.4,3.4,0,0,0,32.63,87a1.72,1.72,0,0,0,.47-1c.2-2.2.37-4.41.6-6.61a1.8,1.8,0,0,0-1.34-2.08A2.61,2.61,0,0,0,31.26,77.11Z"/><path class="b7c55c22-a9b9-4499-bfb1-12588f8a66dc" d="M18.41,89c0-1.72-.1-3.43-.17-5.15-.12-3.23-.31-6.46-.6-9.68-.22-2.51-.47-5-.93-7.49a8.69,8.69,0,0,0-1-3A1.3,1.3,0,0,0,14.48,63H7.07c-1,0-1.92,0-2.88,0a1.57,1.57,0,0,0-1.6,1,9.46,9.46,0,0,0-.77,2.49A113.29,113.29,0,0,0,.42,80C.27,82.4.18,84.79.13,87.18c0,1.7-.1,3.4-.13,5.11,0,.86.36,1.24,1.18,1.24H6.83c.84,0,1.16-.32,1.2-1.18.08-1.68.17-3.37.23-5,0-.3.11-.37.37-.36a9.14,9.14,0,0,0,1.17,0c.29,0,.38.08.39.38.07,1.7.17,3.4.26,5.1.05.78.4,1.11,1.15,1.11h5.73c.79,0,1.15-.36,1.14-1.18C18.46,91.23,18.43,90.12,18.41,89ZM12.12,78.64a3.41,3.41,0,0,1-3,2.25,3.23,3.23,0,0,1-3.42-3,4.76,4.76,0,0,1,1.2-3.78c.33-.41.66-.82,1-1.24a3.94,3.94,0,0,0,.86-3.44,3.47,3.47,0,0,1,1.26.72A7.44,7.44,0,0,1,12.12,78.64Z"/><path class="ab898468-21ae-4aff-9a93-26ba12ab55e1" d="M104.31,29.07a31.07,31.07,0,0,1-7.15,21.36,29,29,0,0,1-16.07,10,28,28,0,0,1-7.63.74A29.2,29.2,0,0,1,54.55,53.2a26.57,26.57,0,0,1-3.53-4,.59.59,0,0,0-.85-.22c-1,.46-1.93.88-2.89,1.33-.29.14-.35.07-.32-.24.22-2,.43-3.92.65-5.88s.43-4,.65-6c.11-1,.22-1.95.33-3l12,9.12-2.9,1.31c-.56.25-.56.25-.15.72a22.51,22.51,0,0,0,32.72,1.32,23.09,23.09,0,0,0,5.8-9,.76.76,0,0,0,.1-.43c-.12-.05-.2,0-.29.1a21.31,21.31,0,0,1-9.72,3.27,28.12,28.12,0,0,1-10-1.09,44.73,44.73,0,0,1-7.88-3.2A40.16,40.16,0,0,0,56.8,33.71a27.45,27.45,0,0,0-11.34.44c-.1,0-.22.15-.28,0s.12-.15.2-.2a26.49,26.49,0,0,1,8.93-3.16,24.58,24.58,0,0,1,4.61-.37,25.58,25.58,0,0,1,8.89,1.68,60.39,60.39,0,0,0,13.85,3.62,41.36,41.36,0,0,0,6.29.4,24.37,24.37,0,0,0,10.66-2.38A17.19,17.19,0,0,0,104.31,29.07Z"/><path class="ab898468-21ae-4aff-9a93-26ba12ab55e1" d="M104.22,27a12.78,12.78,0,0,1-3.77,3.41,21.25,21.25,0,0,1-8.66,3,38.68,38.68,0,0,1-13.6-.82,70.62,70.62,0,0,1-9.86-3A26,26,0,0,0,60.79,28a26.47,26.47,0,0,0-12.3,2,26,26,0,0,0-3.16,1.6c-.11-.06-.09-.14-.09-.2a29,29,0,0,1,3.58-15.45,31.33,31.33,0,0,1,5.08-7,29.5,29.5,0,0,1,9.64-6.57A28.31,28.31,0,0,1,73.55,0,28.88,28.88,0,0,1,93.76,6.9a29.16,29.16,0,0,1,5.66,6.32c.35.53.4.54,1,.31l3.21-1.23c-.84,5.06-1.68,10.06-2.53,15.13L89.63,17.62l2.09-.8c.36-.13.7-.29,1.06-.4s.32-.24.13-.49a21.6,21.6,0,0,0-3-3.3A22.31,22.31,0,0,0,78.33,7.24a21.86,21.86,0,0,0-16.84,4.2,23.32,23.32,0,0,0-8.94,13.8,1.59,1.59,0,0,0-.09.7c.82-.42,1.62-.84,2.45-1.2a21.43,21.43,0,0,1,8.43-1.88,18.66,18.66,0,0,1,7.27,1.32,78.47,78.47,0,0,0,16.12,4.75,38,38,0,0,0,8.65.61,17.45,17.45,0,0,0,8.19-2.2c.22-.13.39-.33.66-.35Z"/><path class="bd50621f-748c-4122-b713-ca9d5c7dbd71" d="M126.12,102l.69,1.48a1,1,0,0,0,.16.26.29.29,0,0,0,.2.09c.18,0,.26.12.26.27s-.1.3-.32.38a3.25,3.25,0,0,1-1,.12,8.48,8.48,0,0,1-1.21-.07.56.56,0,0,1-.29-.14.28.28,0,0,1-.11-.24.29.29,0,0,1,0-.17.51.51,0,0,1,.21-.11c.12,0,.18-.1.18-.2s-.1-.26-.3-.28a6.58,6.58,0,0,0-.89-.05,1.54,1.54,0,0,0-.58.06.28.28,0,0,0-.1.13.41.41,0,0,0,0,.18.14.14,0,0,0,0,.11l.21.08a.26.26,0,0,1,.22.26c0,.29-.35.43-1,.43a3.18,3.18,0,0,1-.87-.08.32.32,0,0,1-.25-.33.24.24,0,0,1,.06-.18.4.4,0,0,1,.2-.11.81.81,0,0,0,.36-.24,3.58,3.58,0,0,0,.34-.64l.52-1.13a9.22,9.22,0,0,0,.38-.93,2.15,2.15,0,0,0,.1-.6,1.5,1.5,0,0,1,0-.44.53.53,0,0,1,.15-.24.86.86,0,0,1,.64-.25,1.05,1.05,0,0,1,.71.29A8,8,0,0,1,126.12,102Zm-2.53.46h.71c.13,0,.2,0,.2-.09a2,2,0,0,0-.28-.59,1.59,1.59,0,0,0-.19-.29.17.17,0,0,0-.14-.07c-.08,0-.16.08-.21.24l-.11.26a2.09,2.09,0,0,0-.15.45C123.42,102.41,123.47,102.44,123.59,102.44Z"/><path class="bd50621f-748c-4122-b713-ca9d5c7dbd71" d="M121,101.34v.89a3.86,3.86,0,0,1-.12,1.15,1.73,1.73,0,0,1-1.13,1,3.51,3.51,0,0,1-1.2.2,3,3,0,0,1-1.88-.56,1.5,1.5,0,0,1-.47-.63,3.2,3.2,0,0,1-.13-1c0-.18,0-.47,0-.87s0-.48,0-.57a1.31,1.31,0,0,0-.05-.42.48.48,0,0,0-.19-.22.44.44,0,0,1-.25-.35.34.34,0,0,1,.13-.25.64.64,0,0,1,.32-.15,4.43,4.43,0,0,1,1-.08,4.52,4.52,0,0,1,1,.09c.26.06.39.19.39.4a.28.28,0,0,1-.11.24,1.32,1.32,0,0,1-.22.11.31.31,0,0,0-.16.19,1.59,1.59,0,0,0,0,.44c0,.22,0,.67,0,1.38a1.18,1.18,0,0,0,.34,1,1,1,0,0,0,.75.27,1.17,1.17,0,0,0,.53-.11.75.75,0,0,0,.36-.29.83.83,0,0,0,.13-.32,2,2,0,0,0,0-.47v-.81a10.36,10.36,0,0,0,0-1.08.39.39,0,0,0-.24-.25.85.85,0,0,1-.26-.15.26.26,0,0,1-.07-.17c0-.15.09-.25.26-.32a2.51,2.51,0,0,1,.84-.1,2.34,2.34,0,0,1,.82.1.32.32,0,0,1,.25.31.25.25,0,0,1,0,.16,1.5,1.5,0,0,1-.23.15.44.44,0,0,0-.22.24A8.39,8.39,0,0,0,121,101.34Z"/><path class="bd50621f-748c-4122-b713-ca9d5c7dbd71" d="M112.57,99.42a3,3,0,0,1,.9.13.79.79,0,0,0,.25.07,1.19,1.19,0,0,0,.31-.09l.16,0a.53.53,0,0,1,.39.24,1.38,1.38,0,0,1,.29.84.81.81,0,0,1-.15.51.52.52,0,0,1-.42.19.72.72,0,0,1-.42-.15,3.85,3.85,0,0,1-.3-.34,1.16,1.16,0,0,0-.92-.49.91.91,0,0,0-.75.34,1.42,1.42,0,0,0-.28.94,2.49,2.49,0,0,0,.44,1.48,1.5,1.5,0,0,0,.4.36,1,1,0,0,0,.47.13.4.4,0,0,0,.31-.13.44.44,0,0,0,.12-.32.28.28,0,0,0-.1-.25.13.13,0,0,0-.08,0H113a.35.35,0,0,1-.26-.1.37.37,0,0,1-.1-.25c0-.2.13-.35.4-.43a3.44,3.44,0,0,1,1-.14,3.4,3.4,0,0,1,1,.13c.27.08.4.23.4.45a.31.31,0,0,1-.09.22.35.35,0,0,1-.24.12.38.38,0,0,0-.17.05.54.54,0,0,0-.07.19,1.9,1.9,0,0,1-.62,1,2.18,2.18,0,0,1-.75.42,3,3,0,0,1-2.39-.22A2.51,2.51,0,0,1,109.8,102a2.37,2.37,0,0,1,.35-1.25,2.51,2.51,0,0,1,1.06-1A2.87,2.87,0,0,1,112.57,99.42Z"/><path class="bd50621f-748c-4122-b713-ca9d5c7dbd71" d="M108.61,102l.69,1.48a1.37,1.37,0,0,0,.16.26.31.31,0,0,0,.2.09q.27,0,.27.27c0,.17-.11.3-.32.38a3.33,3.33,0,0,1-1,.12,8.54,8.54,0,0,1-1.22-.07.61.61,0,0,1-.29-.14.3.3,0,0,1-.11-.24A.24.24,0,0,1,107,104a.45.45,0,0,1,.21-.11c.11,0,.17-.1.17-.2s-.1-.26-.3-.28a6.58,6.58,0,0,0-.89-.05,1.57,1.57,0,0,0-.58.06.28.28,0,0,0-.1.13.39.39,0,0,0,0,.18.14.14,0,0,0,0,.11l.2.08a.26.26,0,0,1,.22.26c0,.29-.34.43-1,.43a3.06,3.06,0,0,1-.86-.08.32.32,0,0,1-.26-.33.24.24,0,0,1,.06-.18.46.46,0,0,1,.2-.11.81.81,0,0,0,.36-.24,3.42,3.42,0,0,0,.35-.64l.51-1.13a7.31,7.31,0,0,0,.38-.93,1.84,1.84,0,0,0,.1-.6,2,2,0,0,1,0-.44.53.53,0,0,1,.15-.24.88.88,0,0,1,.65-.25,1,1,0,0,1,.7.29A8,8,0,0,1,108.61,102Zm-2.53.46h.71c.13,0,.2,0,.2-.09a1.86,1.86,0,0,0-.27-.59c-.09-.14-.15-.24-.19-.29a.19.19,0,0,0-.14-.07c-.09,0-.16.08-.22.24l-.11.26a2.09,2.09,0,0,0-.15.45C105.91,102.41,106,102.44,106.08,102.44Z"/><path class="bd50621f-748c-4122-b713-ca9d5c7dbd71" d="M99.67,101.11v1.68a1.61,1.61,0,0,0,.1.73c.08.13.24.19.5.19a1.08,1.08,0,0,0,.66-.18,1,1,0,0,0,.33-.57c0-.16.12-.24.25-.24a.36.36,0,0,1,.31.18.69.69,0,0,1,.13.45,1.81,1.81,0,0,1-.34,1,1,1,0,0,1-.18.23.34.34,0,0,1-.2.06l-.8-.1H97.88a.73.73,0,0,1-.35-.06.26.26,0,0,1-.15-.25.17.17,0,0,1,.05-.15,1,1,0,0,1,.24-.14.5.5,0,0,0,.26-.28,4.39,4.39,0,0,0,0-.87c0-.22,0-.55,0-1s0-.71,0-.91a1.17,1.17,0,0,0,0-.4.27.27,0,0,0-.19-.15,1,1,0,0,1-.3-.14.26.26,0,0,1-.12-.21c0-.17.15-.31.44-.4a3.36,3.36,0,0,1,1-.12,5.51,5.51,0,0,1,1.06.07q.45.11.45.39a.22.22,0,0,1-.06.18,1,1,0,0,1-.29.16.32.32,0,0,0-.18.21A4.3,4.3,0,0,0,99.67,101.11Z"/><path class="bd50621f-748c-4122-b713-ca9d5c7dbd71" d="M92.93,99.52H94.8l.83,0a3.06,3.06,0,0,0,.51-.1l.12,0a.43.43,0,0,1,.33.2,1.34,1.34,0,0,1,.24.81.6.6,0,0,1-.1.37.35.35,0,0,1-.46.09.91.91,0,0,1-.18-.22.73.73,0,0,0-.41-.33,2.59,2.59,0,0,0-.8-.08q-.42,0-.51.15a.53.53,0,0,0-.06.21c0,.09,0,.32,0,.69,0,.15,0,.24.07.27a.76.76,0,0,0,.39.06.34.34,0,0,0,.22-.07.46.46,0,0,0,.09-.23,1.19,1.19,0,0,1,.05-.29.31.31,0,0,1,.1-.13.24.24,0,0,1,.18-.07.31.31,0,0,1,.25.14,1,1,0,0,1,.13.38,2.54,2.54,0,0,1,0,.56,2.29,2.29,0,0,1-.17.94.32.32,0,0,1-.3.2.21.21,0,0,1-.17-.06.52.52,0,0,1-.08-.26.43.43,0,0,0-.48-.42.23.23,0,0,0-.22.11.82.82,0,0,0-.06.38c0,.12,0,.26,0,.44a2.1,2.1,0,0,0,0,.36.23.23,0,0,0,.18.16,2.72,2.72,0,0,0,.51,0,2,2,0,0,0,.82-.14,1.14,1.14,0,0,0,.45-.51,1.23,1.23,0,0,1,.18-.29.38.38,0,0,1,.22-.07.33.33,0,0,1,.25.13.53.53,0,0,1,.1.34,1.84,1.84,0,0,1-.11.54,2.93,2.93,0,0,1-.28.59.59.59,0,0,1-.14.16.2.2,0,0,1-.14,0l-.2,0a4.41,4.41,0,0,0-.62,0H92.55a.44.44,0,0,1-.28-.08.28.28,0,0,1-.11-.23.23.23,0,0,1,0-.16.71.71,0,0,1,.2-.12.41.41,0,0,0,.16-.11.51.51,0,0,0,.08-.21,7.26,7.26,0,0,0,.12-1.48,5.64,5.64,0,0,0-.17-1.78.29.29,0,0,0-.08-.1l-.18-.07a.26.26,0,0,1-.21-.28.33.33,0,0,1,.07-.21.29.29,0,0,1,.18-.12A3.2,3.2,0,0,1,92.93,99.52Z"/><path class="bd50621f-748c-4122-b713-ca9d5c7dbd71" d="M87.72,104.5h-.26l-.52,0-.24,0a.62.62,0,0,1-.4-.12.34.34,0,0,1-.15-.29.26.26,0,0,1,.07-.2.41.41,0,0,1,.22-.12.29.29,0,0,0,.19-.11.86.86,0,0,0,.08-.32c0-.19,0-.54.05-1.07s0-1,0-1.57a1.19,1.19,0,0,0-.05-.41.35.35,0,0,0-.22-.16.34.34,0,0,1-.25-.33.3.3,0,0,1,.17-.28,1.07,1.07,0,0,1,.48-.1h.69c.34,0,.74,0,1.17,0h.35a3.69,3.69,0,0,1,1.32.19,2,2,0,0,1,1.08,1,2.88,2.88,0,0,1,.33,1.41,3,3,0,0,1-.12.83,2.45,2.45,0,0,1-.33.71,2.19,2.19,0,0,1-1.16.86,2.89,2.89,0,0,1-.94.15l-.44,0H87.72Zm.76-4v2.82a.35.35,0,0,0,.43.42c.71,0,1.06-.54,1.06-1.62a3.19,3.19,0,0,0-.24-1.38,1,1,0,0,0-.93-.55.34.34,0,0,0-.24.07A.33.33,0,0,0,88.48,100.55Z"/><path class="bd50621f-748c-4122-b713-ca9d5c7dbd71" d="M82.87,102l.69,1.48a1,1,0,0,0,.16.26.31.31,0,0,0,.2.09q.27,0,.27.27c0,.17-.11.3-.33.38a3.22,3.22,0,0,1-1,.12,8.54,8.54,0,0,1-1.22-.07.61.61,0,0,1-.29-.14.3.3,0,0,1-.11-.24.24.24,0,0,1,.06-.17.4.4,0,0,1,.21-.11c.11,0,.17-.1.17-.2s-.1-.26-.3-.28a6.58,6.58,0,0,0-.89-.05,1.54,1.54,0,0,0-.58.06.28.28,0,0,0-.1.13.39.39,0,0,0,0,.18.14.14,0,0,0,0,.11l.2.08a.26.26,0,0,1,.22.26c0,.29-.34.43-1,.43a3.06,3.06,0,0,1-.86-.08.32.32,0,0,1-.26-.33.24.24,0,0,1,.06-.18.46.46,0,0,1,.2-.11.81.81,0,0,0,.36-.24A3.42,3.42,0,0,0,79,103l.51-1.13a7.31,7.31,0,0,0,.38-.93,2.15,2.15,0,0,0,.1-.6,2,2,0,0,1,0-.44.53.53,0,0,1,.15-.24.86.86,0,0,1,.64-.25,1.05,1.05,0,0,1,.71.29A8,8,0,0,1,82.87,102Zm-2.53.46h.71c.13,0,.2,0,.2-.09a1.75,1.75,0,0,0-.28-.59,2.75,2.75,0,0,0-.18-.29.19.19,0,0,0-.14-.07c-.09,0-.16.08-.22.24l-.11.26a2.09,2.09,0,0,0-.15.45C80.17,102.41,80.23,102.44,80.34,102.44Z"/><path class="bd50621f-748c-4122-b713-ca9d5c7dbd71" d="M76.64,99.44a4,4,0,0,1,.79.08c.33.06.49.2.49.42a.25.25,0,0,1,0,.16,1.16,1.16,0,0,1-.25.15.5.5,0,0,0-.22.37,8.4,8.4,0,0,0-.05,1.11,11.36,11.36,0,0,0,.07,1.72.3.3,0,0,0,.08.17.9.9,0,0,0,.18.12.34.34,0,0,1,.24.31c0,.2-.15.33-.44.41a5.64,5.64,0,0,1-1.18.11c-.79,0-1.19-.15-1.19-.45,0-.11.08-.21.24-.31a.41.41,0,0,0,.21-.3,14.79,14.79,0,0,0,.07-1.76,4.24,4.24,0,0,0-.1-1.2.51.51,0,0,0-.24-.27.75.75,0,0,1-.2-.16.23.23,0,0,1,0-.17.29.29,0,0,1,.15-.25,1.59,1.59,0,0,1,.53-.16A4.05,4.05,0,0,1,76.64,99.44Z"/><path class="bd50621f-748c-4122-b713-ca9d5c7dbd71" d="M71.68,102.41c-.1,0-.15,0-.18.08a1.09,1.09,0,0,0,0,.39,3.32,3.32,0,0,0,.06.72.33.33,0,0,0,0,.12l.14.09a.34.34,0,0,1-.08.66,3.57,3.57,0,0,1-1,.1q-1.35,0-1.35-.51a.29.29,0,0,1,0-.14l.18-.15a.52.52,0,0,0,.22-.25,1.87,1.87,0,0,0,.08-.49c0-.18,0-.8,0-1.86a3.3,3.3,0,0,0-.05-.69.46.46,0,0,0-.22-.27.59.59,0,0,1-.22-.14.25.25,0,0,1,0-.16.33.33,0,0,1,.1-.24.87.87,0,0,1,.29-.15,2.33,2.33,0,0,1,.43,0l.6,0H71c.22,0,.51,0,.87,0l.49,0a2.06,2.06,0,0,1,1.29.38,1.09,1.09,0,0,1,.45.94,1.18,1.18,0,0,1-.16.61,1,1,0,0,1-.44.41c-.07,0-.11.09-.11.14s.06.13.18.17a1.06,1.06,0,0,1,.56.42,2.15,2.15,0,0,1,.25.86.65.65,0,0,0,.1.31.55.55,0,0,0,.28.14.18.18,0,0,1,.12.09.3.3,0,0,1,0,.16.37.37,0,0,1-.09.23.52.52,0,0,1-.23.18,2.07,2.07,0,0,1-.83.14,1.25,1.25,0,0,1-1-.37,1.59,1.59,0,0,1-.23-.43,6.47,6.47,0,0,1-.23-.79,1.27,1.27,0,0,0-.21-.49A.47.47,0,0,0,71.68,102.41Zm-.21-1.86,0,.85v0a.32.32,0,0,0,0,.17.22.22,0,0,0,.16.05.57.57,0,0,0,.46-.17.78.78,0,0,0,.15-.53c0-.47-.17-.7-.5-.7a.28.28,0,0,0-.2.06A.37.37,0,0,0,71.47,100.55Z"/><path class="bd50621f-748c-4122-b713-ca9d5c7dbd71" d="M65.63,99.52h1.91a2.45,2.45,0,0,0,.57-.08l.19,0c.2,0,.39.14.58.44a1.68,1.68,0,0,1,.27.9.54.54,0,0,1-.19.46.58.58,0,0,1-.35.11.52.52,0,0,1-.33-.11,1,1,0,0,1-.28-.35,2,2,0,0,0-.19-.3.23.23,0,0,0-.17-.07.19.19,0,0,0-.19.11.88.88,0,0,0-.06.38v2a1.21,1.21,0,0,0,.06.45.46.46,0,0,0,.25.22,1,1,0,0,1,.27.16.28.28,0,0,1,.07.21q0,.25-.36.39a3.56,3.56,0,0,1-1.09.13,4.47,4.47,0,0,1-1.34-.15c-.24-.09-.36-.22-.36-.4a.27.27,0,0,1,.13-.24l.26-.09a.26.26,0,0,0,.19-.15,1.71,1.71,0,0,0,.08-.43c0-.19,0-.5.06-.92s0-.8,0-1.11a1.28,1.28,0,0,0,0-.46.17.17,0,0,0-.16-.14c-.1,0-.19.07-.28.2a2.11,2.11,0,0,1-.4.49.61.61,0,0,1-.36.15.43.43,0,0,1-.33-.15.6.6,0,0,1-.12-.38,1.39,1.39,0,0,1,.1-.5,2.42,2.42,0,0,1,.27-.5.75.75,0,0,1,.55-.37l.16,0,.33.06Z"/><path class="bd50621f-748c-4122-b713-ca9d5c7dbd71" d="M61.42,99.42a3.6,3.6,0,0,1,1,.18l.12,0,.22-.07.12,0q.24,0,.51.39a1.22,1.22,0,0,1,.28.73.49.49,0,0,1-.13.35.38.38,0,0,1-.29.14.43.43,0,0,1-.24-.06,3.94,3.94,0,0,1-.4-.35,1.3,1.3,0,0,0-.86-.41.53.53,0,0,0-.32.1.3.3,0,0,0-.13.26c0,.21.19.37.56.48s.82.26,1,.32a1.45,1.45,0,0,1,.93,1.34,1.52,1.52,0,0,1-.63,1.26,2.66,2.66,0,0,1-1.69.51,5.08,5.08,0,0,1-1-.11,2.45,2.45,0,0,1-.74-.26,1.06,1.06,0,0,1-.32-.51,2.37,2.37,0,0,1-.14-.77.41.41,0,0,1,.08-.27.28.28,0,0,1,.22-.11.33.33,0,0,1,.27.14,4.81,4.81,0,0,1,.36.51,1,1,0,0,0,.43.34,1.42,1.42,0,0,0,.6.14.92.92,0,0,0,.44-.1.31.31,0,0,0,.17-.26.3.3,0,0,0-.13-.25,1.33,1.33,0,0,0-.43-.2,5.6,5.6,0,0,1-.79-.3,2.83,2.83,0,0,1-.51-.34,1.56,1.56,0,0,1-.58-1.16,1.39,1.39,0,0,1,.15-.63,1.55,1.55,0,0,1,.43-.53A2.23,2.23,0,0,1,61.42,99.42Z"/><path class="bd50621f-748c-4122-b713-ca9d5c7dbd71" d="M58.44,101.34v.89a3.86,3.86,0,0,1-.12,1.15,1.73,1.73,0,0,1-1.13,1,3.51,3.51,0,0,1-1.2.2,2.91,2.91,0,0,1-1.87-.56,1.44,1.44,0,0,1-.48-.63,3.2,3.2,0,0,1-.13-1c0-.18,0-.47,0-.87s0-.48,0-.57a1.31,1.31,0,0,0,0-.42.48.48,0,0,0-.19-.22.43.43,0,0,1-.24-.35.33.33,0,0,1,.12-.25.64.64,0,0,1,.32-.15,4.43,4.43,0,0,1,1-.08,4.52,4.52,0,0,1,1,.09c.26.06.39.19.39.4a.28.28,0,0,1-.11.24,1.32,1.32,0,0,1-.22.11.31.31,0,0,0-.16.19,2.11,2.11,0,0,0,0,.44c0,.22,0,.67,0,1.38a1.18,1.18,0,0,0,.34,1,1.08,1.08,0,0,0,.75.27,1.14,1.14,0,0,0,.53-.11.75.75,0,0,0,.36-.29.7.7,0,0,0,.13-.32,2,2,0,0,0,0-.47v-.81a10.36,10.36,0,0,0-.05-1.08.39.39,0,0,0-.24-.25.85.85,0,0,1-.26-.15.25.25,0,0,1-.06-.17c0-.15.08-.25.26-.32a2.4,2.4,0,0,1,.83-.1,2.34,2.34,0,0,1,.82.1.32.32,0,0,1,.25.31.25.25,0,0,1,0,.16,1.5,1.5,0,0,1-.23.15.44.44,0,0,0-.22.24A8.39,8.39,0,0,0,58.44,101.34Z"/><path class="bd50621f-748c-4122-b713-ca9d5c7dbd71" d="M48.65,104.5h-.26l-.51,0-.25,0a.63.63,0,0,1-.4-.12.34.34,0,0,1-.15-.29.26.26,0,0,1,.07-.2.41.41,0,0,1,.22-.12.29.29,0,0,0,.19-.11.86.86,0,0,0,.08-.32c0-.19,0-.54.06-1.07s0-1,0-1.57a1.19,1.19,0,0,0,0-.41.33.33,0,0,0-.22-.16.34.34,0,0,1-.25-.33.32.32,0,0,1,.17-.28,1.07,1.07,0,0,1,.48-.1h.69c.35,0,.74,0,1.17,0h.35a3.65,3.65,0,0,1,1.32.19,2,2,0,0,1,1.08,1,2.88,2.88,0,0,1,.33,1.41,3,3,0,0,1-.12.83,2.45,2.45,0,0,1-.33.71,2.19,2.19,0,0,1-1.16.86,2.83,2.83,0,0,1-.93.15l-.44,0H48.65Zm.77-4v2.82a.34.34,0,0,0,.42.42c.71,0,1.06-.54,1.06-1.62a3.19,3.19,0,0,0-.24-1.38,1,1,0,0,0-.93-.55.36.36,0,0,0-.24.07A.33.33,0,0,0,49.42,100.55Z"/><path class="bd50621f-748c-4122-b713-ca9d5c7dbd71" d="M42.94,99.7l1.81,1.59a.84.84,0,0,0,.37.22c.13,0,.19-.14.19-.41a2.72,2.72,0,0,0-.05-.62.45.45,0,0,0-.23-.26.41.41,0,0,1-.2-.14.35.35,0,0,1-.06-.21q0-.3.42-.39a3.54,3.54,0,0,1,.59,0,3,3,0,0,1,.76.07c.23.07.34.2.34.39a.37.37,0,0,1-.27.35c-.08,0-.13.06-.15.09a.23.23,0,0,0-.07.11,2.63,2.63,0,0,0-.1.91v1.94a3.46,3.46,0,0,1-.08.92c-.06.24-.18.36-.35.36a.42.42,0,0,1-.2,0,3.32,3.32,0,0,1-.27-.22l-2.16-1.94a.65.65,0,0,0-.37-.2c-.15,0-.23.2-.23.62a2.68,2.68,0,0,0,.06.69.44.44,0,0,0,.23.27.38.38,0,0,1,.25.32c0,.33-.37.5-1.09.5a1.78,1.78,0,0,1-.77-.13.4.4,0,0,1-.27-.36.31.31,0,0,1,.05-.19,1.11,1.11,0,0,1,.23-.17.45.45,0,0,0,.21-.36,11.35,11.35,0,0,0,.06-1.35,5.66,5.66,0,0,0-.11-1.37.45.45,0,0,0-.3-.38.81.81,0,0,1-.23-.16.29.29,0,0,1-.06-.19c0-.23.2-.38.6-.44a5.56,5.56,0,0,1,.71,0,1.35,1.35,0,0,1,.42,0A1,1,0,0,1,42.94,99.7Z"/><path class="bd50621f-748c-4122-b713-ca9d5c7dbd71" d="M39.41,99.44a3.81,3.81,0,0,1,.78.08c.33.06.5.2.5.42a.25.25,0,0,1,0,.16,1.53,1.53,0,0,1-.25.15.5.5,0,0,0-.22.37,8.4,8.4,0,0,0-.05,1.11,11.36,11.36,0,0,0,.07,1.72.3.3,0,0,0,.08.17.9.9,0,0,0,.18.12.34.34,0,0,1,.24.31c0,.2-.15.33-.44.41a5.64,5.64,0,0,1-1.18.11c-.79,0-1.19-.15-1.19-.45,0-.11.08-.21.24-.31a.41.41,0,0,0,.21-.3,14.79,14.79,0,0,0,.07-1.76,4.67,4.67,0,0,0-.1-1.2.51.51,0,0,0-.24-.27.75.75,0,0,1-.2-.16.23.23,0,0,1,0-.17A.29.29,0,0,1,38,99.7a1.59,1.59,0,0,1,.53-.16A4.05,4.05,0,0,1,39.41,99.44Z"/><path class="bd50621f-748c-4122-b713-ca9d5c7dbd71" d="M34.53,102l.69,1.48a1,1,0,0,0,.16.26.31.31,0,0,0,.2.09c.18,0,.26.12.26.27s-.1.3-.32.38a3.22,3.22,0,0,1-1,.12,8.54,8.54,0,0,1-1.22-.07.56.56,0,0,1-.29-.14.28.28,0,0,1-.11-.24.24.24,0,0,1,.06-.17.4.4,0,0,1,.2-.11c.12,0,.18-.1.18-.2s-.1-.26-.3-.28a6.58,6.58,0,0,0-.89-.05,1.54,1.54,0,0,0-.58.06.28.28,0,0,0-.1.13.39.39,0,0,0,0,.18.14.14,0,0,0,0,.11l.2.08a.26.26,0,0,1,.22.26c0,.29-.35.43-1,.43a3.06,3.06,0,0,1-.86-.08.32.32,0,0,1-.26-.33.24.24,0,0,1,.06-.18.46.46,0,0,1,.2-.11.81.81,0,0,0,.36-.24,3.42,3.42,0,0,0,.35-.64l.51-1.13a7.31,7.31,0,0,0,.38-.93,2.15,2.15,0,0,0,.1-.6,1.5,1.5,0,0,1,0-.44.53.53,0,0,1,.15-.24.86.86,0,0,1,.64-.25,1.05,1.05,0,0,1,.71.29A8,8,0,0,1,34.53,102Zm-2.53.46h.71c.13,0,.2,0,.2-.09a1.75,1.75,0,0,0-.28-.59,1.59,1.59,0,0,0-.19-.29.17.17,0,0,0-.13-.07c-.09,0-.16.08-.22.24l-.11.26a2.09,2.09,0,0,0-.15.45C31.83,102.41,31.88,102.44,32,102.44Z"/><path class="bd50621f-748c-4122-b713-ca9d5c7dbd71" d="M27.33,101.11v1.68a1.77,1.77,0,0,0,.1.73c.08.13.25.19.51.19a1.07,1.07,0,0,0,.65-.18,1,1,0,0,0,.34-.57c0-.16.12-.24.25-.24a.37.37,0,0,1,.31.18.75.75,0,0,1,.12.45,1.79,1.79,0,0,1-.33,1,1,1,0,0,1-.19.23.31.31,0,0,1-.19.06l-.81-.1H25.55a.78.78,0,0,1-.36-.06.26.26,0,0,1-.15-.25.21.21,0,0,1,.05-.15,1.25,1.25,0,0,1,.24-.14.49.49,0,0,0,.27-.28,4.78,4.78,0,0,0,0-.87c0-.22,0-.55,0-1s0-.71,0-.91a1.24,1.24,0,0,0,0-.4.3.3,0,0,0-.19-.15,1.35,1.35,0,0,1-.31-.14A.25.25,0,0,1,25,100c0-.17.14-.31.44-.4a3.36,3.36,0,0,1,1-.12,5.65,5.65,0,0,1,1.06.07q.45.11.45.39a.22.22,0,0,1-.06.18.94.94,0,0,1-.3.16.28.28,0,0,0-.17.21A3.87,3.87,0,0,0,27.33,101.11Z"/></g></g></svg>