<svg xmlns="http://www.w3.org/2000/svg" xmlns:xlink="http://www.w3.org/1999/xlink" viewBox="0 0 102.58 80.84"><defs><style>.a1c583cf-907a-4f2e-bf3b-87abc9c8b48e{fill:#18435f;}.a0cf624c-3d85-421b-9cb2-b40e33445c00,.e48d5e29-3db6-45f7-8eb4-e342005be018{fill:none;}.a7a6fb18-8a8c-4750-a248-1b9f75a206c7{fill:#faf9e4;}.ac3718ca-8344-4a4d-9d9b-797b6a9dd00e{fill:#fff;}.ab52bfed-0d6c-49af-bd34-1ada4f35140d{clip-path:url(#b11d0ad4-4719-4267-8f06-c4e5dc393651);}.abfc9cb8-923f-45b9-b56d-9d00bad14304{clip-path:url(#a5aa8ef7-ae96-4dc7-a3d8-b37cf8f76357);}.a0cf624c-3d85-421b-9cb2-b40e33445c00{stroke:#fff;stroke-miterlimit:10;}</style><clipPath id="b11d0ad4-4719-4267-8f06-c4e5dc393651"><path class="a1c583cf-907a-4f2e-bf3b-87abc9c8b48e" d="M73.69,44.88a.86.86,0,0,0-1.23.61A23,23,0,0,1,69.33,53c-2.23,3.16-5,6-8.12,7.4s-6.46,2.85-11,2.47a23.08,23.08,0,0,1-14.45-6s-3.1-.91-7,1.65c0,0-.59,7.07,1.87,9.42,0,0,2.53,3.58,11.65,2a7.61,7.61,0,0,1,8.9,5.34s2.12-5,6-5.43,9.76,2,13.51-.93c0,0,3.38-1.86,3-8.84S73.69,44.88,73.69,44.88Z"/></clipPath><clipPath id="a5aa8ef7-ae96-4dc7-a3d8-b37cf8f76357"><path class="e48d5e29-3db6-45f7-8eb4-e342005be018" d="M24,16.52s2.85-2.36,5-9.36H36.6s12.75-8.88,28.76,0L73.16,7s2.7,7.6,5.14,9.22c0,0,.63.18-.45,1.18s-3.18,5.26-3.6,8-.62,14.49-.62,14.49V40l-.52.39a2.61,2.61,0,0,1-.28-1.25A23.57,23.57,0,0,0,71.32,33S67.76,19.78,50.15,19.3,28,41.9,30.19,47.46l2.39,5.41L28.9,53s-.17-.09-.17-.89S28.79,38,28.79,38s.42-10.34-1.12-14.62A24.91,24.91,0,0,0,24,16.52Z"/></clipPath></defs><g id="b4068f9d-75d0-4955-8f71-f15d2d5dcb1d" data-name="Capa 2"><g id="bcbeae87-c8c0-4d93-b961-96f6cec94457" data-name="Capa 1"><path class="a7a6fb18-8a8c-4750-a248-1b9f75a206c7" d="M71.09,32.24A4.46,4.46,0,0,1,72,34.1a22.6,22.6,0,0,1,1.15,6.32c-.41.58-1.14.69-1.66,1.12a.26.26,0,0,1-.33,0,4.92,4.92,0,0,1-.28-1.82,20,20,0,0,0-1.7-6.81c-.18-.44-.54-.82-.43-1.36a.31.31,0,0,1,.28-.15c.58.18,1.15.4,1.73.59A1.17,1.17,0,0,1,71.09,32.24Z"/><path class="ac3718ca-8344-4a4d-9d9b-797b6a9dd00e" d="M68.65,31.36l.14.15c-.08.31.16.53.27.76a21.24,21.24,0,0,1,2.07,9.27c-.12.31-.46.35-.66.55-.22.36-.63.45-.94.67a4.92,4.92,0,0,1-.61.3,20,20,0,0,1-2.32,1,1.94,1.94,0,0,0-.82-.76,1.08,1.08,0,0,1-.08-.19,34.39,34.39,0,0,1,.39-4.42,1.51,1.51,0,0,0-.65-1.66c-1.37-1-2.66-2.17-3.95-3.29a.9.9,0,0,0-1.33,0,14.17,14.17,0,0,1-3.62,1.88.9.9,0,0,0-.68,1c0,1.23-.2,2.45-.15,3.67a.46.46,0,0,1-.18.13.82.82,0,0,1-.65-.07.58.58,0,0,1-.17-.58c.19-.91,0-1.84.2-2.76S55,35.85,54,35.41a19.26,19.26,0,0,1-4.43-2.85.75.75,0,0,0-1-.1c-1.77,1-3.58,1.94-5.39,2.88-.5.26-.57.67-.68,1.12a.23.23,0,0,1-.16.11c-.45-.16-.5-.67-.82-.94-.13-.21-.26-.43-.41-.63a.91.91,0,0,1-.11-.16c-.06-.16-.33-.32,0-.48.93.56,1.7.17,2.55-.31q2.14-1.21,4.34-2.34a1,1,0,0,0,.64-.9,15.47,15.47,0,0,1,.9-3.28.87.87,0,0,1,.45-.59,24.38,24.38,0,0,1,3.91.44c2.06.28,4.07.83,6.11,1.23a.42.42,0,0,1,.28.17c.09.14.12.32.21.47a14.23,14.23,0,0,1,.84,2.64,1.43,1.43,0,0,0,.42.77c1.49,1.28,3,2.53,4.5,3.81a.79.79,0,0,0,1.26,0,7,7,0,0,1,1.12-.92.72.72,0,0,0,.28-1,17.82,17.82,0,0,0-1.26-2.78c-.13-.22-.37-.44-.15-.74C67.91,30.88,68.26,31.21,68.65,31.36Z"/><path class="a7a6fb18-8a8c-4750-a248-1b9f75a206c7" d="M70.48,42.19c-.28.29-.49.7-1,.46a3.78,3.78,0,0,1,1-.56A.08.08,0,0,1,70.48,42.19Z"/><path class="ac3718ca-8344-4a4d-9d9b-797b6a9dd00e" d="M60,28.73a9.58,9.58,0,0,1-2.86-.53,70,70,0,0,0-7.34-1.14.35.35,0,0,0,0-.08.45.45,0,0,1,0-.2c.29-.77.29-.77-.64-1.15-.14-.06-.3-.11-.45-.16-.86-.34-1.73-.65-2.59-1a1.43,1.43,0,0,0-1.37.08c-1.6.9-3.16,1.85-4.75,2.75a1.68,1.68,0,0,0-.82.9.66.66,0,0,1-.12.17c-.21.19-.42.36-.73.26a.43.43,0,0,1-.13-.37c0-.21.21-.47-.09-.61s-.41.11-.58.25a.31.31,0,0,1-.19,0,1.57,1.57,0,0,1-.56-.87v-.13a13.25,13.25,0,0,0,2-1.63A36.64,36.64,0,0,1,42.31,23a1.1,1.1,0,0,1,.84-.41c1-.3,1.91-.63,2.89-.89.79-.21,1.6-.34,2.4-.5a.86.86,0,0,1,.56-.16,20.64,20.64,0,0,1,9.83,1.35,1.35,1.35,0,0,1,.74.48,29.56,29.56,0,0,1,3.84,2.43,25.19,25.19,0,0,1,3,2.85.3.3,0,0,1,.27.3l2,2.9c-.46.11-.81-.29-1.25-.28A.4.4,0,0,1,67,31a19.75,19.75,0,0,0-5-5.32l-.48-.32c-.75-.49-.75-.49-1.3.21l-.14.16a1.49,1.49,0,0,0-.28,2.08C60,28,60.27,28.36,60,28.73Z"/><path class="ac3718ca-8344-4a4d-9d9b-797b6a9dd00e" d="M36.74,27.06c.34.17.37.54.55.82-.22.7-.87,1.07-1.26,1.64-.63.7-1,1.57-1.55,2.31,0,.08-.11.16-.16.25a26.74,26.74,0,0,0-1.73,4.83,1.46,1.46,0,0,1-.05.2c-.13.56-.18,1.14-.3,1.7s.08.55.49.47a.82.82,0,0,0,.64-.48c.37-1,1-1.89,1.41-2.85.13-.24.23-.51.54-.58a1.18,1.18,0,0,1,1,.9c.14.43.34.85.48,1.29s.23.63-.1.88-.57.05-.83-.1a.93.93,0,0,0-.2-.09c0,.13.12.22.11.34,0,.5.13.8.71.64,0,0,.11,0,.13,0,.25.38.28.08.35-.11a.79.79,0,0,1,.25-.15,5.2,5.2,0,0,1,2-2.06c.56-.38,1-.26,1.12.4a8.78,8.78,0,0,1,0,2.56c-.06.6-.5.64-1.22.17.4.52.39.73-.11.93a8.65,8.65,0,0,1-1.94.5c-.39.06-.67,0-.7-.49a.94.94,0,0,1-.13.4c-.17.29-.11.49.22.59a11,11,0,0,1,1.8,1.38c.36.29.36.85,0,1a3,3,0,0,1-2.38.28A3.42,3.42,0,0,1,35,43.55a23.16,23.16,0,0,1-1.65-2.91,1.4,1.4,0,0,0-.1-.16c-.74-.31-1.12-.09-1.11.67a4.61,4.61,0,0,0,.08,1.17,13.7,13.7,0,0,0,.21,2,1.55,1.55,0,0,1,0,.21c0,.23.1.46.15.69s.07.26.11.39a18.19,18.19,0,0,0,1.47,4l.18.35c.42.89,1,1.67,1.49,2.53a.33.33,0,0,1-.06.19A.89.89,0,0,1,35,53a.6.6,0,0,1-.19-.06.92.92,0,0,1-.25-.17,6.76,6.76,0,0,1-.86-1.27A13.59,13.59,0,0,1,33,50.22a2.77,2.77,0,0,0-.31-.56,7.75,7.75,0,0,0-.39-.94l-.09-.18a18.5,18.5,0,0,1-.82-2.62,1.26,1.26,0,0,1,0-.61A24.09,24.09,0,0,1,31,41.25s-.05,0,0-.08,0,0,0,0a23.63,23.63,0,0,1,.41-4.2.08.08,0,0,1,0-.12,25.94,25.94,0,0,1,1.67-4.72,1.19,1.19,0,0,1,0-.46.64.64,0,0,1,.06-.18c.13-.28.34-.53.46-.82l.09-.17a4.46,4.46,0,0,1,.67-.94l.15-.12c.3-.28.46-.69.78-1l.18-.18a.78.78,0,0,1,.26-.22A5.93,5.93,0,0,0,36.74,27.06Z"/><path class="ac3718ca-8344-4a4d-9d9b-797b6a9dd00e" d="M54.84,40.26l.67.05c.26.18.2.44.16.69s-.06.41-.09.62a1.93,1.93,0,0,0,.93,2.05,18.22,18.22,0,0,1,3,2.68.84.84,0,0,1,.14.51c-.12.31-.4.38-.66.46-.68.22-1.35.48-2,.73-.42.13-.84.26-1.25.42l-.2.07c-.56.17-1.11.36-1.68.51-1,.37-2.09.65-3.14,1-.2.06-.4.08-.6.16a2.75,2.75,0,0,1-1.2.21c-.23-.3,0-.51.17-.72q.53-.74,1.08-1.44a.65.65,0,0,0,0-.87,6.7,6.7,0,0,1-1-1.6c.17-.53.72-.61,1.09-.89a5.42,5.42,0,0,1,.64-.42.7.7,0,0,1,.17-.09,5.62,5.62,0,0,0,.77-.4l.17-.11a7.64,7.64,0,0,1,1.87-.89.82.82,0,0,0,.63-.85,5.34,5.34,0,0,1,.29-1.82Z"/><path class="ac3718ca-8344-4a4d-9d9b-797b6a9dd00e" d="M49.27,45.7a12.82,12.82,0,0,0,1,1.43.89.89,0,0,1,0,1.32c-.47.6-.9,1.22-1.35,1.83a.24.24,0,0,1-.3.08c-.5-.44-.36-1.08-.5-1.63a1.77,1.77,0,0,1,0-.2,1.19,1.19,0,0,1,0-.42,1.29,1.29,0,0,0-.72-1.36c-1.57-1-3.13-2.12-4.71-3.16a1.28,1.28,0,0,1-.25-.15c-.23-.26-.6-.29-.87-.5.22-.6-.25-.82-.6-1.1a.26.26,0,0,0-.41.1c-.26.61-.68,1.18-.44,1.91A.61.61,0,0,1,40,44a.53.53,0,0,1-.29.26,4.22,4.22,0,0,0-.61.28,5.55,5.55,0,0,1-1.61.67.91.91,0,0,0-1,.21c-.36,0-.35-.39-.56-.56a.56.56,0,0,1-.09-.17.27.27,0,0,1,.07-.27,3.6,3.6,0,0,0,2.33-.26c.19-.2.27-.48,0-.66a16.66,16.66,0,0,0-1.92-1.45c-.09-.23-.08-.5-.28-.69l.48-.88a.44.44,0,0,1,0,.44c-.09.37.12.46.42.39.71-.17,1.42-.34,2.12-.53.38-.1.21-.35.07-.53s-.41-.21-.56-.58l1,.48c.38.17.59,0,.6-.37,0-.79,0-1.58,0-2.36a.65.65,0,0,0-.38-.62c-.24-.1-.37.12-.53.25a12.94,12.94,0,0,0-1,.79c-.33.3-.73.58-.65,1.14,0,.21-.2.12-.31.15s-.06-.29-.11-.29-.07.21-.17.29a2.75,2.75,0,0,0,0,.41c0,.14.1.3-.09.35s-.21-.14-.21-.26c0-.41-.23-.3-.46-.24-.42.11-.68-.06-.63-.51a.55.55,0,0,0-.25-.64c-.1-.06-.19-.17-.1-.29s.22-.06.32,0a7.08,7.08,0,0,0,.66.38c.36.15.6-.06.48-.38-.36-.91-.36-2-1.41-2.57a.44.44,0,0,0,0-.1.47.47,0,0,1,.14-.14c.55,0,.36-.47.42-.78a.63.63,0,0,1,.49-.45,1.66,1.66,0,0,0,1.75-.69,1.45,1.45,0,0,1,.89.18c.12.07.25.14.2.32A13.49,13.49,0,0,0,37,34.83a15.52,15.52,0,0,0,2.14.3,1.16,1.16,0,0,1,.94.32c.11.1.12.3.33.33.1-.2-.13-.29-.16-.44a1.29,1.29,0,0,1,.35-1.09.2.2,0,0,1,.21,0l.11.12.26.45h0a1.36,1.36,0,0,1,.43.69c-.06.25-.48.44-.13.76s.45.49.81.22h.14l0,.23a1.05,1.05,0,0,1,0,1.13c-.31.19-.46-.08-.63-.24a8.81,8.81,0,0,0-1.12-1c.14.85-.19,1.56-.09,2.31,0,.17,0,.41.22.45s.36-.15.46-.34a1.29,1.29,0,0,0,.08-.26c.19-.7.48-.8,1.12-.39A2.33,2.33,0,0,1,42.5,40a.2.2,0,0,1-.18.06c-.15-.07-.15-.47-.44-.23a1.6,1.6,0,0,0-.58.66c-.07.18.12.21.25.24a1.1,1.1,0,0,1,.68.41.33.33,0,0,1,0,.29c-.08.11-.27,0-.34.15.12.17.22-.15.33,0,.09.76.7,1.09,1.24,1.48l.16.09.61.4.53.34c.51.36,1,.69,1.55,1l.7.46c.49.23.78.86,1.45.73a1.12,1.12,0,0,0,.22-.16,1,1,0,0,1,.45-.28A.29.29,0,0,1,49.27,45.7Z"/><path class="ac3718ca-8344-4a4d-9d9b-797b6a9dd00e" d="M42.31,36.52c0,.24,0,.53-.37.34a2.05,2.05,0,0,1-.69-.55c-.39-.48.06-.61.38-.77A2,2,0,0,1,42.31,36.52Z"/><path class="ac3718ca-8344-4a4d-9d9b-797b6a9dd00e" d="M66.55,44l-.71.26,0-.95C66.23,43.45,66.75,43.39,66.55,44Z"/><path class="ac3718ca-8344-4a4d-9d9b-797b6a9dd00e" d="M69,50l-.67,1.26v.1a10.57,10.57,0,0,1-1.86,2.78A19.92,19.92,0,0,1,65,55.76a1.54,1.54,0,0,1-.76.46c-.38,0-.76,0-.95-.43a11.4,11.4,0,0,1,1.91-2.08A19.35,19.35,0,0,0,68,49.63c0-.08,0,0,0-.06.58-1.1.58-1.1-.28-2a.76.76,0,0,1-.25-.42c.24-.44.71-.45,1.1-.6a.44.44,0,0,1,.19.07L70.46,46a17,17,0,0,1-.82,2.6,1.49,1.49,0,0,1-.3,1A.58.58,0,0,1,69,50Z"/><path class="ac3718ca-8344-4a4d-9d9b-797b6a9dd00e" d="M63.36,55.77a1.71,1.71,0,0,0,.94.36c.13,0,.17,0,.11.13-.26,0-.41.16-.59.31-6.56,5-13.64,6-21.25,2.68a4.64,4.64,0,0,0-.53-.16.22.22,0,0,1,0-.18c.52-.67,1.11-1.29,1.59-2a.73.73,0,0,1,.23-.16,4.07,4.07,0,0,0,1-.42,2.55,2.55,0,0,0,.38-.26.7.7,0,0,1,.37-.14c.36,0,.76-.22,1.08.13-.07.34-.37.46-.63.6a10.7,10.7,0,0,0-1.4.89C44,58,44,58.66,44.78,59a14.59,14.59,0,0,0,3.5.87A18.48,18.48,0,0,0,57.19,59c.79-.29.83-.38.46-1.15s-.57-1.32-.9-2a.72.72,0,0,1-.11-.72.69.69,0,0,1,.63-.15.68.68,0,0,1,.2.07c.44.81.78,1.67,1.15,2.51s.4.76,1.07.39a19.37,19.37,0,0,0,3.4-2.27.41.41,0,0,1,.19,0Z"/><path class="ac3718ca-8344-4a4d-9d9b-797b6a9dd00e" d="M40.08,58a3.83,3.83,0,0,0-.29-.28l-.12-.14A.72.72,0,0,0,39,57c-.3-.17-.66-.26-.7-.68a.59.59,0,0,1,.34-.28,17,17,0,0,1,3.31-.7A4.14,4.14,0,0,1,43.67,57,7.08,7.08,0,0,1,42,59a4.26,4.26,0,0,1-1-.42A2,2,0,0,1,40.08,58Z"/><path class="a1c583cf-907a-4f2e-bf3b-87abc9c8b48e" d="M57.77,26.09a16,16,0,0,0-4.43-.66,18.64,18.64,0,0,1-7.27-1.84c-.07-.24-.27-.14-.42-.16-.3-.44-.13-.67.33-.79A20,20,0,0,1,55,22.39,19.41,19.41,0,0,1,59.59,24c.53.25.49.47.19.85s-.69.92-1,1.39A.88.88,0,0,1,57.77,26.09Z"/><path class="ac3718ca-8344-4a4d-9d9b-797b6a9dd00e" d="M37.86,29.87v-.16a9.47,9.47,0,0,1,0-1.19.35.35,0,0,1,.38,0c.27,0,.45-.19.68-.26-.07.81-.59,1.52-.55,2.35a.14.14,0,0,1-.16,0C38,30.45,38,30.12,37.86,29.87Z"/><path class="ac3718ca-8344-4a4d-9d9b-797b6a9dd00e" d="M57.77,26.09a3.25,3.25,0,0,0,1,.12,2.09,2.09,0,0,1-.28.17c-.18.08-.13.48-.47.35S57.94,26.27,57.77,26.09Z"/><path class="ac3718ca-8344-4a4d-9d9b-797b6a9dd00e" d="M36,41.4c.5.07.46.35.28.69C35.83,42,35.86,41.74,36,41.4Z"/><path class="ac3718ca-8344-4a4d-9d9b-797b6a9dd00e" d="M37,39.17c-.1-.21-.23-.42,0-.61a.25.25,0,0,1,.24,0c.25.19.12.4,0,.61Z"/><path class="ac3718ca-8344-4a4d-9d9b-797b6a9dd00e" d="M36.46,36.19c0-1,.07-1,.74-.76a2.75,2.75,0,0,0,1,.12c.67,0,.89.35.62.94a2.92,2.92,0,0,1-1.13,1.43c-.5.3-.65,0-.79-.24A5.83,5.83,0,0,1,36.46,36.19Z"/><path class="ac3718ca-8344-4a4d-9d9b-797b6a9dd00e" d="M39.26,33.73a2.59,2.59,0,0,1,1.38.56l-.28,1.12c0,.12-.12.21-.28.14a12,12,0,0,0-2.74-.42c-.24-.05-.58.09-.66-.22s.28-.4.49-.47A7.08,7.08,0,0,1,39.26,33.73Z"/><path class="ac3718ca-8344-4a4d-9d9b-797b6a9dd00e" d="M39.81,42.29a5.22,5.22,0,0,1-.47,1.26c-.08.19-.3.3-.45.14-.54-.54-1.26-.84-1.77-1.42-.3-.34-.24-.46.18-.61a4,4,0,0,1,2.2-.08C39.91,41.66,39.77,42,39.81,42.29Z"/><path class="ac3718ca-8344-4a4d-9d9b-797b6a9dd00e" d="M42.45,37.91v.42c-.49,0-.91,0-.85.68,0,.47-.46.69-.78.72s-.27-.44-.33-.74c-.15-.76.37-1.51,0-2.28a.22.22,0,0,1,.12-.29.34.34,0,0,1,.37.13Z"/><path class="ac3718ca-8344-4a4d-9d9b-797b6a9dd00e" d="M40,43.91c-.25-.12-.27-.3-.23-.57.09-.55.42-1,.54-1.54a.35.35,0,0,1,.36-.26,3.26,3.26,0,0,1,1.22,1.05c0,.26-.31.16-.36.34A1.69,1.69,0,0,1,40,43.91Z"/><path class="ac3718ca-8344-4a4d-9d9b-797b6a9dd00e" d="M36.46,34a4.64,4.64,0,0,0,.71-1.94c.32,0,.65-.1.55.41s-.23.81.41.84C38.08,34,37.25,34.31,36.46,34Z"/><path class="a7a6fb18-8a8c-4750-a248-1b9f75a206c7" d="M36.88,47.52a9.72,9.72,0,0,1-.42-2.08c.23-.41.51-.67,1-.29-.24.12-.43.2-.32.56.15.54.21,1.12.32,1.68A.46.46,0,0,1,36.88,47.52Z"/><path class="ac3718ca-8344-4a4d-9d9b-797b6a9dd00e" d="M42.31,40c-.05.37.13.77-.13,1.11a4.17,4.17,0,0,0-.57-.26c-.83-.23-.83-.22-.2-.86a2.72,2.72,0,0,1,.24-.24c.18-.13.29-.46.53-.37S42.27,39.8,42.31,40Z"/><path class="ac3718ca-8344-4a4d-9d9b-797b6a9dd00e" d="M40.08,35.55l.28-.14c.23,0,.42.11.39.37a.33.33,0,0,1-.35.27C40.07,36.05,40.09,35.78,40.08,35.55Z"/><path class="a7a6fb18-8a8c-4750-a248-1b9f75a206c7" d="M50.07,47.77a.28.28,0,0,1-.24.29.28.28,0,0,1-.36-.22c0-.16.08-.25.23-.29A.31.31,0,0,1,50.07,47.77Z"/><path class="ac3718ca-8344-4a4d-9d9b-797b6a9dd00e" d="M35.77,34.72l.27-.29c.08.46.21.94-.55.84-.08-.13,0-.22.07-.3S35.68,34.78,35.77,34.72Z"/><path class="ac3718ca-8344-4a4d-9d9b-797b6a9dd00e" d="M40.38,40.57c.16,0,.26.09.23.26a.25.25,0,0,1-.27.24.26.26,0,0,1-.23-.28C40.11,40.61,40.23,40.57,40.38,40.57Z"/><path class="ac3718ca-8344-4a4d-9d9b-797b6a9dd00e" d="M42.17,41.4v.14l-.25.36-.37-.57C41.81,41.18,42,41.32,42.17,41.4Z"/><path class="ac3718ca-8344-4a4d-9d9b-797b6a9dd00e" d="M41.2,34.85c0,.13,0,.28-.12.34s-.12-.06-.13-.1c0-.19.11-.22.25-.24Z"/><path class="ac3718ca-8344-4a4d-9d9b-797b6a9dd00e" d="M47,55.87l-.42.15c-.38-.1-.74.18-1.11,0,.06-.32.34-.41.57-.56,1.09-.73,2.22-1.4,3.31-2.13l1.84-.66a8.22,8.22,0,0,1,2.81-1c.33,0,.7.17.93-.23a3.49,3.49,0,0,1,.44-.2c.42-.18.87-.31,1.3-.47.23-.07.43-.18.66-.27.59-.2,1.18-.4,1.78-.58.23-.07.47-.26.71,0s-.23.29-.16.5a.79.79,0,0,1,0,.48,29.29,29.29,0,0,1-1.91,3.42,2.09,2.09,0,0,0-.43.82l-.68.06v0a.57.57,0,0,0-.51-.16,22.38,22.38,0,0,1-5.82-.68,1.37,1.37,0,0,0-1,.25A9.59,9.59,0,0,1,47,55.87Z"/><path class="ac3718ca-8344-4a4d-9d9b-797b6a9dd00e" d="M38.28,30.65,38,31.78c-.3.14-.51.09-.56-.28a7.13,7.13,0,0,1,.43-1.63C38.21,30,38.24,30.34,38.28,30.65Z"/><path class="ac3718ca-8344-4a4d-9d9b-797b6a9dd00e" d="M37.43,31.5a.76.76,0,0,0,.56.28c-.16.21-.06.52-.27.7,0-.35-.37-.26-.55-.41v-.14a.6.6,0,0,1,.13-.28Z"/><path class="a7a6fb18-8a8c-4750-a248-1b9f75a206c7" d="M38.54,52.37l-.53,0c-.15,0-.32,0-.43-.14.2,0,.29-.13.24-.33l-.52-2v-.27a1.89,1.89,0,0,1-.4-1.39c.1-.35.28-.55.68-.42L38,49.76a1.09,1.09,0,0,1,.13.17A4.66,4.66,0,0,1,38.54,52.37Z"/><path class="a7a6fb18-8a8c-4750-a248-1b9f75a206c7" d="M37,48.23l-.14-.15v-.56a1,1,0,0,1,.56-.13c.16.1.13.26.13.42C37.39,48,37,47.87,37,48.23Z"/><path class="a7a6fb18-8a8c-4750-a248-1b9f75a206c7" d="M54.14,51.84a1.51,1.51,0,0,1,.85-.28C54.89,52.23,54.51,52,54.14,51.84Z"/><path class="ac3718ca-8344-4a4d-9d9b-797b6a9dd00e" d="M28.14,24.54c0,.13.07.26.12.39s.1.54.24.6.42-.16.53-.41a.19.19,0,0,1,.29-.09c.17.11.08.23,0,.34s-.09.12-.15.14c-.79.32-.5.82-.42,1.45a13.18,13.18,0,0,1,.26,2.6c0,.48-.4,1.12.32,1.46,0,0,.08.14.05.16-.48.62-.14,1.28-.14,1.93,0,.25-.26.5-.28.81,0,.75.18,1,1,.93a2.61,2.61,0,0,1-.41,1.94c-.12.07-.18-.07-.28-.09.08.08.19.12.24.22a.82.82,0,0,1-.09.85c-.31,0-.19.12-.09.25a1.25,1.25,0,0,1,.08.69,22.6,22.6,0,0,0,1.86,11.53c.31.68.72,1.3,1.07,2,.13.26.35.51.11.83a.82.82,0,0,1-.24.1c-.93,0-1.86,0-2.78,0-.39,0-.66-.09-.65-.59,0-4.36,0-8.71,0-13.07a.71.71,0,0,1,0-.2c0-2.38,0-4.76,0-7.13a33.7,33.7,0,0,0-.74-7.43C28,24.64,28.05,24.58,28.14,24.54Z"/><path class="ac3718ca-8344-4a4d-9d9b-797b6a9dd00e" d="M25.32,38.75c.17-2.33.11-4.68.15-7a27.06,27.06,0,0,0-1.25-9A13.75,13.75,0,0,0,20,16.08c-.27-.23-.23-.32,0-.51A17.35,17.35,0,0,0,24.5,8.85a29.14,29.14,0,0,0,1.42-4.06c.12-.43.33-.53.74-.53,2.37,0,4.74,0,7.1,0a3.13,3.13,0,0,0,1.78-.61A25.89,25.89,0,0,1,45.88.26a35.52,35.52,0,0,1,18,2.52c1,.42,2,.85,3,1.33a2.11,2.11,0,0,0,1,.15c2.6,0,5.2,0,7.8,0a.75.75,0,0,1,.86.65,29.18,29.18,0,0,0,3.73,8.24,10.17,10.17,0,0,0,2.06,2.33c.2.15.52.31.12.63a13.49,13.49,0,0,0-4.11,6.21c-.12.19,0,.39,0,.59-.2.84-.46,1.67-.64,2.51a1.29,1.29,0,0,1,0,.21,8.36,8.36,0,0,0-.17,1.32,49.78,49.78,0,0,0-.28,6c0,1.64,0,3.29,0,4.93-.23.54-.8.7-1.19,1.06-.8.47-.8.47-1.06-.65a2,2,0,0,1,0-.34c.07-2.35-.23-4.68-.15-7a27.23,27.23,0,0,1,2.81-12,15.19,15.19,0,0,1,1.91-2.82.72.72,0,0,0-.06-1.17,18.91,18.91,0,0,1-4.48-8.3c-.28-.92-.27-1-1.25-.92-2.31.13-4.63.13-7,.15a2.66,2.66,0,0,1-1.21-.25,38.25,38.25,0,0,0-8.29-3A28.14,28.14,0,0,0,38.56,4.31a18.54,18.54,0,0,0-2,1.13,2.48,2.48,0,0,1-1.39.37c-2.15,0-4.31,0-6.46-.16a.93.93,0,0,0-1.12.83,23.18,23.18,0,0,1-2.8,6.34A12.4,12.4,0,0,1,23,15a.56.56,0,0,0,0,.9c2.95,3.49,4.16,7.67,4.62,12.1a64,64,0,0,1,.08,9.59c-.12,2.25,0,4.51,0,6.76a5.85,5.85,0,0,1-.07,1.32,34.39,34.39,0,0,0-.06,3.66c0,.88,0,1.76,0,2.64s-.16,1.07-1.13.94a1.5,1.5,0,0,1-1.08-.38.84.84,0,0,1-.13-.46c0-2.57-.09-5.13,0-7.7a9.55,9.55,0,0,0,.06-3,13.57,13.57,0,0,1-.09-1.8A1.18,1.18,0,0,1,25.32,38.75Z"/><path class="ac3718ca-8344-4a4d-9d9b-797b6a9dd00e" d="M76.31,68.57a7.17,7.17,0,0,1-5,4.13,18.12,18.12,0,0,1-6.27.5c-1.53-.11-3-.4-4.55-.61a8.29,8.29,0,0,0-8.2,4.11,9.37,9.37,0,0,0-1,2.11,14.19,14.19,0,0,0-1.75-3.09,8.11,8.11,0,0,0-8-3,25.84,25.84,0,0,1-9.6.21,8.05,8.05,0,0,1-4.91-2.78,6.36,6.36,0,0,1-.89-1.56,11,11,0,0,1-.65-3.36c-.15-2-.05-4-.16-5.94a.58.58,0,0,1,.06-.34A2.53,2.53,0,0,1,27,58.52c.49,0,.6.34.61.75,0,.85,0,1.71,0,2.57a3.31,3.31,0,0,0,.07.89c.12.71.13,1.44.18,2.15.23,3.71,2.7,6,6.35,6.53a21.8,21.8,0,0,0,7.07-.18,9.6,9.6,0,0,1,4.2-.06,8.11,8.11,0,0,1,5.38,4.57,2.23,2.23,0,0,0,.41.75,11,11,0,0,1,1.3-2.3,7.49,7.49,0,0,1,7.69-3.1,31,31,0,0,0,6.65.48,9.46,9.46,0,0,0,4.81-1.42,6.27,6.27,0,0,0,2.85-4.94c.22-2,.18-4.08.29-6.11a5.2,5.2,0,0,1,.07-.69,3.18,3.18,0,0,0,.07-1V45.05a1.81,1.81,0,0,1,2.17-1.83,2.77,2.77,0,0,1,0,.76c0,4.62,0,9.24,0,13.86,0,2.73-.09,5.47-.28,8.19A8,8,0,0,1,76.31,68.57Z"/><path class="ac3718ca-8344-4a4d-9d9b-797b6a9dd00e" d="M73.67,37.89a9.54,9.54,0,0,0,0,2c0,.38-.15.55-.53.53a4.17,4.17,0,0,1-.32-1.74,21.44,21.44,0,0,0-1.72-6.24A19.92,19.92,0,0,0,67.68,27,21.67,21.67,0,0,0,56,19.83a19.73,19.73,0,0,0-4.06-.54H50.15a22,22,0,0,0-8.13,2,21,21,0,0,0-6.26,4.31,21.43,21.43,0,0,0-5,7.58A11.08,11.08,0,0,1,30,34.93c-.73.19-1.12,0-1.08-.75A16.25,16.25,0,0,0,29,31.32c-.12-.93,0-1.86-.18-2.78-.17-.74-.11-1.51-.35-2.24a.54.54,0,0,1,.42-.74c.21-.11,0-.17.11-.11s0,0,0,.06c-.4.26-.65.22-.74-.32,0-.22,0-.47-.16-.66a2.6,2.6,0,0,0-.28-.81,20.19,20.19,0,0,0-2.34-5.29c-.07-.24,0-.57-.4-.57-.37-.45-1-.87-1-1.34s.7-.76,1.06-1.18a19.33,19.33,0,0,0,3.71-7.63c.16-.56.36-.77,1-.74,2.13.09,4.26.1,6.4.17a1.92,1.92,0,0,0,1.16-.33A23.56,23.56,0,0,1,49.63,3.23,31.08,31.08,0,0,1,64.38,6.77,3.13,3.13,0,0,0,66,7.14c2.27-.07,4.55-.09,6.82-.17.49,0,.71.11.85.62A20.23,20.23,0,0,0,77.09,15a8.94,8.94,0,0,0,1.21,1.25c.22.19.27.31.06.56-3.7,4.27-4.62,9.43-4.73,14.85C73.59,33.71,73.65,35.8,73.67,37.89Z"/><path class="ac3718ca-8344-4a4d-9d9b-797b6a9dd00e" d="M73.4,44.75c.44.09.24.45.24.68,0,3.88,0,7.76,0,11.64,0,.16,0,.32,0,.48h0a.18.18,0,0,0,0,.29,38.29,38.29,0,0,1-.3,6.94c-.45,2.93-2.67,4.78-5.66,5.33a21.71,21.71,0,0,1-7.75-.21,7.06,7.06,0,0,0-7.87,3.74,10.36,10.36,0,0,0-.78,1.77c-.31-.64-.57-1.2-.85-1.75a7.08,7.08,0,0,0-7.73-3.79,22.2,22.2,0,0,1-7.88.24A6.65,6.65,0,0,1,29,63.48c-.07-1.64-.11-3.29-.17-4.94l.16-.26.4-.05c.28-.33.71-.28,1.07-.39a5.79,5.79,0,0,0,.6-.12,1.55,1.55,0,0,1,.31-.06c.36-.07.74-.13,1.1-.22s.81-.15,1.21-.27a.76.76,0,0,1,.2-.06c.48-.09,1-.23,1.45-.28a1.35,1.35,0,0,1,1.06.42,25.65,25.65,0,0,0,4.74,3.34,25.18,25.18,0,0,0,5,1.78,21.62,21.62,0,0,0,18.56-4.18l1-.82a6,6,0,0,1,1.25-1.11c.23,0,.29-.16.28-.36a46.37,46.37,0,0,0,2.73-3.77,22.11,22.11,0,0,0,2.45-6.25,4.24,4.24,0,0,1,.17-.61C72.69,44.88,73.06,44.84,73.4,44.75Z"/><path class="a1c583cf-907a-4f2e-bf3b-87abc9c8b48e" d="M73.69,44.88a.86.86,0,0,0-1.23.61A23,23,0,0,1,69.33,53c-2.23,3.16-5,6-8.12,7.4s-6.46,2.85-11,2.47a23.08,23.08,0,0,1-14.45-6s-3.1-.91-7,1.65c0,0-.59,7.07,1.87,9.42,0,0,2.53,3.58,11.65,2a7.61,7.61,0,0,1,8.9,5.34s2.12-5,6-5.43,9.76,2,13.51-.93c0,0,3.38-1.86,3-8.84S73.69,44.88,73.69,44.88Z"/><g class="ab52bfed-0d6c-49af-bd34-1ada4f35140d"><path class="a1c583cf-907a-4f2e-bf3b-87abc9c8b48e" d="M20.08,58.81V56.72c.88-.3.86-.31.9-1.27a6.28,6.28,0,0,1,.25-2.79c-.37-.5,0-1.34-.75-1.67-.25-.1-.23-.38-.4-.54V41.68a8.33,8.33,0,0,1,.56-1c-.25.08-.31.38-.56.25v-.7c.21-.5.66-.59,1.13-.63s1,0,1.44,0c.13,0,.43.11.32-.24s-.33-.21-.53-.24c-.37-.12-.76-.14-1.13-.23a.89.89,0,0,1-.62-.48c-.38-.72-.31-1,.35-1.17a11.11,11.11,0,0,0,2.88.1.45.45,0,0,0,.42-.31,1.26,1.26,0,0,1,.61-.53h1c.05.1.09.1.14,0h.56a.61.61,0,0,0,.83,0h2.23c.1.09,0,.2,0,.3.08-.1.1-.24.23-.3h2.64c.14.2.28.16.42,0h8.22c.07.28.27.34.52.35a.76.76,0,0,1,.8.84,4.07,4.07,0,0,0,.24,1.21c-.15.3.11.44.26.67,0-.28-.48-.33-.24-.65.48-.54,1.15-.35,1.75-.46.27,0,.32-.23.48-.35.33,0,.49.14.45.43a1,1,0,0,1-.72.91c-.64.19-.7.36-.43,1,.14.19.31.06.46,0,.37,0,.65.41,1,.24a1.1,1.1,0,0,1,.91-1.6c.2-.06.41,0,.62-.08a.22.22,0,0,0,.19-.17c0-.14-.07-.21-.18-.25a4.62,4.62,0,0,1-.6-.19.53.53,0,0,1-.34-.55.48.48,0,0,1,.42-.4,2.79,2.79,0,0,0,1-.35.61.61,0,0,1,.74.15c.49.41.84.38,1.23-.09A1.12,1.12,0,0,1,51,36.82c.42,0,.85.09,1.15-.3H53c.72.16.85.68.81,1.32,0,.44,0,.88,0,1.32a1.61,1.61,0,0,0,.71,1.74.85.85,0,0,1,.35.72,21.23,21.23,0,0,1,0,3.19.6.6,0,0,1-.25.54c-.06,0-.1,0-.07.07s.08,0,.13,0c.56,1,.55,1,1.68.55.49-.18,1.05-.16,1.4-.64.08-.1.29-.2.22-.32-.31-.55,0-1.27-.5-1.77a1.33,1.33,0,0,1-.24-.85c0-.16,0-.45-.25-.38s0,.26,0,.39a.7.7,0,0,1-.15.83.78.78,0,0,1-.85.09.69.69,0,0,1-.41-.74c.15-1.6-.17-3.19,0-4.79,0-.43-.13-.95.35-1.27H77.32a.33.33,0,0,0,.56,0c1.44,0,2.88,0,4.32,0,.48,0,.57.09.57.57q0,15,0,30.09v.56a1.18,1.18,0,0,0-.14.8c0,1.62,0,3.25,0,4.87,0,.77-.12.92-.85,1.11l-.34.06c-1,.16-1,.16-1,1.16,0,.34.06.72-.35.9s-.7-.09-1-.34L78.79,76c-.17-.08-.36-.41-.51,0,0,.62,0,1.24,0,1.87s.22.69.71.69c.65,0,1.31.08,1.69-.64,0-.1.15-.22.26-.21a7,7,0,0,1,1.4.46c.32.09.32.43.29.71,0,.63.16,1.3-.27,1.87H79.69a.53.53,0,0,0-.69,0q-29.13,0-58.24,0c-.63,0-.7-.18-.69-.73,0-5.75,0-11.51,0-17.26a.35.35,0,0,1,.39.06c.32.27.47.15.58-.2a.54.54,0,0,1,.36-.4c.63-.19.68-.66.66-1.21s0-.92,0-1.38-.2-.66-.66-.68S20.47,59.17,20.08,58.81Z"/><path class="a1c583cf-907a-4f2e-bf3b-87abc9c8b48e" d="M54.34,45.43a.64.64,0,0,0,.25-.55c0-1.1,0-2.21,0-3.32,0-.54-.49-.59-.75-.83a.84.84,0,0,1-.32-.7c0-.64,0-1.3,0-1.94A1.58,1.58,0,0,0,53,36.52h2.92c-.21.27-.11.6-.1.88.06,1.46-.28,2.94.18,4.4.07.2-.27.46-.22.78s0,.58.4.62.56.07.67-.24.15-.61-.32-.68c-.12,0-.21-.17-.12-.26a3.61,3.61,0,0,1,.66-.44c.14-.07.28,0,.33.19a1.33,1.33,0,0,1,0,.4c0,.19-.06.42,0,.55a2.73,2.73,0,0,1,.56,2c0,.28.81,0,.31.46s-.88,1.12-1.71,1c-.1,0-.25-.14-.29,0-.19.64-.67.48-1.12.46-.71,0-.48-.6-.59-1,0-.06-.1-.09-.15-.14Z"/><path class="a1c583cf-907a-4f2e-bf3b-87abc9c8b48e" d="M52.11,36.52c0,.62-.41.56-.81.56s-1.13-.31-1.4.53c-.11.35-1.22.23-1.38-.14-.24-.56-.48-.12-.61,0s-.52.12-.78.15-.52,0-.51.31.25.37.5.39a2.62,2.62,0,0,0,.28,0c.33,0,.53.13.53.49s-.27.54-.6.48a1.35,1.35,0,0,0-1,.24c-.49.29-.5.74,0,1,.09.06.23.11.21.23s-.2.16-.33.17a1.65,1.65,0,0,1-1.44-.4.26.26,0,0,1-.37,0c-.25-.11-.56-.18-.37-.56s0-.89.73-.75.49-.45.66-.71-.13-.32-.35-.34c0,.15-.08.3-.25.37-.61.33-1.35.09-2,.45a1.09,1.09,0,0,1-.42-1c.12-.71-.17-1-.91-.94-.18,0-.41.06-.49-.14s.22-.25.29-.41Z"/><path class="a1c583cf-907a-4f2e-bf3b-87abc9c8b48e" d="M78.68,75.79a1,1,0,0,1,.78.51c.13.3.35.2.57.16s.25-.29.2-.43c-.14-.38,0-.74,0-1.1s.17-.47.5-.52c1.72-.26,1.72-.27,1.72-2v-4c0-.27,0-.57.28-.72,0,4.22,0,8.45,0,12.67,0,.35-.08.49-.43.42,0-.64.18-1.28.14-1.93,0-.42-.19-.58-.59-.58-.56,0-.56,0-.9-.54-.38,1.48-1.53,1.06-2.5,1.09-.2,0-.42-.07-.42-.27a7.15,7.15,0,0,1,.13-2.8A.66.66,0,0,1,78.68,75.79Z"/><path class="a1c583cf-907a-4f2e-bf3b-87abc9c8b48e" d="M20.08,58.81h1.59c.43,0,.65.14.64.6,0,.78,0,1.57,0,2.35a.59.59,0,0,1-.62.67c-.3,0-.48.15-.48.47s0,.38-.25.49-.34-.14-.5-.24a3.47,3.47,0,0,1-.37-.3Z"/><path class="a1c583cf-907a-4f2e-bf3b-87abc9c8b48e" d="M20.08,50.45c.28.13.45.42.78.48.12,0,.3.19.29.25-.13.63.32,1.17.14,1.84a13.26,13.26,0,0,0-.1,3c0,.7-.46,1-1.11.74Z"/><path class="a1c583cf-907a-4f2e-bf3b-87abc9c8b48e" d="M25,36.52c-.15.28-.45.47-.43.84,0,.21-.16.27-.34.27H21.33c-.17,0-.24-.11-.28-.26a.61.61,0,0,1,0-.84Z"/><path class="a1c583cf-907a-4f2e-bf3b-87abc9c8b48e" d="M23,39.3c.17,0,.45-.16.44.22a.31.31,0,0,1-.35.34c-.52,0-1.05,0-1.58,0a2.16,2.16,0,0,0-1.41.42V38.47a.7.7,0,0,1,.83-.14c.11.41.44.43.76.41a1.48,1.48,0,0,1,.95.3A.51.51,0,0,1,23,39.3Z"/><path class="a1c583cf-907a-4f2e-bf3b-87abc9c8b48e" d="M20.91,38.33l-.83.14v-.95c0-1,0-1,1-1v.84C20.38,37.59,20.58,38,20.91,38.33Z"/><path class="a1c583cf-907a-4f2e-bf3b-87abc9c8b48e" d="M20.08,41c.27-.1.29-.44.5-.61.37.53.32.65-.5,1.31Z"/><path class="a1c583cf-907a-4f2e-bf3b-87abc9c8b48e" d="M27.46,36.52c-.28.19-.56.87-.83,0Z"/><path class="a1c583cf-907a-4f2e-bf3b-87abc9c8b48e" d="M30,36.52c-.24.11.2.49-.21.51-.13,0-.3.07-.37-.09s.39-.13.3-.42Z"/><path class="a1c583cf-907a-4f2e-bf3b-87abc9c8b48e" d="M77.88,36.52c0,.15,0,.36-.24.38s-.24-.22-.32-.38Z"/><path class="a1c583cf-907a-4f2e-bf3b-87abc9c8b48e" d="M33,36.52c0,.19-.07.39-.3.36s-.18-.2-.12-.36Z"/><path class="a1c583cf-907a-4f2e-bf3b-87abc9c8b48e" d="M79,80.82q.34-.54.69,0Z"/><path class="a1c583cf-907a-4f2e-bf3b-87abc9c8b48e" d="M26.07,36.52c0,.1.11.2,0,.3a.15.15,0,0,1-.16,0c-.11-.1,0-.2,0-.3Z"/><path class="a1c583cf-907a-4f2e-bf3b-87abc9c8b48e" d="M76.9,74.69a.48.48,0,0,0-.47.35c-.05.29.3.21.43.35s.25.12.37.18c.28.16.24.42.22.68a.4.4,0,0,1-.48.38,6.44,6.44,0,0,1-2.39-.17c-.14-.06-.34-.07-.35.07,0,.4-.5.51-.58.77-.21.66-.7.53-1.05.4s-.27-.68-.24-1,.3-.86-.07-1.27a.68.68,0,0,0-.41-.27c-.56-.3-.54.07-.56.45s.29,1-.46,1.2c.14.23.43.22.45.47s0,.33-.14.43a.19.19,0,0,1-.3-.07c-.28-.55-.79-.39-1.23-.38s-.68-.16-.57-.66a1.71,1.71,0,0,0-.62-1.93c-.37-.26-.68-.27-.87.14a1.42,1.42,0,0,0-.11.33c-.09.43.12,1.08-.69,1-.41,0-1,.27-1.12-.46,0-.11-.22-.09-.23,0-.14.51-.87.63-.79,1.28,0,.41,0,.84,0,1.25,0,.64-.27.86-.83.75s-1.09-.07-1.22.7c0,.29-.31.4-.63.44s-.63-.28-.88-.55,0-.36.11-.53.21-.27.44-.16c.41.19.71.16.77-.4.09-.9,0-1.14-.63-1.16-.84,0-1.67,0-2.51,0a2.53,2.53,0,0,1-.55,0c-.19,0-.42,0-.54-.23s.24-.17.32-.37c.19-.54.67-.5,1.15-.4.17,0,.36.44.51,0s-.2-.41-.53-.45a.69.69,0,0,0,.56-.87c0-.35.21-.49.54-.49s.74,0,1.11,0,.66.22.56.6c-.21.74.44,1,.74,1.47.17.24.46.06.52-.28,0,0,0-.09,0-.11s.17.31.3.1.08-.53-.08-.54c-.56-.05-.36-.44-.38-.71s0-.65,0-1,.11-.68.58-.66.55-.14.53-.49c0-.56.31-.61.76-.64,1.48-.08,1.48-.09,1.48-1.62,0-.76,0-1.53,0-2.3,0-.3-.06-.49-.52-.49-1.43,0-2.85-.05-4.28.07a.73.73,0,0,0-.75.57c-.08.35-.24.4-.59.4s-1.11-.23-.55.65c.16.23,0,.5-.35.5H58.44a.32.32,0,0,1-.14,0c-.67-.43-.22-1.1-.32-1.65-.07-.36.15-.56.53-.55h.7c1,0,1,0,1-1,0-.23,0-.47,0-.7s.17-.48.51-.51c1.2-.12,2.4,0,3.59,0,.25,0,.78.07.27.56-.34.33-.07.55.24.54.77,0,1.43.52,2.21.37.08,0,.24,0,.25.08.17.75.8.57,1.3.73s.52.58.53,1c0,1,0,2,0,2.93,0,.43-.26.47-.56.53s-.39-.19-.47.11-.21.6,0,.8c.75.81,1.53,1.56,2.8,1.27.4-.09.51-.29.48-.62-.1-1,0-2,0-3,0-.59.17-.88.79-.81a4,4,0,0,0,.69,0c.23,0,.5.08.65-.16s-.14-.33-.28-.46-.07-.26.07-.33.31-.37.32-.64,0-.57-.5-.57a2.8,2.8,0,0,1-1.81-.51c-.19-.16-.35-.08-.39.06a.8.8,0,0,1-1.07.5.94.94,0,0,1-.71-1.14,5.78,5.78,0,0,0,0-1.24c0-.17-.09-.39.16-.48a.32.32,0,0,1,.41.18c.18.37.51.34.84.34.79,0,1.58,0,2.37,0,.46,0,.75.09.75.65,0,.3.07.75.32.84a2.47,2.47,0,0,0,1.63.13c.38-.13.28-.51.25-.79-.06-.62.14-.86.81-.84,1.38,0,1.38,0,1.43,1.41,0,.7.15.85,1,1.25a8.08,8.08,0,0,0-.9.17c-.23.07-.43.27-.35.51s.3.1.48.08c.37,0,.68-.31,1.12-.17.19.06.34,0,.39.25s.19.24.42.12.54.11.36.31c-.47.5-.26,1.06-.23,1.58A6.56,6.56,0,0,1,80,72.6h0c-.17.13-.43.09-.54.32.14.09.26.23.44.24a5.67,5.67,0,0,0,1.59.13c.12.57-.08.63-.59.59a20.71,20.71,0,0,0-2.84,0c-.5,0-1,.18-1.12.82Z"/><path class="a1c583cf-907a-4f2e-bf3b-87abc9c8b48e" d="M44.74,64.25a21,21,0,0,0,3.63.13c.23,0,.51.05.61-.22s-.17-.29-.34-.38a.24.24,0,0,1-.12-.3s.12-.09.15-.07c.49.21.37-.18.37-.39,0-.47,0-.93,0-1.39s.18-.6.59-.59a5.16,5.16,0,0,0,1,0c.63-.12.89.38,1.09.74a1.74,1.74,0,0,1,0,1.29c-.07.2-.29.22-.48.2a4,4,0,0,0-.68-.07c-.26,0-.69,0-.63.38s.24.83.68.72.59.17.63.54-.15.7-.64.67c-.72,0-1.43,0-2.15-.06s-.81.16-.63.76a1.73,1.73,0,0,1,.07.55c0,.61,0,1.06.82,1,.34,0,.35.31.34.57,0,1.59,0,1.6,1.51,1.63.62,0,.83.29.75.87a6.18,6.18,0,0,0-.07.62c0,.4-.07.58-.56.85s-1-.36-1.48-.1c-.19.09-.2-.4-.18-.64,0-.67-.09-1-.89-1.12a2.05,2.05,0,0,1-1.48-1.27c-.12-.13-.21-.07-.27.06V70c.09.16,0,.36.11.52.6.36.28.92.25,1.37s-.5.3-.8.31c-.65,0-1.3,0-1.95,0a1.06,1.06,0,0,0-1.05.47.68.68,0,0,0-.15.77c.28.73.08,1-.68,1-.19,0-.37,0-.56,0-1.48,0-1.72-.31-1.44-1.8.1-.56.55-.45.87-.47,1.36-.06,1.37,0,1.35-1.41,0-.26.14-.6-.21-.74s-.52.08-.73.27a.87.87,0,0,1-.78.15.71.71,0,0,0-.68.27c-.17.27.16.32.27.46s-.33,1-.76,1a2.48,2.48,0,0,0-1.17.32c-.24.16-.54-.13-.55-.48,0-.13.1-.26.13-.39.19-.86,0-1.09-.88-1.1H35.41c-.22,0-.49.07-.56-.26-.09-.09-.06-.19,0-.29v0l-.05,0a.12.12,0,0,1-.09-.08c-.17-.3-.12-1.09-.76-.31-.22.25-.2-.23-.38-.2h0a1.28,1.28,0,0,1,.66-.48c.28,0,.37-.24.28-.51s-.11-.53.22-.51.56.16.45.55a.3.3,0,0,0,.15.41c.19.08.3-.06.39-.19a2.79,2.79,0,0,0-.33-2.08l-.07,0a.35.35,0,0,0-.14,0,.17.17,0,0,1-.14,0c-.71.3-.54-.33-.54-.59s-.05-.4-.36-.4c-.63,0-1-.34-.8-1s0-.64-.54-.74-.88-.56-1.43-.68c-.23,0-.13-.45-.14-.7,0-1.38,0-1.35,1.37-1.38.67,0,.91.21.88.88,0,.42-.24,1,.17,1.24a3,3,0,0,0,1.7.09c.29,0,.34-.28.34-.53,0-.46,0-.93,0-1.39a1,1,0,0,1,.34-.84c.24.43.49.93,1,.2.14-.21.87.43.9.84s0,.83,0,1.25c0,1.81,0,3.62,0,5.43,0,.24.1.54-.26.63-.14,0-.28.09-.24.27a.31.31,0,0,0,.31.24c.39-.07.56.2.8.42s.89.23,1.33.15.29-.53.29-.83c0-.81,0-1.63,0-2.44,0-.25,0-.52-.21-.69s-.11-.24-.05-.41a5.06,5.06,0,0,0,.28-1.68c0-.51.2-.78.82-.66a11.57,11.57,0,0,0,1.87.07c.33,0,.55.06.65.45.2.7.43.77,1.25.53Z"/><path class="a1c583cf-907a-4f2e-bf3b-87abc9c8b48e" d="M40.14,50.94c0-1,0-1,1-1s1.89,0,2.84,0c.42,0,.6-.14.57-.56a4.42,4.42,0,0,0,0-1c-.23-.65.13-.7.6-.7h.14c1.62,0,1.61,0,1.52-1.64,0-.39-.16-.61-.58-.59H46c-1.53,0-1.65-.17-1.45-1.74,0-.41.27-.51.61-.49s.62.12.58.53,0,.64.51.5a.31.31,0,0,1,.26.08c.8.8,1.81.51,2.76.56.2,0,.47-.08.57.14s-.16.33-.32.44-.27.26-.17.47.63.34.14.77c-.24.22,0,.74-.29,1.09s-.14,1-.19,1.49c0,.22,0,.52-.28.54s-.26-.27-.28-.48c-.05-.54-.47-1-.5-1.54,0-.34-.4-.55-.77-.13s-.92.71-.45,1.44c.17.26.17.73-.45.76a.66.66,0,0,0-.59.73c0,.72,0,1.44,0,2.16a.55.55,0,0,0,.31.5c.15.09.26.22.13.4a.34.34,0,0,1-.44.1c-.42-.31-1.09-.26-1.24-1-.06-.33-.26-1-.88-.35-.06.06-.48-.09-.65-.16a4.58,4.58,0,0,0-1.64-.13C40.14,52.11,40.14,52.12,40.14,50.94Z"/><path class="a1c583cf-907a-4f2e-bf3b-87abc9c8b48e" d="M75.37,59c-.27-.35-.59-.24-.83,0s.06.39.22.56-.11.93-.4.94-1,.26-1.25-.35c-.09-.19-.26-.17-.42-.13s-.33,0-.36-.22-.06-.51.16-.55c1.14-.22,1-1.15,1.16-1.95.11-.64.39-.81,1-.59.75.28,1.2,0,1.14-.76-.13-1.83.07-1.51,1.71-1.53.33,0,.53.14.53.49,0,.88,0,1.77,0,2.65,0,.6-.17.62-.68.31a1.59,1.59,0,0,0-.59-.1,1,1,0,0,1-.84-.34c-.17.54.22,1.26-.52,1.58Z"/><path class="a1c583cf-907a-4f2e-bf3b-87abc9c8b48e" d="M71.33,60.74v3.11c0,.49-.31.58-.69.52s-.7.15-.54-.5c.08-.34-.43-.58-.69-.84-.11-.11-.25-.15-.31-.33-.19-.61-.63-.73-1-.19-.84,1.31-2.08.58-3.14.72-.17,0-.28-.15-.3-.33a1.5,1.5,0,0,1,0-.2c0-2-.15-1.59,1.53-1.68.81,0,1.59.26,2.4.16.47-.06,1,0,1.13-.67.05-.24.49-.34.51-.09C70.28,61.52,70.85,60.82,71.33,60.74Z"/><path class="a1c583cf-907a-4f2e-bf3b-87abc9c8b48e" d="M21.69,43c.45-.15.95-.21.33-.79-.14-.13.12-.26.18-.4.16-.38.23-.73-.32-.84-.14,0-.37,0-.33-.24a.44.44,0,0,1,.19-.27c.17-.09.43-.11.5.07.21.55.65.42,1.05.43,1,0,1.95,0,2.92,0,.37,0,.59.09.56.5s.21.58.58.61.49,0,.52.32,0,.64-.36.74a.66.66,0,0,0-.5.79c0,.18.08.44.32.34.45-.19.62.15.87.41-.54.1-1,.48-1.59-.2-.27-.32-1-.28-1.39-.58-.11-.07-.35-.09-.32-.21.19-.83-.45-.45-.73-.48A9.48,9.48,0,0,1,21.69,43Z"/><path class="a1c583cf-907a-4f2e-bf3b-87abc9c8b48e" d="M33.88,51.24A13.76,13.76,0,0,1,34,54c0,.22-.08.33-.33.33-.6,0-1.2,0-1.8,0s-.68-.2-.65-.67.05-1.1-.78-1c-.2,0-.33-.16-.3-.38s.15-.37.43-.3a4.68,4.68,0,0,0,.55.05c.07-.17-.42-.25-.06-.46.19-.11.15-.3.12-.49a2.31,2.31,0,0,1,.88-1.22c.23,0,.33.06.32.31,0,.44,0,.88,0,1.32,0,.28,0,.58.37.63s.6,0,.75-.33A3.08,3.08,0,0,1,33.88,51.24Z"/><path class="a1c583cf-907a-4f2e-bf3b-87abc9c8b48e" d="M31.92,42.1c0-.24-.14-.51.26-.62.62-.16,1.1-.81,1.88-.4.3.16.72.1.61-.48-.05-.23,0-.54.2-.6s.42.3.42.44c0,.47.56.84.23,1.36a.19.19,0,0,0,0,.18c.15.13.55,0,.4.4a3.59,3.59,0,0,1-.61,1.22c-.42.44-.79,0-1-.15a2.22,2.22,0,0,0-1.44-.21c-.8.09-.79.1-.75-.72,0-.16.12-.4-.19-.42Z"/><path class="a1c583cf-907a-4f2e-bf3b-87abc9c8b48e" d="M20.51,45.44c0-.41.19-.55.56-.57a2,2,0,0,1,2.06.85,1,1,0,0,0,.72.44c1,.14,1.18.9,1.48,1.62a.29.29,0,0,1-.13.36.22.22,0,0,1-.31,0,.83.83,0,0,0-1,.1c-.27.35-.44.25-.47-.1a.84.84,0,0,0-.44-.66c-.5-.32-.72-1-1.42-1.08-.15,0-.16-.19-.21-.33C21.25,45.65,21,45.31,20.51,45.44Z"/><path class="a1c583cf-907a-4f2e-bf3b-87abc9c8b48e" d="M34.78,58.81h-.21c-1.07,0-1.07,0-1.12-1,0-.19,0-.41-.14-.52-.45-.29-.44-.41,0-.83s.51-.37.84,0,.75.1,1.13.16.63-.13.67.07c.09.43.52.71.42,1.21C36.17,58.81,36.2,58.81,34.78,58.81Z"/><path class="a1c583cf-907a-4f2e-bf3b-87abc9c8b48e" d="M54.81,67.73a2.57,2.57,0,0,1,1.28.19c.32.18.77.21.29.73-.18.2,0,.34.26.28s.67-.21.67.17-.41.25-.69.21c-.08,0-.24,0-.25.06-.21.92-.94.56-1.47.57-1.41,0-1.38,0-1.41-1.38,0-.63.19-.92.84-.84A3.85,3.85,0,0,0,54.81,67.73Z"/><path class="a1c583cf-907a-4f2e-bf3b-87abc9c8b48e" d="M36.67,54.35c1.27,0,1.26,0,1.24,1.16a6.6,6.6,0,0,1,0,1.83c0,.15,0,.35-.21.39s-.26-.11-.36-.25c-.31-.44-.44-1.1-1.25-.92-.24,0-.09-.51-.41-.57-.57-.1-.25-.29-.06-.49a.25.25,0,0,0,.05-.19C35.54,54.39,36.05,54.24,36.67,54.35Z"/><path class="a1c583cf-907a-4f2e-bf3b-87abc9c8b48e" d="M80.53,40.85c.06-1.2-1-1.28-1.71-1.64-.29-.15-.5-.27-.58-.63a1.53,1.53,0,0,0,1.48-.52c.1-.14.25-.16.35,0,.24.29.58.22.92.25a.93.93,0,0,1-.35.65h-.07c-.06,0-.12,0-.14.06s.15.11.22.16.22.23.33.24c.83,0,.8.64.81,1.17s-.5.46-.84.57C80.82,41,80.67,40.94,80.53,40.85Z"/><path class="a1c583cf-907a-4f2e-bf3b-87abc9c8b48e" d="M77.69,61.56a3.25,3.25,0,0,0,.21.6c.18.34.25.76,0,1s-.62.74-1.08.21c0,0-.08,0-.13,0-.36-.05-.78.11-.89-.5a1.56,1.56,0,0,1,.72-1.62c.26-.19.36.06.4.28s-.08.57.26.65S77.47,61.72,77.69,61.56Z"/><path class="a1c583cf-907a-4f2e-bf3b-87abc9c8b48e" d="M41.38,61.59c-.93,0-1.06-.11-.88-.8A2.09,2.09,0,0,1,42,60c.45.17.4.61.41.94s-.07.67-.52.7Z"/><path class="a1c583cf-907a-4f2e-bf3b-87abc9c8b48e" d="M33.77,60.48h-1.6c-.13,0-.3,0-.34-.17s.14-.18.25-.25A1.12,1.12,0,0,1,33.57,60c.38.26,1.07.07,1.63.09.2,0,.5,0,.51.21s-.31.19-.48.2c-.49,0-1,0-1.46,0Z"/><path class="a1c583cf-907a-4f2e-bf3b-87abc9c8b48e" d="M39.58,67.62c0,.56-.36.85-.84.63-.28-.14-.4-.35,0-.53a.46.46,0,0,0,.29-.55c0-.17-.06-.36.12-.41s.19.24.32.35A.66.66,0,0,1,39.58,67.62Z"/><path class="a1c583cf-907a-4f2e-bf3b-87abc9c8b48e" d="M70.24,69.33c.4,0,.65.32.51.86s-.46.33-.75.3a.34.34,0,0,1-.32-.39c0-.19,0-.29.32-.31C70.5,69.75,69.68,69.49,70.24,69.33Z"/><path class="a1c583cf-907a-4f2e-bf3b-87abc9c8b48e" d="M32.33,38.1c-.21-.56.42-.54.65-.82s.34-.08.52-.09a.27.27,0,0,1,0,.17c-.07.17-.23.17-.4.2-.42.06-.16.32-.11.5s.08.31,0,.3a1.59,1.59,0,0,0-.65.15C32.26,38.54,32.3,38.29,32.33,38.1Z"/><path class="a1c583cf-907a-4f2e-bf3b-87abc9c8b48e" d="M21.75,57.14c.3,0,.53.08.54.41s-.15.26-.33.19-.63.07-.68-.3S21.56,57.16,21.75,57.14Z"/><path class="a1c583cf-907a-4f2e-bf3b-87abc9c8b48e" d="M73,62.88c.1,0,.24.15.29,0,.13-.37.3-.31.46-.06s-.17.32-.28.41c-.26.23-.56-.14-.87,0,0,0-.09-.12-.07-.16C72.65,62.81,72.85,62.86,73,62.88Z"/><path class="a1c583cf-907a-4f2e-bf3b-87abc9c8b48e" d="M24.52,40c0,.21,0,.39-.27.39S24,40.2,24,40s0-.48.24-.5S24.4,39.86,24.52,40Z"/><path class="a1c583cf-907a-4f2e-bf3b-87abc9c8b48e" d="M70.22,68.78c-.14,0-.4,0-.39-.29s.17-.29.38-.23.52,0,.5.34S70.48,68.85,70.22,68.78Z"/><path class="a1c583cf-907a-4f2e-bf3b-87abc9c8b48e" d="M42.76,39a4.13,4.13,0,0,0,.46.31c.12.06.28,0,.3.23s-.12.19-.22.22-.35-.06-.52-.11C42.91,39.47,42.47,39.25,42.76,39Z"/><path class="a1c583cf-907a-4f2e-bf3b-87abc9c8b48e" d="M36.37,53.58c.24-.26.49-.45.82-.24a.18.18,0,0,1,.06.29C37,54,36.67,53.58,36.37,53.58Z"/><path class="a1c583cf-907a-4f2e-bf3b-87abc9c8b48e" d="M35.41,52.94c.06.34.48.46.29.78-.07.12-.27.09-.38,0C35,53.49,35.16,53.26,35.41,52.94Z"/><path class="a1c583cf-907a-4f2e-bf3b-87abc9c8b48e" d="M77.22,63.88c0,.43.44.63.08,1a.18.18,0,0,1-.29,0C76.81,64.49,77,64.25,77.22,63.88Z"/><path class="a1c583cf-907a-4f2e-bf3b-87abc9c8b48e" d="M25.67,40.21c-.17-.34-.59-.33-.46-.7a.33.33,0,0,1,.29-.13C25.78,39.52,25.83,39.77,25.67,40.21Z"/><path class="a1c583cf-907a-4f2e-bf3b-87abc9c8b48e" d="M30,39c-.27-.14-1.12.25-.65-.58Z"/><path class="a1c583cf-907a-4f2e-bf3b-87abc9c8b48e" d="M38.74,66a.31.31,0,0,1-.26-.35.29.29,0,0,1,.29-.33c.22,0,.24.17.24.34S38.94,66,38.74,66Z"/><path class="a1c583cf-907a-4f2e-bf3b-87abc9c8b48e" d="M28,41a.33.33,0,0,1-.38.25c-.15,0-.27-.08-.22-.25s.25-.18.4-.19S28,40.88,28,41Z"/><path class="a1c583cf-907a-4f2e-bf3b-87abc9c8b48e" d="M59.33,65.52c.15,0,.27,0,.27.21a.24.24,0,0,1-.25.26c-.13,0-.2-.09-.23-.2S59.16,65.53,59.33,65.52Z"/><path class="a1c583cf-907a-4f2e-bf3b-87abc9c8b48e" d="M38.05,54.1c.54,0,.55.31.67.52l-.14.11Z"/><path class="a1c583cf-907a-4f2e-bf3b-87abc9c8b48e" d="M73.59,62c-.32.49-.61.14-.88.06Z"/><path class="a1c583cf-907a-4f2e-bf3b-87abc9c8b48e" d="M38.67,64.61l.65-.34C39.36,64.85,39,64.66,38.67,64.61Z"/><path class="a1c583cf-907a-4f2e-bf3b-87abc9c8b48e" d="M37,73.35c.2.11.51.12.42.44a.26.26,0,0,1-.22.12C36.84,73.86,37.2,73.51,37,73.35Z"/><path class="a1c583cf-907a-4f2e-bf3b-87abc9c8b48e" d="M30.65,39.6c0,.09,0,.19-.15.19s-.2-.09-.22-.22a.17.17,0,0,1,.19-.22C30.6,39.36,30.65,39.47,30.65,39.6Z"/><path class="a1c583cf-907a-4f2e-bf3b-87abc9c8b48e" d="M75.37,59c.08.16.45,0,.36.31,0,.08-.19.19-.26.17-.3-.09-.18-.29-.1-.48Z"/><path class="a1c583cf-907a-4f2e-bf3b-87abc9c8b48e" d="M78.17,40.16a.18.18,0,0,1-.15-.25c0-.1.15-.26.2-.25a.28.28,0,0,1,.21.32C78.41,40.11,78.32,40.17,78.17,40.16Z"/><path class="a1c583cf-907a-4f2e-bf3b-87abc9c8b48e" d="M33.56,69.29c.08.16.18.34-.05.45a.2.2,0,0,1-.28-.11c-.07-.28.1-.35.33-.33Z"/><path class="a1c583cf-907a-4f2e-bf3b-87abc9c8b48e" d="M30,68.45c0,.13-.12.17-.22.2s-.24,0-.26-.14.09-.19.21-.2A.22.22,0,0,1,30,68.45Z"/><path class="a1c583cf-907a-4f2e-bf3b-87abc9c8b48e" d="M74.66,62.48c0-.12,0-.17.15-.17s.23,0,.25.18a.17.17,0,0,1-.16.19C74.77,62.69,74.7,62.59,74.66,62.48Z"/><path class="a1c583cf-907a-4f2e-bf3b-87abc9c8b48e" d="M61.59,38.47a.2.2,0,0,1-.22-.22c0-.12,0-.31.21-.31s.2.18.21.3A.2.2,0,0,1,61.59,38.47Z"/><path class="a1c583cf-907a-4f2e-bf3b-87abc9c8b48e" d="M30.15,73.2a.19.19,0,0,1-.2.2.24.24,0,0,1-.24-.21.22.22,0,0,1,.22-.23C30.05,73,30.14,73,30.15,73.2Z"/><path class="a1c583cf-907a-4f2e-bf3b-87abc9c8b48e" d="M34.12,37.2a.22.22,0,0,1-.22.22.2.2,0,0,1-.22-.21c0-.13.08-.23.21-.22A.23.23,0,0,1,34.12,37.2Z"/><path class="a1c583cf-907a-4f2e-bf3b-87abc9c8b48e" d="M22.2,74.44a.19.19,0,0,1,.24.17.17.17,0,0,1-.17.22.29.29,0,0,1-.33-.18C21.9,74.49,22.12,74.52,22.2,74.44Z"/><path class="a1c583cf-907a-4f2e-bf3b-87abc9c8b48e" d="M71.88,75.11c.37-.28.47-.11.41.27C72.05,75.44,71.87,75.42,71.88,75.11Z"/><path class="a1c583cf-907a-4f2e-bf3b-87abc9c8b48e" d="M23,39.3c-.19,0-.29-.11-.36-.26.09-.14.2-.28.38-.15S23.05,39.17,23,39.3Z"/><path class="a1c583cf-907a-4f2e-bf3b-87abc9c8b48e" d="M80.65,39.14c-.35.27-.49.17-.43-.26a.28.28,0,0,1,.43,0h0Z"/><path class="a1c583cf-907a-4f2e-bf3b-87abc9c8b48e" d="M32.08,39.4a.16.16,0,0,1,.19.14c0,.14-.09.2-.2.22s-.17-.06-.19-.15S32,39.43,32.08,39.4Z"/><path class="a1c583cf-907a-4f2e-bf3b-87abc9c8b48e" d="M63.7,76.09a.11.11,0,0,0,0,.11c-.15.07-.31.15-.41,0a.2.2,0,0,1,.1-.29C63.56,75.77,63.63,75.93,63.7,76.09Z"/><path class="a1c583cf-907a-4f2e-bf3b-87abc9c8b48e" d="M67.94,77.19a.21.21,0,0,1,.19.23.21.21,0,0,1-.23.2.21.21,0,0,1-.19-.24A.2.2,0,0,1,67.94,77.19Z"/><path class="a1c583cf-907a-4f2e-bf3b-87abc9c8b48e" d="M50.67,77.57a.18.18,0,0,1,.18-.18.21.21,0,0,1,.25.23.2.2,0,0,1-.22.2C50.76,77.83,50.67,77.76,50.67,77.57Z"/><path class="a1c583cf-907a-4f2e-bf3b-87abc9c8b48e" d="M67.42,40a.24.24,0,0,1-.2.24.21.21,0,0,1-.24-.19.19.19,0,0,1,.18-.24A.24.24,0,0,1,67.42,40Z"/><path class="a1c583cf-907a-4f2e-bf3b-87abc9c8b48e" d="M72.41,40s.38.15.14.41a.16.16,0,0,1-.24,0C72,40.15,72.43,40,72.41,40Z"/><path class="a1c583cf-907a-4f2e-bf3b-87abc9c8b48e" d="M70,78.53c0,.12-.1.22-.23.19a.21.21,0,0,1-.19-.23.21.21,0,1,1,.42,0Z"/><path class="a1c583cf-907a-4f2e-bf3b-87abc9c8b48e" d="M73.89,41.82c0,.14-.09.23-.21.23a.23.23,0,0,1-.22-.23.21.21,0,0,1,.21-.22A.21.21,0,0,1,73.89,41.82Z"/><path class="a1c583cf-907a-4f2e-bf3b-87abc9c8b48e" d="M60.28,47.65a.2.2,0,0,1,.21.21.21.21,0,0,1-.21.22.2.2,0,0,1-.21-.22C60.06,47.73,60.16,47.67,60.28,47.65Z"/><path class="a1c583cf-907a-4f2e-bf3b-87abc9c8b48e" d="M32.16,49.2a.2.2,0,0,1,.17.23.2.2,0,0,1-.23.19.2.2,0,0,1-.19-.23A.21.21,0,0,1,32.16,49.2Z"/><path class="a1c583cf-907a-4f2e-bf3b-87abc9c8b48e" d="M27,56.35a.21.21,0,0,1-.19.23.18.18,0,0,1-.22-.19.18.18,0,0,1,.17-.23A.21.21,0,0,1,27,56.35Z"/><path class="a1c583cf-907a-4f2e-bf3b-87abc9c8b48e" d="M76.43,49.9a.21.21,0,0,1,.18.24.19.19,0,0,1-.23.18.18.18,0,0,1-.18-.23A.2.2,0,0,1,76.43,49.9Z"/><path class="a1c583cf-907a-4f2e-bf3b-87abc9c8b48e" d="M74.37,61.54q-.2,0-.18-.12a.24.24,0,0,1,.24-.21c.1,0,.21,0,.16.15S74.42,61.49,74.37,61.54Z"/><path class="a1c583cf-907a-4f2e-bf3b-87abc9c8b48e" d="M76,64.94a.22.22,0,0,1,.21.22.19.19,0,0,1-.21.21.21.21,0,0,1-.22-.21A.23.23,0,0,1,76,64.94Z"/><path class="a1c583cf-907a-4f2e-bf3b-87abc9c8b48e" d="M65.26,65.13c.1,0,.21.1.19.24a.22.22,0,0,1-.24.2.22.22,0,0,1,.05-.44Z"/><path class="a1c583cf-907a-4f2e-bf3b-87abc9c8b48e" d="M35,66.49a.07.07,0,0,0,.09,0,.18.18,0,0,1,.27,0h0c0,.18.09.4-.17.4S35,66.68,35,66.49Z"/><path class="a1c583cf-907a-4f2e-bf3b-87abc9c8b48e" d="M46.42,69.22c-.07-.11-.22-.21-.09-.36a.27.27,0,0,1,.22-.1c.21.06.19.23.14.4Z"/><path class="a1c583cf-907a-4f2e-bf3b-87abc9c8b48e" d="M46.52,70.5c-.38-.1-.41-.28-.11-.52C46.69,70.1,46.72,70.28,46.52,70.5Z"/><path class="a1c583cf-907a-4f2e-bf3b-87abc9c8b48e" d="M31.41,72.47c0,.14-.12.22-.25.19a.19.19,0,0,1-.18-.24.21.21,0,0,1,.24-.19A.22.22,0,0,1,31.41,72.47Z"/><path class="a1c583cf-907a-4f2e-bf3b-87abc9c8b48e" d="M55.59,63.7a.23.23,0,0,1,.16.26.17.17,0,0,1-.2.15.19.19,0,0,1-.21-.22A.21.21,0,0,1,55.59,63.7Z"/><path class="a1c583cf-907a-4f2e-bf3b-87abc9c8b48e" d="M44.74,38.58c0-.19.11-.28.25-.37.12.09.3.18.17.37S44.88,38.65,44.74,38.58Z"/><path class="a1c583cf-907a-4f2e-bf3b-87abc9c8b48e" d="M25.28,73.82c0-.11.08-.22.21-.22s.19.1.21.22a.18.18,0,0,1-.2.2A.21.21,0,0,1,25.28,73.82Z"/><path class="a1c583cf-907a-4f2e-bf3b-87abc9c8b48e" d="M57.47,40a.19.19,0,0,1-.18-.22.21.21,0,0,1,.23-.19.19.19,0,0,1,.18.23A.18.18,0,0,1,57.47,40Z"/><path class="a1c583cf-907a-4f2e-bf3b-87abc9c8b48e" d="M31.56,40.17c-.15,0-.23-.06-.24-.18s0-.23.18-.24a.22.22,0,0,1,.23.2C31.75,40.08,31.66,40.14,31.56,40.17Z"/><path class="a1c583cf-907a-4f2e-bf3b-87abc9c8b48e" d="M68,40.52a.21.21,0,0,1-.24.18.18.18,0,0,1-.18-.22c0-.12.09-.21.22-.19A.24.24,0,0,1,68,40.52Z"/><path class="a1c583cf-907a-4f2e-bf3b-87abc9c8b48e" d="M37.37,51.08c0-.11.09-.2.21-.21a.19.19,0,0,1,.21.21.19.19,0,0,1-.2.21A.22.22,0,0,1,37.37,51.08Z"/><path class="a1c583cf-907a-4f2e-bf3b-87abc9c8b48e" d="M34.7,69.8a.22.22,0,0,0,.13,0c.12,0,.11.09.13.16l-.11.25c-.14,0-.27,0-.34-.09S34.56,69.88,34.7,69.8Z"/><path class="a1c583cf-907a-4f2e-bf3b-87abc9c8b48e" d="M44.74,64.25c-.2,0-.39.06-.39-.22,0-.06.12-.17.18-.17.27,0,.25.2.21.39Z"/><path class="a1c583cf-907a-4f2e-bf3b-87abc9c8b48e" d="M79.91,64.34c-.1,0-.21-.09-.21-.23a.19.19,0,0,1,.22-.19.19.19,0,0,1,.21.21C80.12,64.27,80,64.31,79.91,64.34Z"/><path class="a1c583cf-907a-4f2e-bf3b-87abc9c8b48e" d="M40.93,48.65a.21.21,0,0,1-.23.18.18.18,0,0,1-.18-.23.19.19,0,0,1,.22-.19A.22.22,0,0,1,40.93,48.65Z"/><path class="a1c583cf-907a-4f2e-bf3b-87abc9c8b48e" d="M31.92,42.1c0,.19,0,.37-.27.33a.17.17,0,0,1-.15-.19c.06-.28.24-.21.42-.14Z"/><path class="a1c583cf-907a-4f2e-bf3b-87abc9c8b48e" d="M36.06,46.94a.21.21,0,0,1-.23.18c-.14,0-.19-.1-.17-.22s.07-.22.21-.2A.24.24,0,0,1,36.06,46.94Z"/><path class="a1c583cf-907a-4f2e-bf3b-87abc9c8b48e" d="M60.34,59.5a.22.22,0,0,1-.22-.21.2.2,0,0,1,.2-.22.19.19,0,0,1,.22.2A.21.21,0,0,1,60.34,59.5Z"/><path class="a1c583cf-907a-4f2e-bf3b-87abc9c8b48e" d="M80.53,40.85c.29-.14.47-.1.42.27C80.66,41.27,80.51,41.19,80.53,40.85Z"/><path class="a1c583cf-907a-4f2e-bf3b-87abc9c8b48e" d="M79.87,73.16c-.34.27-.42.07-.44-.24C79.69,72.8,79.87,72.81,79.87,73.16Z"/><path class="a1c583cf-907a-4f2e-bf3b-87abc9c8b48e" d="M54.34,45.43a.06.06,0,0,0,.09,0c0,.15.15.31-.06.4a.2.2,0,0,1-.28-.11C54,45.54,54.18,45.47,54.34,45.43Z"/><path class="a1c583cf-907a-4f2e-bf3b-87abc9c8b48e" d="M47.72,60.09a.24.24,0,0,1,.18.24c0,.14-.11.19-.23.19a.18.18,0,0,1-.17-.23C47.52,60.17,47.58,60.08,47.72,60.09Z"/><path class="a1c583cf-907a-4f2e-bf3b-87abc9c8b48e" d="M24.91,70.14c0-.13.08-.21.21-.2a.19.19,0,0,1,.21.2.24.24,0,0,1-.22.22C25,70.36,24.94,70.25,24.91,70.14Z"/><path class="a1c583cf-907a-4f2e-bf3b-87abc9c8b48e" d="M58.32,66.5c-.12,0-.21-.1-.19-.23a.21.21,0,0,1,.23-.19c.13,0,.18.12.18.24S58.45,66.5,58.32,66.5Z"/><path class="a1c583cf-907a-4f2e-bf3b-87abc9c8b48e" d="M31.36,60.23c-.13,0-.2-.09-.18-.22s.09-.22.23-.19a.2.2,0,0,1,.18.23C31.58,60.18,31.48,60.23,31.36,60.23Z"/><path class="a1c583cf-907a-4f2e-bf3b-87abc9c8b48e" d="M62.51,44.07c0,.12-.08.23-.22.23a.21.21,0,0,1-.22-.21.2.2,0,0,1,.21-.22C62.42,43.87,62.47,44,62.51,44.07Z"/><path class="a1c583cf-907a-4f2e-bf3b-87abc9c8b48e" d="M35.63,43.73c.15,0,.2.07.2.2s0,.19-.13.22-.21-.06-.24-.18S35.51,43.77,35.63,43.73Z"/><path class="a1c583cf-907a-4f2e-bf3b-87abc9c8b48e" d="M39.59,43.31a.19.19,0,0,1,.2.21.2.2,0,0,1-.21.22.22.22,0,0,1-.21-.22A.2.2,0,0,1,39.59,43.31Z"/><path class="a1c583cf-907a-4f2e-bf3b-87abc9c8b48e" d="M74.08,43.11a.21.21,0,0,1,.2.23.17.17,0,0,1-.17.18c-.13,0-.24-.05-.24-.19S74,43.14,74.08,43.11Z"/><path class="a1c583cf-907a-4f2e-bf3b-87abc9c8b48e" d="M41.14,57.72c0,.11,0,.22-.18.23a.21.21,0,0,1-.23-.19c0-.14.07-.2.19-.22S41.12,57.59,41.14,57.72Z"/><path class="a1c583cf-907a-4f2e-bf3b-87abc9c8b48e" d="M27.22,70.2c0,.13,0,.23-.18.24a.2.2,0,0,1-.24-.18A.2.2,0,0,1,27,70C27.11,70,27.18,70.08,27.22,70.2Z"/><path class="a1c583cf-907a-4f2e-bf3b-87abc9c8b48e" d="M33.2,59.38c0,.14-.12.17-.25.15a.18.18,0,0,1-.16-.19c0-.12.09-.23.23-.22S33.19,59.25,33.2,59.38Z"/><path class="a1c583cf-907a-4f2e-bf3b-87abc9c8b48e" d="M78.68,75.79c-.16.18-.32.2-.48,0,0-.13,0-.28.23-.28S78.64,75.66,78.68,75.79Z"/><path class="a1c583cf-907a-4f2e-bf3b-87abc9c8b48e" d="M52.15,53.61c.11,0,.21.08.2.21a.23.23,0,0,1-.21.23.22.22,0,0,1-.21-.23A.19.19,0,0,1,52.15,53.61Z"/><path class="a1c583cf-907a-4f2e-bf3b-87abc9c8b48e" d="M80,76a.18.18,0,0,1-.18.22.19.19,0,0,1-.23-.18.22.22,0,0,1,.19-.24C79.89,75.81,80,75.9,80,76Z"/><path class="a1c583cf-907a-4f2e-bf3b-87abc9c8b48e" d="M41.18,76.62c.13,0,.22,0,.23.18a.21.21,0,0,1-.18.23.21.21,0,0,1-.23-.19C41,76.7,41.07,76.65,41.18,76.62Z"/><path class="a1c583cf-907a-4f2e-bf3b-87abc9c8b48e" d="M65.14,51.5c0,.11-.09.22-.23.19a.22.22,0,0,1-.18-.25.18.18,0,0,1,.23-.17A.19.19,0,0,1,65.14,51.5Z"/><path class="a1c583cf-907a-4f2e-bf3b-87abc9c8b48e" d="M26.64,77.52c0,.14,0,.24-.19.24a.19.19,0,0,1-.21-.22.32.32,0,0,1,.17-.19C26.55,77.3,26.61,77.41,26.64,77.52Z"/><path class="a1c583cf-907a-4f2e-bf3b-87abc9c8b48e" d="M23.68,77.7c0,.11-.1.2-.24.19s-.18-.11-.18-.23a.19.19,0,0,1,.23-.19A.21.21,0,0,1,23.68,77.7Z"/><path class="a1c583cf-907a-4f2e-bf3b-87abc9c8b48e" d="M44.32,40.57h.37c.05.2,0,.4-.23.37S44.29,40.73,44.32,40.57Z"/><path class="a1c583cf-907a-4f2e-bf3b-87abc9c8b48e" d="M71.09,78.7c.11,0,.22,0,.23.18a.21.21,0,0,1-.2.23c-.13,0-.2-.07-.22-.19S71,78.72,71.09,78.7Z"/><path class="a1c583cf-907a-4f2e-bf3b-87abc9c8b48e" d="M58.56,75.14c-.12,0-.21-.11-.16-.24s.12-.17.19-.18a.2.2,0,0,1,.2.23C58.79,75.09,58.69,75.14,58.56,75.14Z"/><path class="a1c583cf-907a-4f2e-bf3b-87abc9c8b48e" d="M21.57,75.28c0,.09-.08.17-.19.15s-.13-.12-.09-.21.09-.14.14-.14S21.57,75.17,21.57,75.28Z"/><path class="a1c583cf-907a-4f2e-bf3b-87abc9c8b48e" d="M72.43,44.89c0,.12-.11.17-.24.16a.16.16,0,0,1-.16-.18.21.21,0,0,1,.2-.23C72.34,44.64,72.43,44.74,72.43,44.89Z"/><path class="a1c583cf-907a-4f2e-bf3b-87abc9c8b48e" d="M79.29,42.16c-.08.06-.14.14-.21.15s-.2-.06-.22-.18a.17.17,0,0,1,.18-.22C79.12,41.92,79.19,42.06,79.29,42.16Z"/><path class="a1c583cf-907a-4f2e-bf3b-87abc9c8b48e" d="M27.91,41.74c0,.12-.06.22-.2.21a.19.19,0,0,1-.19-.22.3.3,0,0,1,.17-.18C27.84,41.51,27.89,41.61,27.91,41.74Z"/><path class="a1c583cf-907a-4f2e-bf3b-87abc9c8b48e" d="M72.8,58.4c.2,0,.28.09.28.2a.18.18,0,0,1-.21.2c-.11,0-.16-.07-.18-.17A.21.21,0,0,1,72.8,58.4Z"/><path class="a1c583cf-907a-4f2e-bf3b-87abc9c8b48e" d="M39.1,61.53c-.24,0-.42,0-.41-.21s.16-.07.24,0A.69.69,0,0,1,39.1,61.53Z"/><path class="a1c583cf-907a-4f2e-bf3b-87abc9c8b48e" d="M59.68,72.84c0,.11-.11.21-.24.16s-.16-.12-.16-.19a.21.21,0,0,1,.22-.21C59.63,72.61,59.68,72.71,59.68,72.84Z"/><path class="a1c583cf-907a-4f2e-bf3b-87abc9c8b48e" d="M43.76,62.66c-.12,0-.2-.08-.18-.18a.21.21,0,0,1,.14-.12c.11,0,.16.07.14.17S43.79,62.62,43.76,62.66Z"/><path class="a1c583cf-907a-4f2e-bf3b-87abc9c8b48e" d="M24.45,73.54c-.11-.05-.2-.11-.18-.25a.17.17,0,0,1,.18-.16.18.18,0,0,1,.22.19C24.66,73.45,24.57,73.51,24.45,73.54Z"/><path class="a1c583cf-907a-4f2e-bf3b-87abc9c8b48e" d="M27.63,51.52c0,.13-.08.23-.21.19a.3.3,0,0,1-.18-.17.19.19,0,0,1,.19-.23C27.57,51.3,27.61,51.41,27.63,51.52Z"/><path class="a1c583cf-907a-4f2e-bf3b-87abc9c8b48e" d="M29.35,41a.2.2,0,0,1-.24.17.17.17,0,0,1-.16-.19c0-.12.07-.23.21-.22S29.34,40.84,29.35,41Z"/><path class="a1c583cf-907a-4f2e-bf3b-87abc9c8b48e" d="M54.6,78.77c.23-.13.37-.2.55-.07C55,78.91,54.86,78.89,54.6,78.77Z"/><path class="a1c583cf-907a-4f2e-bf3b-87abc9c8b48e" d="M78.06,48.09a.19.19,0,0,1-.28.13.16.16,0,0,1-.11-.21c0-.11.1-.21.24-.17S78.05,48,78.06,48.09Z"/><path class="a1c583cf-907a-4f2e-bf3b-87abc9c8b48e" d="M28.58,55.6c0,.17-.15.17-.27.17a.15.15,0,0,1-.15-.18c0-.16.15-.13.26-.13S28.55,55.54,28.58,55.6Z"/><path class="a1c583cf-907a-4f2e-bf3b-87abc9c8b48e" d="M51.28,39.58a.19.19,0,0,1,.16-.19c.19,0,.14.14.14.24s0,.21-.14.15A.19.19,0,0,1,51.28,39.58Z"/><path class="a1c583cf-907a-4f2e-bf3b-87abc9c8b48e" d="M75.2,77.47c-.07,0-.12.11-.16.11s-.1-.06-.14-.09.07-.11.12-.11S75.11,77.42,75.2,77.47Z"/><path class="a1c583cf-907a-4f2e-bf3b-87abc9c8b48e" d="M80,72.6c.12,0,.25-.14.32.05,0,0,0,.14-.08.15s-.21-.06-.24-.2Z"/><path class="a1c583cf-907a-4f2e-bf3b-87abc9c8b48e" d="M44,61.53c-.07,0-.15,0-.19,0a.19.19,0,0,1-.08-.15c0-.09.1-.16.2-.07S43.92,61.45,44,61.53Z"/><path class="a1c583cf-907a-4f2e-bf3b-87abc9c8b48e" d="M21.84,75.75s-.06.14-.12.17-.11,0-.1-.1a.41.41,0,0,1,.1-.21C21.78,75.57,21.84,75.62,21.84,75.75Z"/><path class="a1c583cf-907a-4f2e-bf3b-87abc9c8b48e" d="M76.91,74.69c.1,0,.24-.14.3,0s-.12.19-.22.2-.09-.13-.09-.22Z"/><path class="a1c583cf-907a-4f2e-bf3b-87abc9c8b48e" d="M82.15,65.12l-.11.12s-.08-.07-.09-.12S82,65,82,65,82.13,65,82.15,65.12Z"/><path class="a1c583cf-907a-4f2e-bf3b-87abc9c8b48e" d="M49.25,66.24l.11.15s-.08.06-.12.06-.14,0-.12-.14S49.2,66.27,49.25,66.24Z"/><path class="a1c583cf-907a-4f2e-bf3b-87abc9c8b48e" d="M72.8,61.22c0,.07.12.12.12.17s-.08.09-.12.13-.12-.09-.12-.13S72.74,61.29,72.8,61.22Z"/><path class="a1c583cf-907a-4f2e-bf3b-87abc9c8b48e" d="M38.61,43.28c-.11.06-.12,0-.12-.09s.14-.14.24-.18.14.06.12.09A.84.84,0,0,1,38.61,43.28Z"/><path class="a1c583cf-907a-4f2e-bf3b-87abc9c8b48e" d="M81,79.05c0,.07.12.12.12.17s-.08.09-.12.13-.12-.08-.13-.13S81,79.12,81,79.05Z"/><path class="a1c583cf-907a-4f2e-bf3b-87abc9c8b48e" d="M78.19,69.62c-.12-.08-.28-.05-.25-.22a.28.28,0,0,1,.29-.23.21.21,0,0,1,.2.22C78.43,69.57,78.28,69.57,78.19,69.62Z"/><path class="a1c583cf-907a-4f2e-bf3b-87abc9c8b48e" d="M77.34,70.4a.21.21,0,0,1-.18.23.2.2,0,0,1-.23-.19c0-.13.06-.2.18-.22A.19.19,0,0,1,77.34,70.4Z"/><path class="a1c583cf-907a-4f2e-bf3b-87abc9c8b48e" d="M35.47,69.79l-.33-.67C35.83,69,35.72,69.3,35.47,69.79Z"/><path class="a1c583cf-907a-4f2e-bf3b-87abc9c8b48e" d="M35.39,66.49l-.27,0c0-.15,0-.39.21-.35S35.35,66.36,35.39,66.49Z"/><path class="a1c583cf-907a-4f2e-bf3b-87abc9c8b48e" d="M35,70l-.13-.16c.07-.11.14-.31.29-.17S35,69.87,35,70Z"/><path class="a1c583cf-907a-4f2e-bf3b-87abc9c8b48e" d="M24.4,47.39c-.14,0-.29.2-.39,0,0-.07,0-.23,0-.24.23-.07.31.09.35.28Z"/><path class="a1c583cf-907a-4f2e-bf3b-87abc9c8b48e" d="M24.4,47.39c.14-.08.2-.33.56-.17-.21.14-.23.48-.56.17Z"/><path class="a1c583cf-907a-4f2e-bf3b-87abc9c8b48e" d="M80.65,38.93a.44.44,0,0,0-.43,0c-.13-.16,0-.26.12-.29S80.58,38.78,80.65,38.93Z"/></g><g class="abfc9cb8-923f-45b9-b56d-9d00bad14304"><path class="ac3718ca-8344-4a4d-9d9b-797b6a9dd00e" d="M47.24,67.48c-.09.24-.2.5-.27.69H44.36V68c.38-.27.79-.58,1.13-.87s.85-.79.85-1.23-.3-.67-.81-.67a1.26,1.26,0,0,0-1,.47l-.16-.11.39-.41a1.5,1.5,0,0,1,.95-.31c.66,0,1.18.33,1.18.89s-.21.74-.87,1.24c-.3.23-.74.54-1,.75h1.32a.65.65,0,0,0,.71-.35Z"/><path class="ac3718ca-8344-4a4d-9d9b-797b6a9dd00e" d="M49.18,64.91a1.47,1.47,0,0,1,1.43,1.66,1.49,1.49,0,0,1-1.43,1.66,1.47,1.47,0,0,1-1.45-1.66A1.5,1.5,0,0,1,49.18,64.91Zm0,.18c-.64,0-.8.75-.8,1.47s.19,1.49.8,1.49.79-.77.79-1.48S49.8,65.09,49.18,65.09Z"/><path class="ac3718ca-8344-4a4d-9d9b-797b6a9dd00e" d="M52.54,64.91A1.47,1.47,0,0,1,54,66.57a1.49,1.49,0,0,1-1.43,1.66c-1.06,0-1.44-.85-1.44-1.66A1.49,1.49,0,0,1,52.54,64.91Zm0,.18c-.64,0-.8.75-.8,1.47s.19,1.49.8,1.49.79-.77.79-1.48S53.16,65.09,52.54,65.09Z"/><path class="ac3718ca-8344-4a4d-9d9b-797b6a9dd00e" d="M56.74,67.23v.39c0,.34,0,.37.52.4v.15H55.64V68c.52,0,.55-.06.55-.4v-.39H54.36v-.15c.66-.69,1.37-1.44,2.07-2.15h.31V67h.68v.24Zm-.55-1.77L54.79,67h1.4Z"/><path class="ac3718ca-8344-4a4d-9d9b-797b6a9dd00e" d="M57.31,68a1.1,1.1,0,0,0,.35-.22v.36h-.35Z"/><path class="a1c583cf-907a-4f2e-bf3b-87abc9c8b48e" d="M24.15,32.14V29.33c.88-.41.86-.43.9-1.72a11.29,11.29,0,0,1,.25-3.76c-.37-.67,0-1.81-.75-2.24-.25-.14-.23-.53-.4-.73V9.05a11.25,11.25,0,0,1,.56-1.27c-.24.11-.31.51-.56.33V7.17a1.15,1.15,0,0,1,1.13-.85c.48-.05,1,0,1.44,0,.13,0,.43.14.32-.33s-.33-.28-.52-.32c-.37-.16-.76-.18-1.14-.31a1,1,0,0,1-.62-.65c-.38-1-.31-1.28.35-1.58A8.21,8.21,0,0,0,28,3.23c.21,0,.34-.18.42-.41A1.53,1.53,0,0,1,29,2.1h1c.05.13.09.13.14,0h.56c.28.32.55.25.83,0h2.23c.1.12.06.27.06.4.07-.13.09-.32.22-.4h2.65c.14.26.28.21.41,0h8.22a.49.49,0,0,0,.52.47c.53,0,.81.44.8,1.14a7.2,7.2,0,0,0,.24,1.62c-.15.4.11.59.26.9,0-.37-.48-.44-.24-.86.48-.74,1.15-.49,1.75-.63.27.06.32-.31.48-.47.33-.06.5.19.45.58a1.36,1.36,0,0,1-.72,1.22c-.64.26-.7.5-.42,1.31.14.25.3.08.46,0,.36.05.64.54,1,.32-.29-1.09,0-1.87.91-2.17.2-.07.41,0,.62-.1a.26.26,0,0,0,.19-.23.29.29,0,0,0-.18-.34c-.19-.1-.41-.1-.59-.24a.8.8,0,0,1-.35-.75A.57.57,0,0,1,51,3.38a2.25,2.25,0,0,0,1-.48c.2-.18.5-.08.74.2.49.56.84.52,1.24-.12A.94.94,0,0,1,55,2.51c.41,0,.84.12,1.15-.41H57c.72.22.85.92.81,1.77,0,.59,0,1.19,0,1.78A2.61,2.61,0,0,0,58.52,8a1.38,1.38,0,0,1,.36,1,41.11,41.11,0,0,1,0,4.3,1,1,0,0,1-.26.72c-.06,0-.1.06-.07.1s.08-.06.13,0c.57,1.37.55,1.31,1.68.75.49-.25,1.05-.22,1.4-.86.08-.15.3-.27.23-.43-.32-.75,0-1.72-.5-2.39A2.17,2.17,0,0,1,61.25,10c0-.21,0-.61-.25-.51s0,.35,0,.52a1.16,1.16,0,0,1-.15,1.12.62.62,0,0,1-.85.13,1,1,0,0,1-.41-1c.16-2.16-.17-4.31,0-6.46,0-.59-.13-1.28.36-1.71H81.4c.18.28.37.28.55,0,1.44,0,2.88,0,4.32,0,.48,0,.57.13.57.77q0,20.28,0,40.56v.75a2.12,2.12,0,0,0-.14,1.09c0,2.18,0,4.37,0,6.56,0,1-.12,1.24-.85,1.49a2.09,2.09,0,0,1-.34.08c-1,.22-1,.22-1,1.56,0,.46.06,1-.35,1.22s-.69-.12-1-.46a3.55,3.55,0,0,0-.33-.34c-.18-.1-.36-.55-.51,0,0,.84,0,1.68,0,2.52,0,.68.22.94.71.94.65,0,1.31.1,1.69-.86,0-.14.16-.3.26-.29a5.83,5.83,0,0,1,1.41.62c.31.13.31.58.29,1a5.48,5.48,0,0,1-.28,2.52H83.76a.43.43,0,0,0-.69,0q-29.11,0-58.24,0c-.63,0-.69-.25-.69-1,0-7.75,0-15.51,0-23.26.15-.11.28,0,.39.08.32.36.48.2.58-.28a.73.73,0,0,1,.36-.54c.63-.24.69-.89.67-1.62s0-1.24,0-1.87-.2-.88-.66-.9S24.54,32.63,24.15,32.14Z"/><path class="a1c583cf-907a-4f2e-bf3b-87abc9c8b48e" d="M58.41,14.1a1,1,0,0,0,.26-.73c0-1.49,0-3,0-4.48,0-.73-.49-.8-.76-1.12a1.32,1.32,0,0,1-.32-.94c0-.87,0-1.75,0-2.62A2.52,2.52,0,0,0,57,2.1H60a2.07,2.07,0,0,0-.11,1.18c.06,2-.28,4,.18,5.93.07.28-.27.63-.22,1s0,.79.41.84.55.09.66-.32.15-.82-.31-.91a.24.24,0,0,1-.12-.36,3,3,0,0,1,.65-.59c.14-.09.28.06.33.25a3.19,3.19,0,0,1,.06.55c0,.25-.07.56,0,.74a4.7,4.7,0,0,1,.55,2.64c0,.37.82,0,.31.62s-.88,1.51-1.71,1.33c-.1,0-.25-.19-.29,0-.19.86-.67.64-1.12.61-.71,0-.48-.8-.59-1.31,0-.08-.1-.13-.15-.19Z"/><path class="a1c583cf-907a-4f2e-bf3b-87abc9c8b48e" d="M56.19,2.1c0,.83-.42.76-.82.75s-1.12-.42-1.39.72c-.11.46-1.22.31-1.38-.19-.25-.76-.49-.16-.61,0-.25.34-.52.16-.78.21s-.53,0-.52.41a.52.52,0,0,0,.5.53h.28c.33,0,.53.18.53.66s-.26.73-.6.64a1.13,1.13,0,0,0-1,.32.87.87,0,0,0,0,1.4c.1.09.23.16.21.33s-.19.2-.33.22a1.36,1.36,0,0,1-1.43-.54c-.13.15-.25.12-.37,0s-.57-.23-.38-.75,0-1.2.73-1,.49-.6.66-1-.13-.43-.35-.46c0,.21-.07.42-.24.51-.62.43-1.36.11-2,.6a1.75,1.75,0,0,1-.42-1.37c.13-1-.17-1.4-.91-1.26-.17,0-.41.06-.49-.2s.22-.33.29-.55Z"/><path class="a1c583cf-907a-4f2e-bf3b-87abc9c8b48e" d="M82.75,55a1,1,0,0,1,.78.69c.13.39.35.26.58.2s.24-.38.19-.58a6.11,6.11,0,0,1,0-1.48c0-.46.17-.63.5-.7,1.73-.34,1.72-.36,1.72-2.67V45.14c0-.37,0-.77.28-1,0,5.7,0,11.39,0,17.09,0,.47-.08.65-.43.56,0-.87.18-1.73.15-2.61,0-.55-.2-.78-.6-.77-.56,0-.56,0-.9-.73-.38,2-1.53,1.43-2.5,1.47a.37.37,0,0,1-.42-.37A12.87,12.87,0,0,1,82.27,55,.51.51,0,0,1,82.75,55Z"/><path class="a1c583cf-907a-4f2e-bf3b-87abc9c8b48e" d="M24.15,32.14c.53,0,1.06,0,1.59,0s.65.19.64.81c0,1,0,2.11,0,3.17,0,.55-.21.87-.63.9s-.48.21-.48.63,0,.51-.25.67-.34-.2-.49-.33a4.83,4.83,0,0,1-.38-.4Z"/><path class="a1c583cf-907a-4f2e-bf3b-87abc9c8b48e" d="M24.15,20.88c.28.16.45.56.79.64.11,0,.3.25.28.34-.13.84.32,1.57.14,2.48a23,23,0,0,0-.09,4c0,.94-.47,1.34-1.12,1Z"/><path class="a1c583cf-907a-4f2e-bf3b-87abc9c8b48e" d="M29,2.1c-.16.37-.46.63-.44,1.14a.31.31,0,0,1-.34.36H25.4c-.16,0-.24-.16-.27-.36a1,1,0,0,1,0-1.13Z"/><path class="a1c583cf-907a-4f2e-bf3b-87abc9c8b48e" d="M27.06,5.85c.17,0,.44-.22.43.3,0,.3-.12.45-.35.45-.52,0-1.05,0-1.58,0a1.78,1.78,0,0,0-1.41.57V4.73A.58.58,0,0,1,25,4.54c.1.55.43.58.75.56a1.18,1.18,0,0,1,1,.39A.57.57,0,0,1,27.06,5.85Z"/><path class="a1c583cf-907a-4f2e-bf3b-87abc9c8b48e" d="M25,4.54l-.84.19V3.45c0-1.35,0-1.35,1-1.35V3.23C24.46,3.55,24.65,4,25,4.54Z"/><path class="a1c583cf-907a-4f2e-bf3b-87abc9c8b48e" d="M24.15,8.11c.28-.14.29-.59.5-.82.37.71.32.87-.5,1.76Z"/><path class="a1c583cf-907a-4f2e-bf3b-87abc9c8b48e" d="M31.53,2.1c-.28.26-.55,1.17-.83,0Z"/><path class="a1c583cf-907a-4f2e-bf3b-87abc9c8b48e" d="M34,2.1c-.24.14.21.66-.21.69-.12,0-.3.09-.37-.12-.14-.41.39-.19.3-.57Z"/><path class="a1c583cf-907a-4f2e-bf3b-87abc9c8b48e" d="M82,2.1c0,.21,0,.48-.24.51s-.24-.3-.31-.51Z"/><path class="a1c583cf-907a-4f2e-bf3b-87abc9c8b48e" d="M37.1,2.1c0,.25-.07.52-.3.49s-.17-.28-.11-.49Z"/><path class="a1c583cf-907a-4f2e-bf3b-87abc9c8b48e" d="M83.07,61.81q.34-.73.69,0Z"/><path class="a1c583cf-907a-4f2e-bf3b-87abc9c8b48e" d="M30.14,2.1c0,.13.12.27,0,.4a.12.12,0,0,1-.16,0c-.11-.13,0-.27,0-.4Z"/><path class="a1c583cf-907a-4f2e-bf3b-87abc9c8b48e" d="M81,53.55a.5.5,0,0,0-.47.46c-.06.4.29.29.42.48s.25.16.37.25c.28.2.24.56.22.9s-.21.55-.47.53c-.8-.08-1.62.24-2.39-.24-.14-.08-.35-.09-.36.09,0,.54-.5.7-.58,1-.21.89-.7.72-1,.54s-.26-.92-.23-1.42.29-1.16-.07-1.7a.75.75,0,0,0-.42-.37c-.55-.4-.54.1-.56.61s.29,1.37-.45,1.61c.13.31.42.3.45.64a.67.67,0,0,1-.15.58.18.18,0,0,1-.3-.09c-.28-.75-.79-.53-1.23-.52s-.67-.21-.57-.88a2.78,2.78,0,0,0-.62-2.61c-.37-.36-.68-.37-.87.19a2.12,2.12,0,0,0-.11.45c-.08.58.12,1.46-.69,1.33-.4-.07-1,.36-1.12-.63a.12.12,0,0,0-.23,0c-.14.68-.87.84-.79,1.72.05.56,0,1.13,0,1.69,0,.86-.26,1.16-.83,1s-1.09-.09-1.22.94a.66.66,0,0,1-.63.6c-.46.07-.63-.37-.87-.74s0-.49.1-.71.22-.36.44-.22c.41.26.72.21.77-.54.1-1.21,0-1.54-.63-1.56-.83,0-1.67,0-2.5,0a1.75,1.75,0,0,1-.56,0c-.19,0-.42,0-.54-.31-.18-.48.24-.22.32-.5.19-.72.68-.68,1.15-.54.17.05.37.6.51.06s-.19-.56-.53-.61c.5-.19.61-.59.57-1.17s.2-.66.53-.66h1.11c.42,0,.66.29.56.8-.21,1,.44,1.39.75,2,.16.33.46.09.51-.36,0-.07,0-.12,0-.16s.17.42.3.14.08-.71-.08-.73c-.55-.07-.36-.59-.38-1s0-.88,0-1.32.1-.92.57-.89.55-.18.54-.66c0-.76.3-.82.75-.86C71,50,71,50,71,48c0-1,0-2.07,0-3.1,0-.41-.06-.66-.52-.67a33.78,33.78,0,0,0-4.27.1.8.8,0,0,0-.76.77c-.07.47-.24.54-.59.54s-1.11-.31-.54.87a.45.45,0,0,1-.36.68c-.46,0-.93,0-1.39,0a.22.22,0,0,1-.14,0c-.67-.58-.22-1.48-.32-2.22-.07-.49.15-.76.53-.75s.47,0,.7,0c1,0,1,0,1-1.37,0-.32,0-.63,0-.94,0-.47.17-.65.51-.7,1.2-.15,2.4.07,3.6,0,.24,0,.77.1.26.76-.34.45-.07.74.24.72.77,0,1.43.71,2.21.51.08,0,.25,0,.26.11.16,1,.79.76,1.29,1s.52.79.53,1.33c0,1.32,0,2.63,0,3.94,0,.59-.27.64-.57.73s-.39-.26-.47.14-.21.81,0,1.09c.74,1.09,1.53,2.09,2.8,1.7.39-.12.51-.38.47-.84-.1-1.36,0-2.73,0-4.09,0-.8.17-1.18.79-1.09a4.09,4.09,0,0,0,.7,0c.22,0,.5.1.64-.22s-.14-.44-.27-.62a.28.28,0,0,1,.06-.44c.28-.18.31-.5.32-.86,0-.51,0-.77-.5-.77a2.34,2.34,0,0,1-1.81-.69c-.19-.21-.34-.11-.39.08a.76.76,0,0,1-1.07.67,1.3,1.3,0,0,1-.71-1.53,10.44,10.44,0,0,0,0-1.67c0-.24-.08-.53.16-.65s.33,0,.41.24c.19.49.51.46.84.46.79,0,1.58,0,2.37,0,.46,0,.75.12.75.87,0,.4.07,1,.32,1.13a1.91,1.91,0,0,0,1.64.18c.37-.17.27-.69.24-1.07-.06-.84.14-1.15.81-1.13,1.38.06,1.38,0,1.44,1.9a1.56,1.56,0,0,0,1,1.68,7.22,7.22,0,0,0-.9.24.59.59,0,0,0-.35.69c.07.3.3.13.48.1.37-.06.69-.42,1.12-.23.19.08.34,0,.39.34s.19.32.42.17.54.15.37.4a3.25,3.25,0,0,0-.24,2.14A11.7,11.7,0,0,1,84,50.73h0c-.17.17-.43.12-.54.43.14.13.26.3.44.32a4,4,0,0,0,1.59.17c.13.77-.08.86-.59.8a15.85,15.85,0,0,0-2.84,0A1.1,1.1,0,0,0,81,53.54Z"/><path class="a1c583cf-907a-4f2e-bf3b-87abc9c8b48e" d="M48.81,39.47a15.8,15.8,0,0,0,3.63.18c.23,0,.51.06.62-.29s-.18-.4-.35-.52a.38.38,0,0,1-.12-.4s.12-.12.15-.1c.49.29.37-.24.38-.53,0-.62,0-1.25,0-1.87s.18-.81.59-.79a3.62,3.62,0,0,0,1,0c.64-.16.89.52,1.09,1a3,3,0,0,1,0,1.73c-.07.27-.29.29-.48.28a2.33,2.33,0,0,0-.68-.1c-.25,0-.69,0-.63.5s.25,1.12.68,1,.59.23.63.72-.15,1-.64.91a19.41,19.41,0,0,1-2.15-.08c-.62-.13-.81.21-.63,1a2.55,2.55,0,0,1,.07.73c0,.82,0,1.43.83,1.35.34,0,.34.42.33.77,0,2.14,0,2.16,1.51,2.19.62,0,.83.4.75,1.17,0,.28-.05.56-.07.84a1.16,1.16,0,0,1-.56,1.15c-.64.47-1-.48-1.48-.13-.18.12-.2-.55-.18-.86,0-.91-.09-1.29-.89-1.52a2.34,2.34,0,0,1-1.48-1.71c-.12-.17-.2-.09-.27.08v1c.09.23,0,.49.11.71.6.48.29,1.24.25,1.84s-.5.41-.8.42c-.65,0-1.3,0-1.95,0a1,1,0,0,0-1.05.63,1.18,1.18,0,0,0-.14,1.05c.27,1,.08,1.32-.69,1.33h-.55c-1.49,0-1.73-.42-1.45-2.43.1-.75.55-.61.87-.63,1.36-.08,1.37,0,1.35-1.91,0-.34.14-.8-.21-1s-.52.1-.73.37a.72.72,0,0,1-.78.2.64.64,0,0,0-.68.36c-.17.36.16.43.27.63s-.33,1.3-.76,1.37a2,2,0,0,0-1.17.42c-.24.22-.54-.18-.55-.64a2.73,2.73,0,0,1,.13-.53c.19-1.15,0-1.47-.87-1.47h-1.6c-.22,0-.49.09-.56-.35a.41.41,0,0,1,0-.39s0-.07,0-.07l0,0a.11.11,0,0,1-.09-.1c-.18-.41-.13-1.47-.77-.43-.22.35-.2-.31-.38-.26h0c.18-.28.35-.57.65-.64s.38-.32.29-.7-.11-.71.22-.68.56.21.44.74c-.05.24,0,.45.15.55s.3-.08.4-.26a5.08,5.08,0,0,0-.33-2.8l-.07,0a.28.28,0,0,0-.15,0,.14.14,0,0,1-.14,0c-.7.4-.54-.45-.54-.8s-.05-.55-.36-.54c-.63,0-1-.46-.8-1.31s0-.86-.54-1-.88-.75-1.43-.91c-.23-.07-.13-.62-.13-.95,0-1.86,0-1.81,1.36-1.86.68,0,.91.28.88,1.19,0,.56-.24,1.34.17,1.67s1.13.17,1.71.12c.29,0,.33-.38.33-.71,0-.63,0-1.25,0-1.88a1.57,1.57,0,0,1,.34-1.13c.24.59.48,1.26,1,.28.14-.29.87.57.9,1.12s0,1.13,0,1.69V44.8c0,.32.09.72-.27.85-.14.05-.28.12-.24.36s.19.35.31.32c.39-.09.56.27.8.57.38.48.89.32,1.33.2s.29-.71.29-1.12c0-1.09,0-2.19,0-3.28a1.22,1.22,0,0,0-.22-.94c-.18-.16-.1-.32-.05-.55A8.43,8.43,0,0,0,44.22,39c0-.69.2-1.05.82-.9a8.32,8.32,0,0,0,1.87.1c.33,0,.55.08.66.61.19,1,.42,1,1.24.72Z"/><path class="a1c583cf-907a-4f2e-bf3b-87abc9c8b48e" d="M44.21,21.53c0-1.4,0-1.4,1.06-1.4s1.89,0,2.83,0c.42,0,.6-.19.57-.76a7,7,0,0,0,0-1.3c-.23-.88.13-.95.6-.95h.14c1.62,0,1.62,0,1.52-2.2,0-.54-.16-.83-.58-.8h-.21c-1.53,0-1.65-.23-1.45-2.35.05-.54.27-.68.62-.65s.62.16.58.7,0,.87.51.68a.27.27,0,0,1,.26.11c.79,1.08,1.8.69,2.75.76.2,0,.47-.11.57.18s-.15.45-.31.6a.54.54,0,0,0-.18.63c.11.32.63.46.14,1-.24.29,0,1-.29,1.47s-.14,1.33-.19,2c0,.3.05.71-.28.73s-.25-.36-.28-.64c-.05-.73-.46-1.3-.5-2.08,0-.46-.4-.73-.76-.17s-.92,1-.45,1.94c.17.35.16,1-.46,1-.35,0-.59.43-.59,1,0,1,0,1.93,0,2.9a.78.78,0,0,0,.31.68.39.39,0,0,1,.13.54c-.11.19-.31.26-.44.14-.42-.42-1.09-.36-1.23-1.34-.07-.45-.26-1.37-.89-.47,0,.08-.47-.13-.64-.22a3.48,3.48,0,0,0-1.65-.17C44.21,23.11,44.21,23.13,44.21,21.53Z"/><path class="a1c583cf-907a-4f2e-bf3b-87abc9c8b48e" d="M79.45,32.33c-.28-.47-.6-.32-.84,0s.06.54.22.77-.1,1.25-.4,1.26-1,.35-1.25-.47c-.09-.27-.26-.23-.42-.18s-.32,0-.36-.3-.05-.69.16-.74c1.14-.3,1-1.55,1.16-2.62.11-.87.39-1.1,1-.8.75.38,1.2,0,1.14-1-.13-2.47.07-2,1.71-2.07.34,0,.53.2.53.67,0,1.19,0,2.38,0,3.56,0,.81-.17.85-.68.43a1.17,1.17,0,0,0-.59-.14A.94.94,0,0,1,80,30.2c-.17.73.22,1.7-.51,2.13Z"/><path class="a1c583cf-907a-4f2e-bf3b-87abc9c8b48e" d="M75.41,34.74c0,1.45,0,2.82,0,4.19,0,.67-.32.79-.7.71s-.69.19-.54-.67c.09-.46-.43-.78-.69-1.14-.11-.14-.24-.21-.3-.45-.2-.82-.64-1-1-.25-.84,1.76-2.08.79-3.15,1-.17,0-.28-.2-.3-.44a2.64,2.64,0,0,1,0-.28c0-2.64-.15-2.14,1.53-2.26a21.81,21.81,0,0,0,2.4.21c.47-.08,1,0,1.13-.9,0-.33.49-.46.51-.12C74.35,35.79,74.92,34.86,75.41,34.74Z"/><path class="a1c583cf-907a-4f2e-bf3b-87abc9c8b48e" d="M25.76,10.86c.46-.2.95-.28.33-1.06-.14-.18.12-.36.18-.54.16-.51.23-1-.32-1.14-.14,0-.37,0-.33-.32a.66.66,0,0,1,.19-.36c.17-.13.43-.16.5.09.21.74.66.57,1.06.58,1,0,1.94,0,2.91,0,.37,0,.59.13.56.68s.21.78.58.83.49,0,.52.42,0,.86-.36,1a.92.92,0,0,0-.5,1.06c0,.24.08.6.33.45.44-.26.61.21.86.56-.54.13-1,.65-1.59-.27-.27-.43-.95-.37-1.39-.78-.11-.1-.35-.13-.32-.28.19-1.13-.45-.61-.73-.65A7.28,7.28,0,0,1,25.76,10.86Z"/><path class="a1c583cf-907a-4f2e-bf3b-87abc9c8b48e" d="M38,21.94a23.67,23.67,0,0,1,.12,3.71c0,.29-.08.44-.33.44-.6,0-1.2,0-1.8.05s-.68-.26-.65-.89.05-1.49-.77-1.41c-.21,0-.34-.21-.31-.51s.15-.5.43-.41a2.51,2.51,0,0,0,.55.07c.07-.23-.42-.33-.06-.61.2-.16.15-.41.12-.67a3.21,3.21,0,0,1,.88-1.64c.23-.05.33.08.32.42,0,.59,0,1.18,0,1.77,0,.38,0,.78.38.85s.6.07.74-.44A4.83,4.83,0,0,1,38,21.94Z"/><path class="a1c583cf-907a-4f2e-bf3b-87abc9c8b48e" d="M36,9.61c0-.31-.14-.68.27-.83.61-.22,1.09-1.08,1.87-.54.3.22.72.14.61-.65-.05-.3,0-.72.21-.81s.41.41.42.61c0,.62.56,1.13.22,1.82a.37.37,0,0,0,0,.25c.14.17.54,0,.39.53a5.45,5.45,0,0,1-.61,1.65c-.42.59-.79,0-1-.2a1.68,1.68,0,0,0-1.43-.28c-.81.11-.8.13-.76-1,0-.21.12-.53-.19-.57Z"/><path class="a1c583cf-907a-4f2e-bf3b-87abc9c8b48e" d="M24.58,14.11c0-.55.19-.73.57-.75A1.81,1.81,0,0,1,27.2,14.5a.94.94,0,0,0,.72.59c1,.19,1.19,1.22,1.48,2.18a.47.47,0,0,1-.12.49.2.2,0,0,1-.32,0,.67.67,0,0,0-1,.13c-.27.48-.44.34-.47-.13a1.15,1.15,0,0,0-.44-.89c-.5-.44-.72-1.36-1.42-1.46-.15,0-.16-.25-.2-.44C25.33,14.4,25.11,13.94,24.58,14.11Z"/><path class="a1c583cf-907a-4f2e-bf3b-87abc9c8b48e" d="M38.85,32.14h-.21c-1.07,0-1.07,0-1.12-1.4,0-.25,0-.55-.14-.7-.44-.39-.43-.55,0-1.12s.51-.5.84,0,.75.13,1.13.2.63-.16.67.1c.09.58.52,1,.42,1.64C40.25,32.14,40.27,32.14,38.85,32.14Z"/><path class="a1c583cf-907a-4f2e-bf3b-87abc9c8b48e" d="M58.89,44.16a2,2,0,0,1,1.27.26c.32.25.78.28.29,1-.18.26,0,.45.26.38s.67-.29.67.21-.41.35-.69.29c-.08,0-.23,0-.24.09-.22,1.23-1,.74-1.48.77-1.4.05-1.38,0-1.4-1.87,0-.85.18-1.23.83-1.12A4,4,0,0,0,58.89,44.16Z"/><path class="a1c583cf-907a-4f2e-bf3b-87abc9c8b48e" d="M40.75,26.14c1.26,0,1.26,0,1.23,1.56a11.24,11.24,0,0,1,0,2.46c0,.2,0,.48-.2.53s-.27-.16-.37-.35c-.31-.58-.44-1.47-1.25-1.23-.24.07-.09-.69-.41-.77-.57-.13-.25-.39-.06-.66a.45.45,0,0,0,.05-.26C39.61,26.18,40.12,26,40.75,26.14Z"/><path class="a1c583cf-907a-4f2e-bf3b-87abc9c8b48e" d="M84.6,7.93c.06-1.61-1-1.71-1.71-2.21a1.15,1.15,0,0,1-.58-.85,1.35,1.35,0,0,0,1.49-.7c.1-.18.24-.21.34,0,.24.4.58.3.92.34a1.42,1.42,0,0,1-.35.87h-.07c-.06,0-.12,0-.13.08s.14.15.22.22.21.32.32.32c.83,0,.8.87.82,1.58s-.51.61-.84.77C84.89,8.16,84.74,8.06,84.6,7.93Z"/><path class="a1c583cf-907a-4f2e-bf3b-87abc9c8b48e" d="M81.76,35.84c.08.3.12.58.21.82.18.45.25,1,0,1.28s-.61,1-1.07.27c0,0-.09,0-.14,0-.36-.07-.78.15-.89-.68a2.46,2.46,0,0,1,.73-2.19c.25-.25.35.1.39.39s-.07.76.26.87S81.54,36.06,81.76,35.84Z"/><path class="a1c583cf-907a-4f2e-bf3b-87abc9c8b48e" d="M45.45,35.89c-.93,0-1.06-.15-.87-1.09.08-.45,1.21-1.28,1.54-1.12s.39.82.4,1.27-.07.9-.52.94Z"/><path class="a1c583cf-907a-4f2e-bf3b-87abc9c8b48e" d="M37.84,34.39H36.25c-.14,0-.31,0-.34-.22s.14-.25.25-.35c.48-.43.86-.67,1.48-.11.39.36,1.07.1,1.63.13.2,0,.5-.05.51.29s-.3.25-.48.26c-.49,0-1,0-1.46,0Z"/><path class="a1c583cf-907a-4f2e-bf3b-87abc9c8b48e" d="M43.65,44c0,.75-.36,1.14-.83.84-.29-.18-.41-.46,0-.71a.67.67,0,0,0,.28-.74c0-.23-.06-.48.13-.55s.18.32.31.47A1,1,0,0,1,43.65,44Z"/><path class="a1c583cf-907a-4f2e-bf3b-87abc9c8b48e" d="M74.32,46.32c.4,0,.64.43.5,1.17-.11.54-.46.44-.75.39s-.33-.24-.32-.52,0-.4.32-.43C74.57,46.88,73.76,46.53,74.32,46.32Z"/><path class="a1c583cf-907a-4f2e-bf3b-87abc9c8b48e" d="M36.4,4.23c-.21-.75.42-.73.65-1.1s.34-.12.52-.12c0,0,.07.16,0,.22-.08.23-.24.24-.4.27-.43.09-.17.43-.11.67s.07.42,0,.41a1.24,1.24,0,0,0-.64.2C36.33,4.82,36.37,4.48,36.4,4.23Z"/><path class="a1c583cf-907a-4f2e-bf3b-87abc9c8b48e" d="M25.82,29.89c.31,0,.54.11.54.56s-.15.34-.33.25-.63.1-.68-.4S25.63,29.92,25.82,29.89Z"/><path class="a1c583cf-907a-4f2e-bf3b-87abc9c8b48e" d="M77.1,37.63c.1,0,.24.19.29,0,.13-.5.31-.42.47-.09s-.18.44-.29.57c-.26.3-.56-.2-.86-.06a.46.46,0,0,1-.08-.22C76.72,37.54,76.92,37.59,77.1,37.63Z"/><path class="a1c583cf-907a-4f2e-bf3b-87abc9c8b48e" d="M28.59,6.8c0,.29,0,.53-.26.53s-.28-.27-.27-.52,0-.63.23-.67S28.47,6.6,28.59,6.8Z"/><path class="a1c583cf-907a-4f2e-bf3b-87abc9c8b48e" d="M74.29,45.58c-.14,0-.4,0-.39-.39s.17-.39.39-.31.52,0,.49.46C74.76,45.63,74.55,45.68,74.29,45.58Z"/><path class="a1c583cf-907a-4f2e-bf3b-87abc9c8b48e" d="M46.84,5.5a4.4,4.4,0,0,0,.45.42c.12.07.28.06.3.3s-.12.25-.22.3-.35-.08-.52-.15C47,6.07,46.54,5.78,46.84,5.5Z"/><path class="a1c583cf-907a-4f2e-bf3b-87abc9c8b48e" d="M40.44,25.09c.24-.35.49-.6.82-.32a.29.29,0,0,1,.06.39C41,25.62,40.75,25.09,40.44,25.09Z"/><path class="a1c583cf-907a-4f2e-bf3b-87abc9c8b48e" d="M39.48,24.23c.07.46.48.62.29,1.06-.07.16-.26.11-.38,0C39.08,25,39.24,24.66,39.48,24.23Z"/><path class="a1c583cf-907a-4f2e-bf3b-87abc9c8b48e" d="M81.29,39c0,.57.45.85.09,1.29-.1.12-.23.08-.3-.07C80.88,39.79,81,39.48,81.29,39Z"/><path class="a1c583cf-907a-4f2e-bf3b-87abc9c8b48e" d="M29.74,7.07c-.16-.46-.58-.44-.46-1,0-.09.22-.21.29-.16C29.85,6.14,29.9,6.48,29.74,7.07Z"/><path class="a1c583cf-907a-4f2e-bf3b-87abc9c8b48e" d="M34.06,5.48c-.27-.19-1.12.34-.65-.78Z"/><path class="a1c583cf-907a-4f2e-bf3b-87abc9c8b48e" d="M42.81,41.83c-.2,0-.25-.24-.26-.47s.1-.43.29-.44.24.23.24.45S43,41.79,42.81,41.83Z"/><path class="a1c583cf-907a-4f2e-bf3b-87abc9c8b48e" d="M32,8.12c-.06.28-.2.35-.37.34s-.28-.11-.22-.34.24-.24.39-.26S32,8,32,8.12Z"/><path class="a1c583cf-907a-4f2e-bf3b-87abc9c8b48e" d="M63.4,41.18c.15,0,.28,0,.27.29s-.08.35-.24.35-.21-.12-.24-.27S63.23,41.21,63.4,41.18Z"/><path class="a1c583cf-907a-4f2e-bf3b-87abc9c8b48e" d="M42.12,25.79c.54,0,.55.42.67.7l-.14.16Z"/><path class="a1c583cf-907a-4f2e-bf3b-87abc9c8b48e" d="M77.66,36.38c-.32.66-.61.18-.88.07Z"/><path class="a1c583cf-907a-4f2e-bf3b-87abc9c8b48e" d="M42.75,40l.64-.46C43.43,40.28,43,40,42.75,40Z"/><path class="a1c583cf-907a-4f2e-bf3b-87abc9c8b48e" d="M41.09,51.75c.2.14.51.15.42.58a.26.26,0,0,1-.22.16C40.91,52.42,41.28,52,41.09,51.75Z"/><path class="a1c583cf-907a-4f2e-bf3b-87abc9c8b48e" d="M34.72,6.24c0,.13,0,.27-.14.27s-.21-.13-.22-.3,0-.31.18-.3S34.72,6.07,34.72,6.24Z"/><path class="a1c583cf-907a-4f2e-bf3b-87abc9c8b48e" d="M79.45,32.33c.07.21.44,0,.35.42,0,.11-.19.25-.25.23-.31-.12-.18-.4-.1-.65Z"/><path class="a1c583cf-907a-4f2e-bf3b-87abc9c8b48e" d="M82.24,7a.25.25,0,0,1-.15-.33c0-.14.16-.35.2-.34a.37.37,0,0,1,.21.43C82.48,6.94,82.39,7,82.24,7Z"/><path class="a1c583cf-907a-4f2e-bf3b-87abc9c8b48e" d="M37.63,46.27c.09.22.18.45-.05.6s-.25,0-.28-.15c-.07-.37.1-.47.34-.44Z"/><path class="a1c583cf-907a-4f2e-bf3b-87abc9c8b48e" d="M34.06,45.13a.27.27,0,0,1-.22.27c-.12,0-.24,0-.25-.18a.24.24,0,0,1,.47-.09Z"/><path class="a1c583cf-907a-4f2e-bf3b-87abc9c8b48e" d="M78.73,37.08c0-.15,0-.22.15-.22a.22.22,0,0,1,.25.24c0,.14,0,.25-.16.25S78.77,37.24,78.73,37.08Z"/><path class="a1c583cf-907a-4f2e-bf3b-87abc9c8b48e" d="M65.66,4.72a.24.24,0,0,1-.21-.29c0-.17,0-.42.2-.42s.2.24.22.41A.26.26,0,0,1,65.66,4.72Z"/><path class="a1c583cf-907a-4f2e-bf3b-87abc9c8b48e" d="M34.23,51.54c0,.13-.08.26-.21.26s-.22-.1-.23-.28a.24.24,0,0,1,.21-.3C34.12,51.21,34.21,51.31,34.23,51.54Z"/><path class="a1c583cf-907a-4f2e-bf3b-87abc9c8b48e" d="M38.19,3c0,.19-.1.29-.22.29s-.22-.1-.21-.29.07-.31.2-.29S38.17,2.84,38.19,3Z"/><path class="a1c583cf-907a-4f2e-bf3b-87abc9c8b48e" d="M26.27,53.21c.14,0,.22.06.25.23s0,.28-.18.3A.31.31,0,0,1,26,53.5C26,53.27,26.19,53.32,26.27,53.21Z"/><path class="a1c583cf-907a-4f2e-bf3b-87abc9c8b48e" d="M76,54.11c.38-.37.47-.15.42.37C76.13,54.56,76,54.52,76,54.11Z"/><path class="a1c583cf-907a-4f2e-bf3b-87abc9c8b48e" d="M27.06,5.85c-.2,0-.3-.15-.37-.36.09-.18.2-.37.39-.2S27.12,5.66,27.06,5.85Z"/><path class="a1c583cf-907a-4f2e-bf3b-87abc9c8b48e" d="M84.73,5.63c-.36.36-.5.23-.44-.35.16-.15.3-.16.43.07h0Z"/><path class="a1c583cf-907a-4f2e-bf3b-87abc9c8b48e" d="M36.15,6c.11,0,.18.06.2.19a.27.27,0,0,1-.21.3c-.11,0-.17-.08-.19-.2S36.05,6,36.15,6Z"/><path class="a1c583cf-907a-4f2e-bf3b-87abc9c8b48e" d="M67.77,55.43a.21.21,0,0,0,0,.16c-.15.08-.31.19-.41-.08a.31.31,0,0,1,.1-.39C67.64,55,67.7,55.22,67.77,55.43Z"/><path class="a1c583cf-907a-4f2e-bf3b-87abc9c8b48e" d="M72,56.91a.28.28,0,0,1,.19.32c0,.16-.1.28-.23.26s-.2-.15-.19-.32S71.88,56.91,72,56.91Z"/><path class="a1c583cf-907a-4f2e-bf3b-87abc9c8b48e" d="M54.74,57.43a.24.24,0,0,1,.18-.25c.15,0,.25.11.25.31a.25.25,0,0,1-.22.28C54.83,57.77,54.75,57.68,54.74,57.43Z"/><path class="a1c583cf-907a-4f2e-bf3b-87abc9c8b48e" d="M71.49,6.79a.31.31,0,0,1-.2.32c-.13,0-.22-.09-.24-.25s0-.31.19-.32S71.45,6.6,71.49,6.79Z"/><path class="a1c583cf-907a-4f2e-bf3b-87abc9c8b48e" d="M76.48,6.74s.38.19.15.55a.15.15,0,0,1-.25,0C76.1,7,76.51,6.79,76.48,6.74Z"/><path class="a1c583cf-907a-4f2e-bf3b-87abc9c8b48e" d="M74,58.73c0,.16-.09.28-.23.25s-.2-.14-.19-.32.11-.26.24-.24S74,58.54,74,58.73Z"/><path class="a1c583cf-907a-4f2e-bf3b-87abc9c8b48e" d="M78,9.25c0,.18-.09.3-.21.3s-.21-.13-.22-.3.1-.3.22-.3S78,9.06,78,9.25Z"/><path class="a1c583cf-907a-4f2e-bf3b-87abc9c8b48e" d="M64.35,17.1c.13,0,.21.12.21.29s-.08.29-.21.29-.21-.13-.21-.29A.26.26,0,0,1,64.35,17.1Z"/><path class="a1c583cf-907a-4f2e-bf3b-87abc9c8b48e" d="M36.23,19.19a.27.27,0,0,1,.17.31c0,.17-.1.27-.23.26s-.2-.14-.18-.31S36.08,19.18,36.23,19.19Z"/><path class="a1c583cf-907a-4f2e-bf3b-87abc9c8b48e" d="M31.09,28.82c0,.17-.06.29-.19.32s-.21-.1-.22-.26,0-.3.18-.31S31.06,28.65,31.09,28.82Z"/><path class="a1c583cf-907a-4f2e-bf3b-87abc9c8b48e" d="M80.5,20.13a.28.28,0,0,1,.18.32c0,.17-.1.26-.23.25s-.19-.14-.18-.31S80.36,20.12,80.5,20.13Z"/><path class="a1c583cf-907a-4f2e-bf3b-87abc9c8b48e" d="M78.44,35.82c-.13,0-.19,0-.18-.16s.11-.27.24-.28a.14.14,0,0,1,.17.19C78.63,35.69,78.5,35.76,78.44,35.82Z"/><path class="a1c583cf-907a-4f2e-bf3b-87abc9c8b48e" d="M80.09,40.4a.27.27,0,0,1,.21.3c0,.16-.08.29-.21.29a.26.26,0,0,1-.22-.29A.31.31,0,0,1,80.09,40.4Z"/><path class="a1c583cf-907a-4f2e-bf3b-87abc9c8b48e" d="M69.33,40.65a.32.32,0,0,1,.19.33c0,.17-.11.29-.23.27s-.2-.14-.19-.32S69.18,40.65,69.33,40.65Z"/><path class="a1c583cf-907a-4f2e-bf3b-87abc9c8b48e" d="M39.1,42.5s.07,0,.09-.06a.16.16,0,0,1,.27.06h0c0,.24.09.54-.18.54S39,42.75,39.1,42.5Z"/><path class="a1c583cf-907a-4f2e-bf3b-87abc9c8b48e" d="M50.49,46.17c-.06-.15-.22-.28-.09-.48s.16-.16.23-.14.18.31.13.54Z"/><path class="a1c583cf-907a-4f2e-bf3b-87abc9c8b48e" d="M50.59,47.9c-.38-.14-.4-.38-.11-.71C50.76,47.36,50.79,47.6,50.59,47.9Z"/><path class="a1c583cf-907a-4f2e-bf3b-87abc9c8b48e" d="M35.48,50.56c0,.19-.12.29-.25.25a.26.26,0,0,1-.18-.33c0-.15.11-.27.25-.24S35.48,50.4,35.48,50.56Z"/><path class="a1c583cf-907a-4f2e-bf3b-87abc9c8b48e" d="M59.67,38.73c.12.05.16.18.15.35s-.1.22-.2.21-.22-.11-.21-.3S59.51,38.72,59.67,38.73Z"/><path class="a1c583cf-907a-4f2e-bf3b-87abc9c8b48e" d="M48.82,4.88a.55.55,0,0,1,.24-.51c.12.13.3.25.18.51S49,5,48.82,4.88Z"/><path class="a1c583cf-907a-4f2e-bf3b-87abc9c8b48e" d="M29.35,52.37c0-.15.09-.29.21-.29s.2.13.21.29-.07.28-.2.28S29.37,52.54,29.35,52.37Z"/><path class="a1c583cf-907a-4f2e-bf3b-87abc9c8b48e" d="M61.55,6.79a.23.23,0,0,1-.18-.29c0-.16.1-.27.23-.26s.18.15.17.31S61.69,6.83,61.55,6.79Z"/><path class="a1c583cf-907a-4f2e-bf3b-87abc9c8b48e" d="M35.63,7c-.15,0-.23-.08-.23-.25s0-.3.17-.31.21.11.23.26A.26.26,0,0,1,35.63,7Z"/><path class="a1c583cf-907a-4f2e-bf3b-87abc9c8b48e" d="M72.05,7.49c0,.17-.11.26-.24.25s-.19-.14-.18-.31.09-.28.23-.25S72,7.32,72.05,7.49Z"/><path class="a1c583cf-907a-4f2e-bf3b-87abc9c8b48e" d="M41.44,21.73c0-.16.09-.28.22-.29s.2.12.2.28-.07.29-.2.29S41.46,21.89,41.44,21.73Z"/><path class="a1c583cf-907a-4f2e-bf3b-87abc9c8b48e" d="M38.78,47a.21.21,0,0,0,.12,0c.12,0,.12.12.14.21l-.12.34c-.14.07-.27.07-.33-.12A.39.39,0,0,1,38.78,47Z"/><path class="a1c583cf-907a-4f2e-bf3b-87abc9c8b48e" d="M48.81,39.48c-.2.05-.39.07-.38-.3,0-.08.11-.24.17-.24.28,0,.26.27.21.53Z"/><path class="a1c583cf-907a-4f2e-bf3b-87abc9c8b48e" d="M84,39.6c-.1-.07-.21-.12-.21-.31S83.88,39,84,39s.21.11.21.29A.3.3,0,0,1,84,39.6Z"/><path class="a1c583cf-907a-4f2e-bf3b-87abc9c8b48e" d="M45,18.45c0,.18-.13.24-.24.23s-.2-.12-.18-.3.09-.28.22-.25S45,18.27,45,18.45Z"/><path class="a1c583cf-907a-4f2e-bf3b-87abc9c8b48e" d="M36,9.61c0,.26,0,.51-.27.46a.24.24,0,0,1-.15-.27c.06-.37.24-.27.42-.19Z"/><path class="a1c583cf-907a-4f2e-bf3b-87abc9c8b48e" d="M40.14,16.14c0,.16-.11.26-.24.25s-.19-.14-.17-.31.08-.29.22-.26S40.12,16,40.14,16.14Z"/><path class="a1c583cf-907a-4f2e-bf3b-87abc9c8b48e" d="M64.41,33.07c-.14,0-.21-.14-.21-.28s.06-.29.2-.3.21.12.21.28S64.55,33.06,64.41,33.07Z"/><path class="a1c583cf-907a-4f2e-bf3b-87abc9c8b48e" d="M84.6,7.93c.29-.18.47-.14.43.37C84.73,8.5,84.58,8.39,84.6,7.93Z"/><path class="a1c583cf-907a-4f2e-bf3b-87abc9c8b48e" d="M83.94,51.48c-.33.37-.41.09-.44-.32C83.76,51,84,51,83.94,51.48Z"/><path class="a1c583cf-907a-4f2e-bf3b-87abc9c8b48e" d="M58.41,14.1c0,.05.05.07.09.05,0,.2.15.41-.06.54a.18.18,0,0,1-.27-.15C58.1,14.26,58.25,14.17,58.41,14.1Z"/><path class="a1c583cf-907a-4f2e-bf3b-87abc9c8b48e" d="M51.79,33.87a.35.35,0,0,1,.19.33.22.22,0,0,1-.24.24c-.13,0-.19-.13-.17-.3S51.65,33.86,51.79,33.87Z"/><path class="a1c583cf-907a-4f2e-bf3b-87abc9c8b48e" d="M29,47.41c0-.17.08-.28.21-.27a.24.24,0,0,1,.21.27c0,.15-.09.29-.21.29S29,47.56,29,47.41Z"/><path class="a1c583cf-907a-4f2e-bf3b-87abc9c8b48e" d="M62.39,42.5a.25.25,0,0,1-.19-.3c0-.16.1-.28.23-.26s.18.16.18.32S62.52,42.51,62.39,42.5Z"/><path class="a1c583cf-907a-4f2e-bf3b-87abc9c8b48e" d="M35.43,34.05c-.13,0-.2-.12-.17-.3s.08-.29.22-.25a.28.28,0,0,1,.19.32A.22.22,0,0,1,35.43,34.05Z"/><path class="a1c583cf-907a-4f2e-bf3b-87abc9c8b48e" d="M66.58,12.28c0,.15-.08.3-.21.31s-.21-.13-.22-.28.06-.29.2-.3S66.54,12.13,66.58,12.28Z"/><path class="a1c583cf-907a-4f2e-bf3b-87abc9c8b48e" d="M39.7,11.82c.15,0,.2.09.2.27s0,.26-.12.29-.22-.08-.25-.24A.25.25,0,0,1,39.7,11.82Z"/><path class="a1c583cf-907a-4f2e-bf3b-87abc9c8b48e" d="M43.66,11.24c.14,0,.21.14.21.3s-.07.3-.21.29-.21-.15-.21-.3A.25.25,0,0,1,43.66,11.24Z"/><path class="a1c583cf-907a-4f2e-bf3b-87abc9c8b48e" d="M78.16,11c.13,0,.19.14.19.31s-.06.24-.17.24-.23-.06-.24-.25A.28.28,0,0,1,78.16,11Z"/><path class="a1c583cf-907a-4f2e-bf3b-87abc9c8b48e" d="M45.22,30.67c0,.16,0,.3-.19.32s-.21-.11-.23-.27a.23.23,0,0,1,.19-.29C45.12,30.4,45.19,30.5,45.22,30.67Z"/><path class="a1c583cf-907a-4f2e-bf3b-87abc9c8b48e" d="M31.29,47.49c0,.18-.05.31-.18.33s-.22-.09-.24-.25a.27.27,0,0,1,.18-.32C31.18,47.21,31.26,47.33,31.29,47.49Z"/><path class="a1c583cf-907a-4f2e-bf3b-87abc9c8b48e" d="M37.27,32.91c0,.19-.11.23-.25.2a.24.24,0,0,1-.16-.26c0-.15.1-.3.23-.29S37.27,32.73,37.27,32.91Z"/><path class="a1c583cf-907a-4f2e-bf3b-87abc9c8b48e" d="M82.75,55c-.16.25-.32.27-.48,0,0-.18,0-.37.24-.38S82.71,54.86,82.75,55Z"/><path class="a1c583cf-907a-4f2e-bf3b-87abc9c8b48e" d="M56.23,25.13a.28.28,0,0,1,.2.29c0,.16-.1.3-.22.3s-.2-.14-.21-.3S56.07,25.13,56.23,25.13Z"/><path class="a1c583cf-907a-4f2e-bf3b-87abc9c8b48e" d="M84.05,55.33c0,.18,0,.29-.18.3s-.22-.06-.23-.24.07-.3.19-.32S84,55.18,84.05,55.33Z"/><path class="a1c583cf-907a-4f2e-bf3b-87abc9c8b48e" d="M45.26,56.15c.12,0,.21.05.22.23s-.06.3-.18.32-.21-.1-.23-.26A.23.23,0,0,1,45.26,56.15Z"/><path class="a1c583cf-907a-4f2e-bf3b-87abc9c8b48e" d="M69.21,22.29c0,.14-.09.29-.23.25s-.18-.17-.17-.33.1-.26.23-.24S69.22,22.12,69.21,22.29Z"/><path class="a1c583cf-907a-4f2e-bf3b-87abc9c8b48e" d="M30.72,57.36c0,.19,0,.33-.2.32s-.22-.12-.21-.29a.38.38,0,0,1,.17-.25C30.62,57.07,30.68,57.22,30.72,57.36Z"/><path class="a1c583cf-907a-4f2e-bf3b-87abc9c8b48e" d="M27.75,57.6c0,.15-.1.28-.23.26s-.19-.16-.18-.32.08-.27.22-.24S27.75,57.42,27.75,57.6Z"/><path class="a1c583cf-907a-4f2e-bf3b-87abc9c8b48e" d="M48.4,7.55l.37,0c0,.27,0,.54-.23.5S48.36,7.77,48.4,7.55Z"/><path class="a1c583cf-907a-4f2e-bf3b-87abc9c8b48e" d="M75.16,59a.24.24,0,0,1,.23.25.26.26,0,0,1-.19.3c-.13,0-.21-.09-.23-.25S75,59,75.16,59Z"/><path class="a1c583cf-907a-4f2e-bf3b-87abc9c8b48e" d="M62.64,54.16a.25.25,0,0,1-.16-.34c0-.1.12-.23.18-.23s.21.13.21.31S62.76,54.15,62.64,54.16Z"/><path class="a1c583cf-907a-4f2e-bf3b-87abc9c8b48e" d="M25.64,54.33c0,.13-.08.25-.19.21s-.13-.16-.08-.29.08-.18.13-.18S25.64,54.2,25.64,54.33Z"/><path class="a1c583cf-907a-4f2e-bf3b-87abc9c8b48e" d="M76.51,13.38c0,.17-.12.23-.24.22s-.17-.1-.17-.24.09-.32.2-.32S76.51,13.17,76.51,13.38Z"/><path class="a1c583cf-907a-4f2e-bf3b-87abc9c8b48e" d="M83.36,9.71c-.08.08-.13.18-.2.2s-.21-.09-.23-.25.08-.32.18-.3S83.26,9.56,83.36,9.71Z"/><path class="a1c583cf-907a-4f2e-bf3b-87abc9c8b48e" d="M32,9.13c0,.16-.05.3-.2.29s-.21-.14-.18-.3a.34.34,0,0,1,.17-.24C31.91,8.82,32,9,32,9.13Z"/><path class="a1c583cf-907a-4f2e-bf3b-87abc9c8b48e" d="M76.87,31.59c.21,0,.28.12.29.27s-.08.28-.22.27-.16-.1-.18-.22A.34.34,0,0,1,76.87,31.59Z"/><path class="a1c583cf-907a-4f2e-bf3b-87abc9c8b48e" d="M43.18,35.8c-.25,0-.42,0-.41-.27s.15-.1.24,0A1.9,1.9,0,0,1,43.18,35.8Z"/><path class="a1c583cf-907a-4f2e-bf3b-87abc9c8b48e" d="M63.75,51.05c0,.15-.1.29-.24.22a.38.38,0,0,1-.16-.26c0-.14.08-.29.22-.28S63.75,50.87,63.75,51.05Z"/><path class="a1c583cf-907a-4f2e-bf3b-87abc9c8b48e" d="M47.84,37.33c-.13,0-.21-.1-.19-.24a.25.25,0,0,1,.14-.17c.11,0,.16.1.14.23S47.86,37.28,47.84,37.33Z"/><path class="a1c583cf-907a-4f2e-bf3b-87abc9c8b48e" d="M28.52,52a.35.35,0,0,1-.18-.34c0-.15.09-.21.18-.22s.23.07.22.26A.31.31,0,0,1,28.52,52Z"/><path class="a1c583cf-907a-4f2e-bf3b-87abc9c8b48e" d="M31.71,22.32c0,.17-.08.31-.22.25a.34.34,0,0,1-.17-.23c0-.16.05-.3.18-.31S31.68,22.16,31.71,22.32Z"/><path class="a1c583cf-907a-4f2e-bf3b-87abc9c8b48e" d="M33.43,8.08c0,.17-.12.25-.25.23S33,8.17,33,8.05s.06-.31.2-.29S33.41,7.92,33.43,8.08Z"/><path class="a1c583cf-907a-4f2e-bf3b-87abc9c8b48e" d="M58.67,59.05c.23-.18.38-.27.56-.1C59.09,59.24,58.93,59.2,58.67,59.05Z"/><path class="a1c583cf-907a-4f2e-bf3b-87abc9c8b48e" d="M82.14,17.69c-.06.22-.17.24-.28.18a.23.23,0,0,1-.12-.28c0-.15.11-.28.25-.23S82.12,17.57,82.14,17.69Z"/><path class="a1c583cf-907a-4f2e-bf3b-87abc9c8b48e" d="M32.65,27.82c0,.22-.15.23-.27.22s-.16-.1-.14-.24.14-.17.25-.18S32.63,27.73,32.65,27.82Z"/><path class="a1c583cf-907a-4f2e-bf3b-87abc9c8b48e" d="M55.36,6.23c0-.15.06-.25.15-.26s.14.19.14.31,0,.29-.14.22A.26.26,0,0,1,55.36,6.23Z"/><path class="a1c583cf-907a-4f2e-bf3b-87abc9c8b48e" d="M79.27,57.29c-.07.07-.12.15-.16.15s-.09-.08-.14-.12.07-.14.12-.15S79.19,57.23,79.27,57.29Z"/><path class="a1c583cf-907a-4f2e-bf3b-87abc9c8b48e" d="M84,50.73c.12,0,.25-.18.32.07a.24.24,0,0,1-.08.2c-.18.1-.21-.09-.24-.27Z"/><path class="a1c583cf-907a-4f2e-bf3b-87abc9c8b48e" d="M48,35.81c-.08,0-.16.06-.2,0a.3.3,0,0,1-.07-.21c0-.13.1-.22.19-.09A1,1,0,0,1,48,35.81Z"/><path class="a1c583cf-907a-4f2e-bf3b-87abc9c8b48e" d="M25.91,55c0,.05-.06.18-.12.23s-.11-.07-.1-.14a.63.63,0,0,1,.11-.29C25.85,54.73,25.91,54.8,25.91,55Z"/><path class="a1c583cf-907a-4f2e-bf3b-87abc9c8b48e" d="M81,53.54c.11,0,.24-.18.3,0s-.12.26-.21.28c-.25,0-.1-.18-.09-.3Z"/><path class="a1c583cf-907a-4f2e-bf3b-87abc9c8b48e" d="M86.22,40.65l-.1.16a.54.54,0,0,1-.1-.16.18.18,0,0,1,.06-.14C86.15,40.47,86.2,40.52,86.22,40.65Z"/><path class="a1c583cf-907a-4f2e-bf3b-87abc9c8b48e" d="M53.33,42.15l.1.21s-.08.08-.12.08-.14-.07-.11-.19S53.27,42.2,53.33,42.15Z"/><path class="a1c583cf-907a-4f2e-bf3b-87abc9c8b48e" d="M76.87,35.39c.06.1.13.17.12.23s-.08.11-.12.17-.12-.11-.12-.18S76.82,35.49,76.87,35.39Z"/><path class="a1c583cf-907a-4f2e-bf3b-87abc9c8b48e" d="M42.68,11.21c-.11.08-.12,0-.12-.12s.15-.19.24-.24.15.08.12.12A1.09,1.09,0,0,1,42.68,11.21Z"/><path class="a1c583cf-907a-4f2e-bf3b-87abc9c8b48e" d="M85.09,59.43c0,.09.12.16.12.22s-.08.12-.12.18-.12-.12-.12-.18S85,59.52,85.09,59.43Z"/><path class="a1c583cf-907a-4f2e-bf3b-87abc9c8b48e" d="M82.27,46.71c-.13-.1-.29-.07-.26-.29s.15-.32.29-.32.2.12.2.3S82.35,46.64,82.27,46.71Z"/><path class="a1c583cf-907a-4f2e-bf3b-87abc9c8b48e" d="M81.41,47.76c0,.17-.06.3-.18.32S81,48,81,47.82a.25.25,0,0,1,.19-.3C81.32,47.5,81.39,47.59,81.41,47.76Z"/><path class="a1c583cf-907a-4f2e-bf3b-87abc9c8b48e" d="M39.54,46.94l-.33-.9C39.9,45.86,39.79,46.28,39.54,46.94Z"/><path class="a1c583cf-907a-4f2e-bf3b-87abc9c8b48e" d="M39.46,42.5l-.27-.06c0-.2,0-.53.21-.47S39.42,42.32,39.46,42.5Z"/><path class="a1c583cf-907a-4f2e-bf3b-87abc9c8b48e" d="M39,47.22,38.9,47c.07-.15.14-.42.29-.23S39.05,47.05,39,47.22Z"/><path class="a1c583cf-907a-4f2e-bf3b-87abc9c8b48e" d="M28.47,16.75c-.14,0-.29.27-.39-.06a.54.54,0,0,1,0-.31c.23-.1.31.11.35.37Z"/><path class="a1c583cf-907a-4f2e-bf3b-87abc9c8b48e" d="M28.47,16.75c.14-.11.2-.45.56-.23-.21.19-.23.65-.56.23Z"/><path class="a1c583cf-907a-4f2e-bf3b-87abc9c8b48e" d="M84.72,5.35c-.14-.1-.28-.18-.43-.07-.13-.22,0-.35.12-.39S84.65,5.15,84.72,5.35Z"/></g><circle class="a0cf624c-3d85-421b-9cb2-b40e33445c00" cx="51.06" cy="40.92" r="21.64"/><path class="ac3718ca-8344-4a4d-9d9b-797b6a9dd00e" d="M32.65,13.48c-.31.06-.35.08-.35.44v.41a3.84,3.84,0,0,0,0,.52A8,8,0,0,1,31,15a1.8,1.8,0,0,1-2-1.82c0-1.2,1-1.81,2.14-1.81a10.38,10.38,0,0,1,1.1.12c0,.24.05.65.09.94l-.21,0a1,1,0,0,0-.67-.8,1.7,1.7,0,0,0-.46-.06c-.65,0-1.15.56-1.15,1.48s.34,1.68,1.23,1.68a.72.72,0,0,0,.35-.08q.12-.06.12-.3V14c0-.37-.08-.41-.53-.47v-.19h1.62Z"/><path class="ac3718ca-8344-4a4d-9d9b-797b6a9dd00e" d="M34.9,15v-.2c.34-.05.34-.11.27-.34S35,14,35,13.8H33.89c-.06.17-.14.37-.19.53-.11.34,0,.38.44.42V15H32.81v-.2c.34,0,.42-.09.61-.54l1.12-2.76.26,0c.35.93.72,1.88,1.07,2.77.2.5.25.54.6.58V15Zm-.47-2.56c-.16.39-.31.75-.45,1.14h.86Z"/><path class="ac3718ca-8344-4a4d-9d9b-797b6a9dd00e" d="M39.53,14c0,.23-.19.79-.24.94H36.6v-.2c.48,0,.52-.07.52-.52v-2c0-.45,0-.49-.46-.53v-.19h1.69v.19c-.42,0-.47.08-.47.53v2.07c0,.29,0,.43.31.43h.28A.56.56,0,0,0,39,14.5a2.49,2.49,0,0,0,.34-.56Z"/><path class="ac3718ca-8344-4a4d-9d9b-797b6a9dd00e" d="M41.83,15v-.2c.34-.05.34-.11.27-.34s-.14-.4-.22-.61H40.82l-.19.53c-.11.34,0,.38.44.42V15H39.74v-.2c.34,0,.43-.09.61-.54l1.13-2.76.26,0c.34.93.71,1.88,1.06,2.77.2.5.25.54.6.58V15Zm-.47-2.56c-.16.39-.31.75-.45,1.14h.86Z"/><path class="ac3718ca-8344-4a4d-9d9b-797b6a9dd00e" d="M46.92,14a7.6,7.6,0,0,1-.31.86,4.76,4.76,0,0,1-1,.14,1.82,1.82,0,0,1-2.06-1.78,1.9,1.9,0,0,1,2.15-1.85,5.56,5.56,0,0,1,1,.13c0,.25.06.65.1.88l-.22,0a.9.9,0,0,0-.56-.73,1.49,1.49,0,0,0-.47-.07c-.79,0-1.18.64-1.18,1.48s.51,1.64,1.25,1.64c.45,0,.76-.23,1.05-.82Z"/><path class="ac3718ca-8344-4a4d-9d9b-797b6a9dd00e" d="M50.37,12.4a1.62,1.62,0,0,0-.23-.52c-.1-.11-.14-.16-.46-.16h-.35v2.51c0,.45.06.48.54.52V15h-1.8v-.2c.46,0,.51-.07.51-.52V11.72h-.33c-.3,0-.39,0-.49.18a1.76,1.76,0,0,0-.23.51h-.2c0-.39.07-.81.08-1.07h.17c.08.13.14.14.31.14h2.16a.39.39,0,0,0,.32-.14h.15c0,.23,0,.7.06,1Z"/><path class="ac3718ca-8344-4a4d-9d9b-797b6a9dd00e" d="M51,15v-.2c.41,0,.46-.07.46-.52v-2c0-.45,0-.49-.46-.53v-.19h1.68v.19c-.41,0-.46.08-.46.53v2c0,.45,0,.48.46.52V15Z"/><path class="ac3718ca-8344-4a4d-9d9b-797b6a9dd00e" d="M56.45,14a6.1,6.1,0,0,1-.3.86,4.77,4.77,0,0,1-1,.14,1.82,1.82,0,0,1-2-1.78,1.9,1.9,0,0,1,2.15-1.85,5.56,5.56,0,0,1,1,.13c0,.25.06.65.1.88l-.22,0a.9.9,0,0,0-.56-.73,1.49,1.49,0,0,0-.47-.07c-.79,0-1.18.64-1.18,1.48s.51,1.64,1.25,1.64c.45,0,.76-.23,1-.82Z"/><path class="ac3718ca-8344-4a4d-9d9b-797b6a9dd00e" d="M58.81,11.4a1.75,1.75,0,0,1,1.82,1.77,1.86,1.86,0,1,1-1.82-1.77Zm-.09.24c-.55,0-.95.53-.95,1.48s.36,1.67,1.09,1.67c.52,0,.92-.49.92-1.47S59.35,11.64,58.72,11.64Z"/><path class="ac3718ca-8344-4a4d-9d9b-797b6a9dd00e" d="M63.15,12.36c-.11-.34-.26-.73-.76-.73a.5.5,0,0,0-.52.51c0,.3.2.47.68.71s1,.56,1,1.09A1.16,1.16,0,0,1,62.19,15a3.07,3.07,0,0,1-.91-.17c0-.12-.12-.68-.16-.93l.21,0c.11.33.41.91.94.91a.49.49,0,0,0,.53-.54c0-.31-.19-.49-.65-.73s-.93-.57-.93-1.12.45-1,1.26-1a3.66,3.66,0,0,1,.77.1c0,.2.06.47.11.81Z"/><path class="ac3718ca-8344-4a4d-9d9b-797b6a9dd00e" d="M67.73,12.36a1.46,1.46,0,0,0-.24-.5c-.11-.12-.18-.14-.44-.14h-.41c-.18,0-.21,0-.21.19v1.17H67c.32,0,.37-.08.45-.46h.2v1.19h-.21c-.06-.36-.14-.45-.44-.45h-.58v.83c0,.49,0,.53.52.56V15H65.22v-.2c.41,0,.46-.07.46-.56v-2c0-.47-.05-.51-.46-.55v-.19h2.66c0,.09,0,.55.06.86Z"/><path class="ac3718ca-8344-4a4d-9d9b-797b6a9dd00e" d="M68.48,15a.45.45,0,1,1,.45-.45A.43.43,0,0,1,68.48,15Z"/><path class="ac3718ca-8344-4a4d-9d9b-797b6a9dd00e" d="M72.62,14c-.08.27-.22.67-.3.86a4.88,4.88,0,0,1-1,.14,1.82,1.82,0,0,1-2.06-1.78,1.91,1.91,0,0,1,2.16-1.85,5.29,5.29,0,0,1,1,.13c0,.25.07.65.1.88l-.21,0a.93.93,0,0,0-.57-.73,1.45,1.45,0,0,0-.47-.07c-.78,0-1.18.64-1.18,1.48s.51,1.64,1.25,1.64c.46,0,.76-.23,1-.82Z"/><path class="ac3718ca-8344-4a4d-9d9b-797b6a9dd00e" d="M73.53,15a.45.45,0,1,1,.44-.45A.43.43,0,0,1,73.53,15Z"/><path class="ac3718ca-8344-4a4d-9d9b-797b6a9dd00e" d="M46.79,68.08c-.11.29-.26.62-.35.85H43.2v-.15c.47-.35,1-.72,1.41-1.09s1.06-1,1.06-1.53-.38-.84-1-.84a1.55,1.55,0,0,0-1.18.6l-.2-.14.49-.51A1.81,1.81,0,0,1,45,64.88c.82,0,1.46.42,1.46,1.11s-.27.92-1.08,1.54c-.37.29-.92.67-1.29.94h1.65a.82.82,0,0,0,.88-.44Z"/><path class="ac3718ca-8344-4a4d-9d9b-797b6a9dd00e" d="M49.19,64.88A1.83,1.83,0,0,1,51,66.94,1.86,1.86,0,0,1,49.19,69,1.82,1.82,0,0,1,47.39,67,1.87,1.87,0,0,1,49.19,64.88Zm0,.22c-.8,0-1,.94-1,1.84s.25,1.85,1,1.85,1-1,1-1.85S50,65.1,49.19,65.1Z"/><path class="ac3718ca-8344-4a4d-9d9b-797b6a9dd00e" d="M53.37,64.88a1.82,1.82,0,0,1,1.77,2.06A1.86,1.86,0,0,1,53.37,69,1.81,1.81,0,0,1,51.57,67,1.87,1.87,0,0,1,53.37,64.88Zm0,.22c-.8,0-1,.94-1,1.84s.24,1.85,1,1.85,1-1,1-1.85S54.14,65.1,53.37,65.1Z"/><path class="ac3718ca-8344-4a4d-9d9b-797b6a9dd00e" d="M58.58,67.77v.49c0,.42,0,.45.64.49v.18h-2v-.18c.65,0,.69-.08.69-.5v-.48H55.63v-.19c.81-.86,1.7-1.79,2.56-2.68h.39v2.57h.84v.3Zm-.68-2.2c-.54.59-1.15,1.24-1.74,1.9H57.9Z"/><path class="ac3718ca-8344-4a4d-9d9b-797b6a9dd00e" d="M25.3,38.81l.06,3.08s-6.22,3.43-5.1,7.35,9,3.79,9,3.79a101.41,101.41,0,0,0,10.77-.92s18.69-4.3,25.49-7.58c0,0,11.69-5.65,14.76-10s1.42-6.51-3.06-7.69l1.18-4.1s13.44-2.1,18.48-1.06,7,2.21,4.29,6.93c0,0-3.19,3.89-10.78,8S80.05,42,80.05,42L65.31,48.27S40.75,56.62,26.19,58.88-1,61.61.07,55.8,25.3,38.81,25.3,38.81Z"/><path class="ac3718ca-8344-4a4d-9d9b-797b6a9dd00e" d="M25.64,38.84,19.33,42,13.65,56.5l-1.82,1.58L.4,57.09s-.1,3.56,10.89,3.37l5.3-.3,6.7-8.24s-8-3.08,2.41-10Z"/><polygon class="ac3718ca-8344-4a4d-9d9b-797b6a9dd00e" points="36.86 56.77 46.38 50.86 50.82 49.8 48.87 53.54 36.86 56.77"/><path class="ac3718ca-8344-4a4d-9d9b-797b6a9dd00e" d="M73.72,40.21l3.17,3.33,7.79-3.88-5.56-3.41S78.41,37.5,73.72,40.21Z"/><path class="ac3718ca-8344-4a4d-9d9b-797b6a9dd00e" d="M81.22,33.68l6.51,4.59s7.64-4.16,9.94-6.11l-8.8-4.58,13.71-3.37s-1.22-2.94-11.23-2.79L78.78,22.73,77.6,26.84S84.79,28.2,81.22,33.68Z"/><circle class="ac3718ca-8344-4a4d-9d9b-797b6a9dd00e" cx="89.26" cy="27.76" r="1.37"/><path class="ac3718ca-8344-4a4d-9d9b-797b6a9dd00e" d="M58.94,49.82c.14.53-.26.77-.79.91s-1,.12-1.14-.41a1,1,0,0,1,.72-1.22A1,1,0,0,1,58.94,49.82Z"/><path class="ac3718ca-8344-4a4d-9d9b-797b6a9dd00e" d="M73.23,41.07c-.2-.33,0-.58.37-.78s.65-.28.85.06a.71.71,0,1,1-1.22.72Z"/><line class="ac3718ca-8344-4a4d-9d9b-797b6a9dd00e" x1="13.65" y1="56.5" x2="19.17" y2="41.49"/><line class="ac3718ca-8344-4a4d-9d9b-797b6a9dd00e" x1="11.83" y1="58.08" x2="0.4" y2="57.09"/><line class="ac3718ca-8344-4a4d-9d9b-797b6a9dd00e" x1="12.35" y1="56.8" x2="7.12" y2="49.07"/><line class="ac3718ca-8344-4a4d-9d9b-797b6a9dd00e" x1="8.92" y1="47.19" x2="33.75" y2="57.58"/><line class="ac3718ca-8344-4a4d-9d9b-797b6a9dd00e" x1="2.71" y1="52.52" x2="6.73" y2="60.28"/><line class="ac3718ca-8344-4a4d-9d9b-797b6a9dd00e" x1="12.71" y1="59.07" x2="11.79" y2="60.43"/><line class="ac3718ca-8344-4a4d-9d9b-797b6a9dd00e" x1="12" y1="58.51" x2="3.34" y2="59.59"/><line class="ac3718ca-8344-4a4d-9d9b-797b6a9dd00e" x1="14.15" y1="56.84" x2="22.58" y2="51.58"/><line class="ac3718ca-8344-4a4d-9d9b-797b6a9dd00e" x1="13.84" y1="59.05" x2="14.34" y2="60.29"/><circle class="ac3718ca-8344-4a4d-9d9b-797b6a9dd00e" cx="13.16" cy="57.78" r="1.37"/><line class="ac3718ca-8344-4a4d-9d9b-797b6a9dd00e" x1="14.52" y1="57.78" x2="24.97" y2="59.14"/><line class="ac3718ca-8344-4a4d-9d9b-797b6a9dd00e" x1="29.97" y1="58.3" x2="31.61" y2="52.97"/><line class="ac3718ca-8344-4a4d-9d9b-797b6a9dd00e" x1="14.34" y1="58.46" x2="18.21" y2="60"/><path class="ac3718ca-8344-4a4d-9d9b-797b6a9dd00e" d="M33.91,52.83S39.83,52.6,41,52l-3.53,4.59-2.6.64Z"/><line class="ac3718ca-8344-4a4d-9d9b-797b6a9dd00e" x1="36.28" y1="52.7" x2="36.06" y2="56.95"/><line class="ac3718ca-8344-4a4d-9d9b-797b6a9dd00e" x1="51.38" y1="49.65" x2="52.05" y2="52.61"/><line class="ac3718ca-8344-4a4d-9d9b-797b6a9dd00e" x1="61.42" y1="46.63" x2="65.66" y2="48.3"/><line class="ac3718ca-8344-4a4d-9d9b-797b6a9dd00e" x1="81.61" y1="33.01" x2="90.77" y2="36.63"/><line class="ac3718ca-8344-4a4d-9d9b-797b6a9dd00e" x1="62.27" y1="49.42" x2="72.52" y2="40.94"/><line class="ac3718ca-8344-4a4d-9d9b-797b6a9dd00e" x1="82.73" y1="22.48" x2="89.94" y2="37.03"/><line class="ac3718ca-8344-4a4d-9d9b-797b6a9dd00e" x1="82.16" y1="30.3" x2="88.32" y2="28.75"/><line class="ac3718ca-8344-4a4d-9d9b-797b6a9dd00e" x1="81.78" y1="29.13" x2="87.9" y2="28.17"/><line class="ac3718ca-8344-4a4d-9d9b-797b6a9dd00e" x1="92.08" y1="21.5" x2="100.71" y2="29.52"/><line class="ac3718ca-8344-4a4d-9d9b-797b6a9dd00e" x1="90.63" y1="27.76" x2="101.54" y2="28.63"/></g></g></svg>