<svg xmlns="http://www.w3.org/2000/svg" xmlns:xlink="http://www.w3.org/1999/xlink" viewBox="0 0 218.97 90.02"><defs><style>.cls-1-ht,.cls-5-ht{fill:#006fb8;}.cls-2-ht,.cls-5-ht{fill-rule:evenodd;}.cls-2-ht{fill:url(#GradientFill_145);}.cls-3-ht{fill:url(#GradientFill_92);}.cls-4-ht{fill:#48ab33;}.cls-6-ht{fill:url(#GradientFill_92-2);}.cls-7-ht{fill:#f09c22;}</style><linearGradient id="GradientFill_145" x1="7746.51" y1="25.53" x2="7746.51" y2="2.83" gradientTransform="matrix(-1, 0, 0, 1, 7889.61, 0)" gradientUnits="userSpaceOnUse"><stop offset="0" stop-color="#c7c5c5"/><stop offset="0.06" stop-color="#ddd"/><stop offset="0.17" stop-color="#f4f3f2"/><stop offset="0.23" stop-color="#c7c5c5"/><stop offset="0.38" stop-color="#c7c5c5"/><stop offset="0.63" stop-color="#ddd"/><stop offset="0.66" stop-color="#fff"/><stop offset="0.77" stop-color="#f4f3f2"/><stop offset="0.9" stop-color="#ddd"/><stop offset="1" stop-color="#c7c5c5"/></linearGradient><linearGradient id="GradientFill_92" x1="7703.16" y1="26.56" x2="7703.16" y2="29.23" gradientTransform="matrix(-1, 0, 0, 1, 7889.61, 0)" gradientUnits="userSpaceOnUse"><stop offset="0" stop-color="#fff"/><stop offset="0.18" stop-color="#c7c5c6"/><stop offset="0.2" stop-color="#fff"/><stop offset="0.36" stop-color="#f4f3f5"/><stop offset="0.55" stop-color="#f4f3f5"/><stop offset="0.59" stop-color="#908f92"/><stop offset="0.85" stop-color="#5a5d5c"/><stop offset="0.91" stop-color="#70849e"/><stop offset="1" stop-color="#e1e7ee"/></linearGradient><linearGradient id="GradientFill_92-2" x1="186.45" y1="29.21" x2="186.45" y2="29.21" gradientTransform="matrix(1, 0, 0, 1, 0, 0)" xlink:href="#GradientFill_92"/></defs><g id="Capa_2" data-name="Capa 2"><g id="Capa_1-2" data-name="Capa 1"><path class="cls-1-ht" d="M74.14,35.75l0-.19a8.07,8.07,0,0,1,3-5.1l1.89-1.17H65.82V18.1l-4.34-3V30.39h-.41V6.52l-.29,0s-1.8-.1-4.26-.1C50.36,6.4,42.67,7,41,9.75a5.25,5.25,0,0,0-.48,1.13V3.82L42.76,1.9,41.88,0,38.36,3.1v7.3H30.92L30,11H22.27l-2.6,10L1.91,22.69l-.63,4.6L0,27.93v8.78l5.57.51v-.34a7.77,7.77,0,0,1,15.53,0,6.36,6.36,0,0,1-.06.87L21,38.1l16.49.22,3.06-4h8V39.7h6.55v.23h2.25V39.7H66v.23h2.26V39.7h4.14v-4Zm-1.75-.54V30.39H68.25v-.5l8.74,0-.15.1a8.68,8.68,0,0,0-3.23,5.24Zm-4.14.16V31h3.53v8.08H68.25ZM37.18,37.71l-15.5-.22c0-.2,0-.41,0-.61A8.38,8.38,0,0,0,5,36.55l-4.35-.4V28.31l1.24-.61v-.1c1.05.07,2.09.1,3.14.15l3.17.08c2.11.06,4.22.07,6.34.08a8,8,0,0,1,5.54,2.21,8.32,8.32,0,0,1,2.52,5.53,7.87,7.87,0,0,0-.47-3.14,8.11,8.11,0,0,0-7.59-5.22c-2.12,0-4.23,0-6.34.07L5,27.45c-1,.05-2.09.08-3.14.15l.59-4.34,17.71-1.63,2.58-10h7.4l1-.61h7.26V32.23h.08l1.42,2ZM41.76,27l-.09,6.68-.85,0-.55,0L39,31.93V3.38L41.67,1l.33.72L39.89,3.54v8.09h.64v2.18h1.23ZM55.08,39.09H49.15V34.33h5.93Zm1.94,0v.53H55.39V34.36H57Zm-7.87-5.38H42.28L42.37,27V13.2H41.14V11h0a4.5,4.5,0,0,1,.41-.95C42.71,8.1,48,7,56.52,7c1.86,0,3.34.05,3.94.08V33.71Zm16.84,1v4.37H57.33V34.33h3.74V31H66Zm.31,4.37V30.27h1.64v9.35H66.3ZM66,29.9v.49h-3.9V16.31l3.12,2.11V29.9Z"/><path class="cls-1-ht" d="M44.64,16.84H58.93V12.09H44.64Z"/><path class="cls-1-ht" d="M27.3,21.85l.47-1.49h4.87c0,1.93-.08,3.85-.09,5.77s0,3.84,0,5.76c-2.31,0-4.63,0-6.95,0-.65-1.5-1.32-3-2-4.49,0-1.72-.06-3.44-.1-5.16,0,1.73-.08,3.45-.09,5.18v0c.65,1.54,1.29,3.09,1.95,4.63l0,.08h.09c2.39,0,4.79,0,7.18,0h.14V32c0-2,0-3.93,0-5.9s-.06-3.84-.09-5.77h.45V13.25h-9L22.6,19l.69,2.83Z"/><path class="cls-1-ht" d="M33.76,20.36h3.85V13.25H33.76Z"/><rect class="cls-1-ht" x="148.03" y="27.51" width="4.07" height="0.74"/><rect class="cls-1-ht" x="114.84" y="27.51" width="4.07" height="0.74"/><rect class="cls-1-ht" x="81.65" y="27.51" width="4.07" height="0.74"/><rect class="cls-1-ht" x="211.95" y="27.51" width="4.07" height="0.74"/><rect class="cls-1-ht" x="182.79" y="27.51" width="4.07" height="0.74"/><path class="cls-1-ht" d="M216.46,3.36c-1-1.39-2-1.36-3.41-1.33h-.57V.13H73.11V2.05h-.49c-1.58,0-2.08.14-2.93,1.48-3.19,5-3.33,15.19-.29,21,.91,1.76,1.38,2,3.61,2H213.48c1.29,0,2.15,0,3-1.33C219.81,20.32,219.79,8.24,216.46,3.36ZM73.7.73H211.88V2.05H73.7Z"/><path class="cls-2-ht" d="M212.31,2.64H72.62c-1.47,0-1.72.1-2.43,1.21C67.1,8.67,67,18.7,69.93,24.31,70.74,25.87,71,26,73,26H213.22c1.41,0,2,0,2.78-1.06,3.2-4.78,3.2-16.51,0-21.25C215.07,2.38,214.08,2.64,212.31,2.64Z"/><rect class="cls-3-ht" x="154.61" y="26.58" width="63.68" height="2.61"/><path class="cls-4-ht" d="M145.46,13l.62-.23a4,4,0,0,0-3.64-1.61,4,4,0,0,0-3.53,3.25,5.52,5.52,0,0,1,2.72-.43,19,19,0,0,1,2.14.68s3.08.82,4.24,0c0,0-1.16,1.66-4.4.85,0,0-1.06-.24-2-.52a5.25,5.25,0,0,0-3.9.34s-.35-4.3,4.57-5.32a5.29,5.29,0,0,1,5,2.33l.61-.22-.39,2.54Z"/><path class="cls-1-ht" d="M137.68,15.59a5,5,0,0,1,4.06-.23,11.63,11.63,0,0,0,3.84.69s1.85-.1,2.53-1.17A5.21,5.21,0,0,1,146,19.33,5.26,5.26,0,0,1,141,20a5.18,5.18,0,0,1-2.39-1.79l-.64.24.25-2.59,2.14,1.56-.64.31a4.3,4.3,0,0,0,4.63,1.16,3.8,3.8,0,0,0,2.3-2.44,4.52,4.52,0,0,1-4.6-.1A6.59,6.59,0,0,0,137.68,15.59Z"/><path class="cls-1-ht" d="M42.07,38.32h5.76V34.64H42.07Zm.61-3.07h4.54v2.46H42.68Z"/><path class="cls-1-ht" d="M86.36,30.61a7.69,7.69,0,0,1,3,5l0,.26H91l0-.26a7.77,7.77,0,0,1,3-4.94l2.17-1.33H84.3ZM94,29.9l-.35.22a8.28,8.28,0,0,0-3.21,5.08H90a8.34,8.34,0,0,0-3.24-5.1l-.31-.2Z"/><path class="cls-1-ht" d="M61.32,2.73h-7.5L51.14,4.07v2H61.32ZM60.7,5.49h-9v-1L54,3.34H60.7Z"/><path class="cls-1-ht" d="M31.43,28.61H28.9v.7h2.53Zm-.16.55H29.06v-.4h2.21Z"/><path class="cls-1-ht" d="M23.17,36.85H35l2.22-3H23.17Zm.61-2.34H36l-1.29,1.72H23.78Z"/><path class="cls-1-ht" d="M218.88,29.21H204.57l2.15,1.49a7.7,7.7,0,0,1,3,4.95l0,.26h.31l.85,4.91h.86l-.7-4.9.56,0,0-.31a8.29,8.29,0,0,0-1.17-3.82h7.41Zm-9.86,2,.59.54c1,.91,1.31,2.83,1.39,3.59h-.38l-.32,0a8.28,8.28,0,0,0-3.22-5.09l-.55-.39H218l-.54,1.37Z"/><path class="cls-1-ht" d="M189.89,30.53a7.72,7.72,0,0,1,3,4.95l0,.26h1.55l0-.26a7.7,7.7,0,0,1,3-4.93l2.17-1.34H187.83Zm7.66-.7-.34.21A8.31,8.31,0,0,0,194,35.12h-.53A8.3,8.3,0,0,0,190.24,30l-.31-.2Z"/><path class="cls-1-ht" d="M173.06,30.53a7.72,7.72,0,0,1,3,4.95l0,.26h1.55l0-.26a7.7,7.7,0,0,1,3-4.93l2.17-1.34H171Zm7.66-.7-.34.21a8.31,8.31,0,0,0-3.21,5.08h-.53A8.3,8.3,0,0,0,173.41,30l-.32-.2Z"/><path class="cls-1-ht" d="M101,29.21l2.15,1.49a7.74,7.74,0,0,1,3,4.95l0,.25h.32l.83,4.91h.87l-.7-4.89.56,0,0-.32A8.31,8.31,0,0,0,107,31.8h52.88a8.31,8.31,0,0,0-1.16,3.79v.32l.56,0-.71,4.89h.87l.84-4.91h.31l0-.25a7.74,7.74,0,0,1,3-4.95l2.16-1.49Zm62.19,1A8.42,8.42,0,0,0,160,35.3l-.31,0-.39,0a6.23,6.23,0,0,1,1.39-3.59l.59-.53H105.5l.59.53a6.28,6.28,0,0,1,1.38,3.59l-.38,0-.32,0a8.33,8.33,0,0,0-3.22-5.1l-.55-.38h60.78Z"/><polygon class="cls-5-ht" points="218.88 26 154.01 26 154.01 29.21 154.61 29.21 154.61 26.6 218.29 26.6 218.29 29.21 218.88 29.21 218.88 26"/><rect class="cls-6-ht" x="154.61" y="29.21" width="63.68"/><rect class="cls-1-ht" x="67.43" y="15.54" width="69.75" height="1.33"/><rect class="cls-1-ht" x="148.6" y="15.54" width="69.75" height="1.33"/><path class="cls-1-ht" d="M215.14,83.53h1.52l2,6.36h-1.08L217,88.21h-2.3l-.51,1.68h-1Zm1.71,3.9-.5-1.64c-.18-.57-.32-1.05-.47-1.6h0c-.16.55-.3,1-.48,1.62l-.48,1.62Z"/><path class="cls-1-ht" d="M208.08,83.53v3.84c0,1.3.26,1.84,1.36,1.84s1.34-.55,1.34-1.84V83.53h1v3.79c0,1.85-.59,2.7-2.41,2.7s-2.35-.77-2.35-2.62V83.53Z"/><path class="cls-1-ht" d="M205.1,89.67a5.8,5.8,0,0,1-1.93.33c-1.81,0-2.56-.57-2.56-3.26s1-3.31,2.72-3.31a6.51,6.51,0,0,1,1.64.21l-.12.78a6.8,6.8,0,0,0-1.46-.19c-1.18,0-1.74.36-1.74,2.47s.47,2.49,1.53,2.49a2.62,2.62,0,0,0,.93-.15V87H202.9v-.79h2.2Z"/><path class="cls-1-ht" d="M195.81,83.53h1.52l2,6.36h-1.08l-.51-1.68h-2.3l-.51,1.68h-1Zm1.7,3.9L197,85.79c-.18-.57-.32-1.05-.48-1.6h0c-.15.55-.29,1-.47,1.62l-.49,1.62Z"/><path class="cls-1-ht" d="M186,83.53h3.55v.8H187v1.89h2.33V87H187v2.06h2.52v.81H186Z"/><path class="cls-1-ht" d="M179.29,83.53h2c1.92,0,2.65.55,2.65,3.13s-.8,3.23-2.7,3.23h-2Zm2,5.55c1.19,0,1.66-.37,1.66-2.39s-.44-2.36-1.66-2.36h-1v4.75Z"/><path class="cls-1-ht" d="M169.55,83.53h2c1.93,0,2.66.55,2.66,3.13s-.8,3.23-2.7,3.23h-2Zm2,5.55c1.19,0,1.65-.37,1.65-2.39s-.44-2.36-1.65-2.36h-1v4.75Z"/><path class="cls-1-ht" d="M164.36,83.53h1.52l2,6.36h-1.08l-.51-1.68H164l-.51,1.68h-1Zm1.71,3.9-.5-1.64c-.18-.57-.32-1.05-.47-1.6h0c-.16.55-.3,1-.48,1.62l-.48,1.62Z"/><path class="cls-1-ht" d="M156.45,83.53h2c1.92,0,2.65.55,2.65,3.13s-.79,3.23-2.7,3.23h-2Zm2,5.55c1.19,0,1.66-.37,1.66-2.39s-.44-2.36-1.66-2.36h-1v4.75Z"/><path class="cls-1-ht" d="M153.25,83.53h1v6.36h-1Z"/><path class="cls-1-ht" d="M148.14,83.53h1v5.53h2.39v.83h-3.42Z"/><path class="cls-1-ht" d="M143,83.53h1.52l2,6.36h-1.08l-.51-1.68h-2.3L142,89.89h-1Zm1.7,3.9-.49-1.64c-.19-.57-.32-1.05-.48-1.6h0c-.15.55-.29,1-.47,1.62l-.49,1.62Z"/><path class="cls-1-ht" d="M139.56,89.78a6.17,6.17,0,0,1-1.5.21c-1.7,0-2.48-.57-2.48-3.26s.92-3.3,2.56-3.3a5.41,5.41,0,0,1,1.42.19l-.13.79a4.56,4.56,0,0,0-1.22-.18c-1.08,0-1.59.35-1.59,2.46s.48,2.49,1.6,2.49a4.35,4.35,0,0,0,1.21-.19Z"/><path class="cls-1-ht" d="M126.69,83.53h1.89c1.66,0,2.25.34,2.25,1.64a1.54,1.54,0,0,1-1.56,1.71l1.75,3h-1.18L128.23,87h-.51v2.87h-1Zm1.86,2.7c1,0,1.25-.32,1.25-1s-.29-.89-1.25-.89h-.83v1.92Z"/><path class="cls-1-ht" d="M122.14,90c-1.65,0-2.48-.57-2.48-3.28s.89-3.34,2.55-3.34,2.49.57,2.49,3.29S123.79,90,122.14,90Zm0-5.82c-1,0-1.48.4-1.48,2.5s.47,2.51,1.48,2.51,1.51-.39,1.51-2.49S123.19,84.2,122.17,84.2Z"/><path class="cls-1-ht" d="M117.71,88.27c0,1.27-.52,1.69-1.58,1.69a4.35,4.35,0,0,1-1-.11l.11-.78a4.54,4.54,0,0,0,.71.08c.52,0,.68-.21.68-.84V83.53h1Z"/><path class="cls-1-ht" d="M110.18,83.53h3.54v.8H111.2v1.89h2.34V87H111.2v2.06h2.52v.81h-3.54Z"/><path class="cls-1-ht" d="M101.44,83.53H103l1,3.54c.2.7.34,1.25.5,2h0c.17-.75.3-1.32.5-2l1-3.53h1.6l.54,6.36h-1.08l-.26-3.74c0-.67-.07-1.25-.09-1.94h0c-.17.68-.33,1.27-.51,2l-1,3.74h-1.35l-1-3.74c-.18-.66-.35-1.28-.51-1.94h0c0,.67,0,1.27-.09,1.94l-.27,3.74h-1Z"/><path class="cls-1-ht" d="M93,83.53h1.52l2,6.36H95.37l-.52-1.68h-2.3L92,89.89H91Zm1.7,3.9-.5-1.64c-.18-.57-.31-1.05-.47-1.6h0c-.16.55-.29,1-.48,1.62l-.48,1.62Z"/><path class="cls-1-ht" d="M86.24,83.53h1v5.53h2.39v.83H86.24Z"/><path class="cls-1-ht" d="M78.6,90c-1.65,0-2.48-.57-2.48-3.28s.9-3.34,2.56-3.34,2.49.57,2.49,3.29S80.26,90,78.6,90Zm0-5.82c-1,0-1.48.4-1.48,2.5s.46,2.51,1.48,2.51,1.5-.39,1.5-2.49S79.66,84.2,78.64,84.2Z"/><path class="cls-1-ht" d="M69.64,83.53h2c1.93,0,2.66.55,2.66,3.13s-.8,3.23-2.7,3.23h-2Zm2,5.55c1.19,0,1.65-.37,1.65-2.39s-.44-2.36-1.65-2.36h-1v4.75Z"/><path class="cls-1-ht" d="M62.58,83.53H63.9l1.9,3.56c.3.57.55,1.07.82,1.7h0c0-.62-.08-1.18-.08-1.69V83.53h.91v6.36H66.12l-1.9-3.56c-.3-.57-.54-1.07-.81-1.7h0c0,.62.08,1.19.08,1.7v3.56h-.89Z"/><path class="cls-1-ht" d="M57.39,83.53h1.52l2,6.36H59.79l-.51-1.68H57l-.51,1.68h-1Zm1.71,3.9-.5-1.64c-.18-.57-.32-1.05-.47-1.6h0c-.16.55-.3,1-.48,1.62l-.49,1.62Z"/><path class="cls-1-ht" d="M52.09,84.36h-1.8v-.83H54.9v.83H53.12v5.53h-1Z"/><path class="cls-1-ht" d="M44.66,83.53h1.89c1.66,0,2.25.34,2.25,1.64a1.54,1.54,0,0,1-1.56,1.71l1.75,3H47.81L46.2,87h-.51v2.87h-1Zm1.86,2.7c1,0,1.25-.32,1.25-1s-.29-.89-1.25-.89h-.83v1.92Z"/><path class="cls-1-ht" d="M40.11,90c-1.65,0-2.48-.57-2.48-3.28s.9-3.34,2.55-3.34,2.49.57,2.49,3.29S41.77,90,40.11,90Zm0-5.82c-1,0-1.49.4-1.49,2.5s.47,2.51,1.49,2.51,1.5-.39,1.5-2.49S41.16,84.2,40.15,84.2Z"/><path class="cls-1-ht" d="M32,83.53h1.82c1.54,0,2.17.32,2.17,1.77s-.67,2-2.27,2H33v2.6H32Zm1.76,3c.84,0,1.21-.34,1.21-1.15s-.32-1-1.18-1H33V86.5Z"/><path class="cls-1-ht" d="M26.34,89a6,6,0,0,0,1.54.21c.91,0,1.32-.35,1.32-.92S29,87.57,27.8,87s-1.63-1-1.63-1.91.68-1.67,2.25-1.67a4.84,4.84,0,0,1,1.41.2l-.1.77a4.9,4.9,0,0,0-1.33-.19c-.89,0-1.27.32-1.27.81s.26.69,1.36,1.23c1.31.66,1.68,1,1.68,1.94,0,1.12-.73,1.82-2.3,1.82a5.84,5.84,0,0,1-1.63-.23Z"/><path class="cls-1-ht" d="M19.43,83.53h1.31l1.91,3.56c.3.57.55,1.07.82,1.7h0c-.05-.62-.08-1.18-.08-1.69V83.53h.91v6.36H23l-1.91-3.56c-.29-.57-.54-1.07-.8-1.7h0c.05.62.08,1.19.08,1.7v3.56h-.89Z"/><path class="cls-1-ht" d="M14.24,83.53h1.52l2,6.36H16.64l-.51-1.68h-2.3l-.51,1.68h-1Zm1.7,3.9-.49-1.64c-.18-.57-.32-1.05-.48-1.6h0c-.15.55-.29,1-.47,1.62L14,87.43Z"/><path class="cls-1-ht" d="M6.53,83.53H8.41c1.67,0,2.25.34,2.25,1.64a1.53,1.53,0,0,1-1.55,1.71l1.75,3H9.68L8.06,87H7.55v2.87h-1Zm1.85,2.7c1,0,1.26-.32,1.26-1s-.29-.89-1.26-.89H7.55v1.92Z"/><path class="cls-1-ht" d="M2,84.36H.23v-.83H4.84v.83H3.06v5.53H2Z"/><path class="cls-1-ht" d="M169.79,36a.47.47,0,0,0,.35-.15.5.5,0,0,0,0-.7.47.47,0,0,0-.35-.15.45.45,0,0,0-.35.15.5.5,0,0,0,0,.7A.51.51,0,0,0,169.79,36Z"/><path class="cls-1-ht" d="M167.18,37.63a.49.49,0,0,0-.35.15.48.48,0,0,0,0,.7.45.45,0,0,0,.35.15.49.49,0,0,0,.35-.15.5.5,0,0,0,0-.7A.53.53,0,0,0,167.18,37.63Z"/><path class="cls-1-ht" d="M168.48,34.47a.5.5,0,1,0,.5.5A.49.49,0,0,0,168.48,34.47Z"/><path class="cls-1-ht" d="M168.48,38.18a.5.5,0,1,0,.5.49A.49.49,0,0,0,168.48,38.18Z"/><path class="cls-1-ht" d="M167.18,35a.5.5,0,0,0-.35.85.45.45,0,0,0,.35.15.53.53,0,0,0,.35-.15.5.5,0,0,0,0-.7A.49.49,0,0,0,167.18,35Z"/><path class="cls-1-ht" d="M169.79,37.63a.51.51,0,0,0-.5.5.47.47,0,0,0,.15.35.45.45,0,0,0,.35.15.47.47,0,0,0,.35-.15.51.51,0,0,0,0-.7A.51.51,0,0,0,169.79,37.63Z"/><path class="cls-1-ht" d="M169.83,36.82a.5.5,0,0,0,.5.5.49.49,0,0,0,.49-.5.5.5,0,0,0-.49-.5A.51.51,0,0,0,169.83,36.82Z"/><path class="cls-1-ht" d="M167.13,36.82a.5.5,0,1,0-.49.5A.49.49,0,0,0,167.13,36.82Z"/><path class="cls-1-ht" d="M168.49,30a6.86,6.86,0,1,0,6.83,6.86A6.86,6.86,0,0,0,168.49,30Zm0,9.79a2.93,2.93,0,1,1,2.92-2.93A2.93,2.93,0,0,1,168.49,39.75Z"/><path class="cls-1-ht" d="M186.62,36a.47.47,0,0,0,.35-.15.5.5,0,0,0,0-.7.48.48,0,0,0-.7,0,.5.5,0,0,0,0,.7A.51.51,0,0,0,186.62,36Z"/><path class="cls-1-ht" d="M184,37.63a.51.51,0,0,0-.35.15.5.5,0,1,0,.7.7.5.5,0,0,0,0-.7A.51.51,0,0,0,184,37.63Z"/><path class="cls-1-ht" d="M185.31,34.47a.5.5,0,1,0,.5.5A.49.49,0,0,0,185.31,34.47Z"/><path class="cls-1-ht" d="M185.31,38.18a.5.5,0,1,0,.5.49A.49.49,0,0,0,185.31,38.18Z"/><path class="cls-1-ht" d="M184,35a.5.5,0,0,0-.35.85A.45.45,0,0,0,184,36a.51.51,0,0,0,.35-.15.5.5,0,0,0,0-.7A.47.47,0,0,0,184,35Z"/><path class="cls-1-ht" d="M186.62,37.63a.51.51,0,0,0-.35.15.51.51,0,0,0,0,.7.48.48,0,0,0,.7,0,.5.5,0,0,0-.35-.85Z"/><path class="cls-1-ht" d="M186.67,36.82a.49.49,0,0,0,.49.5.5.5,0,0,0,.5-.5.51.51,0,0,0-.5-.5A.5.5,0,0,0,186.67,36.82Z"/><path class="cls-1-ht" d="M184,36.82a.5.5,0,1,0-.49.5A.49.49,0,0,0,184,36.82Z"/><path class="cls-1-ht" d="M185.32,30a6.86,6.86,0,1,0,6.83,6.86A6.86,6.86,0,0,0,185.32,30Zm0,9.79a2.93,2.93,0,1,1,2.92-2.93A2.93,2.93,0,0,1,185.32,39.75Z"/><path class="cls-1-ht" d="M203.45,36a.47.47,0,0,0,.35-.15.5.5,0,0,0,0-.7.48.48,0,0,0-.7,0,.5.5,0,0,0,0,.7A.51.51,0,0,0,203.45,36Z"/><path class="cls-1-ht" d="M200.84,37.63a.5.5,0,0,0-.35.85.48.48,0,0,0,.7,0,.5.5,0,0,0,0-.7A.51.51,0,0,0,200.84,37.63Z"/><path class="cls-1-ht" d="M202.15,34.47a.5.5,0,1,0,.49.5A.5.5,0,0,0,202.15,34.47Z"/><path class="cls-1-ht" d="M202.15,38.18a.5.5,0,1,0,.49.49A.49.49,0,0,0,202.15,38.18Z"/><path class="cls-1-ht" d="M200.84,35a.47.47,0,0,0-.35.15.48.48,0,0,0,0,.7.47.47,0,0,0,.35.15.51.51,0,0,0,.35-.15.5.5,0,0,0,0-.7A.47.47,0,0,0,200.84,35Z"/><path class="cls-1-ht" d="M203.45,37.63a.53.53,0,0,0-.35.15.51.51,0,0,0,0,.7.48.48,0,0,0,.7,0,.5.5,0,0,0-.35-.85Z"/><path class="cls-1-ht" d="M203.5,36.82a.5.5,0,1,0,1,0,.5.5,0,1,0-1,0Z"/><path class="cls-1-ht" d="M200.79,36.82a.5.5,0,0,0-.49-.5.51.51,0,0,0-.5.5.5.5,0,0,0,.5.5A.49.49,0,0,0,200.79,36.82Z"/><path class="cls-1-ht" d="M202.15,30A6.86,6.86,0,1,0,209,36.82,6.86,6.86,0,0,0,202.15,30Zm0,9.79a2.93,2.93,0,1,1,2.92-2.93A2.93,2.93,0,0,1,202.15,39.75Z"/><path class="cls-1-ht" d="M99.92,36a.45.45,0,0,0,.35-.15.5.5,0,0,0,0-.7.47.47,0,0,0-.35-.15.49.49,0,0,0-.35.15.5.5,0,0,0,0,.7A.53.53,0,0,0,99.92,36Z"/><path class="cls-1-ht" d="M97.31,37.63a.5.5,0,0,0-.35.85.48.48,0,0,0,.7,0,.5.5,0,0,0,0-.7A.51.51,0,0,0,97.31,37.63Z"/><path class="cls-1-ht" d="M98.62,34.47a.5.5,0,1,0,.49.5A.5.5,0,0,0,98.62,34.47Z"/><path class="cls-1-ht" d="M98.62,38.18a.5.5,0,1,0,.49.49A.49.49,0,0,0,98.62,38.18Z"/><path class="cls-1-ht" d="M97.31,35a.47.47,0,0,0-.35.15.48.48,0,0,0,0,.7.47.47,0,0,0,.35.15.51.51,0,0,0,.35-.15.5.5,0,0,0,0-.7A.47.47,0,0,0,97.31,35Z"/><path class="cls-1-ht" d="M99.92,37.63a.53.53,0,0,0-.35.15.51.51,0,0,0,0,.7.49.49,0,0,0,.35.15.45.45,0,0,0,.35-.15.48.48,0,0,0,0-.7A.49.49,0,0,0,99.92,37.63Z"/><path class="cls-1-ht" d="M100,36.82a.5.5,0,1,0,1,0,.5.5,0,1,0-1,0Z"/><path class="cls-1-ht" d="M97.26,36.82a.5.5,0,0,0-.49-.5.51.51,0,0,0-.5.5.5.5,0,0,0,.5.5A.49.49,0,0,0,97.26,36.82Z"/><path class="cls-1-ht" d="M98.62,30a6.86,6.86,0,1,0,6.83,6.86A6.86,6.86,0,0,0,98.62,30Zm0,9.79a2.93,2.93,0,1,1,2.92-2.93A2.93,2.93,0,0,1,98.62,39.75Z"/><path class="cls-1-ht" d="M83.1,36a.49.49,0,0,0,.35-.15.49.49,0,0,0,0-.7.45.45,0,0,0-.35-.15.49.49,0,0,0-.35.15.51.51,0,0,0,.36.85Z"/><path class="cls-1-ht" d="M80.48,37.63a.51.51,0,0,0-.35.15.51.51,0,0,0,0,.7.47.47,0,0,0,.35.15.45.45,0,0,0,.35-.15.48.48,0,0,0,0-.7A.49.49,0,0,0,80.48,37.63Z"/><path class="cls-1-ht" d="M81.79,34.47a.5.5,0,1,0,.49.5A.5.5,0,0,0,81.79,34.47Z"/><path class="cls-1-ht" d="M81.79,38.18a.5.5,0,1,0,.49.49A.49.49,0,0,0,81.79,38.18Z"/><path class="cls-1-ht" d="M80.48,35a.49.49,0,0,0-.35.15.51.51,0,0,0,0,.7.47.47,0,0,0,.35.15.49.49,0,0,0,.35-.15.48.48,0,0,0,0-.7A.45.45,0,0,0,80.48,35Z"/><path class="cls-1-ht" d="M83.1,37.63a.49.49,0,0,0-.35.15.48.48,0,0,0,0,.7.45.45,0,0,0,.34.15.45.45,0,0,0,.35-.15.47.47,0,0,0,.15-.35.5.5,0,0,0-.14-.35A.53.53,0,0,0,83.1,37.63Z"/><path class="cls-1-ht" d="M83.14,36.82a.5.5,0,1,0,1,0,.5.5,0,1,0-1,0Z"/><path class="cls-1-ht" d="M80.44,36.82a.5.5,0,1,0-1,0,.5.5,0,1,0,1,0Z"/><path class="cls-1-ht" d="M81.79,30a6.86,6.86,0,1,0,6.83,6.86A6.85,6.85,0,0,0,81.79,30Zm0,9.79a2.93,2.93,0,1,1,2.92-2.93A2.93,2.93,0,0,1,81.79,39.75Z"/><path class="cls-1-ht" d="M15.15,36.07a.49.49,0,0,0,.35-.15.5.5,0,0,0,0-.7.53.53,0,0,0-.35-.15.45.45,0,0,0-.35.15.48.48,0,0,0,0,.7A.45.45,0,0,0,15.15,36.07Z"/><path class="cls-1-ht" d="M12.54,37.69a.49.49,0,0,0-.35.15.48.48,0,0,0,0,.7.45.45,0,0,0,.35.15.49.49,0,0,0,.35-.15.5.5,0,0,0,0-.7A.53.53,0,0,0,12.54,37.69Z"/><path class="cls-1-ht" d="M13.84,34.53a.49.49,0,0,0-.49.5.5.5,0,0,0,.49.5.51.51,0,0,0,.5-.5A.5.5,0,0,0,13.84,34.53Z"/><path class="cls-1-ht" d="M13.84,38.24a.5.5,0,0,0,0,1,.5.5,0,1,0,0-1Z"/><path class="cls-1-ht" d="M12.54,35.07a.45.45,0,0,0-.35.15.48.48,0,0,0,0,.7.45.45,0,0,0,.35.15.49.49,0,0,0,.35-.15.5.5,0,0,0,0-.7A.49.49,0,0,0,12.54,35.07Z"/><path class="cls-1-ht" d="M15.15,37.69a.49.49,0,0,0-.35.15.48.48,0,0,0,0,.7.45.45,0,0,0,.35.15.49.49,0,0,0,.35-.15.51.51,0,0,0,0-.7A.53.53,0,0,0,15.15,37.69Z"/><path class="cls-1-ht" d="M15.19,36.88a.5.5,0,1,0,.5-.5A.5.5,0,0,0,15.19,36.88Z"/><path class="cls-1-ht" d="M12.49,36.88a.5.5,0,1,0-.49.5A.49.49,0,0,0,12.49,36.88Z"/><path class="cls-1-ht" d="M13.85,30a6.86,6.86,0,1,0,6.83,6.86A6.87,6.87,0,0,0,13.85,30Zm0,9.79a2.93,2.93,0,1,1,2.93-2.93A2.93,2.93,0,0,1,13.84,39.81Z"/><path class="cls-1-ht" d="M186.63,36a.49.49,0,0,0,.35-.15.49.49,0,0,0,0-.7.45.45,0,0,0-.35-.15.49.49,0,0,0-.35.15.5.5,0,0,0,0,.7A.53.53,0,0,0,186.63,36Z"/><path class="cls-1-ht" d="M184,37.63a.51.51,0,0,0-.35.15.51.51,0,0,0,0,.7.47.47,0,0,0,.35.15.45.45,0,0,0,.35-.15.48.48,0,0,0,0-.7A.49.49,0,0,0,184,37.63Z"/><path class="cls-1-ht" d="M185.32,34.47a.5.5,0,1,0,.49.5A.5.5,0,0,0,185.32,34.47Z"/><path class="cls-1-ht" d="M185.32,38.18a.5.5,0,1,0,.49.49A.49.49,0,0,0,185.32,38.18Z"/><path class="cls-1-ht" d="M184,35a.49.49,0,0,0-.35.15.51.51,0,0,0,0,.7A.47.47,0,0,0,184,36a.49.49,0,0,0,.35-.15.48.48,0,0,0,0-.7A.45.45,0,0,0,184,35Z"/><path class="cls-1-ht" d="M186.63,37.63a.53.53,0,0,0-.36.15.51.51,0,0,0,0,.7.49.49,0,0,0,.35.15.45.45,0,0,0,.35-.15.47.47,0,0,0,.15-.35.5.5,0,0,0-.14-.35A.53.53,0,0,0,186.63,37.63Z"/><path class="cls-1-ht" d="M186.67,36.82a.5.5,0,1,0,1,0,.5.5,0,1,0-1,0Z"/><path class="cls-1-ht" d="M184,36.82a.51.51,0,0,0-.5-.5.5.5,0,0,0-.49.5.49.49,0,0,0,.49.5A.5.5,0,0,0,184,36.82Z"/><path class="cls-1-ht" d="M185.32,30a6.86,6.86,0,1,0,6.83,6.86A6.85,6.85,0,0,0,185.32,30Zm0,9.79a2.93,2.93,0,1,1,2.92-2.93A2.93,2.93,0,0,1,185.32,39.75Z"/><path class="cls-7-ht" d="M176.21,57.64l-.35.74A6.3,6.3,0,0,0,172,57.3c-5.08,0-10.66,4.53-10.66,14,0,4.15,2.29,6.13,5.58,6.13A7.71,7.71,0,0,0,172.41,75l0,2.1h6l3.76-19.47Zm-1.33,11.83-.06.16a4.4,4.4,0,0,1-.21.5l-.07.16a4.21,4.21,0,0,1-7.91-2,4.13,4.13,0,0,1,.14-1.07,4.23,4.23,0,0,1,2.74-2.92.13.13,0,0,0,.08,0,2.58,2.58,0,0,0,1.61-1.63c0-.06,0-.12.05-.19a.53.53,0,0,0,.05-.18,2.15,2.15,0,0,0,0-.45,2.46,2.46,0,0,0-.11-.72l.22.11a6.83,6.83,0,0,1,3.43,8.27Z"/><path class="cls-7-ht" d="M204.64,71.6a24.39,24.39,0,0,0,4.61.62c1.71,0,2.13-.19,2.13-.77s-.54-.78-2.13-1.79c-3.06-1.9-3.91-2.94-3.91-5.62,0-4.57,2.79-6.82,9-6.82a20.7,20.7,0,0,1,4.46.54L217.74,63a22,22,0,0,0-3.84-.43c-1.24,0-1.86.16-1.86.74s.78.93,2.17,1.78c3.07,1.86,3.92,2.91,3.92,5.2,0,5.11-3.33,7.29-9.11,7.29a24.85,24.85,0,0,1-5.39-.7Z"/><path class="cls-7-ht" d="M185.78,57.64h6l0,2.21A9,9,0,0,1,198,57.3c3.45,0,5,1.82,5,4.88a12.8,12.8,0,0,1-.24,2.33l-2.44,12.6h-7.25l2.29-11.79a7.76,7.76,0,0,0,.15-1.36c0-.46-.19-.73-.66-.73-.81,0-2.44,1.32-3.6,3.41l-2,10.47H182Z"/><path class="cls-7-ht" d="M150.33,57.64h6l0,2.45C158,58.19,160,57,161.5,57a2.28,2.28,0,0,1,1.16.27l-1.28,6.63a2.84,2.84,0,0,0-1.28-.27c-1.55,0-2.95,1-4.3,3.06l-2,10.43h-7.25Z"/><path class="cls-7-ht" d="M137.35,56.13h-6.63l1.16-6h20.47l-1.16,6h-6.51l-4.07,21h-7.33Z"/><path class="cls-1-ht" d="M121.39,75a7.73,7.73,0,0,1-5.47,2.45c-3.3,0-5.58-2-5.58-6.13,0-9.5,5.58-14,10.66-14a6.32,6.32,0,0,1,3.84,1.08l.35-.74h6L127.4,77.11h-6Zm1.43-11.55a2.48,2.48,0,0,0-1.63-.5c-2,0-3.41,4.38-3.41,7.29,0,1,.35,1.28.81,1.28.82,0,2.14-1.25,3.26-3.22Z"/><path class="cls-1-ht" d="M102.76,57.64H110l-3.76,19.47H99Zm8.69-6c-.54,2.91-1.47,3.73-4.58,3.73-2.36,0-3.29-.51-3.29-2.1a10.15,10.15,0,0,1,.15-1.67c.55-2.9,1.48-3.72,4.58-3.72,2.36,0,3.29.51,3.29,2.13A10,10,0,0,1,111.45,51.67Z"/><path class="cls-1-ht" d="M89.39,75a7.71,7.71,0,0,1-5.47,2.45c-3.29,0-5.58-2-5.58-6.13,0-9.5,5.58-14,10.66-14a6.63,6.63,0,0,1,3.1.65l0,0a19.33,19.33,0,0,1,.35-3.26l1.2-6.17H101L95.4,77.11h-6Zm1.43-11.55A2.45,2.45,0,0,0,89.2,63c-2.06,0-3.42,4.38-3.42,7.29,0,1,.35,1.28.82,1.28.81,0,2.13-1.25,3.26-3.22Z"/><path class="cls-1-ht" d="M74.83,76.57a26.77,26.77,0,0,1-7.37,1c-5.38,0-8-1.67-8-6.71a20.42,20.42,0,0,1,.27-3.22C60.83,60.32,65.29,57.06,71,57.06c4.35,0,7,2.06,7,5.47q0,7.56-11.4,7.56a3.48,3.48,0,0,0,0,.58c0,.89.66,1.28,2.21,1.28a23.83,23.83,0,0,0,6-.77ZM71.42,63.5c0-.58-.39-.93-1.16-.93-1.55,0-2.33,1-2.8,2.95C70,65.55,71.42,64.93,71.42,63.5Z"/><path class="cls-1-ht" d="M48.33,57.64h6l0,2.45c1.63-1.9,3.6-3.1,5.15-3.1a2.3,2.3,0,0,1,1.17.27l-1.28,6.63a2.86,2.86,0,0,0-1.28-.27c-1.55,0-3,1-4.31,3.06l-2,10.43H44.57Z"/><path class="cls-1-ht" d="M41.62,76.57a26.82,26.82,0,0,1-7.37,1c-5.39,0-8-1.67-8-6.71a19.3,19.3,0,0,1,.27-3.22c1.12-7.29,5.58-10.55,11.24-10.55,4.34,0,7,2.06,7,5.47q0,7.56-11.4,7.56a3.48,3.48,0,0,0,0,.58c0,.89.66,1.28,2.21,1.28a23.7,23.7,0,0,0,6-.77ZM38.21,63.5c0-.58-.39-.93-1.17-.93-1.55,0-2.32,1-2.79,2.95C36.81,65.55,38.21,64.93,38.21,63.5Z"/><path class="cls-1-ht" d="M5.33,50.16h7.33l-2,10.32h6.94l2-10.32h7.33l-5.23,27H14.37l2.05-10.63H9.48L7.43,77.11H.1Z"/></g></g></svg>