<svg xmlns="http://www.w3.org/2000/svg" viewBox="0 0 176.3 72.49"><defs><style>.bbb7e384-4c9b-4b6b-82ba-60f0c2866c8f{fill:#fff;}.a0977a3e-93b2-4d2b-a054-aad4159e3074{fill:#006fb8;}.a50532d0-4135-4faa-9784-e7d2390eeab7{fill:#18435f;}.a50532d0-4135-4faa-9784-e7d2390eeab7,.b0b761ed-b3a1-4259-a3c0-f2a990f0798e{fill-rule:evenodd;}.a8ef6163-771f-4528-9c5a-a4d9ae4b60fc{fill:#1d5172;}</style></defs><g id="b9743a49-18c5-4ec1-ab15-007ebefed2f0" data-name="Capa 2"><g id="e5c1572f-b251-451e-9511-5851429f5e0b" data-name="Capa 1"><path class="bbb7e384-4c9b-4b6b-82ba-60f0c2866c8f" d="M59.69,28.79l0-.16a6.43,6.43,0,0,1,2.43-4.1l1.52-1H53v-9L49.5,12.2V24.47h-.33V5.25h-.23s-1.46-.08-3.44-.08c-5,0-11.15.46-12.5,2.69a4.36,4.36,0,0,0-.39.91V3.08l1.81-1.55L33.72,0,30.89,2.5V8.38h-6l-.77.49H17.93L15.84,17,1.54,18.27,1,22l-1,.51v7.07L4.49,30V29.7a6.25,6.25,0,0,1,12.5,0,5.62,5.62,0,0,1,0,.7l0,.28,13.27.18,2.47-3.22h6.43V32h5.27v.18h1.82V32h7v.18H55V32h3.34V28.79Zm-1.4-.44V24.47H55v-.4l7,0-.12.08a6.91,6.91,0,0,0-2.6,4.21ZM55,28.48V25h2.84v6.5H55Zm-25,1.88-12.47-.17c0-.16,0-.33,0-.49A6.74,6.74,0,0,0,4,29.43L.49,29.11V22.79l1-.49v-.08c.84.06,1.68.08,2.52.12l2.56.07c1.7.05,3.4.05,5.1.06a6.48,6.48,0,0,1,4.46,1.79,6.63,6.63,0,0,1,2,4.45,6.12,6.12,0,0,0-.38-2.53A6.5,6.5,0,0,0,11.68,22c-1.7,0-3.4,0-5.1.05L4,22.1l-2.52.12L2,18.73l14.26-1.31,2.08-8.05h6l.77-.5h5.84V26H31l1.14,1.58Zm3.69-8.62-.07,5.38-.68,0h-.45l-1-1.44v-23L33.55.81l.27.59-1.7,1.45V9.37h.51v1.75h1Zm10.72,9.73H39.57V27.64h4.77Zm1.57,0v.44H44.59V27.67h1.32Zm-6.34-4.32H34l.07-5.41V10.63h-1V8.87h0a3.92,3.92,0,0,1,.33-.76c1-1.59,5.26-2.46,12.08-2.46,1.51,0,2.69,0,3.18.07V27.15ZM53.13,28v3.51h-7V27.64h3V25h4Zm.25,3.51v-7.1H54.7v7.54H53.38Zm-.25-7.4v.4H50V13.13l2.51,1.71v9.24Z"/><path class="bbb7e384-4c9b-4b6b-82ba-60f0c2866c8f" d="M35.94,13.56H47.45V9.73H35.94Z"/><path class="bbb7e384-4c9b-4b6b-82ba-60f0c2866c8f" d="M22,17.59l.38-1.19h3.92c0,1.55-.07,3.09-.08,4.64s0,3.09,0,4.64h-5.6c-.52-1.21-1.06-2.41-1.6-3.62,0-1.38,0-2.77-.07-4.15,0,1.39-.07,2.78-.08,4.17v0h0c.51,1.25,1,2.49,1.57,3.73l0,.06h.08c1.93,0,3.85,0,5.78,0h.11v-.11c0-1.58,0-3.16,0-4.75s-.05-3.09-.08-4.64h.37V10.67H19.43L18.2,15.31l.55,2.28Z"/><path class="bbb7e384-4c9b-4b6b-82ba-60f0c2866c8f" d="M27.18,16.4h3.1V10.67h-3.1Z"/><rect x="119.18" y="22.16" width="3.28" height="0.6"/><polygon class="bbb7e384-4c9b-4b6b-82ba-60f0c2866c8f" points="122.46 22.16 119.19 22.16 119.19 22.75 122.46 22.75 122.46 22.16 122.46 22.16"/><rect x="92.46" y="22.16" width="3.28" height="0.6"/><polygon class="bbb7e384-4c9b-4b6b-82ba-60f0c2866c8f" points="95.74 22.16 92.46 22.16 92.46 22.75 95.74 22.75 95.74 22.16 95.74 22.16"/><rect x="65.74" y="22.16" width="3.28" height="0.6"/><polygon class="bbb7e384-4c9b-4b6b-82ba-60f0c2866c8f" points="69.02 22.16 65.74 22.16 65.74 22.75 69.02 22.75 69.02 22.16 69.02 22.16"/><rect class="a0977a3e-93b2-4d2b-a054-aad4159e3074" x="170.65" y="22.16" width="3.28" height="0.6"/><rect class="a0977a3e-93b2-4d2b-a054-aad4159e3074" x="147.17" y="22.16" width="3.28" height="0.6"/><path class="bbb7e384-4c9b-4b6b-82ba-60f0c2866c8f" d="M174.28,2.7c-.76-1.11-1.64-1.09-2.74-1.06h-.47V.11H58.86V1.65h-.39c-1.27,0-1.67.12-2.36,1.19-2.57,4-2.68,12.23-.24,17,.74,1.42,1.12,1.63,2.91,1.63h113.1a2.37,2.37,0,0,0,2.43-1.07C177,16.36,177,6.63,174.28,2.7ZM59.34.59H170.59V1.65H59.34Z"/><path class="a50532d0-4135-4faa-9784-e7d2390eeab7" d="M170.93,2.13H58.47c-1.18,0-1.39.08-2,1C54,7,54,15.06,56.3,19.57c.66,1.26.87,1.37,2.48,1.37H171.67c1.14,0,1.64,0,2.24-.86,2.57-3.84,2.57-13.29,0-17.11C173.16,1.91,172.36,2.13,170.93,2.13Z"/><rect class="a8ef6163-771f-4528-9c5a-a4d9ae4b60fc" x="124.98" y="21.9" width="50.27" height="1.1"/><path class="bbb7e384-4c9b-4b6b-82ba-60f0c2866c8f" d="M174.75,22.4v.1H125.48v-.1h49.27m1-1H124.48v2.1h51.27V21.4Z"/><path class="bbb7e384-4c9b-4b6b-82ba-60f0c2866c8f" d="M117.12,10.44l.49-.18A3.23,3.23,0,0,0,114.69,9a3.19,3.19,0,0,0-2.85,2.62,4.37,4.37,0,0,1,2.19-.34,15.56,15.56,0,0,1,1.72.54s2.48.66,3.42,0c0,0-.94,1.34-3.55.69,0,0-.85-.2-1.64-.43a4.26,4.26,0,0,0-3.14.28A4.16,4.16,0,0,1,114.52,8a4.23,4.23,0,0,1,4,1.88l.5-.18-.32,2Z"/><path class="bbb7e384-4c9b-4b6b-82ba-60f0c2866c8f" d="M110.85,12.55a4,4,0,0,1,3.27-.18,9.55,9.55,0,0,0,3.09.56,3,3,0,0,0,2-.95,4.19,4.19,0,0,1-5.71,4.1,4.11,4.11,0,0,1-1.92-1.44l-.52.2.2-2.1L113,14l-.51.24a3.44,3.44,0,0,0,3.73.93,3.06,3.06,0,0,0,1.85-2,3.64,3.64,0,0,1-3.71-.08A5.33,5.33,0,0,0,110.85,12.55Z"/><path d="M33.87,30.86h4.64v-3H33.87Zm.49-2.47H38v2H34.36Z"/><path class="bbb7e384-4c9b-4b6b-82ba-60f0c2866c8f" d="M38.51,27.89H33.87v3h4.64v-3Zm-4.15,2.47v-2H38v2Z"/><path d="M69.53,24.65a6.19,6.19,0,0,1,2.44,4l0,.21h1.25l0-.21a6.18,6.18,0,0,1,2.41-4l1.74-1.07H67.87Zm6.17-.57-.27.17a6.65,6.65,0,0,0-2.59,4.1h-.42a6.71,6.71,0,0,0-2.61-4.11l-.25-.16Z"/><path class="bbb7e384-4c9b-4b6b-82ba-60f0c2866c8f" d="M77.44,23.59H67.87l1.66,1.06a6.19,6.19,0,0,1,2.44,4l0,.21h1.24l0-.21a6.18,6.18,0,0,1,2.41-4l1.74-1.07Zm-5,4.76a6.71,6.71,0,0,0-2.61-4.11l-.25-.16H75.7l-.28.17a6.68,6.68,0,0,0-2.58,4.1Z"/><path d="M49.37,2.2h-6L41.17,3.28V4.91h8.2Zm-.49,2.22H41.67V3.58l1.78-.89h5.43Z"/><path class="bbb7e384-4c9b-4b6b-82ba-60f0c2866c8f" d="M49.37,2.2h-6L41.17,3.28V4.91h8.2V2.2Zm-7.7,2.22V3.58l1.78-.89h5.43V4.42Z"/><path d="M25.3,23h-2v.57h2Zm-.12.44H23.39v-.32h1.79Z"/><path class="bbb7e384-4c9b-4b6b-82ba-60f0c2866c8f" d="M25.3,23h-2v.57h2V23Zm-1.91.44v-.32h1.79v.32Z"/><path d="M18.65,29.67h9.54L30,27.3H18.65Zm.49-1.88H29l-1,1.39H19.14Z"/><path class="bbb7e384-4c9b-4b6b-82ba-60f0c2866c8f" d="M30,27.3H18.65v2.37h9.54L30,27.3ZM19.14,29.18V27.79H29l-1,1.39Z"/><path d="M176.23,23.52H164.7l1.74,1.2a6.24,6.24,0,0,1,2.43,4l0,.2h.25l.68,3.95h.7l-.57-4h.45v-.25a6.93,6.93,0,0,0-.94-3.08h6Zm-7.94,1.59.47.44a5,5,0,0,1,1.13,2.89h-.32l-.25,0a6.75,6.75,0,0,0-2.59-4.1l-.45-.31h9.23l-.43,1.1Z"/><path class="bbb7e384-4c9b-4b6b-82ba-60f0c2866c8f" d="M176.23,23.52H164.7l1.74,1.2a6.24,6.24,0,0,1,2.43,4l0,.2h.25l.68,3.95h.7l-.57-4h.45v-.25a6.93,6.93,0,0,0-.94-3.08h6l.81-2.07Zm-6.66,4.93-.25,0a6.75,6.75,0,0,0-2.59-4.1l-.45-.31h9.23l-.43,1.1h-6.79l.48.44a5.06,5.06,0,0,1,1.12,2.89Z"/><path d="M152.89,24.59a6.15,6.15,0,0,1,2.43,4l0,.21h1.25l0-.21a6.21,6.21,0,0,1,2.42-4l1.74-1.08h-9.58Zm6.17-.57-.28.17a6.74,6.74,0,0,0-2.59,4.09h-.42a6.72,6.72,0,0,0-2.6-4.1l-.26-.16Z"/><path class="bbb7e384-4c9b-4b6b-82ba-60f0c2866c8f" d="M160.8,23.52h-9.58l1.67,1.07a6.15,6.15,0,0,1,2.43,4l0,.21h1.25l0-.21a6.21,6.21,0,0,1,2.42-4l1.74-1.08Zm-5,4.76a6.72,6.72,0,0,0-2.6-4.1l-.26-.16h6.15l-.28.17a6.74,6.74,0,0,0-2.59,4.09Z"/><path d="M139.34,24.59a6.15,6.15,0,0,1,2.43,4l0,.21h1.25l0-.21a6.2,6.2,0,0,1,2.41-4l1.75-1.08h-9.58Zm6.17-.57-.28.17a6.7,6.7,0,0,0-2.59,4.09h-.42a6.72,6.72,0,0,0-2.6-4.1l-.26-.16Z"/><path class="bbb7e384-4c9b-4b6b-82ba-60f0c2866c8f" d="M147.25,23.52h-9.58l1.67,1.07a6.15,6.15,0,0,1,2.43,4l0,.21h1.25l0-.21a6.2,6.2,0,0,1,2.41-4l1.75-1.08Zm-5,4.76a6.72,6.72,0,0,0-2.6-4.1l-.26-.16h6.15l-.28.17a6.7,6.7,0,0,0-2.59,4.09Z"/><path d="M81.35,23.52l1.73,1.2a6.17,6.17,0,0,1,2.43,4l0,.2h.26l.67,3.95h.7l-.56-3.94h.45l0-.26a6.55,6.55,0,0,0-.93-3.05h42.57a6.82,6.82,0,0,0-.93,3.05v.26h.45l-.57,3.94h.7l.68-3.95h.25l0-.2a6.21,6.21,0,0,1,2.43-4l1.74-1.2Zm50.07.8a6.79,6.79,0,0,0-2.59,4.1l-.25,0-.31,0a5,5,0,0,1,1.12-2.89l.47-.42H84.94l.47.42a5.08,5.08,0,0,1,1.12,2.89l-.31,0-.26,0a6.7,6.7,0,0,0-2.59-4.1L82.93,24h48.94Z"/><path class="bbb7e384-4c9b-4b6b-82ba-60f0c2866c8f" d="M133.45,23.52H81.35l1.73,1.2a6.17,6.17,0,0,1,2.43,4l0,.2h.26l.68,3.95h.69l-.56-3.94h.45l0-.26a6.55,6.55,0,0,0-.93-3.05h42.57a6.82,6.82,0,0,0-.93,3.05v.26h.45l-.57,3.94h.7l.68-3.95h.25l0-.2a6.21,6.21,0,0,1,2.43-4l1.74-1.2ZM86.22,28.45l-.26,0a6.7,6.7,0,0,0-2.59-4.1L82.93,24h48.94l-.45.31a6.79,6.79,0,0,0-2.59,4.1l-.25,0-.31,0a5,5,0,0,1,1.12-2.89l.47-.42H84.94l.47.42a5.08,5.08,0,0,1,1.12,2.89l-.31,0Z"/><polygon class="b0b761ed-b3a1-4259-a3c0-f2a990f0798e" points="176.23 20.94 124 20.94 124 23.52 124.48 23.52 124.48 21.42 175.75 21.42 175.75 23.52 176.23 23.52 176.23 20.94"/><polygon class="bbb7e384-4c9b-4b6b-82ba-60f0c2866c8f" points="176.23 20.94 124 20.94 124 23.52 124.48 23.52 124.48 21.42 175.75 21.42 175.75 23.52 176.23 23.52 176.23 20.94 176.23 20.94"/><rect x="124.48" y="23.52" width="51.27"/><polygon class="bbb7e384-4c9b-4b6b-82ba-60f0c2866c8f" points="175.75 23.52 124.48 23.52 124.48 23.52 175.75 23.52 175.75 23.52 175.75 23.52"/><rect x="54.79" y="13.01" width="55.16" height="0.07"/><polygon class="bbb7e384-4c9b-4b6b-82ba-60f0c2866c8f" points="110.45 12.51 54.29 12.51 54.29 13.58 110.45 13.58 110.45 12.51 110.45 12.51"/><rect x="120.14" y="13.01" width="55.16" height="0.07"/><polygon class="bbb7e384-4c9b-4b6b-82ba-60f0c2866c8f" points="175.81 12.51 119.64 12.51 119.64 13.58 175.81 13.58 175.81 12.51 175.81 12.51"/><path class="bbb7e384-4c9b-4b6b-82ba-60f0c2866c8f" d="M173.22,67.26h1.22L176,72.38h-.87L174.74,71h-1.85l-.42,1.35h-.81Zm1.37,3.14-.4-1.32c-.15-.46-.26-.85-.38-1.29h0c-.12.45-.23.84-.38,1.31L173,70.4Z"/><path class="bbb7e384-4c9b-4b6b-82ba-60f0c2866c8f" d="M167.53,67.26v3.1c0,1,.21,1.48,1.09,1.48s1.09-.44,1.09-1.48v-3.1h.82v3c0,1.49-.47,2.18-1.94,2.18s-1.89-.62-1.89-2.11V67.26Z"/><path class="bbb7e384-4c9b-4b6b-82ba-60f0c2866c8f" d="M165.13,72.21a4.74,4.74,0,0,1-1.55.26c-1.46,0-2.06-.45-2.06-2.62s.8-2.67,2.19-2.67a5.48,5.48,0,0,1,1.32.17l-.1.63a5.37,5.37,0,0,0-1.18-.15c-.94,0-1.4.29-1.4,2s.39,2,1.23,2a2.13,2.13,0,0,0,.75-.12V70.08h-1v-.64h1.77Z"/><path class="bbb7e384-4c9b-4b6b-82ba-60f0c2866c8f" d="M157.65,67.26h1.23l1.57,5.12h-.87L159.17,71h-1.85l-.41,1.35h-.82ZM159,70.4l-.39-1.32c-.15-.46-.26-.85-.39-1.29h0c-.13.45-.24.84-.39,1.31l-.39,1.3Z"/><path class="bbb7e384-4c9b-4b6b-82ba-60f0c2866c8f" d="M149.73,67.26h2.85v.65h-2v1.52h1.88v.64h-1.88v1.67h2v.64h-2.85Z"/><path class="bbb7e384-4c9b-4b6b-82ba-60f0c2866c8f" d="M144.35,67.26H146c1.55,0,2.14.44,2.14,2.52s-.64,2.6-2.18,2.6h-1.6ZM146,71.74c1,0,1.34-.31,1.34-1.93s-.36-1.9-1.34-1.9h-.78v3.83Z"/><path class="bbb7e384-4c9b-4b6b-82ba-60f0c2866c8f" d="M136.51,67.26h1.64c1.54,0,2.13.44,2.13,2.52s-.64,2.6-2.17,2.6h-1.6Zm1.61,4.48c.95,0,1.33-.31,1.33-1.93s-.35-1.9-1.33-1.9h-.78v3.83Z"/><path class="bbb7e384-4c9b-4b6b-82ba-60f0c2866c8f" d="M132.33,67.26h1.23l1.58,5.12h-.87L133.85,71H132l-.41,1.35h-.82Zm1.38,3.14-.4-1.32c-.15-.46-.26-.85-.39-1.29h0c-.13.45-.24.84-.39,1.31l-.39,1.3Z"/><path class="bbb7e384-4c9b-4b6b-82ba-60f0c2866c8f" d="M126,67.26h1.64c1.54,0,2.13.44,2.13,2.52s-.64,2.6-2.17,2.6H126Zm1.61,4.48c1,0,1.33-.31,1.33-1.93s-.35-1.9-1.33-1.9h-.78v3.83Z"/><path class="bbb7e384-4c9b-4b6b-82ba-60f0c2866c8f" d="M123.38,67.26h.83v5.12h-.83Z"/><path class="bbb7e384-4c9b-4b6b-82ba-60f0c2866c8f" d="M119.28,67.26h.82v4.45H122v.67h-2.74Z"/><path class="bbb7e384-4c9b-4b6b-82ba-60f0c2866c8f" d="M115.1,67.26h1.22l1.58,5.12H117L116.62,71h-1.85l-.41,1.35h-.82Zm1.37,3.14-.4-1.32c-.14-.46-.25-.85-.38-1.29h0c-.12.45-.23.84-.38,1.31l-.39,1.3Z"/><path class="bbb7e384-4c9b-4b6b-82ba-60f0c2866c8f" d="M112.36,72.3a5.27,5.27,0,0,1-1.21.16c-1.36,0-2-.45-2-2.62s.74-2.66,2.06-2.66a4.55,4.55,0,0,1,1.14.15l-.1.64a3.57,3.57,0,0,0-1-.14c-.87,0-1.28.28-1.28,2s.39,2,1.29,2a3.45,3.45,0,0,0,1-.16Z"/><path class="bbb7e384-4c9b-4b6b-82ba-60f0c2866c8f" d="M102,67.26h1.52c1.34,0,1.81.28,1.81,1.32A1.24,1.24,0,0,1,104.08,70l1.41,2.42h-.95l-1.3-2.31h-.41v2.31H102Zm1.5,2.18c.79,0,1-.26,1-.83s-.24-.72-1-.72h-.67v1.55Z"/><path class="bbb7e384-4c9b-4b6b-82ba-60f0c2866c8f" d="M98.34,72.49c-1.33,0-2-.46-2-2.64s.72-2.69,2.06-2.69,2,.45,2,2.64S99.67,72.49,98.34,72.49Zm0-4.68c-.82,0-1.2.31-1.2,2s.38,2,1.2,2,1.21-.32,1.21-2S99.19,67.81,98.37,67.81Z"/><path class="bbb7e384-4c9b-4b6b-82ba-60f0c2866c8f" d="M94.77,71.08c0,1-.42,1.36-1.27,1.36a3.25,3.25,0,0,1-.77-.09l.09-.63a2.86,2.86,0,0,0,.57.07c.42,0,.55-.17.55-.68V67.26h.83Z"/><path class="bbb7e384-4c9b-4b6b-82ba-60f0c2866c8f" d="M88.71,67.26h2.85v.65h-2v1.52h1.88v.64H89.53v1.67h2v.64H88.71Z"/><path class="bbb7e384-4c9b-4b6b-82ba-60f0c2866c8f" d="M81.67,67.26H83l.82,2.85c.16.57.27,1,.4,1.63h0c.13-.61.24-1.07.39-1.63l.81-2.85h1.29l.44,5.12h-.87l-.21-3c0-.55-.06-1-.08-1.57h0c-.13.54-.26,1-.41,1.57l-.84,3H83.61l-.83-3c-.15-.54-.28-1-.42-1.57h0c0,.54,0,1-.07,1.57l-.22,3h-.82Z"/><path class="bbb7e384-4c9b-4b6b-82ba-60f0c2866c8f" d="M74.85,67.26h1.22l1.58,5.12h-.87L76.37,71H74.52l-.41,1.35h-.82Zm1.37,3.14-.4-1.32c-.14-.46-.25-.85-.38-1.29h0c-.12.45-.23.84-.38,1.31l-.39,1.3Z"/><path class="bbb7e384-4c9b-4b6b-82ba-60f0c2866c8f" d="M69.44,67.26h.82v4.45h1.92v.67H69.44Z"/><path class="bbb7e384-4c9b-4b6b-82ba-60f0c2866c8f" d="M63.29,72.49c-1.33,0-2-.46-2-2.64s.72-2.69,2.05-2.69,2,.45,2,2.64S64.62,72.49,63.29,72.49Zm0-4.68c-.81,0-1.19.31-1.19,2s.38,2,1.19,2,1.21-.32,1.21-2S64.13,67.81,63.31,67.81Z"/><path class="bbb7e384-4c9b-4b6b-82ba-60f0c2866c8f" d="M56.07,67.26h1.64c1.54,0,2.13.44,2.13,2.52s-.64,2.6-2.17,2.6h-1.6Zm1.61,4.48c1,0,1.33-.31,1.33-1.93s-.35-1.9-1.33-1.9H56.9v3.83Z"/><path class="bbb7e384-4c9b-4b6b-82ba-60f0c2866c8f" d="M50.38,67.26h1.06L53,70.13c.24.45.44.86.66,1.37h0a13.62,13.62,0,0,1-.07-1.36V67.26h.73v5.12H53.24L51.7,69.52c-.23-.46-.43-.87-.65-1.38h0c0,.5.07.95.07,1.37v2.86h-.73Z"/><path class="bbb7e384-4c9b-4b6b-82ba-60f0c2866c8f" d="M46.21,67.26h1.22L49,72.38h-.87L47.73,71H45.88l-.42,1.35h-.81Zm1.37,3.14-.4-1.32c-.15-.46-.26-.85-.38-1.29h0c-.12.45-.23.84-.38,1.31L46,70.4Z"/><path class="bbb7e384-4c9b-4b6b-82ba-60f0c2866c8f" d="M41.94,67.93H40.49v-.67H44.2v.67H42.77v4.45h-.83Z"/><path class="bbb7e384-4c9b-4b6b-82ba-60f0c2866c8f" d="M36,67.26h1.52c1.34,0,1.81.28,1.81,1.32A1.24,1.24,0,0,1,38,70l1.4,2.42h-.95L37.2,70.07h-.42v2.31H36Zm1.49,2.18c.8,0,1-.26,1-.83s-.23-.72-1-.72h-.67v1.55Z"/><path class="bbb7e384-4c9b-4b6b-82ba-60f0c2866c8f" d="M32.29,72.49c-1.32,0-2-.46-2-2.64s.72-2.69,2.05-2.69,2,.45,2,2.64S33.63,72.49,32.29,72.49Zm0-4.68c-.81,0-1.19.31-1.19,2s.38,2,1.19,2,1.21-.32,1.21-2S33.14,67.81,32.32,67.81Z"/><path class="bbb7e384-4c9b-4b6b-82ba-60f0c2866c8f" d="M25.77,67.26h1.46c1.24,0,1.75.26,1.75,1.43s-.54,1.6-1.82,1.6h-.57v2.09h-.82Zm1.42,2.4c.68,0,1-.28,1-.93s-.25-.84-.95-.84h-.62v1.77Z"/><path class="bbb7e384-4c9b-4b6b-82ba-60f0c2866c8f" d="M21.2,71.67a5.1,5.1,0,0,0,1.25.17c.73,0,1.06-.28,1.06-.75s-.2-.57-1.13-1-1.31-.76-1.31-1.53.55-1.35,1.81-1.35a4.17,4.17,0,0,1,1.14.16l-.09.62a3.85,3.85,0,0,0-1.07-.14c-.71,0-1,.25-1,.64s.2.56,1.09,1c1,.53,1.35.79,1.35,1.57s-.59,1.46-1.85,1.46a4.78,4.78,0,0,1-1.32-.18Z"/><path class="bbb7e384-4c9b-4b6b-82ba-60f0c2866c8f" d="M15.64,67.26H16.7l1.53,2.87a14.55,14.55,0,0,1,.67,1.37h0a13.62,13.62,0,0,1-.07-1.36V67.26h.73v5.12H18.49L17,69.52c-.24-.46-.44-.87-.65-1.38h0c0,.5.06.95.06,1.37v2.86h-.72Z"/><path class="bbb7e384-4c9b-4b6b-82ba-60f0c2866c8f" d="M11.47,67.26h1.22l1.58,5.12H13.4L13,71H11.13l-.41,1.35H9.9Zm1.37,3.14-.4-1.32c-.15-.46-.26-.85-.38-1.29h0c-.13.45-.24.84-.39,1.31l-.39,1.3Z"/><path class="bbb7e384-4c9b-4b6b-82ba-60f0c2866c8f" d="M5.25,67.26H6.77c1.34,0,1.82.28,1.82,1.32,0,.82-.37,1.25-1.26,1.38l1.41,2.42h-1l-1.3-2.31H6.08v2.31H5.25Zm1.5,2.18c.8,0,1-.26,1-.83s-.23-.72-1-.72H6.08v1.55Z"/><path class="bbb7e384-4c9b-4b6b-82ba-60f0c2866c8f" d="M1.63,67.93H.19v-.67H3.9v.67H2.47v4.45H1.63Z"/><path d="M136.7,29a.39.39,0,0,0,.28-.11.41.41,0,0,0-.28-.69.41.41,0,0,0-.28.69A.43.43,0,0,0,136.7,29Z"/><path class="bbb7e384-4c9b-4b6b-82ba-60f0c2866c8f" d="M136.7,28.19a.41.41,0,0,0-.28.69.43.43,0,0,0,.28.11.39.39,0,0,0,.28-.11.41.41,0,0,0-.28-.69Z"/><path d="M134.6,30.3a.41.41,0,0,0-.4.41.39.39,0,0,0,.12.28.4.4,0,1,0,.28-.69Z"/><path class="bbb7e384-4c9b-4b6b-82ba-60f0c2866c8f" d="M134.6,30.3a.41.41,0,0,0-.4.41.39.39,0,0,0,.12.28.4.4,0,1,0,.28-.69Z"/><path d="M135.65,27.76a.4.4,0,1,0,.4.4A.4.4,0,0,0,135.65,27.76Z"/><path class="bbb7e384-4c9b-4b6b-82ba-60f0c2866c8f" d="M135.65,27.76a.4.4,0,1,0,.4.4.4.4,0,0,0-.4-.4Z"/><path d="M135.65,30.74a.4.4,0,1,0,.4.4A.4.4,0,0,0,135.65,30.74Z"/><path class="bbb7e384-4c9b-4b6b-82ba-60f0c2866c8f" d="M135.65,30.74a.4.4,0,1,0,.4.4.4.4,0,0,0-.4-.4Z"/><path d="M134.6,28.19a.4.4,0,0,0-.28.12.39.39,0,0,0-.12.28.4.4,0,0,0,.12.29.41.41,0,0,0,.56,0,.41.41,0,0,0-.28-.69Z"/><path class="bbb7e384-4c9b-4b6b-82ba-60f0c2866c8f" d="M134.6,28.19a.4.4,0,0,0-.28.12.39.39,0,0,0-.12.28.4.4,0,0,0,.12.29.41.41,0,0,0,.56,0,.41.41,0,0,0-.28-.69Z"/><path d="M136.7,30.3a.41.41,0,0,0-.4.4.4.4,0,0,0,.12.29.42.42,0,0,0,.28.12.41.41,0,0,0,.4-.41.39.39,0,0,0-.12-.28A.4.4,0,0,0,136.7,30.3Z"/><path class="bbb7e384-4c9b-4b6b-82ba-60f0c2866c8f" d="M136.7,30.3a.41.41,0,0,0-.4.4.4.4,0,0,0,.12.29.42.42,0,0,0,.28.12.41.41,0,0,0,.4-.41.39.39,0,0,0-.12-.28.4.4,0,0,0-.28-.12Z"/><path d="M136.74,29.65a.4.4,0,1,0,.4-.4A.4.4,0,0,0,136.74,29.65Z"/><path class="bbb7e384-4c9b-4b6b-82ba-60f0c2866c8f" d="M137.14,29.25a.4.4,0,1,0,.4.4.4.4,0,0,0-.4-.4Z"/><path d="M134.56,29.65a.4.4,0,1,0-.4.4A.4.4,0,0,0,134.56,29.65Z"/><path class="bbb7e384-4c9b-4b6b-82ba-60f0c2866c8f" d="M134.16,29.25a.4.4,0,1,0,.4.4.4.4,0,0,0-.4-.4Z"/><path class="a8ef6163-771f-4528-9c5a-a4d9ae4b60fc" d="M135.66,34.67a5,5,0,1,1,5-5A5,5,0,0,1,135.66,34.67Zm0-7.88a2.86,2.86,0,1,0,2.84,2.86A2.86,2.86,0,0,0,135.66,26.79Z"/><path class="bbb7e384-4c9b-4b6b-82ba-60f0c2866c8f" d="M135.65,25.13a4.52,4.52,0,1,1-4.5,4.52,4.51,4.51,0,0,1,4.5-4.52m0,7.88a3.36,3.36,0,1,0-3.35-3.36A3.36,3.36,0,0,0,135.65,33m0-8.88a5.52,5.52,0,1,0,5.5,5.52,5.51,5.51,0,0,0-5.5-5.52Zm0,7.88A2.36,2.36,0,1,1,138,29.65,2.36,2.36,0,0,1,135.65,32Z"/><path class="a0977a3e-93b2-4d2b-a054-aad4159e3074" d="M150.25,29a.44.44,0,0,0,.29-.11.42.42,0,0,0,0-.57.4.4,0,0,0-.57,0,.42.42,0,0,0,0,.57A.43.43,0,0,0,150.25,29Z"/><path class="a0977a3e-93b2-4d2b-a054-aad4159e3074" d="M148.15,30.3a.41.41,0,0,0-.4.41.39.39,0,0,0,.12.28.4.4,0,1,0,.28-.69Z"/><path class="a0977a3e-93b2-4d2b-a054-aad4159e3074" d="M149.2,27.76a.4.4,0,1,0,.4.4A.4.4,0,0,0,149.2,27.76Z"/><path class="a0977a3e-93b2-4d2b-a054-aad4159e3074" d="M149.2,30.74a.4.4,0,1,0,.4.4A.4.4,0,0,0,149.2,30.74Z"/><path class="a0977a3e-93b2-4d2b-a054-aad4159e3074" d="M148.15,28.19a.42.42,0,0,0-.28.12.39.39,0,0,0-.12.28.4.4,0,0,0,.12.29.41.41,0,0,0,.56,0,.41.41,0,0,0-.28-.69Z"/><path class="a0977a3e-93b2-4d2b-a054-aad4159e3074" d="M150.25,30.3a.44.44,0,0,0-.28.12.43.43,0,0,0-.11.28A.44.44,0,0,0,150,31a.4.4,0,0,0,.57,0,.44.44,0,0,0,.11-.29.43.43,0,0,0-.11-.28A.45.45,0,0,0,150.25,30.3Z"/><path class="a0977a3e-93b2-4d2b-a054-aad4159e3074" d="M150.29,29.65a.4.4,0,1,0,.4-.4A.4.4,0,0,0,150.29,29.65Z"/><path class="a0977a3e-93b2-4d2b-a054-aad4159e3074" d="M148.11,29.65a.39.39,0,0,0-.39-.4.4.4,0,0,0,0,.8A.39.39,0,0,0,148.11,29.65Z"/><path class="a0977a3e-93b2-4d2b-a054-aad4159e3074" d="M149.21,24.13a5.52,5.52,0,1,0,5.5,5.52A5.52,5.52,0,0,0,149.21,24.13Zm0,7.88a2.36,2.36,0,1,1,2.35-2.36A2.36,2.36,0,0,1,149.21,32Z"/><path d="M163.81,29a.43.43,0,0,0,.28-.11.42.42,0,0,0,0-.57.4.4,0,0,0-.57,0,.42.42,0,0,0,0,.57A.44.44,0,0,0,163.81,29Z"/><path class="bbb7e384-4c9b-4b6b-82ba-60f0c2866c8f" d="M163.81,28.19a.45.45,0,0,0-.29.12.42.42,0,0,0,0,.57.44.44,0,0,0,.29.11.43.43,0,0,0,.28-.11.42.42,0,0,0,0-.57.44.44,0,0,0-.28-.12Z"/><path d="M161.7,30.3a.44.44,0,0,0-.28.12.4.4,0,0,0-.12.29.39.39,0,0,0,.12.28.4.4,0,0,0,.57,0,.42.42,0,0,0,0-.57A.45.45,0,0,0,161.7,30.3Z"/><path class="bbb7e384-4c9b-4b6b-82ba-60f0c2866c8f" d="M161.7,30.3a.44.44,0,0,0-.28.12.4.4,0,0,0-.12.29.39.39,0,0,0,.12.28.4.4,0,0,0,.57,0,.42.42,0,0,0,0-.57.45.45,0,0,0-.29-.12Z"/><path d="M162.75,27.76a.4.4,0,1,0,.4.4A.4.4,0,0,0,162.75,27.76Z"/><path class="bbb7e384-4c9b-4b6b-82ba-60f0c2866c8f" d="M162.75,27.76a.4.4,0,1,0,.4.4.4.4,0,0,0-.4-.4Z"/><path d="M162.75,30.74a.4.4,0,1,0,.4.4A.4.4,0,0,0,162.75,30.74Z"/><path class="bbb7e384-4c9b-4b6b-82ba-60f0c2866c8f" d="M162.75,30.74a.4.4,0,1,0,.4.4.4.4,0,0,0-.4-.4Z"/><path d="M161.7,28.19a.44.44,0,0,0-.28.12.39.39,0,0,0-.12.28.4.4,0,0,0,.12.29.41.41,0,0,0,.28.11.44.44,0,0,0,.29-.11.42.42,0,0,0,0-.57A.45.45,0,0,0,161.7,28.19Z"/><path class="bbb7e384-4c9b-4b6b-82ba-60f0c2866c8f" d="M161.7,28.19a.44.44,0,0,0-.28.12.39.39,0,0,0-.12.28.4.4,0,0,0,.12.29.41.41,0,0,0,.28.11.44.44,0,0,0,.29-.11.42.42,0,0,0,0-.57.45.45,0,0,0-.29-.12Z"/><path d="M163.81,30.3a.45.45,0,0,0-.29.12.43.43,0,0,0-.11.28.44.44,0,0,0,.11.29.4.4,0,0,0,.57,0,.44.44,0,0,0,.11-.29.43.43,0,0,0-.11-.28A.44.44,0,0,0,163.81,30.3Z"/><path class="bbb7e384-4c9b-4b6b-82ba-60f0c2866c8f" d="M163.81,30.3a.45.45,0,0,0-.29.12.43.43,0,0,0-.11.28.44.44,0,0,0,.11.29.4.4,0,0,0,.57,0,.44.44,0,0,0,.11-.29.43.43,0,0,0-.11-.28.44.44,0,0,0-.28-.12Z"/><path d="M163.84,29.65a.4.4,0,1,0,.4-.4A.4.4,0,0,0,163.84,29.65Z"/><path class="bbb7e384-4c9b-4b6b-82ba-60f0c2866c8f" d="M164.24,29.25a.4.4,0,1,0,.4.4.4.4,0,0,0-.4-.4Z"/><path d="M161.66,29.65a.39.39,0,0,0-.39-.4.4.4,0,1,0,0,.8A.39.39,0,0,0,161.66,29.65Z"/><path class="bbb7e384-4c9b-4b6b-82ba-60f0c2866c8f" d="M161.27,29.25a.4.4,0,1,0,0,.8.4.4,0,0,0,0-.8Z"/><path class="a8ef6163-771f-4528-9c5a-a4d9ae4b60fc" d="M162.76,34.67a5,5,0,1,1,5-5A5,5,0,0,1,162.76,34.67Zm0-7.88a2.86,2.86,0,1,0,2.85,2.86A2.86,2.86,0,0,0,162.76,26.79Z"/><path class="bbb7e384-4c9b-4b6b-82ba-60f0c2866c8f" d="M162.76,25.13a4.52,4.52,0,1,1-4.51,4.52,4.52,4.52,0,0,1,4.51-4.52m0,7.88a3.36,3.36,0,1,0-3.36-3.36A3.37,3.37,0,0,0,162.76,33m0-8.88a5.52,5.52,0,1,0,5.5,5.52,5.52,5.52,0,0,0-5.5-5.52Zm0,7.88a2.36,2.36,0,1,1,2.35-2.36A2.36,2.36,0,0,1,162.76,32Z"/><path d="M80.45,29a.39.39,0,0,0,.28-.11.4.4,0,1,0-.56,0A.39.39,0,0,0,80.45,29Z"/><path class="bbb7e384-4c9b-4b6b-82ba-60f0c2866c8f" d="M80.45,28.19a.41.41,0,0,0-.28.69.41.41,0,0,0,.56,0,.41.41,0,0,0-.28-.69Z"/><path d="M78.35,30.3a.41.41,0,0,0-.4.41.39.39,0,0,0,.12.28.4.4,0,0,0,.28.12.44.44,0,0,0,.28-.12.4.4,0,0,0,0-.57A.44.44,0,0,0,78.35,30.3Z"/><path class="bbb7e384-4c9b-4b6b-82ba-60f0c2866c8f" d="M78.35,30.3a.41.41,0,0,0-.4.41.39.39,0,0,0,.12.28.4.4,0,0,0,.28.12.44.44,0,0,0,.28-.12.4.4,0,0,0,0-.57.44.44,0,0,0-.28-.12Z"/><path d="M79.4,27.76a.4.4,0,1,0,.4.4A.4.4,0,0,0,79.4,27.76Z"/><path class="bbb7e384-4c9b-4b6b-82ba-60f0c2866c8f" d="M79.4,27.76a.4.4,0,1,0,.4.4.4.4,0,0,0-.4-.4Z"/><path d="M79.4,30.74a.4.4,0,1,0,.4.4A.4.4,0,0,0,79.4,30.74Z"/><path class="bbb7e384-4c9b-4b6b-82ba-60f0c2866c8f" d="M79.4,30.74a.4.4,0,1,0,.4.4.4.4,0,0,0-.4-.4Z"/><path d="M78.35,28.19a.4.4,0,0,0-.28.12.39.39,0,0,0-.12.28.4.4,0,0,0,.12.29.39.39,0,0,0,.28.11.43.43,0,0,0,.28-.11.4.4,0,0,0,0-.57A.44.44,0,0,0,78.35,28.19Z"/><path class="bbb7e384-4c9b-4b6b-82ba-60f0c2866c8f" d="M78.35,28.19a.4.4,0,0,0-.28.12.39.39,0,0,0-.12.28.4.4,0,0,0,.12.29.39.39,0,0,0,.28.11.43.43,0,0,0,.28-.11.4.4,0,0,0,0-.57.44.44,0,0,0-.28-.12Z"/><path d="M80.45,30.3a.4.4,0,0,0-.28.12.39.39,0,0,0-.12.28.4.4,0,1,0,.8,0,.39.39,0,0,0-.12-.28A.4.4,0,0,0,80.45,30.3Z"/><path class="bbb7e384-4c9b-4b6b-82ba-60f0c2866c8f" d="M80.45,30.3a.4.4,0,0,0-.28.12.39.39,0,0,0-.12.28.4.4,0,1,0,.8,0,.39.39,0,0,0-.12-.28.4.4,0,0,0-.28-.12Z"/><path d="M80.49,29.65a.4.4,0,0,0,.4.4.4.4,0,0,0,0-.8A.4.4,0,0,0,80.49,29.65Z"/><path class="bbb7e384-4c9b-4b6b-82ba-60f0c2866c8f" d="M80.89,29.25a.4.4,0,1,0,0,.8.4.4,0,0,0,0-.8Z"/><path d="M78.31,29.65a.4.4,0,1,0-.4.4A.4.4,0,0,0,78.31,29.65Z"/><path class="bbb7e384-4c9b-4b6b-82ba-60f0c2866c8f" d="M77.91,29.25a.4.4,0,1,0,.4.4.4.4,0,0,0-.4-.4Z"/><path class="a8ef6163-771f-4528-9c5a-a4d9ae4b60fc" d="M79.4,34.67a5,5,0,1,1,5-5A5,5,0,0,1,79.4,34.67Zm0-7.88a2.86,2.86,0,1,0,2.85,2.86A2.87,2.87,0,0,0,79.4,26.79Z"/><path class="bbb7e384-4c9b-4b6b-82ba-60f0c2866c8f" d="M79.4,25.13a4.52,4.52,0,1,1-4.5,4.52,4.52,4.52,0,0,1,4.5-4.52m0,7.88A3.36,3.36,0,1,0,76,29.65,3.36,3.36,0,0,0,79.4,33m0-8.88a5.52,5.52,0,1,0,5.5,5.52,5.51,5.51,0,0,0-5.5-5.52Zm0,7.88a2.36,2.36,0,1,1,2.35-2.36A2.36,2.36,0,0,1,79.4,32Z"/><path d="M66.9,29a.44.44,0,0,0,.29-.11.41.41,0,0,0,0-.57.4.4,0,1,0-.56.57A.41.41,0,0,0,66.9,29Z"/><path class="bbb7e384-4c9b-4b6b-82ba-60f0c2866c8f" d="M66.9,28.19a.41.41,0,0,0-.28.69.41.41,0,0,0,.28.11.44.44,0,0,0,.29-.11.41.41,0,0,0,0-.57.4.4,0,0,0-.28-.12Z"/><path d="M64.8,30.3a.41.41,0,0,0-.4.41.39.39,0,0,0,.12.28.4.4,0,1,0,.28-.69Z"/><path class="bbb7e384-4c9b-4b6b-82ba-60f0c2866c8f" d="M64.8,30.3a.41.41,0,0,0-.4.41.39.39,0,0,0,.12.28.4.4,0,1,0,.28-.69Z"/><path d="M65.85,27.76a.4.4,0,1,0,.4.4A.4.4,0,0,0,65.85,27.76Z"/><path class="bbb7e384-4c9b-4b6b-82ba-60f0c2866c8f" d="M65.85,27.76a.4.4,0,1,0,.4.4.4.4,0,0,0-.4-.4Z"/><path d="M65.85,30.74a.4.4,0,1,0,.4.4A.4.4,0,0,0,65.85,30.74Z"/><path class="bbb7e384-4c9b-4b6b-82ba-60f0c2866c8f" d="M65.85,30.74a.4.4,0,1,0,.4.4.4.4,0,0,0-.4-.4Z"/><path d="M64.8,28.19a.4.4,0,0,0-.28.12.39.39,0,0,0-.12.28.4.4,0,0,0,.12.29.41.41,0,0,0,.56,0,.41.41,0,0,0-.28-.69Z"/><path class="bbb7e384-4c9b-4b6b-82ba-60f0c2866c8f" d="M64.8,28.19a.4.4,0,0,0-.28.12.39.39,0,0,0-.12.28.4.4,0,0,0,.12.29.41.41,0,0,0,.56,0,.41.41,0,0,0-.28-.69Z"/><path d="M66.9,30.3a.42.42,0,0,0-.28.12.4.4,0,0,0,0,.57.4.4,0,0,0,.68-.29.43.43,0,0,0-.11-.28A.45.45,0,0,0,66.9,30.3Z"/><path class="bbb7e384-4c9b-4b6b-82ba-60f0c2866c8f" d="M66.9,30.3a.42.42,0,0,0-.28.12.4.4,0,0,0,0,.57.4.4,0,0,0,.68-.29.43.43,0,0,0-.11-.28.45.45,0,0,0-.29-.12Z"/><path d="M66.94,29.65a.4.4,0,1,0,.4-.4A.4.4,0,0,0,66.94,29.65Z"/><path class="bbb7e384-4c9b-4b6b-82ba-60f0c2866c8f" d="M67.34,29.25a.4.4,0,1,0,.4.4.4.4,0,0,0-.4-.4Z"/><path d="M64.76,29.65a.4.4,0,1,0-.4.4A.4.4,0,0,0,64.76,29.65Z"/><path class="bbb7e384-4c9b-4b6b-82ba-60f0c2866c8f" d="M64.36,29.25a.4.4,0,1,0,.4.4.4.4,0,0,0-.4-.4Z"/><path class="a8ef6163-771f-4528-9c5a-a4d9ae4b60fc" d="M65.85,34.67a5,5,0,1,1,5-5A5,5,0,0,1,65.85,34.67Zm0-7.88a2.86,2.86,0,1,0,2.85,2.86A2.86,2.86,0,0,0,65.85,26.79Z"/><path class="bbb7e384-4c9b-4b6b-82ba-60f0c2866c8f" d="M65.85,25.13a4.52,4.52,0,1,1-4.5,4.52,4.52,4.52,0,0,1,4.5-4.52m0,7.88a3.36,3.36,0,1,0-3.35-3.36A3.36,3.36,0,0,0,65.85,33m0-8.88a5.52,5.52,0,1,0,5.5,5.52,5.51,5.51,0,0,0-5.5-5.52Zm0,7.88a2.36,2.36,0,1,1,2.35-2.36A2.36,2.36,0,0,1,65.85,32Z"/><path d="M12.2,29a.43.43,0,0,0,.28-.11.42.42,0,0,0,0-.57.45.45,0,0,0-.29-.12.39.39,0,0,0-.28.12.42.42,0,0,0,0,.57A.44.44,0,0,0,12.2,29Z"/><path class="bbb7e384-4c9b-4b6b-82ba-60f0c2866c8f" d="M12.19,28.24a.39.39,0,0,0-.28.12.42.42,0,0,0,0,.57.44.44,0,0,0,.29.11.43.43,0,0,0,.28-.11.42.42,0,0,0,0-.57.45.45,0,0,0-.29-.12Z"/><path d="M10.09,30.35a.39.39,0,0,0-.28.12.41.41,0,0,0,.28.69.41.41,0,0,0,.28-.69A.36.36,0,0,0,10.09,30.35Z"/><path class="bbb7e384-4c9b-4b6b-82ba-60f0c2866c8f" d="M10.09,30.35a.39.39,0,0,0-.28.12.41.41,0,0,0,.28.69.41.41,0,0,0,.28-.69.36.36,0,0,0-.28-.12Z"/><path d="M11.15,27.81a.4.4,0,1,0,0,.8.4.4,0,0,0,0-.8Z"/><path class="bbb7e384-4c9b-4b6b-82ba-60f0c2866c8f" d="M11.15,27.81a.4.4,0,1,0,0,.8.4.4,0,0,0,0-.8Z"/><path d="M11.15,30.79a.4.4,0,1,0,0,.8.4.4,0,0,0,0-.8Z"/><path class="bbb7e384-4c9b-4b6b-82ba-60f0c2866c8f" d="M11.15,30.79a.4.4,0,1,0,0,.8.4.4,0,0,0,0-.8Z"/><path d="M10.09,28.24a.39.39,0,0,0-.28.12.4.4,0,0,0,0,.57.43.43,0,0,0,.28.11.39.39,0,0,0,.28-.11.4.4,0,0,0,0-.57A.36.36,0,0,0,10.09,28.24Z"/><path class="bbb7e384-4c9b-4b6b-82ba-60f0c2866c8f" d="M10.09,28.24a.39.39,0,0,0-.28.12.4.4,0,0,0,0,.57.43.43,0,0,0,.28.11.39.39,0,0,0,.28-.11.4.4,0,0,0,0-.57.36.36,0,0,0-.28-.12Z"/><path d="M12.2,30.35a.4.4,0,0,0-.29.12.43.43,0,0,0-.11.28.44.44,0,0,0,.11.29.4.4,0,0,0,.57,0,.44.44,0,0,0,.11-.29.43.43,0,0,0-.11-.28A.44.44,0,0,0,12.2,30.35Z"/><path class="bbb7e384-4c9b-4b6b-82ba-60f0c2866c8f" d="M12.2,30.35a.4.4,0,0,0-.29.12.43.43,0,0,0-.11.28.44.44,0,0,0,.11.29.4.4,0,0,0,.57,0,.44.44,0,0,0,.11-.29.43.43,0,0,0-.11-.28.44.44,0,0,0-.28-.12Z"/><path d="M12.23,29.7a.4.4,0,1,0,.4-.4A.4.4,0,0,0,12.23,29.7Z"/><path class="bbb7e384-4c9b-4b6b-82ba-60f0c2866c8f" d="M12.63,29.3a.4.4,0,1,0,.4.4.4.4,0,0,0-.4-.4Z"/><path d="M10.06,29.7a.4.4,0,1,0-.4.4A.4.4,0,0,0,10.06,29.7Z"/><path class="bbb7e384-4c9b-4b6b-82ba-60f0c2866c8f" d="M9.66,29.3a.4.4,0,1,0,.4.4.4.4,0,0,0-.4-.4Z"/><path class="a8ef6163-771f-4528-9c5a-a4d9ae4b60fc" d="M11.15,34.72a5,5,0,1,1,5-5A5,5,0,0,1,11.15,34.72Zm0-7.88A2.86,2.86,0,1,0,14,29.7,2.86,2.86,0,0,0,11.15,26.84Z"/><path class="bbb7e384-4c9b-4b6b-82ba-60f0c2866c8f" d="M11.15,25.17A4.53,4.53,0,1,1,6.64,29.7a4.53,4.53,0,0,1,4.51-4.53m0,7.89A3.36,3.36,0,1,0,7.79,29.7a3.36,3.36,0,0,0,3.36,3.36m0-8.89a5.53,5.53,0,1,0,5.5,5.53,5.52,5.52,0,0,0-5.5-5.53Zm0,7.89A2.36,2.36,0,1,1,13.5,29.7a2.36,2.36,0,0,1-2.35,2.36Z"/><path d="M150.26,29a.43.43,0,0,0,.28-.11.42.42,0,0,0,0-.57.4.4,0,0,0-.57,0,.41.41,0,0,0,0,.57A.39.39,0,0,0,150.26,29Z"/><path class="bbb7e384-4c9b-4b6b-82ba-60f0c2866c8f" d="M150.26,28.19a.45.45,0,0,0-.29.12.41.41,0,0,0,0,.57.39.39,0,0,0,.28.11.43.43,0,0,0,.28-.11.42.42,0,0,0,0-.57.44.44,0,0,0-.28-.12Z"/><path d="M148.15,30.3a.44.44,0,0,0-.28.12.44.44,0,0,0-.11.29.43.43,0,0,0,.11.28.4.4,0,0,0,.57,0,.42.42,0,0,0,0-.57A.45.45,0,0,0,148.15,30.3Z"/><path class="bbb7e384-4c9b-4b6b-82ba-60f0c2866c8f" d="M148.15,30.3a.44.44,0,0,0-.28.12.44.44,0,0,0-.11.29.43.43,0,0,0,.11.28.4.4,0,0,0,.57,0,.42.42,0,0,0,0-.57.45.45,0,0,0-.29-.12Z"/><path d="M149.21,27.76a.4.4,0,1,0,0,.8.4.4,0,0,0,0-.8Z"/><path class="bbb7e384-4c9b-4b6b-82ba-60f0c2866c8f" d="M149.21,27.76a.4.4,0,1,0,0,.8.4.4,0,0,0,0-.8Z"/><path d="M149.21,30.74a.4.4,0,1,0,0,.8.4.4,0,0,0,.39-.4A.39.39,0,0,0,149.21,30.74Z"/><path class="bbb7e384-4c9b-4b6b-82ba-60f0c2866c8f" d="M149.21,30.74a.4.4,0,1,0,0,.8.4.4,0,0,0,.39-.4.39.39,0,0,0-.39-.4Z"/><path d="M148.15,28.19a.44.44,0,0,0-.28.12.43.43,0,0,0-.11.28.44.44,0,0,0,.11.29.43.43,0,0,0,.28.11.39.39,0,0,0,.28-.11.41.41,0,0,0,0-.57A.45.45,0,0,0,148.15,28.19Z"/><path class="bbb7e384-4c9b-4b6b-82ba-60f0c2866c8f" d="M148.15,28.19a.44.44,0,0,0-.28.12.43.43,0,0,0-.11.28.44.44,0,0,0,.11.29.43.43,0,0,0,.28.11.39.39,0,0,0,.28-.11.41.41,0,0,0,0-.57.45.45,0,0,0-.29-.12Z"/><path d="M150.26,30.3a.4.4,0,0,0-.28.12.39.39,0,0,0-.12.28.41.41,0,0,0,.4.41.44.44,0,0,0,.28-.12.4.4,0,0,0,.12-.29.41.41,0,0,0-.4-.4Z"/><path class="bbb7e384-4c9b-4b6b-82ba-60f0c2866c8f" d="M150.26,30.3a.4.4,0,0,0-.28.12.39.39,0,0,0-.12.28.41.41,0,0,0,.4.41.44.44,0,0,0,.28-.12.4.4,0,0,0,.12-.29.41.41,0,0,0-.4-.4Z"/><path d="M150.29,29.65a.4.4,0,1,0,.4-.4A.4.4,0,0,0,150.29,29.65Z"/><path class="bbb7e384-4c9b-4b6b-82ba-60f0c2866c8f" d="M150.69,29.25a.4.4,0,1,0,.4.4.4.4,0,0,0-.4-.4Z"/><path d="M148.12,29.65a.4.4,0,1,0-.4.4A.4.4,0,0,0,148.12,29.65Z"/><path class="bbb7e384-4c9b-4b6b-82ba-60f0c2866c8f" d="M147.72,29.25a.4.4,0,1,0,.4.4.4.4,0,0,0-.4-.4Z"/><path class="a8ef6163-771f-4528-9c5a-a4d9ae4b60fc" d="M149.2,34.67a5,5,0,1,1,5-5A5,5,0,0,1,149.2,34.67Zm0-7.88a2.86,2.86,0,1,0,2.86,2.86A2.85,2.85,0,0,0,149.2,26.79Z"/><path class="bbb7e384-4c9b-4b6b-82ba-60f0c2866c8f" d="M149.2,25.13a4.52,4.52,0,1,1-4.49,4.52,4.52,4.52,0,0,1,4.49-4.52m0,7.88a3.36,3.36,0,1,0-3.34-3.36A3.37,3.37,0,0,0,149.2,33m0-8.88a5.52,5.52,0,1,0,5.51,5.52,5.51,5.51,0,0,0-5.51-5.52Zm0,7.88a2.36,2.36,0,1,1,2.36-2.36A2.35,2.35,0,0,1,149.2,32Z"/><path class="bbb7e384-4c9b-4b6b-82ba-60f0c2866c8f" d="M141.87,46.42l-.28.59a5,5,0,0,0-3.09-.87c-4.09,0-8.58,3.65-8.58,11.3,0,3.34,1.84,4.93,4.49,4.93a6.25,6.25,0,0,0,4.4-2l0,1.68h4.81l3-15.67Zm-1.07,9.52,0,.13c-.06.14-.11.27-.18.4a.69.69,0,0,1-.05.13A3.39,3.39,0,0,1,134.16,55a3.49,3.49,0,0,1,.11-.86,3.41,3.41,0,0,1,2.2-2.35l.08,0a2.15,2.15,0,0,0,1.29-1.31,1.24,1.24,0,0,1,0-.16.57.57,0,0,0,0-.14,2.22,2.22,0,0,0,0-.37,1.79,1.79,0,0,0-.09-.57l.18.08a5.48,5.48,0,0,1,3.05,4.91A5.63,5.63,0,0,1,140.8,55.94Z"/><path class="bbb7e384-4c9b-4b6b-82ba-60f0c2866c8f" d="M164.76,57.66a19.84,19.84,0,0,0,3.71.5c1.38,0,1.72-.16,1.72-.63s-.44-.62-1.72-1.43c-2.46-1.53-3.15-2.38-3.15-4.53,0-3.68,2.25-5.5,7.28-5.5a16.72,16.72,0,0,1,3.59.44l-.88,4.19a18.06,18.06,0,0,0-3.09-.35c-1,0-1.5.13-1.5.6s.63.74,1.75,1.43c2.47,1.5,3.15,2.34,3.15,4.19,0,4.12-2.68,5.87-7.33,5.87a19.17,19.17,0,0,1-4.34-.57Z"/><path class="bbb7e384-4c9b-4b6b-82ba-60f0c2866c8f" d="M149.58,46.42h4.81l0,1.78a7.18,7.18,0,0,1,5-2.06c2.78,0,4,1.46,4,3.93a10,10,0,0,1-.19,1.87l-2,10.15h-5.84l1.84-9.49a6.75,6.75,0,0,0,.13-1.09c0-.38-.16-.6-.53-.6-.66,0-2,1.07-2.91,2.75l-1.62,8.43h-5.84Z"/><path class="bbb7e384-4c9b-4b6b-82ba-60f0c2866c8f" d="M121,46.42h4.8l0,2c1.31-1.53,2.91-2.5,4.16-2.5a1.83,1.83,0,0,1,.93.22l-1,5.34a2.27,2.27,0,0,0-1-.22c-1.25,0-2.37.78-3.46,2.46l-1.6,8.4H118Z"/><path class="bbb7e384-4c9b-4b6b-82ba-60f0c2866c8f" d="M110.58,45.2h-5.33l.93-4.81h16.48l-.93,4.81h-5.25l-3.27,16.89h-5.9Z"/><path class="bbb7e384-4c9b-4b6b-82ba-60f0c2866c8f" d="M97.73,60.41a6.25,6.25,0,0,1-4.4,2c-2.65,0-4.5-1.59-4.5-4.93,0-7.65,4.5-11.3,8.59-11.3a5.06,5.06,0,0,1,3.09.87l.28-.59h4.81l-3,15.67H97.76Zm1.16-9.31a2,2,0,0,0-1.31-.4c-1.66,0-2.75,3.52-2.75,5.87,0,.78.28,1,.65,1,.66,0,1.72-1,2.63-2.6Z"/><path class="bbb7e384-4c9b-4b6b-82ba-60f0c2866c8f" d="M82.74,46.42h5.84l-3,15.67H79.71Zm7-4.81c-.44,2.34-1.19,3-3.68,3-1.91,0-2.66-.41-2.66-1.69a7.14,7.14,0,0,1,.13-1.34c.44-2.34,1.18-3,3.68-3,1.91,0,2.66.41,2.66,1.72A8.07,8.07,0,0,1,89.73,41.61Z"/><path class="bbb7e384-4c9b-4b6b-82ba-60f0c2866c8f" d="M72,60.41a6.25,6.25,0,0,1-4.4,2c-2.65,0-4.5-1.59-4.5-4.93,0-7.65,4.5-11.3,8.59-11.3a5.24,5.24,0,0,1,2.5.53l0,0A15,15,0,0,1,74.47,44l1-5h5.83l-4.46,23H72Zm1.16-9.31a2,2,0,0,0-1.31-.4c-1.66,0-2.75,3.52-2.75,5.87,0,.78.28,1,.65,1,.66,0,1.72-1,2.63-2.6Z"/><path class="bbb7e384-4c9b-4b6b-82ba-60f0c2866c8f" d="M60.25,61.65a21.39,21.39,0,0,1-5.93.79c-4.34,0-6.46-1.35-6.46-5.41a16.75,16.75,0,0,1,.21-2.59C49,48.57,52.57,46,57.13,46c3.49,0,5.65,1.65,5.65,4.4q0,6.09-9.18,6.09a3,3,0,0,0,0,.47c0,.72.53,1,1.78,1a18.94,18.94,0,0,0,4.81-.63ZM57.5,51.13c0-.47-.31-.75-.93-.75-1.25,0-1.88.82-2.25,2.38C56.38,52.79,57.5,52.29,57.5,51.13Z"/><path class="bbb7e384-4c9b-4b6b-82ba-60f0c2866c8f" d="M38.91,46.42h4.81l0,2c1.31-1.53,2.9-2.5,4.15-2.5a1.86,1.86,0,0,1,.94.22l-1,5.34a2.33,2.33,0,0,0-1-.22c-1.25,0-2.38.78-3.47,2.46l-1.59,8.4H35.88Z"/><path class="bbb7e384-4c9b-4b6b-82ba-60f0c2866c8f" d="M33.51,61.65a21.39,21.39,0,0,1-5.93.79c-4.34,0-6.46-1.35-6.46-5.41a16.75,16.75,0,0,1,.21-2.59c.91-5.87,4.5-8.49,9.06-8.49C33.88,46,36,47.6,36,50.35q0,6.09-9.18,6.09a3,3,0,0,0,0,.47c0,.72.53,1,1.78,1a18.94,18.94,0,0,0,4.81-.63ZM30.76,51.13c0-.47-.31-.75-.93-.75-1.25,0-1.88.82-2.25,2.38C29.64,52.79,30.76,52.29,30.76,51.13Z"/><path class="bbb7e384-4c9b-4b6b-82ba-60f0c2866c8f" d="M4.29,40.39h5.9L8.57,48.7h5.59l1.62-8.31h5.9l-4.21,21.7h-5.9l1.65-8.55H7.63L6,62.09H.08Z"/></g></g></svg>