<svg xmlns="http://www.w3.org/2000/svg" viewBox="0 0 177.62 126.84"><defs><style>.cls-1{fill:#fff;}</style></defs><g id="Capa_2" data-name="Capa 2"><g id="Capa_1-2" data-name="Capa 1"><path class="cls-1" d="M94.81,9.94A4.52,4.52,0,0,1,100,6.37c.15,0,.3.06.45.09l.07,0a9.45,9.45,0,0,1,3.84,1.93L106,0l23.45,4.43L125,27.69l-5.59-1.05A14.08,14.08,0,0,0,120,25l0-.19c0-.14.07-.29.1-.41a1,1,0,0,0,0-.16,6.5,6.5,0,0,0-12.76-2.46c0,.21-.08.41-.11.62l0,.21a11.31,11.31,0,0,0-.08,1.73l-5.61-1.05,1.61-8.41a9.41,9.41,0,0,1-4.28.39h-.08l-.45-.09A4.49,4.49,0,0,1,94.81,9.94Z"></path><path class="cls-1" d="M60.11,71.94a4.5,4.5,0,0,1-4.51-4.41c0-.15,0-.3,0-.45a.25.25,0,0,0,0-.08,9.15,9.15,0,0,1,1.19-4.1H48.18V39.21H56.8a9.15,9.15,0,0,1-1.19-4.1.22.22,0,0,0,0-.08c0-.15,0-.3,0-.46a4.51,4.51,0,0,1,9,0V35a.22.22,0,0,0,0,.08,9.28,9.28,0,0,1-1.19,4.1H72v5.65a12.16,12.16,0,0,0-1.74-.23l-.2,0h-.58a6.45,6.45,0,0,0-.06,12.9h.64l.21,0A13.37,13.37,0,0,0,72,57.25V62.9H63.42A9.28,9.28,0,0,1,64.61,67a.25.25,0,0,0,0,.08v.45A4.5,4.5,0,0,1,60.11,71.94Z"></path><path class="cls-1" d="M81.16,76.89a4.49,4.49,0,0,1-4.44,4.46c-.16,0-.31,0-.46,0h-.08a9.4,9.4,0,0,1-4.13-1.17v8.55H48.18V65h5.69a11.82,11.82,0,0,0-.24,1.73V67c0,.15,0,.3,0,.42a.81.81,0,0,0,0,.16,6.5,6.5,0,0,0,13,0c0-.21,0-.42,0-.63v-.21A10.64,10.64,0,0,0,66.34,65h5.71V73.6a9.41,9.41,0,0,1,4.13-1.18h.54A4.5,4.5,0,0,1,81.16,76.89Z"></path><path class="cls-1" d="M91.1,76.89a4.49,4.49,0,0,0,4.44,4.46c.16,0,.31,0,.46,0h.08a9.4,9.4,0,0,0,4.13-1.17v8.55h23.87V65h-5.7a10.6,10.6,0,0,1,.25,1.73V67c0,.15,0,.3,0,.42a.81.81,0,0,1,0,.16,6.5,6.5,0,0,1-13,0c0-.21,0-.42,0-.63v-.21a10.64,10.64,0,0,1,.25-1.72h-5.71V73.6a9.41,9.41,0,0,0-4.13-1.18h-.54A4.5,4.5,0,0,0,91.1,76.89Z"></path><path class="cls-1" d="M81.16,25.23a4.49,4.49,0,0,0-4.44-4.47c-.16,0-.31,0-.46,0h-.08A9.41,9.41,0,0,0,72.05,22V13.39H48.18V37.07h5.69a11.82,11.82,0,0,1-.24-1.73v-.19c0-.15,0-.3,0-.43a.66.66,0,0,1,0-.15,6.5,6.5,0,0,1,13-.06c0,.21,0,.43,0,.64v.21a10.35,10.35,0,0,1-.25,1.71h5.71V28.52a9.27,9.27,0,0,0,4.13,1.17h.08c.15,0,.3,0,.46,0A4.49,4.49,0,0,0,81.16,25.23Z"></path><path class="cls-1" d="M107.17,51.05a4.49,4.49,0,0,1-4.43,4.47h-.55a9.36,9.36,0,0,1-4.12-1.18v8.56h-5.7a15.85,15.85,0,0,0,.24-1.74V61c0-.15,0-.29,0-.42v-.16a6.51,6.51,0,0,0-13-.05c0,.21,0,.43,0,.63l0,.21a13.2,13.2,0,0,0,.24,1.72h-5.7V54.33a9.41,9.41,0,0,1-4.13,1.18h-.54a4.48,4.48,0,0,1,0-9h.54a9.54,9.54,0,0,1,4.13,1.18V39.2h5.7a13.76,13.76,0,0,0-.24,1.74l0,.2c0,.14,0,.29,0,.42v.16a6.5,6.5,0,0,0,13,0c0-.21,0-.42,0-.62v-.22a15.83,15.83,0,0,0-.24-1.72h5.7v8.56a9.49,9.49,0,0,1,4.12-1.18h.55A4.49,4.49,0,0,1,107.17,51.05Z"></path><path class="cls-1" d="M112.15,71.94a4.48,4.48,0,0,0,4.5-4.41c0-.15,0-.3,0-.45V67a9.28,9.28,0,0,0-1.19-4.1h8.62V39.21h-8.62a9.28,9.28,0,0,0,1.19-4.1V35c0-.15,0-.3,0-.46a4.51,4.51,0,0,0-9,0c0,.16,0,.31,0,.46a.22.22,0,0,1,0,.08,9.28,9.28,0,0,0,1.19,4.1h-8.62v5.65a12,12,0,0,1,1.74-.23l.2,0h.58a6.45,6.45,0,0,1,.06,12.9h-.64l-.22,0a13.45,13.45,0,0,1-1.72-.23V62.9h8.62a9.28,9.28,0,0,0-1.19,4.1.25.25,0,0,1,0,.08c0,.15,0,.3,0,.45A4.5,4.5,0,0,0,112.15,71.94Z"></path><path class="cls-1" d="M168,100.88h3.29l6.3,14.66h-3.45l-1.36-3.49h-6.42L165,115.54h-3.3Zm1.52,2.91-2.16,5.64h4.4Z"></path><path class="cls-1" d="M160.67,115.54h-3.25V100.88h3.25Z"></path><path class="cls-1" d="M141.83,100.88h6.76c2.38,0,4.14.61,5.27,1.85s1.7,3.14,1.7,5.74a9.35,9.35,0,0,1-.57,3.44,5.6,5.6,0,0,1-3.57,3.34,10.4,10.4,0,0,1-2.74.29h-6.85Zm6.7,2.55h-3.6V113h3.6a3.43,3.43,0,0,0,2.85-1,6.53,6.53,0,0,0,.78-3.75,6.53,6.53,0,0,0-.78-3.75A3.4,3.4,0,0,0,148.53,103.43Z"></path><path class="cls-1" d="M134.42,103.43a3.5,3.5,0,0,0-2.55.84,3.73,3.73,0,0,0-1,2.56h8.6v2.55H130.9a3.94,3.94,0,0,0,.82,2.76,3.64,3.64,0,0,0,2.7.84h5.1v2.55h-5.25a10.4,10.4,0,0,1-2.74-.29,5.6,5.6,0,0,1-3.57-3.34,9.35,9.35,0,0,1-.57-3.44q0-3.9,1.7-5.74c1.13-1.24,2.89-1.85,5.27-1.85h5.16v2.55Z"></path><path class="cls-1" d="M113.3,100.88H121a5.94,5.94,0,0,1,3.92,1.06,4.2,4.2,0,0,1,1.25,3.35,4.61,4.61,0,0,1-.77,2.75,3.48,3.48,0,0,1-2.22,1.37l3.69,6.13h-3.49l-3.26-5.77h-3.66v5.77H113.3Zm6.92,2.61h-3.81v3.69h3.81a4,4,0,0,0,2.15-.42,1.63,1.63,0,0,0,.6-1.43,1.61,1.61,0,0,0-.59-1.43A4.06,4.06,0,0,0,120.22,103.49Z"></path><path class="cls-1" d="M105.89,103.43a3.49,3.49,0,0,0-2.54.84,3.73,3.73,0,0,0-.95,2.56H111v2.55h-8.61a3.94,3.94,0,0,0,.82,2.76,3.61,3.61,0,0,0,2.69.84H111v2.55h-5.25a10.26,10.26,0,0,1-2.73-.29,5.6,5.6,0,0,1-3.57-3.34,9.35,9.35,0,0,1-.57-3.44q0-3.9,1.7-5.74c1.13-1.24,2.89-1.85,5.26-1.85H111v2.55Z"></path><path class="cls-1" d="M88.24,100.88v5.94h5.7v-5.94h3.11v14.66H93.94v-6.13h-5.7v6.13h-3.1V100.88Z"></path><path class="cls-1" d="M60.22,108.06q0-3.78,1.82-5.63t5.55-1.84q3.76,0,5.56,1.86c1.2,1.25,1.8,3.16,1.8,5.76s-.6,4.51-1.8,5.76-3.05,1.88-5.56,1.88S63.2,115.22,62,114,60.22,110.74,60.22,108.06Zm7.37-5a3.59,3.59,0,0,0-3,1.24,5.91,5.91,0,0,0-1,3.74,6.65,6.65,0,0,0,.95,4,4.23,4.23,0,0,0,6,0,8.07,8.07,0,0,0,0-7.71A3.61,3.61,0,0,0,67.59,103.1Z"></path><path class="cls-1" d="M46,100.88h6.75a16.37,16.37,0,0,1,2.72.17,4.57,4.57,0,0,1,1.62.55,4.16,4.16,0,0,1,1.52,1.68,5.14,5.14,0,0,1,.52,2.37,5.49,5.49,0,0,1-.42,2.26,3.75,3.75,0,0,1-1.29,1.56,4.72,4.72,0,0,1-1.66.73,14.43,14.43,0,0,1-2.88.21H49.12v5.13H46Zm6.71,2.61h-3.6v4.33h3.79a3.42,3.42,0,0,0,2.09-.53A2.38,2.38,0,0,0,55,104,4,4,0,0,0,52.72,103.49Z"></path><path class="cls-1" d="M33.75,100.88v8.77a4.24,4.24,0,0,0,.75,2.87,3.37,3.37,0,0,0,2.57.81,3.41,3.41,0,0,0,2.58-.8,4.32,4.32,0,0,0,.74-2.88v-8.77H43.5v8.85a11.76,11.76,0,0,1-.21,2.49,3.35,3.35,0,0,1-.66,1.46,5.19,5.19,0,0,1-2.22,1.53,9.77,9.77,0,0,1-3.34.49,9.81,9.81,0,0,1-3.34-.49,5.1,5.1,0,0,1-2.23-1.53,3.29,3.29,0,0,1-.65-1.42,12.54,12.54,0,0,1-.2-2.53v-8.85Z"></path><path class="cls-1" d="M16,100.88h7.65a6,6,0,0,1,3.92,1.06,4.2,4.2,0,0,1,1.25,3.35A4.61,4.61,0,0,1,28,108a3.51,3.51,0,0,1-2.22,1.37l3.69,6.13H26l-3.26-5.77H19.07v5.77H16Zm6.92,2.61H19.07v3.69h3.81a4,4,0,0,0,2.15-.42,2,2,0,0,0,0-2.86A4.06,4.06,0,0,0,22.88,103.49Z"></path><path class="cls-1" d="M6.3,109.43v-2.59h7.35v8.7H7a10.29,10.29,0,0,1-2.84-.3,5.59,5.59,0,0,1-1.86-1,5.47,5.47,0,0,1-1.7-2.34A9.35,9.35,0,0,1,0,108.47q0-3.89,1.7-5.74c1.14-1.24,2.89-1.85,5.27-1.85h6.68v2.52H7a3,3,0,0,0-2.67,1.18,6.54,6.54,0,0,0-.84,3.75,5.78,5.78,0,0,0,.83,3.48A3.18,3.18,0,0,0,7,112.89h3.49v-3.46Z"></path><path class="cls-1" d="M174,121.14h1.26l2.4,5.59H176.3l-.52-1.33h-2.45l-.5,1.33h-1.26Zm.58,1.11-.82,2.15h1.68Z"></path><path class="cls-1" d="M167.74,126.73H166.5v-5.59h1.24Z"></path><path class="cls-1" d="M157.34,121.14h2.92a2.27,2.27,0,0,1,1.49.4,1.59,1.59,0,0,1,.48,1.28,1.74,1.74,0,0,1-.3,1.05,1.32,1.32,0,0,1-.84.52l1.4,2.34h-1.33l-1.24-2.2h-1.4v2.2h-1.18Zm2.64,1h-1.46v1.41H160a1.51,1.51,0,0,0,.82-.16.63.63,0,0,0,.23-.55.62.62,0,0,0-.23-.54A1.46,1.46,0,0,0,160,122.13Z"></path><path class="cls-1" d="M150.36,122.12h-1.82v-1h4.87v1h-1.83v4.61h-1.22Z"></path><path class="cls-1" d="M144.61,122.13h-2.93a1.09,1.09,0,0,0-.69.18.64.64,0,0,0-.22.55.55.55,0,0,0,.19.46.87.87,0,0,0,.56.15h1.57a2,2,0,0,1,1.38.37,1.51,1.51,0,0,1,.41,1.21,1.56,1.56,0,0,1-.47,1.27,2.3,2.3,0,0,1-1.5.41h-3.15v-1h3a1.27,1.27,0,0,0,.71-.15.54.54,0,0,0,.21-.48.63.63,0,0,0-.19-.5,1.09,1.09,0,0,0-.65-.15h-1.4a2.22,2.22,0,0,1-1.43-.38,1.54,1.54,0,0,1-.45-1.22,1.61,1.61,0,0,1,.48-1.3,2.21,2.21,0,0,1,1.5-.41h3.1Z"></path><path class="cls-1" d="M131.71,121.14v3.34a1.65,1.65,0,0,0,.29,1.1,1.7,1.7,0,0,0,2,0,1.64,1.64,0,0,0,.28-1.1v-3.34h1.19v3.37a4.73,4.73,0,0,1-.08.95,1.32,1.32,0,0,1-.25.56,2,2,0,0,1-.85.58,4.34,4.34,0,0,1-2.54,0,2,2,0,0,1-.86-.58,1.34,1.34,0,0,1-.24-.54,4.74,4.74,0,0,1-.08-1v-3.37Z"></path><path class="cls-1" d="M121.19,121.14h2.58a2.61,2.61,0,0,1,2,.7,3.17,3.17,0,0,1,.64,2.19,3.63,3.63,0,0,1-.21,1.31,2.14,2.14,0,0,1-.65.9,2.1,2.1,0,0,1-.71.37,3.69,3.69,0,0,1-1,.12h-2.61Zm2.56,1h-1.38v3.64h1.38a1.29,1.29,0,0,0,1.08-.39,3.56,3.56,0,0,0,0-2.86A1.29,1.29,0,0,0,123.75,122.11Z"></path><path class="cls-1" d="M111.81,121.14h1.5l2.31,4-.06-4h1.21v5.59h-1.38L113,122.5l0,4.23h-1.21Z"></path><path class="cls-1" d="M107.38,126.73h-1.24v-5.59h1.24Z"></path><path class="cls-1" d="M93.3,122.11a1.35,1.35,0,0,0-1,.32,1.4,1.4,0,0,0-.36,1h3.27v1H92a1.5,1.5,0,0,0,.31,1.05,1.37,1.37,0,0,0,1,.32h1.94v1h-2a3.57,3.57,0,0,1-1-.12,2.1,2.1,0,0,1-.71-.37,2.06,2.06,0,0,1-.65-.9,3.62,3.62,0,0,1-.22-1.31,3.17,3.17,0,0,1,.65-2.19,2.6,2.6,0,0,1,2-.7h2v1Z"></path><path class="cls-1" d="M75,121.14h1.5l2.31,4-.06-4H80v5.59H78.6l-2.42-4.23.06,4.23H75Z"></path><path class="cls-1" d="M65.25,123.87a2.9,2.9,0,0,1,.7-2.14,2.85,2.85,0,0,1,2.11-.71,2.79,2.79,0,0,1,2.12.72,3,3,0,0,1,.69,2.19,3.07,3.07,0,0,1-.69,2.2,2.79,2.79,0,0,1-2.12.71,2.86,2.86,0,0,1-2.13-.71A3.21,3.21,0,0,1,65.25,123.87ZM68.06,122a1.35,1.35,0,0,0-1.13.48,2.19,2.19,0,0,0-.38,1.42,2.56,2.56,0,0,0,.36,1.52,1.62,1.62,0,0,0,2.3,0,3.11,3.11,0,0,0,0-2.94A1.36,1.36,0,0,0,68.06,122Z"></path><path class="cls-1" d="M61.11,126.73H59.87v-5.59h1.24Z"></path><path class="cls-1" d="M53.83,122.09a1.2,1.2,0,0,0-1.06.46,2.72,2.72,0,0,0-.32,1.53,2.07,2.07,0,0,0,.31,1.3,1.31,1.31,0,0,0,1.07.37h2v1h-2a3.57,3.57,0,0,1-1-.12,2.1,2.1,0,0,1-.71-.37,2.06,2.06,0,0,1-.65-.9,3.42,3.42,0,0,1-.22-1.31,3.17,3.17,0,0,1,.65-2.19,2.6,2.6,0,0,1,2-.7h2v1Z"></path><path class="cls-1" d="M44.2,121.14h1.26l2.4,5.59H46.54L46,125.4H43.58l-.51,1.33H41.82Zm.58,1.11L44,124.4h1.68Z"></path><path class="cls-1" d="M35.77,126.73l-2.46-5.59h1.35l1.69,4.16,1.74-4.16h1.26L37,126.73Z"></path><path class="cls-1" d="M24.44,123.87a2.9,2.9,0,0,1,.7-2.14,2.83,2.83,0,0,1,2.11-.71,2.8,2.8,0,0,1,2.12.72,3,3,0,0,1,.69,2.19,3.07,3.07,0,0,1-.69,2.2,2.8,2.8,0,0,1-2.12.71,2.86,2.86,0,0,1-2.13-.71A3.21,3.21,0,0,1,24.44,123.87ZM27.25,122a1.36,1.36,0,0,0-1.14.48,2.25,2.25,0,0,0-.37,1.42,2.56,2.56,0,0,0,.36,1.52,1.62,1.62,0,0,0,2.3,0,3.11,3.11,0,0,0,0-2.94A1.36,1.36,0,0,0,27.25,122Z"></path><path class="cls-1" d="M15.35,121.14h1.5l2.31,4-.06-4h1.21v5.59H18.94l-2.42-4.23.05,4.23H15.35Z"></path><path class="cls-1" d="M6,121.14H7.47l2.31,4-.06-4h1.21v5.59H9.56L7.14,122.5l.05,4.23H6Z"></path><path class="cls-1" d="M1.55,126.73H.31v-5.59H1.55Z"></path></g></g></svg>