<svg xmlns="http://www.w3.org/2000/svg" viewBox="0 0 236.12 45.12" style="width: 125px;"><defs><style>.a47a3534-c066-4d07-8386-d583f0c3713c{fill:#fff;}</style></defs><g id="fccfa4ee-1b2f-4e56-98b6-04ddbaa94b99" data-name="Capa 2"><g id="b6b6f55d-fc66-4520-a567-7e0660f68064" data-name="Capa 1"><path class="a47a3534-c066-4d07-8386-d583f0c3713c" d="M140.21,0a2.61,2.61,0,0,1,2.66,2.67,2.65,2.65,0,0,1-2.66,2.71,2.73,2.73,0,0,1-2.7-2.71A2.7,2.7,0,0,1,140.21,0Z"/><path class="a47a3534-c066-4d07-8386-d583f0c3713c" d="M175.28,19.15v4.57h-7.47V19.15Z"/><path class="a47a3534-c066-4d07-8386-d583f0c3713c" d="M226.7,32.13V11h2.36V14.7a6.9,6.9,0,0,1,2.53-3.17,7,7,0,0,1,4-1.06h.28V13h-.32a5.86,5.86,0,0,0-4.73,1.86,8.51,8.51,0,0,0-1.57,5.59V32.13Z"/><path class="a47a3534-c066-4d07-8386-d583f0c3713c" d="M207.42,22v.11a9.5,9.5,0,0,0,1.86,6.17,6.11,6.11,0,0,0,5,2.3,6.41,6.41,0,0,0,4.14-1.34,5.65,5.65,0,0,0,2-3.67h2.44a7.61,7.61,0,0,1-2.78,5.16,9.18,9.18,0,0,1-6,1.93,8.29,8.29,0,0,1-6.74-2.92c-1.63-1.94-2.44-4.65-2.44-8.1s.81-6.27,2.45-8.25a8.36,8.36,0,0,1,6.81-3,8.17,8.17,0,0,1,6.61,2.83q2.37,2.83,2.37,7.92V22Zm0-2,13.2,0a8.72,8.72,0,0,0-1.89-5.5,5.8,5.8,0,0,0-4.61-2,6,6,0,0,0-4.71,2A8.6,8.6,0,0,0,207.46,20.07Z"/><path class="a47a3534-c066-4d07-8386-d583f0c3713c" d="M178.67,32.13V2.86h2.68v12.7H198V2.86h2.72V32.13H198V18H181.35V32.13Z"/><path class="a47a3534-c066-4d07-8386-d583f0c3713c" d="M165.22,18h-4.46a4.44,4.44,0,0,0-1.41-3,5.22,5.22,0,0,0-7.23.8,9.6,9.6,0,0,0-1.36,5.59,9.43,9.43,0,0,0,1.35,5.51,4.49,4.49,0,0,0,3.91,1.9,4.7,4.7,0,0,0,3.3-1.16,5.39,5.39,0,0,0,1.56-3.35h4.4a8.93,8.93,0,0,1-2.89,6.27,10,10,0,0,1-6.83,2.27,8.58,8.58,0,0,1-6.94-3.06c-1.7-2-2.56-4.8-2.56-8.3s.89-6.38,2.65-8.41A9.14,9.14,0,0,1,156,10a9.63,9.63,0,0,1,6.53,2.13A7.94,7.94,0,0,1,165.22,18Z"/><path class="a47a3534-c066-4d07-8386-d583f0c3713c" d="M138,10.69h4.56V32.13H138Z"/><path class="a47a3534-c066-4d07-8386-d583f0c3713c" d="M127.19,4.79h4.51v5.9h3.57v3.38H131.7V26.68a2.31,2.31,0,0,0,.37,1.56,2,2,0,0,0,1.41.39l.47,0,.42,0,.9,0v3.62l-.46,0c-1.3.13-2.21.2-2.74.2a5.15,5.15,0,0,1-3.78-1.14c-.73-.75-1.1-2.1-1.1-4V14.07h-3V10.69h3Z"/><path class="a47a3534-c066-4d07-8386-d583f0c3713c" d="M122.37,16.91H118a3.09,3.09,0,0,0-1.27-2.42,5.42,5.42,0,0,0-3.25-.84,4.84,4.84,0,0,0-2.67.64,1.93,1.93,0,0,0-1,1.69,2,2,0,0,0,.8,1.63,7.35,7.35,0,0,0,2.81,1.09l2.72.61q3.94.92,5.4,2.33a5.33,5.33,0,0,1,1.46,4,6.26,6.26,0,0,1-2.44,5.28,10.89,10.89,0,0,1-6.82,1.89q-4.35,0-6.72-2a7,7,0,0,1-2.38-5.66H109a4,4,0,0,0,1.45,2.93,5.84,5.84,0,0,0,3.65,1,5.63,5.63,0,0,0,3.14-.77,2.37,2.37,0,0,0,1.16-2.07,1.88,1.88,0,0,0-.69-1.54,7.27,7.27,0,0,0-2.64-1.07l-3.22-.81a11.76,11.76,0,0,1-5.15-2.3,5,5,0,0,1-1.51-3.84,5.92,5.92,0,0,1,2.25-4.88A9.59,9.59,0,0,1,113.6,10a10,10,0,0,1,6.4,1.87A6.09,6.09,0,0,1,122.37,16.91Z"/><path class="a47a3534-c066-4d07-8386-d583f0c3713c" d="M96.74,29.29a9.32,9.32,0,0,1-3.16,2.61,8.74,8.74,0,0,1-3.94.92,7.17,7.17,0,0,1-5.07-1.69,6,6,0,0,1-1.84-4.66,6,6,0,0,1,2-4.9q2-1.63,7.12-2.3l.45-.06q4.31-.55,4.31-2.46a2.58,2.58,0,0,0-1.07-2.28,6,6,0,0,0-3.32-.74A5.09,5.09,0,0,0,89,14.6a3,3,0,0,0-1.11,2.51v.16h-4.3v-.36a6.1,6.1,0,0,1,2.35-5.06A10.1,10.1,0,0,1,92.35,10c2.85,0,5,.53,6.44,1.59A5.51,5.51,0,0,1,101,16.33V27a3,3,0,0,0,.29,1.61,1.21,1.21,0,0,0,1,.38h.31l.58-.05v3.32q-.61.15-1.2.24a8.74,8.74,0,0,1-1.12.07,4.87,4.87,0,0,1-3.06-.79A3,3,0,0,1,96.74,29.29Zm-.2-7.91A15.36,15.36,0,0,1,92,22.57l-1.67.28A4.34,4.34,0,0,0,88,24a2.91,2.91,0,0,0-.77,2.12,2.85,2.85,0,0,0,.91,2.27,3.76,3.76,0,0,0,2.58.81,6.2,6.2,0,0,0,4.18-1.43,4.63,4.63,0,0,0,1.67-3.66Z"/><path class="a47a3534-c066-4d07-8386-d583f0c3713c" d="M74.8,2.86h4.56V32.13H74.8Z"/><path class="a47a3534-c066-4d07-8386-d583f0c3713c" d="M50.21,2.86H61.33a23.91,23.91,0,0,1,4,.25,7.76,7.76,0,0,1,2.33.83,7.07,7.07,0,0,1,3,3.09,10.44,10.44,0,0,1,1,4.83A9.8,9.8,0,0,1,70.87,16a7.89,7.89,0,0,1-2.48,3,7.11,7.11,0,0,1-2.6,1.18,18.36,18.36,0,0,1-4.1.35H55.06V32.13H50.21ZM55.06,7.1v9.23h6.31c2,0,3.38-.35,4.21-1.07a4.39,4.39,0,0,0,1.26-3.52,4.48,4.48,0,0,0-1.25-3.52A5.76,5.76,0,0,0,61.65,7.1Z"/><path class="a47a3534-c066-4d07-8386-d583f0c3713c" d="M229.88,41.75a3.5,3.5,0,0,1,.84-2.46,3.3,3.3,0,0,1,4.55,0,4,4,0,0,1,0,4.92,3.3,3.3,0,0,1-4.55,0A3.5,3.5,0,0,1,229.88,41.75Zm1.34,0a2.52,2.52,0,0,0,.47,1.64A1.56,1.56,0,0,0,233,44a1.62,1.62,0,0,0,1.33-.58,3.1,3.1,0,0,0,0-3.28,1.62,1.62,0,0,0-1.33-.58,1.56,1.56,0,0,0-1.3.58A2.52,2.52,0,0,0,231.22,41.75Z"/><path class="a47a3534-c066-4d07-8386-d583f0c3713c" d="M222.44,44.94V38.55h2.5a2.85,2.85,0,0,1,2.2.79,3.49,3.49,0,0,1,.72,2.41,4.13,4.13,0,0,1-.27,1.55,2.66,2.66,0,0,1-.77,1.07,2.39,2.39,0,0,1-.87.44,5.36,5.36,0,0,1-1.36.13Zm1.29-1.15h1.05a1.66,1.66,0,0,0,1.33-.48,2.41,2.41,0,0,0,.41-1.56,2.63,2.63,0,0,0-.38-1.57,1.4,1.4,0,0,0-1.2-.51h-1.21Z"/><path class="a47a3534-c066-4d07-8386-d583f0c3713c" d="M216.66,38.55h1.52l2.3,6.39H219.1l-.43-1.31h-2.48l-.42,1.31h-1.38Zm.76,1.28-.88,2.72h1.77Z"/><path class="a47a3534-c066-4d07-8386-d583f0c3713c" d="M207.61,43h1.3a1.09,1.09,0,0,0,.43.78,1.76,1.76,0,0,0,1,.25,1.54,1.54,0,0,0,.86-.2.71.71,0,0,0,.29-.61c0-.39-.56-.71-1.67-1h0l-.13,0a4.29,4.29,0,0,1-1.28-.44,1.44,1.44,0,0,1-.51-.58,2,2,0,0,1-.18-.87,1.71,1.71,0,0,1,.63-1.43,2.91,2.91,0,0,1,1.83-.5,2.65,2.65,0,0,1,1.75.53,2,2,0,0,1,.67,1.5h-1.27a.92.92,0,0,0-.35-.71,1.51,1.51,0,0,0-.92-.24,1.3,1.3,0,0,0-.79.2.64.64,0,0,0-.28.57c0,.34.36.6,1.09.76l.46.11c.46.12.79.21,1,.28a4.11,4.11,0,0,1,.51.22,1.47,1.47,0,0,1,.58.58,1.72,1.72,0,0,1,.2.85,1.89,1.89,0,0,1-.68,1.55,2.86,2.86,0,0,1-1.89.55,2.94,2.94,0,0,1-1.89-.56A2.11,2.11,0,0,1,207.61,43Z"/><path class="a47a3534-c066-4d07-8386-d583f0c3713c" d="M202.24,38.55h1.52l2.3,6.39h-1.38l-.43-1.31h-2.48l-.42,1.31H200Zm.76,1.28-.88,2.72h1.77Z"/><path class="a47a3534-c066-4d07-8386-d583f0c3713c" d="M195.7,44.94l-2.2-6.39H195l1.36,4.78,1.38-4.78h1.44L197,44.94Z"/><path class="a47a3534-c066-4d07-8386-d583f0c3713c" d="M186.29,44.94V38.55h1.38l2.59,4.39V38.55h1.29v6.39H190.2l-2.61-4.39v4.39Z"/><path class="a47a3534-c066-4d07-8386-d583f0c3713c" d="M179.21,44.94V38.55h4.64v1.11H180.5V41h3.06v1.1H180.5v1.64H184v1.18Z"/><path class="a47a3534-c066-4d07-8386-d583f0c3713c" d="M165.71,44.94V38.55h2.5a2.81,2.81,0,0,1,2.19.79,3.49,3.49,0,0,1,.72,2.41,4.13,4.13,0,0,1-.27,1.55,2.48,2.48,0,0,1-.77,1.07,2.24,2.24,0,0,1-.87.44,5.31,5.31,0,0,1-1.36.13ZM167,43.79h1.06a1.64,1.64,0,0,0,1.32-.48,2.41,2.41,0,0,0,.41-1.56,2.63,2.63,0,0,0-.38-1.57,1.38,1.38,0,0,0-1.19-.51H167Z"/><path class="a47a3534-c066-4d07-8386-d583f0c3713c" d="M159.92,38.55h1.52l2.3,6.39h-1.38l-.43-1.31h-2.47L159,44.94h-1.39Zm.77,1.28-.89,2.72h1.77Z"/><path class="a47a3534-c066-4d07-8386-d583f0c3713c" d="M150.81,44.94V38.55h2.5a2.81,2.81,0,0,1,2.19.79,3.49,3.49,0,0,1,.72,2.41A4.34,4.34,0,0,1,156,43.3a2.59,2.59,0,0,1-.78,1.07,2.27,2.27,0,0,1-.86.44,5.45,5.45,0,0,1-1.37.13Zm1.29-1.15h1.05a1.64,1.64,0,0,0,1.32-.48,2.35,2.35,0,0,0,.41-1.56,2.56,2.56,0,0,0-.38-1.57,1.38,1.38,0,0,0-1.19-.51H152.1Z"/><path class="a47a3534-c066-4d07-8386-d583f0c3713c" d="M146.88,44.94V38.55h1.31v6.39Z"/><path class="a47a3534-c066-4d07-8386-d583f0c3713c" d="M140.43,44.94V38.55h1.31v5.21h3.12v1.18Z"/><path class="a47a3534-c066-4d07-8386-d583f0c3713c" d="M134.65,38.55h1.51l2.3,6.39h-1.37l-.44-1.31h-2.47l-.42,1.31h-1.38Zm.76,1.28-.88,2.72h1.77Z"/><path class="a47a3534-c066-4d07-8386-d583f0c3713c" d="M130.84,42.75a2.34,2.34,0,0,1-.83,1.73,3,3,0,0,1-2,.64,2.79,2.79,0,0,1-2.2-.89,3.57,3.57,0,0,1-.79-2.48,3.57,3.57,0,0,1,.8-2.5,3,3,0,0,1,2.31-.87,2.89,2.89,0,0,1,1.93.6,2.31,2.31,0,0,1,.78,1.69h-1.3a1.21,1.21,0,0,0-.44-.83,1.53,1.53,0,0,0-1-.29,1.6,1.6,0,0,0-1.32.56,2.58,2.58,0,0,0-.45,1.64,2.53,2.53,0,0,0,.45,1.61,1.52,1.52,0,0,0,1.27.57,1.48,1.48,0,0,0,1-.31,1.41,1.41,0,0,0,.5-.87Z"/><path class="a47a3534-c066-4d07-8386-d583f0c3713c" d="M103.13,41.75a3.5,3.5,0,0,1,.84-2.46,3.3,3.3,0,0,1,4.55,0,4,4,0,0,1,0,4.92,3.3,3.3,0,0,1-4.55,0A3.5,3.5,0,0,1,103.13,41.75Zm1.34,0a2.58,2.58,0,0,0,.46,1.64,1.78,1.78,0,0,0,2.63,0,3,3,0,0,0,0-3.28,1.78,1.78,0,0,0-2.63,0A2.58,2.58,0,0,0,104.47,41.75Z"/><path class="a47a3534-c066-4d07-8386-d583f0c3713c" d="M99.48,44.94V38.55h1.31v6.39Z"/><path class="a47a3534-c066-4d07-8386-d583f0c3713c" d="M97.16,42.75a2.38,2.38,0,0,1-.84,1.73,3,3,0,0,1-2,.64,2.81,2.81,0,0,1-2.21-.89,3.61,3.61,0,0,1-.78-2.48,3.53,3.53,0,0,1,.8-2.5,3,3,0,0,1,2.3-.87,2.88,2.88,0,0,1,1.93.6,2.28,2.28,0,0,1,.78,1.69H95.86a1.26,1.26,0,0,0-.45-.83,1.52,1.52,0,0,0-1-.29,1.6,1.6,0,0,0-1.31.56,2.58,2.58,0,0,0-.46,1.64,2.53,2.53,0,0,0,.45,1.61,1.54,1.54,0,0,0,1.28.57,1.49,1.49,0,0,0,1-.31,1.4,1.4,0,0,0,.49-.87Z"/><path class="a47a3534-c066-4d07-8386-d583f0c3713c" d="M111.68,44.94V38.55h1.37l2.6,4.39V38.55h1.29v6.39h-1.36L113,40.55v4.39Z"/><path class="a47a3534-c066-4d07-8386-d583f0c3713c" d="M86.07,38.55h1.52l2.3,6.39H88.51l-.43-1.31H85.6l-.42,1.31H83.8Zm.76,1.28L86,42.55h1.77Z"/><path class="a47a3534-c066-4d07-8386-d583f0c3713c" d="M79.52,44.94l-2.2-6.39h1.46l1.36,4.78,1.38-4.78H83l-2.18,6.39Z"/><path class="a47a3534-c066-4d07-8386-d583f0c3713c" d="M69.66,41.75a3.5,3.5,0,0,1,.85-2.46,3,3,0,0,1,2.27-.91,3,3,0,0,1,2.28.91,4,4,0,0,1,0,4.92,3,3,0,0,1-2.28.91,2.93,2.93,0,0,1-2.27-.91A3.5,3.5,0,0,1,69.66,41.75Zm1.34,0a2.58,2.58,0,0,0,.47,1.64,1.78,1.78,0,0,0,2.63,0,3.1,3.1,0,0,0,0-3.28,1.78,1.78,0,0,0-2.63,0A2.58,2.58,0,0,0,71,41.75Z"/><path class="a47a3534-c066-4d07-8386-d583f0c3713c" d="M62.09,44.94V38.55h1.37l2.59,4.39V38.55h1.3v6.39H66l-2.6-4.39v4.39Z"/><path class="a47a3534-c066-4d07-8386-d583f0c3713c" d="M54.24,44.94V38.55h1.37l2.59,4.39V38.55h1.3v6.39H58.14l-2.61-4.39v4.39Z"/><path class="a47a3534-c066-4d07-8386-d583f0c3713c" d="M50.31,44.94V38.55h1.31v6.39Z"/><path class="a47a3534-c066-4d07-8386-d583f0c3713c" d="M119.77,41.63a1.26,1.26,0,1,1,.37.92A1.27,1.27,0,0,1,119.77,41.63Z"/><path class="a47a3534-c066-4d07-8386-d583f0c3713c" d="M173.8,41.63a1.26,1.26,0,1,1,.37.92A1.27,1.27,0,0,1,173.8,41.63Z"/><path class="a47a3534-c066-4d07-8386-d583f0c3713c" d="M20.58,20.54c-2.91,1-3.93,3.47-3.58,5.14a14.49,14.49,0,0,1,6.32-3.47,14,14,0,0,1,4.18-.51,14,14,0,0,0-4,.61c-4.67,1.48-6.22,3.46-6.38,3.67,0,0,.08.08.08.09a4.81,4.81,0,0,0,7.2-.72c2.2-3,2.74-3.21,4.11-3.64h0C27.8,21.39,23.54,19.56,20.58,20.54ZM17,25.68c-1.11,1.35-1.65,3.1-.91,6.4l.92-.17S15.1,28.34,17.1,26A.45.45,0,0,1,17,25.68Z"/><path class="a47a3534-c066-4d07-8386-d583f0c3713c" d="M43.83,2.87V45H28.31c.74-.65.8-3,.8-3-1.2-.65,0-1,0-1V39.67c-1.26-.34,0-1,0-1v-.49s0,0,0,0v-.6h0v0c-.28-.1-.44-.21-.49-.33-.17-.32.52-.62.52-.62V35.5h0v0a1.16,1.16,0,0,1-.57-.37c-.18-.36.6-.63.6-.63V33.25s0,0,0,0h0a1.07,1.07,0,0,1-.55-.39c-.18-.38.58-.7.58-.7V31.08s0,0,0,0v0a1.1,1.1,0,0,1-.42-.31c-.27-.38.45-.61.45-.61V28.85h0v0a1.48,1.48,0,0,1-.38-.28c-.24-.37.41-.64.41-.64V26.73A3.65,3.65,0,0,0,28.47,25c-.18-.27-.35-.51-.44-.67a1.42,1.42,0,0,1,.51-1.85c.82-.65.55-2.57.55-2.57s0,0,0,0v0a.48.48,0,0,1-.2-.2c-.31-.45.22-.79.22-.79a11.06,11.06,0,0,0-.89-3.8l.14-.54A3.71,3.71,0,0,0,28,13.4s0,0,0,0A17.83,17.83,0,0,0,25.9,9.83l.17-.41c-.22-.4-2.44-3-2.44-3V5.71h.76V5.46h-.76V4.92h.47V3.55a.8.8,0,0,0-.87-.68Z"/><path class="a47a3534-c066-4d07-8386-d583f0c3713c" d="M19.75,4.92h.38v.54h-.69v.25h.69v.71s-2.2,2.6-2.42,3l.16.41s-2.26,2.95-2.42,4.71l.16.54a10.86,10.86,0,0,0-.9,3.78s0,0,0,0v0a.67.67,0,0,1,.22.21c.13.2.17.47-.23.78a4.78,4.78,0,0,0,.16,2s0,0,0,0,0,.05,0,.06a1.26,1.26,0,0,0,.35.49,1.64,1.64,0,0,1,.58.74,1.29,1.29,0,0,1-.09,1.08,5.49,5.49,0,0,0-1.11,2.34v1.17a.07.07,0,0,0,0,0v0a1,1,0,0,1,.38.28c.11.17.09.4-.42.64v1.26h0v0a1,1,0,0,1,.45.3c.09.15,0,.37-.49.62v1.08h0a1.38,1.38,0,0,1,.52.4c.11.2,0,.45-.56.69v1.23h0a1.47,1.47,0,0,1,.56.37c.09.18,0,.4-.6.63v1.09h0v0a1.35,1.35,0,0,1,.49.37c.09.17,0,.38-.53.58V38.7a2,2,0,0,1,.4.25s0,0,0,0a.41.41,0,0,1,.09.1h0s0,0,0,0c.07.18,0,.38-.55.52V41s1.22.36,0,1c0,0,.07,2.31.82,3H0V2.87H20.62a.8.8,0,0,0-.87.68Z"/></g></g></svg>