<svg xmlns="http://www.w3.org/2000/svg" viewBox="0 0 209.39 39.94"><defs><style>.cls-1-pl{fill:#0055b8;}.cls-2-pl{fill:#f09c22;}.cls-3-pl{fill:#004c32;}</style></defs><g id="Capa_2" data-name="Capa 2"><g id="Capa_1-2" data-name="Capa 1"><path class="cls-1-pl" d="M124.34,0a2.31,2.31,0,0,1,2.36,2.36,2.35,2.35,0,0,1-2.36,2.41,2.43,2.43,0,0,1-2.4-2.41A2.39,2.39,0,0,1,124.34,0Z"/><path class="cls-1-pl" d="M155.44,17V21h-6.63V17Z"/><path class="cls-2-pl" d="M201,28.44V9.74h2.1V13a6.07,6.07,0,0,1,2.24-2.82,6.33,6.33,0,0,1,3.53-.93h.24v2.27h-.28a5.18,5.18,0,0,0-4.19,1.65,7.45,7.45,0,0,0-1.4,4.94V28.44Z"/><path class="cls-2-pl" d="M183.94,19.51v.1a8.39,8.39,0,0,0,1.65,5.46,5.43,5.43,0,0,0,4.43,2,5.65,5.65,0,0,0,3.68-1.19,5,5,0,0,0,1.79-3.24h2.16a6.66,6.66,0,0,1-2.46,4.56A8.12,8.12,0,0,1,189.88,29a7.36,7.36,0,0,1-6-2.59,10.84,10.84,0,0,1-2.16-7.17q0-4.68,2.17-7.3a7.41,7.41,0,0,1,6-2.62,7.26,7.26,0,0,1,5.87,2.51,10.58,10.58,0,0,1,2.1,7v.73Zm0-1.75,11.71,0A7.67,7.67,0,0,0,194,12.92a5.12,5.12,0,0,0-4.08-1.77,5.33,5.33,0,0,0-4.18,1.8A7.59,7.59,0,0,0,184,17.76Z"/><path class="cls-2-pl" d="M158.44,28.44V2.53h2.38V13.77h14.8V2.53H178V28.44h-2.41V15.9h-14.8V28.44Z"/><path class="cls-1-pl" d="M146.52,15.93h-4a3.92,3.92,0,0,0-1.25-2.66,4.62,4.62,0,0,0-6.41.7,8.49,8.49,0,0,0-1.2,5,8.31,8.31,0,0,0,1.19,4.88,4,4,0,0,0,3.47,1.68,4.16,4.16,0,0,0,2.92-1,4.72,4.72,0,0,0,1.38-3h3.91A7.91,7.91,0,0,1,144,27a8.83,8.83,0,0,1-6.06,2,7.61,7.61,0,0,1-6.15-2.7A11.07,11.07,0,0,1,129.53,19a10.94,10.94,0,0,1,2.35-7.44,8.12,8.12,0,0,1,6.48-2.7,8.55,8.55,0,0,1,5.79,1.89A7,7,0,0,1,146.52,15.93Z"/><path class="cls-1-pl" d="M122.41,9.46h4v19h-4Z"/><path class="cls-1-pl" d="M112.79,4.24h4V9.46H120v3h-3.16V23.62a2.06,2.06,0,0,0,.33,1.38,1.73,1.73,0,0,0,1.25.34h.41a3.07,3.07,0,0,1,.38,0l.79,0v3.2l-.4,0c-1.15.12-2,.17-2.43.17a4.56,4.56,0,0,1-3.35-1,5.1,5.1,0,0,1-1-3.57V12.45h-2.7v-3h2.7Z"/><path class="cls-1-pl" d="M108.51,15h-3.9a2.76,2.76,0,0,0-1.13-2.15,4.86,4.86,0,0,0-2.88-.74,4.28,4.28,0,0,0-2.37.57,1.7,1.7,0,0,0-.87,1.49,1.76,1.76,0,0,0,.71,1.45,6.59,6.59,0,0,0,2.49,1l2.41.55a10.59,10.59,0,0,1,4.8,2,4.74,4.74,0,0,1,1.29,3.56,5.56,5.56,0,0,1-2.16,4.67,9.67,9.67,0,0,1-6.05,1.67,9.1,9.1,0,0,1-6-1.76,6.2,6.2,0,0,1-2.11-5H96.7A3.53,3.53,0,0,0,98,24.88a5.23,5.23,0,0,0,3.23.85,5,5,0,0,0,2.79-.68,2.08,2.08,0,0,0,1-1.83,1.68,1.68,0,0,0-.61-1.37,6.4,6.4,0,0,0-2.34-.94l-2.85-.72a10.45,10.45,0,0,1-4.57-2,4.38,4.38,0,0,1-1.34-3.39,5.23,5.23,0,0,1,2-4.32,8.5,8.5,0,0,1,5.43-1.59,8.88,8.88,0,0,1,5.67,1.66A5.39,5.39,0,0,1,108.51,15Z"/><path class="cls-1-pl" d="M85.78,25.92A8.07,8.07,0,0,1,83,28.24a7.79,7.79,0,0,1-3.5.81A6.36,6.36,0,0,1,75,27.56a5.33,5.33,0,0,1-1.63-4.13,5.33,5.33,0,0,1,1.74-4.34c1.16-1,3.26-1.64,6.31-2l.41,0c2.54-.33,3.81-1.06,3.81-2.18a2.28,2.28,0,0,0-1-2,5.27,5.27,0,0,0-2.93-.65,4.46,4.46,0,0,0-2.83.78,2.63,2.63,0,0,0-1,2.21v.14H74.13V15a5.4,5.4,0,0,1,2.08-4.48A9,9,0,0,1,81.9,8.85a9.58,9.58,0,0,1,5.7,1.41,4.88,4.88,0,0,1,1.93,4.2v9.41a2.6,2.6,0,0,0,.26,1.42,1.07,1.07,0,0,0,.9.33H91l.52-.05v2.94c-.36.09-.72.16-1.06.21a7,7,0,0,1-1,.07,4.33,4.33,0,0,1-2.71-.7A2.72,2.72,0,0,1,85.78,25.92Zm-.17-7a13.61,13.61,0,0,1-4,1.06l-1.48.25a3.82,3.82,0,0,0-2.09,1,2.58,2.58,0,0,0-.68,1.87,2.58,2.58,0,0,0,.8,2,3.39,3.39,0,0,0,2.29.71,5.46,5.46,0,0,0,3.71-1.27,4,4,0,0,0,1.48-3.23Z"/><path class="cls-1-pl" d="M66.33,2.53h4V28.44h-4Z"/><path class="cls-1-pl" d="M44.52,2.53h9.87a21.39,21.39,0,0,1,3.54.22A7,7,0,0,1,60,3.48a6.35,6.35,0,0,1,2.69,2.74,9.29,9.29,0,0,1,.91,4.28,8.75,8.75,0,0,1-.75,3.69,7,7,0,0,1-2.2,2.69,6.25,6.25,0,0,1-2.31,1,16.31,16.31,0,0,1-3.64.32H48.83v10.2H44.52Zm4.31,3.75v8.18h5.59a5.8,5.8,0,0,0,3.74-1,3.89,3.89,0,0,0,1.12-3.11,4,4,0,0,0-1.11-3.13,5.17,5.17,0,0,0-3.5-1Z"/><path class="cls-3-pl" d="M203.85,37a3.07,3.07,0,0,1,.75-2.18,3,3,0,0,1,4,0,3.53,3.53,0,0,1,0,4.35,2.92,2.92,0,0,1-4,0A3.06,3.06,0,0,1,203.85,37ZM205,37a2.26,2.26,0,0,0,.42,1.45,1.4,1.4,0,0,0,1.16.51,1.43,1.43,0,0,0,1.17-.51,2.26,2.26,0,0,0,.42-1.45,2.22,2.22,0,0,0-.42-1.45,1.58,1.58,0,0,0-2.33,0A2.27,2.27,0,0,0,205,37Z"/><path class="cls-3-pl" d="M197.26,39.78V34.12h2.22a2.51,2.51,0,0,1,1.94.7,3.08,3.08,0,0,1,.64,2.14,3.9,3.9,0,0,1-.23,1.37,2.32,2.32,0,0,1-.69,1,2,2,0,0,1-.77.38,4.75,4.75,0,0,1-1.21.12Zm1.14-1h.94a1.46,1.46,0,0,0,1.17-.42,2.15,2.15,0,0,0,.36-1.38,2.37,2.37,0,0,0-.33-1.4,1.27,1.27,0,0,0-1.06-.44H198.4Z"/><path class="cls-3-pl" d="M192.13,34.12h1.35l2,5.66H194.3l-.39-1.16h-2.19l-.37,1.16h-1.23Zm.68,1.14-.78,2.4h1.57Z"/><path class="cls-3-pl" d="M184.11,38h1.15a1,1,0,0,0,.38.69,1.55,1.55,0,0,0,.91.23,1.35,1.35,0,0,0,.77-.18.61.61,0,0,0,.25-.54c0-.34-.49-.62-1.48-.85h0l-.12,0a4,4,0,0,1-1.13-.39,1.29,1.29,0,0,1-.46-.52,1.82,1.82,0,0,1-.15-.77,1.48,1.48,0,0,1,.56-1.26,2.52,2.52,0,0,1,1.62-.44,2.3,2.3,0,0,1,1.55.47,1.71,1.71,0,0,1,.59,1.32H187.4a.82.82,0,0,0-.31-.63,1.35,1.35,0,0,0-.81-.21,1.2,1.2,0,0,0-.71.18.55.55,0,0,0-.25.5c0,.3.32.53,1,.68l.4.09c.42.11.71.19.88.25a2.1,2.1,0,0,1,.45.2,1.2,1.2,0,0,1,.52.5,1.55,1.55,0,0,1,.18.76,1.66,1.66,0,0,1-.6,1.37,2.57,2.57,0,0,1-1.68.49,2.61,2.61,0,0,1-1.68-.5A1.85,1.85,0,0,1,184.11,38Z"/><path class="cls-3-pl" d="M179.35,34.12h1.34l2,5.66h-1.22l-.38-1.16h-2.2l-.37,1.16h-1.23Zm.67,1.14-.78,2.4h1.57Z"/><path class="cls-3-pl" d="M173.54,39.78l-1.95-5.66h1.29l1.2,4.24,1.23-4.24h1.28l-1.93,5.66Z"/><path class="cls-3-pl" d="M165.2,39.78V34.12h1.22l2.3,3.89V34.12h1.15v5.66h-1.2l-2.32-3.89v3.89Z"/><path class="cls-3-pl" d="M158.92,39.78V34.12H163v1h-3v1.2h2.71v1h-2.71v1.46h3.1v1Z"/><path class="cls-3-pl" d="M147,39.78V34.12h2.22a2.54,2.54,0,0,1,1.94.7,3.08,3.08,0,0,1,.64,2.14,3.68,3.68,0,0,1-.24,1.37,2.3,2.3,0,0,1-.68,1,2.06,2.06,0,0,1-.77.38,4.75,4.75,0,0,1-1.21.12Zm1.14-1H149a1.49,1.49,0,0,0,1.18-.42,2.15,2.15,0,0,0,.36-1.38,2.29,2.29,0,0,0-.34-1.4,1.24,1.24,0,0,0-1.05-.44h-1.08Z"/><path class="cls-3-pl" d="M141.82,34.12h1.34l2,5.66H144l-.38-1.16h-2.2L141,39.78h-1.22Zm.68,1.14-.79,2.4h1.57Z"/><path class="cls-3-pl" d="M133.74,39.78V34.12H136a2.55,2.55,0,0,1,2,.7,3.13,3.13,0,0,1,.64,2.14,3.68,3.68,0,0,1-.24,1.37,2.32,2.32,0,0,1-.69,1,2,2,0,0,1-.76.38,4.75,4.75,0,0,1-1.21.12Zm1.14-1h.93a1.5,1.5,0,0,0,1.18-.42,2.15,2.15,0,0,0,.36-1.38,2.29,2.29,0,0,0-.34-1.4,1.26,1.26,0,0,0-1.06-.44h-1.07Z"/><path class="cls-3-pl" d="M130.25,39.78V34.12h1.16v5.66Z"/><path class="cls-3-pl" d="M124.53,39.78V34.12h1.17v4.62h2.76v1Z"/><path class="cls-3-pl" d="M119.4,34.12h1.35l2,5.66h-1.22l-.39-1.16H119l-.37,1.16h-1.23Zm.68,1.14-.78,2.4h1.57Z"/><path class="cls-3-pl" d="M116,37.84a2.09,2.09,0,0,1-.74,1.53,2.65,2.65,0,0,1-1.77.57,2.5,2.5,0,0,1-2-.78,3.24,3.24,0,0,1-.69-2.2,3.14,3.14,0,0,1,.71-2.22,2.63,2.63,0,0,1,2-.76,2.55,2.55,0,0,1,1.71.52A2,2,0,0,1,116,36h-1.14a1.11,1.11,0,0,0-.4-.74,1.4,1.4,0,0,0-.86-.25,1.43,1.43,0,0,0-1.17.5,2.3,2.3,0,0,0-.4,1.45,2.26,2.26,0,0,0,.4,1.42,1.35,1.35,0,0,0,1.13.51,1.33,1.33,0,0,0,.87-.27,1.29,1.29,0,0,0,.44-.78Z"/><path class="cls-3-pl" d="M91.45,37a3.07,3.07,0,0,1,.75-2.18,2.94,2.94,0,0,1,4,0,3.49,3.49,0,0,1,0,4.35,2.91,2.91,0,0,1-4,0A3.06,3.06,0,0,1,91.45,37Zm1.19,0a2.26,2.26,0,0,0,.42,1.45,1.4,1.4,0,0,0,1.16.51,1.43,1.43,0,0,0,1.17-.51A2.26,2.26,0,0,0,95.81,37a2.22,2.22,0,0,0-.42-1.45,1.58,1.58,0,0,0-2.33,0A2.27,2.27,0,0,0,92.64,37Z"/><path class="cls-3-pl" d="M88.22,39.78V34.12h1.16v5.66Z"/><path class="cls-3-pl" d="M86.16,37.84a2.09,2.09,0,0,1-.74,1.53,2.67,2.67,0,0,1-1.77.57,2.5,2.5,0,0,1-2-.78A3.24,3.24,0,0,1,81,37a3.14,3.14,0,0,1,.71-2.22,2.63,2.63,0,0,1,2-.76,2.59,2.59,0,0,1,1.71.52,2,2,0,0,1,.69,1.5H85a1.1,1.1,0,0,0-.39-.74,1.4,1.4,0,0,0-.86-.25,1.43,1.43,0,0,0-1.17.5,2.3,2.3,0,0,0-.4,1.45,2.26,2.26,0,0,0,.4,1.42,1.35,1.35,0,0,0,1.13.51,1.33,1.33,0,0,0,.87-.27,1.29,1.29,0,0,0,.44-.78Z"/><path class="cls-3-pl" d="M99,39.78V34.12h1.22L102.55,38V34.12h1.15v5.66h-1.2l-2.31-3.89v3.89Z"/><path class="cls-3-pl" d="M76.33,34.12h1.34l2,5.66H78.49l-.38-1.16h-2.2l-.37,1.16H74.31ZM77,35.26l-.78,2.4h1.57Z"/><path class="cls-3-pl" d="M70.52,39.78l-2-5.66h1.29l1.2,4.24,1.23-4.24h1.28l-1.93,5.66Z"/><path class="cls-3-pl" d="M61.78,37a3.07,3.07,0,0,1,.75-2.18,2.94,2.94,0,0,1,4,0,3.53,3.53,0,0,1,0,4.35,2.91,2.91,0,0,1-4,0A3.06,3.06,0,0,1,61.78,37ZM63,37a2.25,2.25,0,0,0,.41,1.45,1.41,1.41,0,0,0,1.16.51,1.43,1.43,0,0,0,1.17-.51A2.26,2.26,0,0,0,66.13,37a2.22,2.22,0,0,0-.42-1.45,1.58,1.58,0,0,0-2.33,0A2.27,2.27,0,0,0,63,37Z"/><path class="cls-3-pl" d="M55.06,39.78V34.12h1.22L58.58,38V34.12h1.15v5.66H58.52l-2.31-3.89v3.89Z"/><path class="cls-3-pl" d="M48.1,39.78V34.12h1.22L51.61,38V34.12h1.15v5.66h-1.2l-2.31-3.89v3.89Z"/><path class="cls-3-pl" d="M44.61,39.78V34.12h1.16v5.66Z"/><path class="cls-3-pl" d="M106.21,36.85a1.07,1.07,0,0,1,.34-.8,1.13,1.13,0,0,1,1.6,0,1.07,1.07,0,0,1,.34.8,1.13,1.13,0,0,1-.34.81,1.14,1.14,0,0,1-1.94-.81Z"/><path class="cls-3-pl" d="M154.13,36.85A1.13,1.13,0,1,1,155.26,38a1.08,1.08,0,0,1-.8-.33A1.1,1.1,0,0,1,154.13,36.85Z"/><path class="cls-3-pl" d="M18.25,18.18c-2.58.85-3.49,3.07-3.17,4.55a12.81,12.81,0,0,1,5.6-3.07,12.37,12.37,0,0,1,3.7-.45,12.64,12.64,0,0,0-3.58.54c-4.13,1.31-5.51,3.06-5.66,3.25l.08.07a4.26,4.26,0,0,0,6.38-.63c2-2.64,2.43-2.84,3.65-3.22h0C24.65,18.94,20.87,17.32,18.25,18.18Zm-3.17,4.55c-1,1.2-1.46,2.75-.81,5.67l.81-.15s-1.69-3.17.08-5.26A.35.35,0,0,1,15.08,22.73Z"/><path class="cls-2-pl" d="M38.87,2.54V39.81H25.1c.66-.57.71-2.61.71-2.61-1.06-.58,0-.9,0-.9V35.11c-1.11-.3,0-.86,0-.86v-.43s0,0,0,0v-.53h0v0c-.24-.09-.39-.19-.43-.29-.15-.29.46-.56.46-.56v-1h0v0a1,1,0,0,1-.5-.33c-.16-.31.53-.55.53-.55V29.43h0v0a.88.88,0,0,1-.48-.34c-.16-.34.51-.62.51-.62v-.93h0v0a1.1,1.1,0,0,1-.37-.28c-.24-.34.4-.54.4-.54V25.54h0v0a1.11,1.11,0,0,1-.34-.25c-.21-.33.37-.57.37-.57v-1a3.27,3.27,0,0,0-.59-1.49c-.16-.24-.31-.46-.39-.6a1.25,1.25,0,0,1,.45-1.64c.73-.57.49-2.27.49-2.27s0,0,0,0v0a.44.44,0,0,1-.18-.18c-.27-.4.2-.7.2-.7A9.69,9.69,0,0,0,25,13.38l.12-.48a3.14,3.14,0,0,0-.27-1s0,0,0,0A15.92,15.92,0,0,0,23,8.7l.15-.36C22.92,8,21,5.68,21,5.68V5.05h.68V4.84H21V4.36h.42V3.14a.7.7,0,0,0-.77-.6Z"/><path class="cls-1-pl" d="M17.51,4.36h.34v.48h-.61v.21h.61v.63S15.9,8,15.7,8.34l.15.36s-2,2.62-2.15,4.17l.15.48A9.49,9.49,0,0,0,13,16.7s0,0,0,0v0a.6.6,0,0,1,.19.18c.11.18.15.42-.21.7a4.3,4.3,0,0,0,.15,1.79.08.08,0,0,1,0,0l0,.05a1.06,1.06,0,0,0,.31.43,1.57,1.57,0,0,1,.52.66,1.17,1.17,0,0,1-.08,1,4.82,4.82,0,0,0-1,2.07v1l0,0v0a.81.81,0,0,1,.34.26c.1.15.08.35-.37.56v1.12h0v0a.88.88,0,0,1,.41.27c.08.13,0,.32-.44.55v1h0a1.36,1.36,0,0,1,.47.36c.1.17,0,.39-.5.6v1.09h0v0a1.18,1.18,0,0,1,.5.32c.09.16,0,.36-.53.56v1h0a1.26,1.26,0,0,1,.44.33c.08.15,0,.34-.47.52v1a2.66,2.66,0,0,1,.36.23s0,0,0,0a.17.17,0,0,1,.08.09h0a0,0,0,0,0,0,0c.06.15,0,.33-.49.45V36.3s1.08.32,0,.9c0,0,.07,2,.73,2.61H0V2.54H18.29a.71.71,0,0,0-.78.6Z"/></g></g></svg>